<?xml version="1.0" standalone="no"?><!DOCTYPE svg PUBLIC "-//W3C//DTD SVG 1.1//EN" "http://www.w3.org/Graphics/SVG/1.1/DTD/svg11.dtd" ><svg xmlns="http://www.w3.org/2000/svg"><metadata></metadata><defs><font id="Ascender - Droid Serif Italic" horiz-adv-x="2630"><font-face font-family="Droid Serif" font-weight="400" font-stretch="normal" units-per-em="2048" panose-1="2 2 6 0 6 5 0 9 2 0" ascent="1901" descent="-483" x-height="0" bbox="-1020 -571 2537 2146" underline-thickness="102" underline-position="-154" unicode-range="U+0020-fffd" /><missing-glyph horiz-adv-x="1229" d="M193 1462 l841 0 l0 -1462 l-841 0 l0 1462 ZM297 104 l633 0 l0 1254 l-633 0 l0 -1254 Z" /><glyph glyph-name="space" unicode=" " d="" /><glyph glyph-name="exclam" unicode="!" d="M410 1462 l237 0 l-295 -1050 l-94 0 l152 1050 ZM250 -16 q-127 0 -127 125 q0 71 36.5 114 q36.5 43 98.5 43 q127 0 127 -125 q0 -73 -36.5 -115 q-36.5 -42 -98.5 -42 Z" /><glyph glyph-name="quotedbl" unicode="&quot;" d="M694 1462 l217 0 l-163 -481 l-95 0 l41 481 ZM309 1462 l217 0 l-164 -481 l-94 0 l41 481 Z" /><glyph glyph-name="numbersign" unicode="#" d="M1038 537 l-14 -121 l-258 0 l-121 -416 l-123 0 l121 416 l-285 0 l-120 -416 l-123 0 l121 416 l-168 0 l14 121 l190 0 l119 401 l-244 0 l13 121 l266 0 l117 403 l125 0 l-119 -403 l285 0 l118 403 l123 0 l-119 -403 l160 0 l-12 -121 l-182 0 l-117 -401 l233 0 ZM397 537 l285 0 l117 401 l-285 0 l-117 -401 Z" /><glyph glyph-name="dollar" unicode="$" d="M412 76 q-170 12 -266.5 88 q-96.5 76 -96.5 188 q0 77 50.5 122.5 q50.5 45.5 107.5 45.5 q0 -135 60.5 -227.5 q60.5 -92.5 164.5 -114.5 l107 502 q-271 135 -271 350 q0 167 111.5 264 q111.5 97 314.5 107 l33 155 l102 0 l-32 -155 q295 -26 295 -205 q0 -141 -166 -141 q0 220 -150 254 l-104 -492 l22 -12 q185 -101 235 -174 q50 -73 50 -162 q0 -168 -123.5 -275 q-123.5 -107 -343.5 -120 l-49 -236 l-103 0 l52 238 ZM580 864 l94 447 q-215 -36 -215 -252 q0 -119 121 -195 ZM633 635 l-98 -461 q116 10 182.5 79 q66.5 69 66.5 171 q0 132 -151 211 Z" /><glyph glyph-name="percent" unicode="%" d="M565 1481 q273 0 273 -326 q0 -207 -120.5 -393.5 q-120.5 -186.5 -318.5 -186.5 q-125 0 -194.5 83.5 q-69.5 83.5 -69.5 242.5 q0 216 118 398 q118 182 312 182 ZM297 870 q0 -211 111 -211 q111 0 185.5 177.5 q74.5 177.5 74.5 351.5 q0 211 -111 211 q-111 0 -185.5 -177 q-74.5 -177 -74.5 -352 ZM494 0 l-152 0 l1028 1462 l143 0 l-1019 -1462 ZM1470 889 q273 0 273 -326 q0 -207 -120.5 -393 q-120.5 -186 -317.5 -186 q-265 0 -265 325 q0 216 118 398 q118 182 312 182 ZM1202 279 q0 -211 111 -211 q111 0 185.5 176.5 q74.5 176.5 74.5 351.5 q0 211 -111 211 q-111 0 -185.5 -176.5 q-74.5 -176.5 -74.5 -351.5 Z" /><glyph glyph-name="ampersand" unicode="&amp;" d="M1096 0 l-123 170 q-185 -190 -453 -190 q-211 0 -329.5 104.5 q-118.5 104.5 -118.5 277.5 q0 159 96 269 q96 110 334 198 q-99 167 -99 301 q0 170 111.5 261.5 q111.5 91.5 325.5 91.5 q166 0 256 -72 q90 -72 90 -194 q0 -133 -75 -215 q-75 -82 -372 -189 l287 -393 q87 164 129 362 l16 80 l369 0 l-18 -86 l-19 0 q-102 0 -148 -30.5 q-46 -30.5 -66.5 -59 q-20.5 -28.5 -102.5 -199.5 q-39 -81 -90 -161 l112 -154 q63 -86 201 -86 l18 0 l-18 -86 l-313 0 ZM682 895 q173 65 245 130.5 q72 65.5 72 176.5 q0 81 -47.5 130.5 q-47.5 49.5 -126.5 49.5 q-225 0 -225 -237 q0 -114 82 -250 ZM909 258 l-348 483 q-160 -73 -223.5 -155.5 q-63.5 -82.5 -63.5 -218.5 q0 -119 71.5 -196 q71.5 -77 195.5 -77 q212 0 368 164 Z" /><glyph glyph-name="quotesingle" unicode="&#39;" d="M301 1462 l217 0 l-164 -481 l-94 0 l41 481 Z" /><glyph glyph-name="parenleft" unicode="(" d="M469 -168 l-20 -94 q-363 159 -363 643 q0 413 198.5 746 q198.5 333 551.5 429 l-21 -92 q-283 -154 -409.5 -517.5 q-126.5 -363.5 -126.5 -661.5 q0 -321 190 -453 Z" /><glyph glyph-name="parenright" unicode=")" d="M266 1446 l21 94 q362 -158 362 -643 q0 -415 -200 -748.5 q-200 -333.5 -549 -427.5 l20 93 q284 153 410.5 519.5 q126.5 366.5 126.5 659.5 q0 320 -191 453 Z" /><glyph glyph-name="asterisk" unicode="*" d="M281 1354 l104 143 l266 -260 l17 330 l174 -37 l-123 -305 l350 123 l37 -172 l-361 -27 l318 -170 l-102 -139 l-271 252 l-12 -328 l-174 37 l119 305 l-349 -125 l-36 172 l358 29 l-315 172 Z" /><glyph glyph-name="plus" unicode="+" d="M649 672 l0 -379 l-123 0 l0 379 l-376 0 l0 121 l376 0 l0 378 l123 0 l0 -378 l379 0 l0 -121 l-379 0 Z" /><glyph glyph-name="comma" unicode="," d="M-57 -299 l8 86 q209 47 209 172 q0 36 -66 78 q-67 42 -67 104 q0 55 35 88 q35 33 92 33 q69 0 114 -45.5 q45 -45.5 45 -122.5 q0 -150 -95 -253.5 q-95 -103.5 -275 -139.5 Z" /><glyph glyph-name="hyphen" unicode="-" d="M29 481 l32 154 l533 0 l-33 -154 l-532 0 Z" /><glyph glyph-name="period" unicode="." d="M217 -16 q-127 0 -127 125 q0 71 36.5 114 q36.5 43 98.5 43 q127 0 127 -125 q0 -72 -36.5 -114.5 q-36.5 -42.5 -98.5 -42.5 Z" /><glyph glyph-name="slash" unicode="/" d="M-61 -248 l-129 0 l841 1804 l129 0 l-841 -1804 Z" /><glyph glyph-name="zero" unicode="0" d="M696 1485 q180 0 284.5 -123 q104.5 -123 104.5 -346 q0 -394 -167 -716.5 q-167 -322.5 -441 -322.5 q-183 0 -289 131 q-106 131 -106 365 q0 394 170 703 q170 309 444 309 ZM494 90 q178 0 285.5 295.5 q107.5 295.5 107.5 669.5 q0 319 -211 319 q-179 0 -287 -297 q-108 -297 -108 -663 q0 -324 213 -324 Z" /><glyph glyph-name="one" unicode="1" d="M872 1470 l-264 -1245 q-8 -38 -8 -57 q0 -82 148 -82 l110 0 l-18 -86 l-762 0 l16 86 l109 0 q97 0 141 36.5 q44 36.5 59 110.5 l160 754 q35 164 76 322 l-8 0 q-129 -127 -192 -170 q-63 -43 -117 -43 q-82 0 -82 110 q140 34 335 158 l166 106 l131 0 Z" /><glyph glyph-name="two" unicode="2" d="M-35 0 l43 166 l481 434 q191 172 268 298 q77 126 77 276 q0 95 -51 150.5 q-51 55.5 -138 55.5 q-236 0 -291 -309 q-145 0 -145 131 q0 114 123.5 197.5 q123.5 83.5 322.5 83.5 q185 0 286 -78 q101 -78 101 -221 q0 -122 -87 -251.5 q-87 -129.5 -339 -354.5 l-460 -414 l475 0 q67 0 114.5 30.5 q47.5 30.5 88.5 122.5 l14 33 l86 0 l-82 -350 l-887 0 Z" /><glyph glyph-name="three" unicode="3" d="M362 705 l21 104 l66 0 q174 0 286.5 107 q112.5 107 112.5 278 q0 186 -174 186 q-228 0 -291 -305 q-152 0 -152 131 q0 119 127.5 198 q127.5 79 323.5 79 q174 0 275.5 -79 q101.5 -79 101.5 -214 q0 -156 -110.5 -271 q-110.5 -115 -301.5 -149 q147 -15 227 -98.5 q80 -83.5 80 -210.5 q0 -231 -159.5 -356 q-159.5 -125 -403.5 -125 q-197 0 -297 58.5 q-100 58.5 -100 156.5 q0 68 43 109.5 q43 41.5 113 41.5 q0 -112 67 -183 q67 -71 189 -71 q146 0 239.5 93 q93.5 93 93.5 253 q0 127 -75.5 197 q-75.5 70 -212.5 70 l-89 0 Z" /><glyph glyph-name="four" unicode="4" d="M262 0 l17 86 l90 0 q97 0 141 36.5 q44 36.5 59 110.5 l33 168 l-631 0 l19 84 l839 977 l197 0 l-203 -946 l254 0 l-24 -115 l-254 0 l-35 -176 q-8 -40 -8 -57 q0 -82 147 -82 l47 0 l-18 -86 l-670 0 ZM707 899 q49 232 100 397 q-85 -129 -180 -235 l-465 -545 l465 0 l80 383 Z" /><glyph glyph-name="five" unicode="5" d="M258 717 l-70 14 l220 731 l684 0 l-56 -309 l-86 0 q6 78 6 96 q0 49 -94 49 l-397 0 l-135 -456 q99 32 196 32 q202 0 316 -100 q114 -100 114 -276 q0 -228 -159.5 -373 q-159.5 -145 -421.5 -145 q-359 0 -359 204 q0 127 154 127 q7 -219 223 -219 q165 0 257.5 103 q92.5 103 92.5 288 q0 132 -71.5 205.5 q-71.5 73.5 -190.5 73.5 q-110 0 -223 -45 Z" /><glyph glyph-name="six" unicode="6" d="M360 782 q152 107 302 107 q162 0 254 -97.5 q92 -97.5 92 -261.5 q0 -238 -134.5 -394 q-134.5 -156 -365.5 -156 q-173 0 -279 131.5 q-106 131.5 -106 363.5 q0 413 198.5 710.5 q198.5 297.5 501.5 297.5 q146 0 230 -53 q84 -53 84 -132 q0 -153 -179 -153 q0 139 -35 189 q-35 50 -104 50 q-308 0 -459 -602 ZM338 666 q-29 -164 -29 -267 q0 -307 211 -307 q124 0 204.5 120 q80.5 120 80.5 306 q0 266 -184 266 q-137 0 -283 -118 Z" /><glyph glyph-name="seven" unicode="7" d="M221 0 l758 1298 l-539 0 q-112 0 -141 -104 l-29 -102 l-86 0 l88 370 l916 0 l-12 -59 l-801 -1403 l-154 0 Z" /><glyph glyph-name="eight" unicode="8" d="M426 748 q-201 144 -201 339 q0 187 126.5 291.5 q126.5 104.5 363.5 104.5 q174 0 275.5 -82.5 q101.5 -82.5 101.5 -216.5 q0 -132 -80.5 -227.5 q-80.5 -95.5 -276.5 -176.5 q260 -151 260 -366 q0 -209 -145 -321.5 q-145 -112.5 -395 -112.5 q-198 0 -316.5 98 q-118.5 98 -118.5 254 q0 142 90 238 q90 96 316 178 ZM637 829 q272 116 272 340 q0 100 -56 155.5 q-56 55.5 -155 55.5 q-125 0 -200.5 -74 q-75.5 -74 -75.5 -196 q0 -165 215 -281 ZM520 694 q-303 -111 -303 -366 q0 -115 71 -181.5 q71 -66.5 193 -66.5 q144 0 232 76 q88 76 88 209 q0 106 -68 181.5 q-68 75.5 -213 147.5 Z" /><glyph glyph-name="nine" unicode="9" d="M809 702 q-134 -139 -313 -139 q-159 0 -252.5 93 q-93.5 93 -93.5 247 q0 250 157.5 415 q157.5 165 382.5 165 q173 0 274 -106 q101 -106 101 -298 q0 -394 -188 -746.5 q-188 -352.5 -519 -352.5 q-286 0 -286 184 q0 51 32 85 q32 34 89 34 q4 -93 52.5 -148 q48.5 -55 129.5 -55 q142 0 243.5 145.5 q101.5 145.5 190.5 476.5 ZM842 850 q32 133 32 242 q0 278 -190 278 q-135 0 -232.5 -144 q-97.5 -144 -97.5 -329 q0 -109 52.5 -165 q52.5 -56 140.5 -56 q164 0 295 174 Z" /><glyph glyph-name="colon" unicode=":" d="M377 825 q-127 0 -127 125 q0 71 36.5 114.5 q36.5 43.5 98.5 43.5 q127 0 127 -125 q0 -74 -36.5 -116 q-36.5 -42 -98.5 -42 ZM193 -16 q-127 0 -127 125 q0 71 36.5 114 q36.5 43 98.5 43 q60 0 93.5 -34 q33.5 -34 33.5 -91 q0 -73 -36.5 -115 q-36.5 -42 -98.5 -42 Z" /><glyph glyph-name="semicolon" unicode=";" d="M381 825 q-127 0 -127 125 q0 71 36.5 114.5 q36.5 43.5 98.5 43.5 q127 0 127 -125 q0 -74 -36.5 -116 q-36.5 -42 -98.5 -42 ZM37 -299 l8 86 q209 47 209 172 q0 36 -66 78 q-67 42 -67 104 q0 55 35 88 q35 33 92 33 q69 0 114.5 -46.5 q45.5 -46.5 45.5 -121.5 q0 -151 -96.5 -254 q-96.5 -103 -274.5 -139 Z" /><glyph glyph-name="less" unicode="&lt;" d="M150 696 l0 72 l878 473 l0 -137 l-688 -373 l688 -369 l0 -137 l-878 471 Z" /><glyph glyph-name="equal" unicode="=" d="M1028 993 l0 -121 l-878 0 l0 121 l878 0 ZM1028 590 l0 -121 l-878 0 l0 121 l878 0 Z" /><glyph glyph-name="greater" unicode="&gt;" d="M150 225 l0 137 l688 369 l-688 373 l0 137 l878 -473 l0 -72 l-878 -471 Z" /><glyph glyph-name="question" unicode="?" d="M565 649 l-51 -237 l-125 0 l64 303 q415 154 415 444 q0 100 -54 160.5 q-54 60.5 -144 60.5 q-211 0 -254 -290 q-148 0 -148 122 q0 114 114.5 192.5 q114.5 78.5 299.5 78.5 q387 0 387 -340 q0 -311 -504 -494 ZM406 -16 q-127 0 -127 125 q0 71 36.5 114 q36.5 43 98.5 43 q60 0 93.5 -34 q33.5 -34 33.5 -91 q0 -73 -36.5 -115 q-36.5 -42 -98.5 -42 Z" /><glyph glyph-name="at" unicode="@" d="M1135 344 l-11 0 q-97 -186 -276 -186 q-139 0 -225 93 q-86 93 -86 257 q0 218 141 396.5 q141 178.5 381 178.5 q114 0 192 -61 l82 43 l49 0 l-104 -522 q-14 -70 -14 -137 q0 -63 33.5 -101.5 q33.5 -38.5 91.5 -38.5 q101 0 182.5 152.5 q81.5 152.5 81.5 390.5 q0 255 -156 402 q-156 147 -424 147 q-318 0 -548 -255.5 q-230 -255.5 -230 -651.5 q0 -305 163 -470 q163 -165 447 -165 q282 0 520 170 l48 -74 q-275 -203 -588 -203 q-352 0 -552 194.5 q-200 194.5 -200 542.5 q0 439 270 727.5 q270 288.5 682 288.5 q322 0 507.5 -179.5 q185.5 -179.5 185.5 -479.5 q0 -278 -124.5 -461.5 q-124.5 -183.5 -277.5 -183.5 q-178 0 -241 186 ZM1182 938 q-29 61 -115 61 q-154 0 -247 -168 q-93 -168 -93 -352 q0 -108 43.5 -160.5 q43.5 -52.5 112.5 -52.5 q172 0 221 256 l78 416 Z" /><glyph glyph-name="A" unicode="a" d="M408 489 l-123 -215 q-39 -68 -39 -114 q0 -74 114 -74 l48 0 l-17 -86 l-506 0 l17 86 l39 0 q55 0 92 28.5 q37 28.5 98 131.5 l713 1216 l160 0 l194 -1267 q10 -64 35 -86.5 q25 -22.5 86 -22.5 l27 0 l-17 -86 l-557 0 l16 86 l48 0 q147 0 147 104 q0 42 -4 70 l-33 229 l-538 0 ZM881 950 q-31 218 -33 324 q-47 -111 -160 -305 l-219 -377 l463 0 l-51 358 Z" /><glyph glyph-name="B" unicode="b" d="M-27 86 l27 0 q170 0 201 147 l213 1004 q8 38 8 57 q0 82 -148 82 l-26 0 l18 86 l531 0 q479 0 479 -307 q0 -303 -334 -381 l-2 -8 q250 -50 250 -299 q0 -225 -151 -346 q-151 -121 -439 -121 l-643 0 l16 86 ZM530 817 l158 0 q365 0 365 311 q0 232 -283 232 l-123 0 l-117 -543 ZM379 102 l199 0 q391 0 391 379 q0 234 -287 234 l-172 0 l-131 -613 Z" /><glyph glyph-name="C" unicode="c" d="M1073 299 q27 -19 27 -68 q0 -98 -114 -174.5 q-114 -76.5 -314 -76.5 q-267 0 -416.5 143 q-149.5 143 -149.5 405 q0 388 242 671.5 q242 283.5 602 283.5 q179 0 279 -61.5 q100 -61.5 100 -166.5 q0 -73 -55 -116 q-55 -43 -146 -43 q0 278 -204 278 q-253 0 -423.5 -275.5 q-170.5 -275.5 -170.5 -602.5 q0 -383 364 -383 q237 0 379 186 Z" /><glyph glyph-name="D" unicode="d" d="M-27 86 l27 0 q170 0 201 147 l213 1004 q8 38 8 57 q0 82 -148 82 l-26 0 l18 86 l574 0 q279 0 430 -144.5 q151 -144.5 151 -412.5 q0 -392 -223 -648.5 q-223 -256.5 -596 -256.5 l-645 0 l16 86 ZM557 104 q296 0 468.5 227 q172.5 227 172.5 597 q0 432 -389 432 l-162 0 l-268 -1256 l178 0 Z" /><glyph glyph-name="E" unicode="e" d="M379 102 l395 0 q173 0 232 168 l32 88 l107 0 l-90 -358 l-1098 0 l16 86 l27 0 q104 0 144.5 36.5 q40.5 36.5 54.5 100.5 l213 1006 q6 28 6 49 q0 48 -28 73 q-28 25 -116 25 l-26 0 l18 86 l1032 0 l-65 -358 l-107 0 l6 63 q5 48 5 56 q0 137 -146 137 l-344 0 l-117 -545 l494 0 l-20 -100 l-494 0 l-131 -613 Z" /><glyph glyph-name="F" unicode="f" d="M-27 86 l27 0 q96 0 138 33 q42 33 61 104 l215 1014 q8 38 8 57 q0 82 -148 82 l-26 0 l18 86 l1032 0 l-65 -358 l-107 0 l4 36 q1 19 3 36 q4 34 4 47 q0 137 -154 137 l-336 0 l-127 -592 l494 0 l-21 -100 l-493 0 l-92 -435 q-7 -33 -7 -51 q0 -96 142 -96 l67 0 l-16 -86 l-637 0 l16 86 Z" /><glyph glyph-name="G" unicode="g" d="M1430 676 l-19 -86 l-8 0 q-82 0 -120 -36.5 q-38 -36.5 -54 -111.5 l-78 -368 q-217 -94 -463 -94 q-280 0 -431 143.5 q-151 143.5 -151 404.5 q0 407 250 681 q250 274 631 274 q204 0 318 -62 q114 -62 114 -159 q0 -76 -61 -119 q-61 -43 -156 -43 q0 132 -67 203 q-67 71 -191 71 q-253 0 -433.5 -261.5 q-180.5 -261.5 -180.5 -616.5 q0 -400 395 -400 q115 0 231 29 l68 326 q8 38 8 57 q0 82 -147 82 l-19 0 l19 86 l545 0 Z" /><glyph glyph-name="H" unicode="h" d="M829 0 l17 86 l26 0 q98 0 142 36.5 q44 36.5 59 110.5 l101 480 l-666 0 l-102 -488 q-9 -43 -9 -57 q0 -82 148 -82 l26 0 l-18 -86 l-596 0 l16 86 l27 0 q99 0 142 37.5 q43 37.5 59 109.5 l213 1004 q8 38 8 57 q0 82 -148 82 l-26 0 l18 86 l596 0 l-18 -86 l-27 0 q-98 0 -141 -37 q-43 -37 -58 -110 l-88 -414 l666 0 l90 422 q8 38 8 57 q0 82 -147 82 l-27 0 l19 86 l596 0 l-19 -86 l-26 0 q-98 0 -141 -37.5 q-43 -37.5 -58 -109.5 l-213 -1004 q-8 -38 -8 -57 q0 -82 147 -82 l27 0 l-19 -86 l-596 0 Z" /><glyph glyph-name="I" unicode="i" d="M862 1462 l-18 -86 l-27 0 q-98 0 -141 -37 q-43 -37 -58 -110 l-212 -1004 q-9 -43 -9 -57 q0 -82 148 -82 l26 0 l-18 -86 l-596 0 l16 86 l27 0 q170 0 201 147 l213 1004 q8 38 8 57 q0 82 -148 82 l-26 0 l18 86 l596 0 Z" /><glyph glyph-name="J" unicode="j" d="M852 1462 l-18 -86 l-27 0 q-98 0 -141 -37 q-43 -37 -58 -110 l-266 -1245 q-54 -251 -171.5 -363.5 q-117.5 -112.5 -320.5 -112.5 q-91 0 -167 23 l28 92 q51 -18 133 -18 q119 0 185 89 q66 89 108 288 l266 1255 q9 42 9 57 q0 82 -148 82 l-26 0 l18 86 l596 0 Z" /><glyph glyph-name="K" unicode="k" d="M-27 86 l27 0 q99 0 142 37.5 q43 37.5 59 109.5 l213 1004 q8 38 8 57 q0 82 -148 82 l-26 0 l18 86 l596 0 l-18 -86 l-27 0 q-98 0 -141 -37 q-43 -37 -58 -110 l-88 -414 l-36 -151 l528 485 q154 141 154 184 q0 45 -91 45 l17 84 l452 0 l-16 -84 q-53 0 -118 -35.5 q-65 -35.5 -197 -156.5 l-373 -338 l248 -598 q68 -164 194 -164 l6 0 l-18 -86 l-29 0 q-162 0 -241 33.5 q-79 33.5 -127 156.5 l-199 506 l-211 -147 l-67 -324 q-9 -44 -9 -57 q0 -82 148 -82 l26 0 l-18 -86 l-596 0 l16 86 Z" /><glyph glyph-name="L" unicode="l" d="M-23 86 l27 0 q96 0 138 37.5 q42 37.5 59 109.5 l213 1004 q8 38 8 57 q0 82 -148 82 l-26 0 l18 86 l596 0 l-18 -86 l-27 0 q-97 0 -139 -34.5 q-42 -34.5 -57 -104.5 l-242 -1135 l403 0 q157 0 219 185 l54 153 l106 0 l-106 -440 l-1096 0 l18 86 Z" /><glyph glyph-name="M" unicode="m" d="M1178 0 l18 86 l6 0 q87 0 122 32.5 q35 32.5 52 96.5 l234 1094 l-748 -1309 l-110 0 l-199 1309 l-229 -1084 q-9 -43 -9 -57 q0 -82 148 -82 l26 0 l-18 -86 l-512 0 l18 86 l27 0 q102 0 141.5 36 q39.5 36 53.5 101 l215 1014 q8 38 8 57 q0 82 -148 82 l-26 0 l18 86 l465 0 l174 -1167 l670 1167 l457 0 l-19 -86 l-26 0 q-98 0 -141 -37.5 q-43 -37.5 -58 -109.5 l-213 -1004 q-8 -38 -8 -57 q0 -82 147 -82 l27 0 l-19 -86 l-544 0 Z" /><glyph glyph-name="N" unicode="n" d="M1327 1237 q8 38 8 57 q0 82 -147 82 l-27 0 l19 86 l514 0 l-19 -86 l-26 0 q-98 0 -140.5 -37.5 q-42.5 -37.5 -58.5 -109.5 l-260 -1229 l-133 0 l-527 1200 l-206 -975 q-9 -43 -9 -57 q0 -82 148 -82 l26 0 l-18 -86 l-512 0 l18 86 l27 0 q96 0 138 37.5 q42 37.5 59 109.5 l213 1004 q8 38 8 57 q0 82 -148 82 l-26 0 l18 86 l373 0 l496 -1130 l192 905 Z" /><glyph glyph-name="O" unicode="o" d="M926 1485 q238 0 384 -148 q146 -148 146 -415 q0 -351 -228 -648 q-228 -297 -585 -297 q-243 0 -390 153.5 q-147 153.5 -147 414.5 q0 352 230 646 q230 294 590 294 ZM655 90 q255 0 415.5 282.5 q160.5 282.5 160.5 604.5 q0 191 -84.5 294 q-84.5 103 -237.5 103 q-256 0 -417.5 -283.5 q-161.5 -283.5 -161.5 -603.5 q0 -192 87 -294.5 q87 -102.5 238 -102.5 Z" /><glyph glyph-name="P" unicode="p" d="M-41 0 l18 86 l27 0 q96 0 139 37 q43 37 58 110 l213 1004 q8 38 8 57 q0 82 -148 82 l-26 0 l18 86 l525 0 q222 0 344 -103 q122 -103 122 -292 q0 -233 -156.5 -365.5 q-156.5 -132.5 -469.5 -132.5 l-152 0 l-73 -344 q-9 -42 -9 -57 q0 -82 148 -82 l67 0 l-18 -86 l-635 0 ZM500 666 l108 0 q432 0 432 399 q0 299 -299 299 l-94 0 l-147 -698 Z" /><glyph glyph-name="Q" unicode="q" d="M752 -14 q9 -183 61.5 -265.5 q52.5 -82.5 159.5 -82.5 q74 0 139 18 l14 -86 q-103 -33 -202 -33 q-377 0 -394 451 q-199 34 -311.5 183 q-112.5 149 -112.5 374 q0 352 230 646 q230 294 590 294 q238 0 384 -148 q146 -148 146 -415 q0 -311 -191 -598.5 q-191 -287.5 -513 -337.5 ZM655 90 q255 0 415.5 282.5 q160.5 282.5 160.5 604.5 q0 191 -84.5 294 q-84.5 103 -237.5 103 q-256 0 -417.5 -283.5 q-161.5 -283.5 -161.5 -603.5 q0 -192 87 -294.5 q87 -102.5 238 -102.5 Z" /><glyph glyph-name="R" unicode="r" d="M461 645 l-90 -420 q-9 -42 -9 -57 q0 -82 148 -82 l68 0 l-19 -86 l-635 0 l19 86 l26 0 q102 0 141.5 36 q39.5 36 53.5 101 l215 1014 q8 38 8 57 q0 82 -147 82 l-27 0 l18 86 l537 0 q469 0 469 -348 q0 -338 -379 -428 l148 -438 q36 -105 73 -133.5 q37 -28.5 95 -28.5 l16 0 l-16 -86 l-27 0 q-176 0 -249 46.5 q-73 46.5 -116 193.5 l-118 405 l-203 0 ZM481 741 l158 0 q183 0 282 93.5 q99 93.5 99 267.5 q0 136 -60.5 199 q-60.5 63 -207.5 63 l-140 0 l-131 -623 Z" /><glyph glyph-name="S" unicode="s" d="M172 428 q0 -157 83 -252.5 q83 -95.5 228 -95.5 q143 0 227.5 71 q84.5 71 84.5 193 q0 97 -48.5 164 q-48.5 67 -209.5 158 q-164 95 -227.5 195 q-63.5 100 -63.5 226 q0 177 134 286.5 q134 109.5 363 109.5 q178 0 284 -62 q106 -62 106 -159 q0 -142 -181 -142 q0 120 -57 190 q-57 70 -168 70 q-122 0 -200 -70 q-78 -70 -78 -188 q0 -87 41.5 -150.5 q41.5 -63.5 211.5 -162.5 q161 -94 232.5 -187 q71.5 -93 71.5 -212 q0 -203 -142 -316.5 q-142 -113.5 -395 -113.5 q-209 0 -332 82.5 q-123 82.5 -123 209.5 q0 71 44.5 113.5 q44.5 42.5 113.5 42.5 Z" /><glyph glyph-name="T" unicode="t" d="M657 225 q-8 -38 -8 -57 q0 -82 148 -82 l47 0 l-19 -86 l-637 0 l19 86 l47 0 q103 0 143 35.5 q40 35.5 54 101.5 l241 1137 l-196 0 q-146 0 -205 -168 l-29 -88 l-106 0 l86 358 l1153 0 l-66 -358 l-106 0 q10 80 10 125 q0 131 -135 131 l-199 0 l-242 -1135 Z" /><glyph glyph-name="U" unicode="u" d="M205 1376 l18 86 l596 0 l-16 -86 l-27 0 q-96 0 -140 -36.5 q-44 -36.5 -61 -110.5 l-153 -723 q-25 -118 -25 -191 q0 -213 295 -213 q166 0 263 74 q97 74 135 246 l174 815 q8 37 8 57 q0 82 -148 82 l-26 0 l18 86 l514 0 l-16 -86 l-27 0 q-96 0 -140 -36.5 q-44 -36.5 -61 -110.5 l-172 -811 q-93 -438 -552 -438 q-226 0 -345.5 92 q-119.5 92 -119.5 262 q0 83 22 182 l152 721 q8 38 8 57 q0 82 -148 82 l-26 0 Z" /><glyph glyph-name="V" unicode="v" d="M639 201 q76 177 166 336 l364 651 q39 70 39 115 q0 73 -114 73 l-47 0 l16 86 l506 0 l-19 -86 l-39 0 q-69 0 -103.5 -35 q-34.5 -35 -84.5 -124 l-682 -1217 l-149 0 l-175 1268 q-8 61 -33.5 84.5 q-25.5 23.5 -88.5 23.5 l-27 0 l18 86 l557 0 l-16 -86 l-47 0 q-66 0 -107 -27.5 q-41 -27.5 -41 -76.5 q0 -35 5 -70 l81 -665 q21 -172 21 -336 Z" /><glyph glyph-name="W" unicode="w" d="M1915 1188 q39 78 39 115 q0 73 -115 73 l-49 0 l16 86 l500 0 l-18 -86 l-39 0 q-66 0 -103.5 -32 q-37.5 -32 -85.5 -127 l-604 -1217 l-188 0 l-92 1135 l-551 -1135 l-187 0 l-106 1268 q-5 55 -30 81.5 q-25 26.5 -93 26.5 l-27 0 l19 86 l557 0 l-19 -86 l-47 0 q-147 0 -147 -104 q0 -42 4 -70 l49 -655 q14 -187 14 -346 q86 202 168 368 l430 879 l148 0 l67 -887 q15 -201 11 -360 q90 209 153 336 l326 651 Z" /><glyph glyph-name="X" unicode="x" d="M1458 1376 l-18 0 q-56 0 -100.5 -30 q-44.5 -30 -131.5 -123 l-387 -428 l246 -600 q45 -109 141 -109 l27 0 l-18 -86 l-553 0 l18 86 l23 0 q61 0 96 20.5 q35 20.5 35 51.5 q0 42 -39 141 l-133 326 l-306 -340 q-82 -91 -82 -144 q0 -55 121 -55 l6 0 l-18 -86 l-485 0 l18 86 l8 0 q67 0 119.5 35 q52.5 35 122.5 112 l453 494 l-220 545 q-42 104 -159 104 l-27 0 l18 86 l555 0 l-18 -86 l-47 0 q-96 0 -96 -57 q0 -29 37 -123 l116 -299 l256 295 q78 90 78 133 q0 51 -98 51 l-6 0 l18 86 l449 0 l-19 -86 Z" /><glyph glyph-name="Y" unicode="y" d="M729 1462 l-18 -86 l-103 0 q-84 0 -84 -55 q0 -40 27 -119 l92 -274 q49 -146 55 -246 q20 38 154 215 l195 260 q75 100 75 166 q0 53 -98 53 l-76 0 l19 86 l506 0 l-19 -86 l-39 0 q-39 0 -77.5 -31.5 q-38.5 -31.5 -108.5 -123.5 l-477 -625 l-80 -371 q-8 -37 -8 -57 q0 -82 147 -82 l47 0 l-18 -86 l-637 0 l18 86 l47 0 q103 0 143 35.5 q40 35.5 54 101.5 l80 377 l-238 668 q-23 65 -45.5 86.5 q-22.5 21.5 -77.5 21.5 l-26 0 l18 86 l553 0 Z" /><glyph glyph-name="Z" unicode="z" d="M1276 1378 l-1032 -1276 l547 0 q152 0 206 168 l29 88 l107 0 l-86 -358 l-1082 0 l17 82 l1030 1278 l-477 0 q-151 0 -205 -168 l-29 -88 l-106 0 l86 358 l1011 0 l-16 -84 Z" /><glyph glyph-name="bracketleft" unicode="[" d="M10 -262 l387 1818 l457 0 l-18 -86 l-88 0 q-96 0 -139.5 -36 q-43.5 -36 -59.5 -111 l-291 -1360 q-8 -37 -8 -57 q0 -82 147 -82 l88 0 l-18 -86 l-457 0 Z" /><glyph glyph-name="backslash" unicode="\" d="M231 1556 l119 0 l88 -1804 l-121 0 l-86 1804 Z" /><glyph glyph-name="bracketright" unicode="]" d="M-96 -262 l18 86 l88 0 q96 0 139 37 q43 37 58 110 l291 1360 q8 37 8 58 q0 81 -148 81 l-88 0 l19 86 l456 0 l-387 -1818 l-454 0 Z" /><glyph glyph-name="asciicircum" unicode="^" d="M552 1462 l72 0 l431 -917 l-137 0 l-330 729 l-330 -729 l-137 0 l431 917 Z" /><glyph glyph-name="underscore" unicode="_" d="M772 -291 l-958 0 l26 121 l959 0 l-27 -121 Z" /><glyph glyph-name="grave" unicode="`" d="M829 1241 q-154 150 -264 307 l6 21 l205 0 q60 -155 137 -301 l-6 -27 l-78 0 Z" /><glyph glyph-name="a" unicode="a" d="M748 309 l-13 0 q-147 -329 -383 -329 q-125 0 -194.5 98.5 q-69.5 98.5 -69.5 275.5 q0 282 175.5 523 q175.5 241 434.5 241 q139 0 240 -74 l90 52 l66 0 l-140 -656 q-30 -141 -30 -227 q0 -104 67 -104 q58 0 148 53 l37 -60 q-147 -122 -289 -122 q-160 0 -160 170 q0 65 21 159 ZM864 952 q-47 74 -155 74 q-175 0 -293.5 -222.5 q-118.5 -222.5 -118.5 -457.5 q0 -237 129 -237 q102 0 214 151 q112 151 148 330 l76 362 Z" /><glyph glyph-name="b" unicode="b" d="M213 53 l-92 -59 l-66 0 l271 1272 q18 84 18 108 q0 96 -143 96 l-17 0 l19 86 l387 0 l-98 -460 q-21 -99 -74 -271 l10 0 q151 293 375 293 q122 0 191 -94 q69 -94 69 -276 q0 -285 -176 -526.5 q-176 -241.5 -434 -241.5 q-147 0 -240 73 ZM285 145 q62 -73 159 -73 q178 0 294 227 q116 227 116 451 q0 239 -129 239 q-112 0 -218.5 -155.5 q-106.5 -155.5 -133.5 -282.5 l-88 -406 Z" /><glyph glyph-name="c" unicode="c" d="M821 256 q21 -13 21 -51 q0 -82 -96.5 -153.5 q-96.5 -71.5 -258.5 -71.5 q-179 0 -289 113 q-110 113 -110 310 q0 268 173 491.5 q173 223.5 437 223.5 q141 0 220 -56 q79 -56 79 -140 q0 -62 -49.5 -103 q-49.5 -41 -132.5 -41 q0 109 -42 175.5 q-42 66.5 -116 66.5 q-143 0 -249.5 -214 q-106.5 -214 -106.5 -419 q0 -278 225 -278 q179 0 295 147 Z" /><glyph glyph-name="d" unicode="d" d="M748 309 l-13 0 q-147 -329 -383 -329 q-125 0 -194.5 98.5 q-69.5 98.5 -69.5 275.5 q0 282 175.5 523 q175.5 241 434.5 241 q115 0 201 -49 q16 94 23 115 l20 98 q14 69 14 92 q0 96 -143 96 l-16 0 l18 86 l377 0 l-238 -1116 q-30 -141 -30 -227 q0 -104 67 -104 q58 0 148 53 l37 -60 q-147 -122 -289 -122 q-160 0 -160 170 q0 65 21 159 ZM864 952 q-47 74 -155 74 q-175 0 -293.5 -222.5 q-118.5 -222.5 -118.5 -457.5 q0 -237 129 -237 q102 0 214 151 q112 151 148 330 l76 362 Z" /><glyph glyph-name="e" unicode="e" d="M821 256 q21 -13 21 -51 q0 -82 -96.5 -153.5 q-96.5 -71.5 -258.5 -71.5 q-179 0 -289 113 q-110 113 -110 310 q0 268 173 491.5 q173 223.5 437 223.5 q130 0 201.5 -62 q71.5 -62 71.5 -173 q0 -166 -172.5 -289 q-172.5 -123 -421.5 -123 l-35 0 q-18 0 -37 2 q-4 -28 -4 -86 q0 -278 225 -278 q175 0 295 147 ZM324 567 l20 0 q181 0 298.5 88 q117.5 88 117.5 228 q0 137 -119 137 q-99 0 -185 -124.5 q-86 -124.5 -132 -328.5 Z" /><glyph glyph-name="f" unicode="f" d="M719 981 l-230 0 l-213 -997 q-53 -247 -155 -361.5 q-102 -114.5 -289 -114.5 q-58 0 -119 17 l19 94 q51 -14 94 -14 q99 0 156 85 q57 85 102 292 l215 999 l-186 0 l12 74 l197 43 l22 112 q72 367 389 367 q131 0 197.5 -41.5 q66.5 -41.5 66.5 -110.5 q0 -133 -170 -133 q0 191 -104 191 q-75 0 -116.5 -62 q-41.5 -62 -65.5 -192 l-27 -131 l227 0 l-22 -117 Z" /><glyph glyph-name="g" unicode="g" d="M901 1053 q97 145 221 145 q103 0 103 -94 q0 -127 -121 -127 q0 74 -57 74 q-40 0 -101 -47 q45 -64 45 -158 q0 -172 -129 -315.5 q-129 -143.5 -340 -143.5 q-47 0 -65 4 q-146 -59 -146 -129 q0 -51 105 -61 l196 -21 q318 -34 318 -268 q0 -191 -144 -297.5 q-144 -106.5 -411 -106.5 q-447 0 -447 267 q0 110 89.5 187.5 q89.5 77.5 244.5 107.5 q-98 48 -98 141 q0 63 40.5 107 q40.5 44 153.5 102 q-143 67 -143 242 q0 173 130.5 314.5 q130.5 141.5 344.5 141.5 q131 0 211 -65 ZM545 485 q117 0 188.5 116.5 q71.5 116.5 71.5 254.5 q0 168 -141 168 q-120 0 -190.5 -117.5 q-70.5 -117.5 -70.5 -253.5 q0 -168 142 -168 ZM561 6 l-199 19 q-15 1 -88.5 -20 q-73.5 -21 -126.5 -78 q-53 -57 -53 -140 q0 -178 289 -178 q180 0 274.5 66.5 q94.5 66.5 94.5 179.5 q0 134 -191 151 Z" /><glyph glyph-name="h" unicode="h" d="M471 840 q170 276 379 276 q219 0 219 -227 q0 -65 -37 -225 l-53 -242 q-27 -123 -27 -215 q0 -98 72 -98 q59 0 131 47 l37 -60 q-134 -116 -250 -116 q-85 0 -135.5 55 q-50.5 55 -50.5 149 q0 94 39 277 l47 212 q30 124 30 191 q0 121 -94 121 q-114 0 -234.5 -155.5 q-120.5 -155.5 -152.5 -305.5 l-110 -524 l-191 0 l266 1266 q19 90 19 108 q0 96 -144 96 l-16 0 l18 86 l377 0 l-80 -376 q-36 -168 -81 -340 l22 0 Z" /><glyph glyph-name="i" unicode="i" d="M459 1303 q-115 0 -115 112 q0 65 33.5 104.5 q33.5 39.5 89.5 39.5 q115 0 115 -113 q0 -70 -34.5 -106.5 q-34.5 -36.5 -88.5 -36.5 ZM127 1012 l18 86 l367 0 l-139 -658 q-31 -147 -31 -227 q0 -104 68 -104 q59 0 147 53 l37 -60 q-142 -122 -277 -122 q-76 0 -123 55 q-47 55 -47 139 q0 92 46 322 l79 376 q7 33 7 54 q0 86 -125 86 l-27 0 Z" /><glyph glyph-name="j" unicode="j" d="M461 1303 q-115 0 -115 112 q0 65 33.5 104.5 q33.5 39.5 89.5 39.5 q115 0 115 -113 q0 -70 -34.5 -106.5 q-34.5 -36.5 -88.5 -36.5 ZM-287 -475 l19 94 q51 -14 94 -14 q103 0 161.5 91.5 q58.5 91.5 98.5 287.5 l188 888 q7 33 7 54 q0 86 -125 86 l-27 0 l18 86 l367 0 l-235 -1114 q-52 -244 -155.5 -360 q-103.5 -116 -291.5 -116 q-58 0 -119 17 Z" /><glyph glyph-name="k" unicode="k" d="M694 786 q151 131 151 193 q0 31 -91 31 l18 86 l453 0 l-19 -86 q-119 0 -329 -191 l-185 -170 l187 -405 q79 -172 208 -172 l-18 -86 q-170 0 -250 39.5 q-80 39.5 -135 171.5 l-133 327 l-186 -118 l-84 -406 l-191 0 l266 1266 q19 90 19 108 q0 96 -144 96 l-16 0 l18 86 l377 0 l-80 -376 q-110 -517 -159 -674 l323 280 Z" /><glyph glyph-name="l" unicode="l" d="M207 1470 l18 86 l387 0 l-237 -1116 q-31 -146 -31 -227 q0 -104 68 -104 q59 0 147 53 l37 -60 q-142 -122 -277 -122 q-74 0 -121.5 54 q-47.5 54 -47.5 140 q0 97 45 322 l167 786 q13 61 13 92 q0 96 -144 96 l-24 0 Z" /><glyph glyph-name="m" unicode="m" d="M920 0 l-195 0 q0 46 26 212.5 q26 166.5 44 248.5 l47 212 q30 124 30 191 q0 121 -94 121 q-114 0 -234.5 -155.5 q-120.5 -155.5 -152.5 -305.5 l-110 -524 l-191 0 l172 823 q12 57 12 92 q0 97 -143 97 l-16 0 l18 86 l379 0 l-55 -258 l20 0 q166 276 373 276 q219 0 219 -227 q0 -25 -4 -49 l20 0 q167 276 373 276 q219 0 219 -227 q0 -65 -37 -225 l-53 -242 q-26 -119 -26 -215 q0 -98 71 -98 q59 0 131 47 l37 -60 q-130 -116 -250 -116 q-84 0 -135 55 q-51 55 -51 149 q0 94 39 277 l35 160 q43 197 43 243 q0 121 -95 121 q-105 0 -217 -134.5 q-112 -134.5 -157 -281.5 l-33 -147 q-13 -56 -36 -219 q-23 -163 -23 -203 Z" /><glyph glyph-name="n" unicode="n" d="M281 0 l-191 0 l172 823 q12 57 12 92 q0 97 -143 97 l-16 0 l18 86 l379 0 l-55 -258 l20 0 q166 276 373 276 q219 0 219 -227 q0 -65 -37 -225 l-53 -242 q-27 -123 -27 -215 q0 -98 72 -98 q59 0 131 47 l37 -60 q-134 -116 -250 -116 q-85 0 -135.5 55 q-50.5 55 -50.5 149 q0 94 39 277 l47 212 q30 124 30 191 q0 121 -94 121 q-114 0 -233.5 -154 q-119.5 -154 -153.5 -307 l-110 -524 Z" /><glyph glyph-name="o" unicode="o" d="M698 1118 q181 0 285 -109 q104 -109 104 -315 q0 -273 -167 -493.5 q-167 -220.5 -439 -220.5 q-185 0 -289 112 q-104 112 -104 311 q0 276 168.5 495.5 q168.5 219.5 441.5 219.5 ZM504 80 q169 0 269.5 200.5 q100.5 200.5 100.5 444.5 q0 285 -200 285 q-167 0 -270 -201 q-103 -201 -103 -447 q0 -282 203 -282 Z" /><glyph glyph-name="p" unicode="p" d="M389 -406 l-18 -86 l-385 0 l272 1299 q18 86 18 108 q0 97 -143 97 l-16 0 l18 86 l363 0 l-49 -273 l10 0 q148 293 375 293 q125 0 192.5 -95 q67.5 -95 67.5 -275 q0 -275 -171.5 -521.5 q-171.5 -246.5 -439.5 -246.5 q-117 0 -200 47 q-9 -66 -17 -99 l-28 -125 q-19 -85 -19 -114 q0 -95 143 -95 l27 0 ZM315 145 q66 -73 162 -73 q171 0 289.5 223.5 q118.5 223.5 118.5 454.5 q0 239 -129 239 q-106 0 -214 -147.5 q-108 -147.5 -143 -306.5 l-84 -390 Z" /><glyph glyph-name="q" unicode="q" d="M735 309 q-149 -329 -383 -329 q-124 0 -194 98.5 q-70 98.5 -70 275.5 q0 282 175.5 523 q175.5 241 434.5 241 q128 0 228 -55 l50 28 q48 27 52 27 l72 0 l-283 -1335 q-12 -57 -12 -92 q0 -97 141 -97 l17 0 l-19 -86 l-373 0 l86 410 q8 39 91 391 l-13 0 ZM864 952 q-45 74 -155 74 q-177 0 -294.5 -226 q-117.5 -226 -117.5 -456 q0 -235 129 -235 q101 0 212 148.5 q111 148.5 150 332.5 l76 362 Z" /><glyph glyph-name="r" unicode="r" d="M799 821 q0 162 -82 162 q-95 0 -201.5 -187 q-106.5 -187 -157.5 -423 l-77 -373 l-191 0 l172 823 q12 57 12 92 q0 97 -163 97 l-17 0 l19 86 l362 0 l-43 -295 l21 0 q82 183 162 249 q80 66 186 66 q168 0 168 -141 q0 -156 -170 -156 Z" /><glyph glyph-name="s" unicode="s" d="M741 795 q0 103 -48.5 165 q-48.5 62 -135.5 62 q-92 0 -145.5 -49.5 q-53.5 -49.5 -53.5 -126.5 q0 -68 51 -116 q51 -48 158 -95 q246 -110 246 -318 q0 -151 -116 -244 q-116 -93 -308 -93 q-155 0 -246.5 62.5 q-91.5 62.5 -91.5 168.5 q0 66 36.5 100.5 q36.5 34.5 92.5 34.5 q0 -127 61.5 -197.5 q61.5 -70.5 172.5 -70.5 q221 0 221 190 q0 73 -47 123.5 q-47 50.5 -160 102.5 q-147 70 -197.5 144.5 q-50.5 74.5 -50.5 172.5 q0 134 109.5 219.5 q109.5 85.5 285.5 85.5 q151 0 235.5 -56 q84.5 -56 84.5 -138 q0 -127 -154 -127 Z" /><glyph glyph-name="t" unicode="t" d="M616 154 l35 -76 q-138 -98 -276 -98 q-223 0 -223 239 q0 77 20 172 l125 590 l-156 0 l19 82 q200 0 313 287 l94 0 l-53 -252 l248 0 l-25 -117 l-248 0 l-124 -584 q-25 -118 -25 -176 q0 -112 109 -112 q83 0 167 45 Z" /><glyph glyph-name="u" unicode="u" d="M135 1098 l381 0 l-135 -613 q-41 -186 -41 -247 q0 -125 100 -125 q105 0 226.5 151.5 q121.5 151.5 158.5 323.5 l107 510 l198 0 l-141 -658 q-31 -145 -31 -227 q0 -104 68 -104 q58 0 131 45 l37 -60 q-130 -114 -260 -114 q-77 0 -124.5 55 q-47.5 55 -47.5 139 q0 53 10 121 l-16 0 q-111 -183 -198.5 -248 q-87.5 -65 -197.5 -65 q-219 0 -219 227 q0 65 37 225 l80 359 q18 81 18 122 q0 97 -143 97 l-16 0 l18 86 Z" /><glyph glyph-name="v" unicode="v" d="M197 903 q-17 109 -142 109 l-20 0 l16 86 l307 0 l95 -606 q36 -232 47 -363 l6 0 q153 147 265 343.5 q112 196.5 112 315.5 q0 72 -35 114 q-35 42 -92 42 q0 74 40 119 q40 45 99 45 q139 0 139 -190 q0 -186 -141.5 -435.5 q-141.5 -249.5 -368.5 -480.5 l-184 -20 l-143 921 Z" /><glyph glyph-name="w" unicode="w" d="M246 -18 l-15 882 q-1 72 -28.5 110 q-27.5 38 -106.5 38 l-20 0 l28 86 l308 0 q6 -432 6 -934 l8 0 q267 469 457 915 l170 8 q43 -539 43 -937 l14 0 q167 205 276 405.5 q109 200.5 109 318.5 q0 94 -88 123 q18 121 121 121 q108 0 108 -153 q0 -295 -514 -963 l-202 -22 l-31 886 q-93 -221 -432 -860 l-211 -24 Z" /><glyph glyph-name="x" unicode="x" d="M-41 0 l23 86 l26 0 q56 0 97.5 25.5 q41.5 25.5 115.5 115.5 l262 318 l-133 319 q-39 95 -64.5 121.5 q-25.5 26.5 -82.5 26.5 l-27 0 l17 86 l272 0 l156 -414 l272 414 l262 0 l-33 -86 l-26 0 q-60 0 -100.5 -29 q-40.5 -29 -112.5 -119 l-215 -276 l141 -355 q36 -92 61.5 -119.5 q25.5 -27.5 85.5 -27.5 l27 0 l-16 -86 l-275 0 l-166 451 l-307 -451 l-260 0 Z" /><glyph glyph-name="y" unicode="y" d="M164 903 q-18 60 -49 84.5 q-31 24.5 -92 24.5 l-21 0 l16 86 l299 0 l160 -553 q74 -257 86 -371 l6 0 q277 421 277 680 q0 111 -101 111 q0 69 40 110 q40 41 94 41 q139 0 139 -172 q0 -247 -276 -694.5 q-276 -447.5 -442.5 -594.5 q-166.5 -147 -438.5 -147 q-108 0 -193 37 l31 103 q72 -23 160 -23 q293 0 575 373 l-270 905 Z" /><glyph glyph-name="z" unicode="z" d="M616 117 q49 0 89.5 31 q40.5 31 85.5 137 l20 47 l86 0 l-80 -332 l-819 0 l16 82 l697 899 l-260 0 q-71 0 -109.5 -34 q-38.5 -34 -83.5 -132 l-4 -8 l-86 0 l82 291 l717 0 l-17 -84 l-698 -897 l364 0 Z" /><glyph glyph-name="braceleft" unicode="{" d="M676 -262 q-139 0 -217 77 q-78 77 -78 218 l0 356 q0 210 -242 217 l0 86 q242 5 242 215 l0 357 q0 292 295 292 l135 0 l0 -88 l-61 0 q-168 0 -168 -215 l0 -350 q0 -214 -228 -252 l0 -2 q228 -39 228 -254 l0 -354 q0 -215 168 -215 l61 0 l0 -88 l-135 0 Z" /><glyph glyph-name="bar" unicode="|" d="M649 -492 l-123 0 l0 2048 l123 0 l0 -2048 Z" /><glyph glyph-name="braceright" unicode="}" d="M129 -174 l61 0 q168 0 168 215 l0 354 q0 215 228 254 l0 2 q-228 38 -228 252 l0 350 q0 215 -168 215 l-61 0 l0 88 l135 0 q295 0 295 -292 l0 -357 q0 -210 242 -215 l0 -86 q-242 -7 -242 -217 l0 -356 q0 -141 -78 -218 q-78 -77 -217 -77 l-135 0 l0 88 Z" /><glyph glyph-name="asciitilde" unicode="~" d="M250 551 l-121 0 q28 358 258 358 q94 0 248 -135 q107 -102 168 -102 q57 0 84 62 q27 62 41 175 l123 0 q-39 -358 -258 -358 q-97 0 -238 129 q-118 108 -176 108 q-60 0 -89 -58.5 q-29 -58.5 -40 -178.5 Z" /><glyph glyph-name="nonbreakingspace" unicode=" " d="" /><glyph glyph-name="exclamdown" unicode="¡" d="M420 1112 q127 0 127 -125 q0 -71 -36.5 -114.5 q-36.5 -43.5 -98.5 -43.5 q-127 0 -127 125 q0 74 36.5 116 q36.5 42 98.5 42 ZM260 -367 l-237 0 l294 1051 l95 0 l-152 -1051 Z" /><glyph glyph-name="cent" unicode="¢" d="M496 182 q-156 26 -240 136 q-84 110 -84 282 q0 249 155 468.5 q155 219.5 406 244.5 l33 149 l102 0 l-32 -151 q116 -11 180.5 -64.5 q64.5 -53.5 64.5 -128.5 q0 -62 -49.5 -102.5 q-49.5 -40.5 -132.5 -40.5 q0 166 -88 221 l-188 -891 q169 6 282 148 q21 -15 21 -52 q0 -79 -88 -149 q-88 -70 -242 -76 l-37 -176 l-102 0 l39 182 ZM524 319 l189 893 q-138 -25 -233 -232 q-95 -207 -95 -396 q0 -214 139 -265 Z" /><glyph glyph-name="sterling" unicode="£" d="M530 690 q7 -44 7 -108 q0 -237 -258 -389 l2 -9 q84 37 157 37 q60 0 179 -39 q118 -39 159 -39 q114 0 205 93 l55 -68 q-185 -188 -348 -188 q-65 0 -189 46 q-124 46 -198 46 q-114 0 -238 -60 l-28 -14 l-37 82 l72 41 q295 168 295 442 q0 50 -15 127 l-227 0 l22 103 l189 0 q-27 126 -27 206 q0 226 135.5 355 q135.5 129 364.5 129 q155 0 247.5 -56 q92.5 -56 92.5 -145 q0 -162 -170 -162 q0 260 -201 260 q-139 0 -214 -96.5 q-75 -96.5 -75 -271.5 q0 -80 29 -219 l348 0 l-22 -103 l-312 0 Z" /><glyph glyph-name="currency" unicode="¤" d="M283 952 l-136 135 l86 87 l134 -136 q99 72 221 72 q116 0 217 -72 l137 138 l86 -89 l-135 -135 q72 -99 72 -219 q0 -120 -72 -219 l135 -135 l-84 -86 l-137 135 q-104 -70 -219 -70 q-124 0 -219 70 l-136 -135 l-86 86 l134 135 q-68 99 -68 219 q0 124 70 219 ZM588 471 q108 0 185 77.5 q77 77.5 77 184.5 q0 110 -76 187 q-76 77 -186 77 q-108 0 -184 -77 q-76 -77 -76 -187 q0 -107 76.5 -184.5 q76.5 -77.5 183.5 -77.5 Z" /><glyph glyph-name="yen" unicode="¥" d="M582 225 q-9 -44 -9 -57 q0 -82 148 -82 l47 0 l-18 -86 l-629 0 l18 86 l47 0 q104 0 144 36 q40 36 53 101 l29 139 l-287 0 l20 97 l287 0 l31 143 l-287 0 l21 96 l247 0 l-157 570 q-16 58 -39 83 q-23 25 -84 25 l-6 0 l18 86 l479 0 l-18 -86 l-4 0 q-69 0 -105 -13 q-36 -13 -36 -56 q0 -43 24 -131 l53 -220 q35 -146 43 -249 q22 39 107 167 l170 250 q92 135 92 193 q0 59 -111 59 l-6 0 l19 86 l417 0 l-18 -86 l-18 0 q-46 0 -78 -23.5 q-32 -23.5 -111 -135.5 l-360 -519 l254 0 l-21 -96 l-286 0 l-31 -143 l287 0 l-21 -97 l-287 0 l-28 -137 Z" /><glyph glyph-name="brokenbar" unicode="¦" d="M649 737 l-123 0 l0 819 l123 0 l0 -819 ZM649 -492 l-123 0 l0 820 l123 0 l0 -820 Z" /><glyph glyph-name="section" unicode="§" d="M170 131 q0 -120 67 -193 q67 -73 183 -73 q125 0 202.5 66.5 q77.5 66.5 77.5 174.5 q0 65 -51.5 125 q-51.5 60 -240.5 162 q-228 124 -228 330 q0 166 180 278 q-49 83 -49 185 q0 168 123 269 q123 101 314 101 q143 0 233 -60 q90 -60 90 -144 q0 -74 -37 -108 q-37 -34 -129 -34 q0 115 -49.5 182.5 q-49.5 67.5 -144.5 67.5 q-100 0 -171 -56 q-71 -56 -71 -153 q0 -80 41.5 -133.5 q41.5 -53.5 228.5 -154.5 q250 -134 250 -318 q0 -172 -178 -309 q41 -76 41 -152 q0 -183 -127 -301.5 q-127 -118.5 -336 -118.5 q-157 0 -252.5 63.5 q-95.5 63.5 -95.5 168.5 q0 65 36.5 100 q36.5 35 92.5 35 ZM406 944 q-82 -60 -82 -145 q0 -76 50 -130 q50 -54 187 -130 q121 -67 199 -138 q76 83 76 156 q0 123 -211 238 q-145 79 -219 149 Z" /><glyph glyph-name="dieresis" unicode="¨" d="M514 1294 q-102 0 -102 103 q0 129 110 129 q103 0 103 -103 q0 -129 -111 -129 ZM903 1294 q-102 0 -102 103 q0 129 110 129 q103 0 103 -103 q0 -129 -111 -129 Z" /><glyph glyph-name="copyright" unicode="©" d="M881 1485 q309 0 531 -221.5 q222 -221.5 222 -532.5 q0 -309 -221 -530 q-221 -221 -532 -221 q-312 0 -532 221 q-220 221 -220 530 q0 311 221 532.5 q221 221.5 531 221.5 ZM881 92 q264 0 452.5 188 q188.5 188 188.5 451 q0 264 -188.5 452.5 q-188.5 188.5 -452.5 188.5 q-265 0 -452 -189 q-187 -189 -187 -452 q0 -262 187 -450.5 q187 -188.5 452 -188.5 ZM1169 504 q29 -21 29 -64 q0 -64 -83.5 -114 q-83.5 -50 -223.5 -50 q-194 0 -302 120 q-108 120 -108 337 q0 210 117 331.5 q117 121.5 322 121.5 q132 0 206 -40 q74 -40 74 -106 q0 -43 -39 -69.5 q-39 -26.5 -100 -26.5 q0 156 -146 156 q-266 0 -266 -367 q0 -177 69 -272.5 q69 -95.5 200 -95.5 q170 0 251 139 Z" /><glyph glyph-name="ordfeminine" unicode="ª" d="M573 995 l-8 0 q-107 -213 -262 -213 q-86 0 -133 60 q-47 60 -47 166 q0 166 119.5 312 q119.5 146 300.5 146 q98 0 164 -43 l63 29 l45 0 l-96 -379 q-21 -83 -21 -131 q0 -61 41 -61 q35 0 88 32 l23 -39 q-93 -92 -178 -92 q-113 0 -113 103 q0 57 14 110 ZM629 1350 q-29 41 -90 41 q-102 0 -170 -125.5 q-68 -125.5 -68 -253.5 q0 -133 70 -133 q54 0 115.5 85.5 q61.5 85.5 88.5 182.5 l54 203 Z" /><glyph glyph-name="guillemotleft" unicode="«" d="M139 586 l389 356 l103 0 l-295 -399 l129 -379 l-103 0 l-237 356 l14 66 ZM510 586 l389 356 l102 0 l-294 -399 l129 -379 l-103 0 l-237 356 l14 66 Z" /><glyph glyph-name="logicalnot" unicode="¬" d="M1028 793 l0 -541 l-123 0 l0 420 l-755 0 l0 121 l878 0 Z" /><glyph glyph-name="registered" unicode="®" d="M881 1485 q309 0 531 -221.5 q222 -221.5 222 -532.5 q0 -309 -221 -530 q-221 -221 -532 -221 q-312 0 -532 221 q-220 221 -220 530 q0 311 221 532.5 q221 221.5 531 221.5 ZM881 92 q264 0 452.5 188 q188.5 188 188.5 451 q0 264 -188.5 452.5 q-188.5 188.5 -452.5 188.5 q-265 0 -452 -189 q-187 -189 -187 -452 q0 -262 187 -450.5 q187 -188.5 452 -188.5 ZM494 358 l26 0 q101 0 101 72 l0 600 q0 72 -101 72 l-26 0 l0 72 l368 0 q352 0 352 -244 q0 -164 -186 -225 l182 -293 q20 -33 40.5 -43.5 q20.5 -10.5 74.5 -10.5 l0 -69 l-217 0 l-225 381 l-109 0 l0 -240 q0 -72 100 -72 l29 0 l0 -69 l-409 0 l0 69 ZM774 748 l86 0 q103 0 148 40 q45 40 45 140 q0 91 -46 128.5 q-46 37.5 -153 37.5 l-80 0 l0 -346 Z" /><glyph glyph-name="macron" unicode="¯" d="M950 1556 l-960 0 l0 121 l960 0 l0 -121 Z" /><glyph glyph-name="degree" unicode="°" d="M481 1462 q128 0 220 -91 q92 -91 92 -220 q0 -127 -91 -218 q-91 -91 -221 -91 q-128 0 -218.5 90.5 q-90.5 90.5 -90.5 218.5 q0 130 91.5 220.5 q91.5 90.5 217.5 90.5 ZM481 963 q79 0 134 55 q55 55 55 133 q0 80 -55.5 135 q-55.5 55 -133.5 55 q-75 0 -130.5 -54.5 q-55.5 -54.5 -55.5 -135.5 q0 -78 55.5 -133 q55.5 -55 130.5 -55 Z" /><glyph glyph-name="plusminus" unicode="±" d="M649 672 l0 -379 l-123 0 l0 379 l-376 0 l0 121 l376 0 l0 378 l123 0 l0 -378 l379 0 l0 -121 l-379 0 ZM1028 0 l-878 0 l0 121 l878 0 l0 -121 Z" /><glyph glyph-name="twosuperior" unicode="²" d="M41 586 l10 61 l318 262 q111 91 166 175.5 q55 84.5 55 197.5 q0 119 -103 119 q-62 0 -107.5 -53.5 q-45.5 -53.5 -57.5 -141.5 q-62 0 -97 27.5 q-35 27.5 -35 71.5 q0 77 84.5 127.5 q84.5 50.5 227.5 50.5 q124 0 196 -54 q72 -54 72 -141 q0 -97 -62.5 -181 q-62.5 -84 -220.5 -210 l-245 -195 l282 0 q77 0 109 84 l16 43 l70 0 l-57 -243 l-621 0 Z" /><glyph glyph-name="threesuperior" unicode="³" d="M197 842 q0 -75 45 -125.5 q45 -50.5 120 -50.5 q195 0 195 182 q0 69 -49 111 q-49 42 -137 42 l-68 0 l16 84 l68 0 q97 0 162 62 q65 62 65 158 q0 96 -94 96 q-136 0 -172 -178 q-135 0 -135 86 q0 73 84.5 123.5 q84.5 50.5 228.5 50.5 q131 0 204 -51 q73 -51 73 -136 q0 -189 -262 -241 l-2 -11 q206 -27 206 -188 q0 -133 -107.5 -208 q-107.5 -75 -289.5 -75 q-130 0 -199 43 q-69 43 -69 115 q0 111 117 111 Z" /><glyph glyph-name="acute" unicode="´" d="M508 1268 q117 135 219 301 l219 0 l-6 -21 q-157 -183 -356 -307 l-82 0 l6 27 Z" /><glyph glyph-name="mu" unicode="µ" d="M223 100 q-33 -170 -33 -247 q0 -149 113 -166 q-19 -179 -174 -179 q-133 0 -133 148 q0 91 61 310 q87 314 125 495 l135 637 l193 0 l-135 -641 q-23 -109 -23 -189 q0 -157 150 -157 q106 0 188 90 q82 90 113 241 l139 656 l193 0 l-164 -766 q-25 -117 -25 -158 q0 -65 60 -65 q44 0 112 34 l35 -69 q-136 -94 -238 -94 q-145 0 -153 196 l-10 0 q-133 -196 -297 -196 q-169 0 -232 120 Z" /><glyph glyph-name="paragraph" unicode="¶" d="M877 1452 l-195 0 l0 -1679 l-320 0 l0 86 l27 0 q99 0 133.5 38 q34.5 38 34.5 109 l0 785 l-145 0 q-314 0 -314 401 q0 364 318 364 l780 0 l0 -86 l-27 0 q-98 0 -133 -37.5 q-35 -37.5 -35 -109.5 l0 -1317 q0 -72 35 -109.5 q35 -37.5 133 -37.5 l27 0 l0 -86 l-319 0 l0 1679 Z" /><glyph glyph-name="periodcentered" unicode="·" d="M315 588 q-127 0 -127 125 q0 71 36.5 114 q36.5 43 98.5 43 q127 0 127 -125 q0 -73 -36.5 -115 q-36.5 -42 -98.5 -42 Z" /><glyph glyph-name="cedilla" unicode="¸" d="M387 -70 q74 -10 119 -58 q45 -48 45 -112 q0 -119 -86.5 -185.5 q-86.5 -66.5 -239.5 -66.5 q-79 0 -153 23 l22 104 q70 -16 137 -16 q152 0 152 125 q0 102 -131 115 l78 159 l96 0 l-39 -88 Z" /><glyph glyph-name="onesuperior" unicode="¹" d="M135 588 l15 69 l94 0 q85 0 100 78 l125 590 l-190 0 l14 70 l102 0 q143 0 187 78 l102 0 l-143 -678 q-15 -71 -15 -86 q0 -52 72 -52 l94 0 l-14 -69 l-543 0 Z" /><glyph glyph-name="ordmasculine" unicode="º" d="M420 780 q-133 0 -208 68.5 q-75 68.5 -75 187.5 q0 162 117 297 q117 135 303 135 q130 0 204.5 -66.5 q74.5 -66.5 74.5 -184.5 q0 -164 -115 -300.5 q-115 -136.5 -301 -136.5 ZM543 1386 q-98 0 -162 -119 q-64 -119 -64 -253 q0 -152 103 -152 q99 0 161 118.5 q62 118.5 62 260.5 q0 145 -100 145 Z" /><glyph glyph-name="guillemotright" unicode="»" d="M911 520 l-389 -356 l-102 0 l299 399 l-133 379 l102 0 l238 -356 l-15 -66 ZM541 520 l-389 -356 l-103 0 l299 399 l-133 379 l102 0 l238 -356 l-14 -66 Z" /><glyph glyph-name="questiondown" unicode="¿" d="M666 1110 q127 0 127 -125 q0 -71 -37 -114.5 q-37 -43.5 -99 -43.5 q-60 0 -93.5 34.5 q-33.5 34.5 -33.5 90.5 q0 75 37 116.5 q37 41.5 99 41.5 ZM506 444 l51 238 l125 0 l-64 -303 q-415 -152 -415 -445 q0 -100 54 -160.5 q54 -60.5 144 -60.5 q212 0 254 291 q148 0 148 -123 q0 -113 -114.5 -191.5 q-114.5 -78.5 -299.5 -78.5 q-387 0 -387 340 q0 311 504 493 Z" /><glyph glyph-name="AE" unicode="æ" d="M-127 0 l29 86 l39 0 q54 0 94.5 28 q40.5 28 116.5 132 l815 1118 l-174 12 l18 86 l1159 0 l-65 -358 l-107 0 q10 70 10 119 q0 137 -145 137 l-344 0 l-117 -545 l494 0 l-21 -100 l-493 0 l-131 -613 l395 0 q172 0 231 168 l33 88 l107 0 l-91 -358 l-1097 0 l16 86 l27 0 q103 0 144 35.5 q41 35.5 54 101.5 l56 266 l-463 0 l-154 -215 q-55 -77 -55 -120 q0 -68 104 -68 l48 0 l-29 -86 l-504 0 ZM1110 1360 l-39 0 q-97 -168 -260 -391 l-272 -377 l409 0 l162 768 Z" /><glyph glyph-name="Eth" unicode="ð" d="M-27 86 l27 0 q170 0 201 147 l102 482 l-199 0 l23 100 l197 0 l90 422 q8 38 8 57 q0 82 -148 82 l-26 0 l18 86 l615 0 q279 0 430 -144.5 q151 -144.5 151 -412.5 q0 -392 -223 -648.5 q-223 -256.5 -596 -256.5 l-686 0 l16 86 ZM598 104 q294 0 467.5 226 q173.5 226 173.5 598 q0 432 -389 432 l-203 0 l-117 -545 l388 0 l-23 -100 l-387 0 l-129 -611 l219 0 Z" /><glyph glyph-name="multiply" unicode="×" d="M571 647 l-340 -340 l-86 88 l340 340 l-340 338 l86 86 l340 -340 l340 342 l86 -88 l-340 -340 l340 -340 l-86 -86 l-340 340 Z" /><glyph glyph-name="Oslash" unicode="ø" d="M1217 1409 l106 137 l119 0 l-150 -194 q164 -152 164 -430 q0 -351 -228 -648 q-228 -297 -585 -297 q-165 0 -289 74 l-96 -133 l-121 0 l137 191 q-168 156 -168 436 q0 352 230 646 q230 294 590 294 q165 0 291 -76 ZM379 250 l751 1038 q-84 86 -221 86 q-256 0 -417.5 -283.5 q-161.5 -283.5 -161.5 -603.5 q0 -139 49 -237 ZM1188 1204 l-750 -1036 q86 -78 217 -78 q255 0 415.5 282.5 q160.5 282.5 160.5 604.5 q0 129 -43 227 Z" /><glyph glyph-name="Thorn" unicode="þ" d="M-41 0 l18 86 l27 0 q96 0 139 37 q43 37 58 110 l213 1004 q8 38 8 57 q0 82 -148 82 l-26 0 l18 86 l617 0 l-19 -86 l-47 0 q-103 0 -144 -38.5 q-41 -38.5 -55 -108.5 l-4 -21 l121 0 q222 0 344.5 -103 q122.5 -103 122.5 -292 q0 -233 -157.5 -365.5 q-157.5 -132.5 -469.5 -132.5 l-151 0 l-18 -90 q-9 -45 -9 -57 q0 -82 148 -82 l47 0 l-19 -86 l-614 0 ZM444 412 l109 0 q432 0 432 399 q0 299 -299 299 l-94 0 l-148 -698 Z" /><glyph glyph-name="germandbls" unicode="ß" d="M-279 -475 l19 94 q51 -14 94 -14 q102 0 159 87.5 q57 87.5 99 289.5 l217 1019 l-166 0 l21 97 l166 0 l14 61 q94 408 512 408 q373 0 373 -314 q0 -109 -29 -247 l-176 0 q-225 0 -225 -168 q0 -70 44.5 -117 q44.5 -47 125.5 -94 q192 -113 192 -308 q0 -162 -101.5 -250.5 q-101.5 -88.5 -293.5 -88.5 q-145 0 -228 55.5 q-83 55.5 -83 152.5 q0 60 43.5 97 q43.5 37 109.5 37 q0 -244 172 -244 q91 0 146 52.5 q55 52.5 55 141.5 q0 138 -156 230 q-204 126 -204 293 q0 307 407 307 q23 103 23 170 q0 203 -201 203 q-243 0 -307 -287 l-258 -1204 q-54 -250 -156.5 -363 q-102.5 -113 -288.5 -113 q-58 0 -119 17 Z" /><glyph glyph-name="ae" unicode="æ" d="M1477 256 q20 -14 20 -51 q0 -84 -96.5 -154.5 q-96.5 -70.5 -257.5 -70.5 q-141 0 -243 75 q-102 75 -136 219 q-116 -294 -367 -294 q-140 0 -224.5 108 q-84.5 108 -84.5 299 q0 278 164.5 504.5 q164.5 226.5 433.5 226.5 q161 0 313 -127 q153 127 355 127 q130 0 201 -62 q71 -62 71 -173 q0 -166 -172.5 -289 q-172.5 -123 -421.5 -123 l-35 0 q-18 0 -36 2 q-5 -25 -5 -86 q0 -278 226 -278 q171 0 295 147 ZM905 893 q-97 133 -209 133 q-173 0 -286 -217 q-113 -217 -113 -444 q0 -122 45.5 -189 q45.5 -67 126.5 -67 q102 0 177 99 q75 99 104 267 q38 233 155 418 ZM979 567 l20 0 q181 0 298.5 88 q117.5 88 117.5 228 q0 137 -119 137 q-100 0 -186.5 -127.5 q-86.5 -127.5 -130.5 -325.5 Z" /><glyph glyph-name="eth" unicode="ð" d="M877 983 q-45 185 -144 291 l-293 -150 l25 115 l199 102 q-89 68 -226 115 l35 103 q184 -47 324 -152 l297 154 l-27 -117 l-201 -103 q102 -101 161.5 -262 q59.5 -161 59.5 -338 q0 -348 -161.5 -561 q-161.5 -213 -444.5 -213 q-180 0 -286.5 106.5 q-106.5 106.5 -106.5 295.5 q0 254 168 461.5 q168 207.5 442 207.5 q109 0 179 -55 ZM504 68 q169 0 269.5 186.5 q100.5 186.5 100.5 409.5 q0 268 -200 268 q-168 0 -270.5 -186.5 q-102.5 -186.5 -102.5 -409.5 q0 -268 203 -268 Z" /><glyph glyph-name="divide" unicode="÷" d="M590 1233 q104 0 104 -113 q0 -112 -104 -112 q-105 0 -105 112 q0 113 105 113 ZM1028 672 l-878 0 l0 121 l878 0 l0 -121 ZM590 457 q104 0 104 -113 q0 -113 -104 -113 q-105 0 -105 113 q0 113 105 113 Z" /><glyph glyph-name="oslash" unicode="ø" d="M942 1044 l115 136 l119 0 l-166 -203 q77 -106 77 -283 q0 -275 -167 -497 q-167 -222 -439 -222 q-141 0 -243 72 l-107 -129 l-121 0 l162 195 q-84 110 -84 290 q0 276 168.5 495.5 q168.5 219.5 441.5 219.5 q149 0 244 -74 ZM305 274 l533 644 q-49 92 -164 92 q-167 0 -270 -201 q-103 -201 -103 -447 q0 -65 4 -88 ZM868 809 l-530 -641 q46 -92 166 -92 q168 0 269 201.5 q101 201.5 101 447.5 q0 44 -6 84 Z" /><glyph glyph-name="thorn" unicode="þ" d="M248 27 q-9 -78 -15 -99 l-31 -151 q-14 -58 -14 -94 q0 -89 144 -89 l26 0 l-18 -86 l-389 0 l373 1758 q18 85 18 108 q0 96 -143 96 l-17 0 l19 86 l377 0 l-105 -491 q-17 -79 -61 -240 l12 0 q148 293 375 293 q125 0 194.5 -95 q69.5 -95 69.5 -275 q0 -275 -173 -521.5 q-173 -246.5 -439 -246.5 q-120 0 -203 47 ZM281 145 q65 -73 163 -73 q171 0 290.5 223 q119.5 223 119.5 455 q0 113 -35.5 176 q-35.5 63 -97.5 63 q-107 0 -216 -150.5 q-109 -150.5 -140 -303.5 l-84 -390 Z" /><glyph glyph-name="dcroat" unicode="&#x111;" d="M723 190 l-10 0 q-79 -130 -149 -170 q-70 -40 -167 -40 q-142 0 -225.5 105.5 q-83.5 105.5 -83.5 287.5 q0 265 162 484.5 q162 219.5 426 219.5 q102 0 192 -47 q3 17 8 37 l8 40 q6 30 15 69 l8 38 l-350 0 l18 97 l353 0 l4 20 q5 24 5 43 q0 96 -144 96 l-17 0 l19 86 l376 0 l-53 -245 l187 0 l-19 -97 l-188 0 l-164 -774 q-31 -146 -31 -227 q0 -104 68 -104 q66 0 147 53 l37 -60 q-142 -122 -276 -122 q-146 0 -156 210 ZM842 920 q-57 65 -156 65 q-168 0 -278.5 -210.5 q-110.5 -210.5 -110.5 -422.5 q0 -243 172 -243 q101 0 172 86.5 q71 86.5 98 220.5 l103 504 Z" /><glyph glyph-name="Hbar" unicode="&#x126;" d="M829 0 l17 86 l26 0 q97 0 140.5 36 q43.5 36 60.5 111 l101 480 l-666 0 l-102 -488 q-9 -43 -9 -57 q0 -82 148 -82 l26 0 l-18 -86 l-596 0 l16 86 l27 0 q99 0 142 37.5 q43 37.5 59 109.5 l166 789 l-193 0 l19 100 l196 0 l25 115 q8 37 8 57 q0 82 -148 82 l-26 0 l18 86 l596 0 l-18 -86 l-27 0 q-98 0 -141 -37 q-43 -37 -58 -110 l-22 -107 l666 0 l24 115 q8 38 8 57 q0 82 -147 82 l-27 0 l19 86 l596 0 l-19 -86 l-26 0 q-98 0 -141 -37.5 q-43 -37.5 -58 -109.5 l-23 -107 l193 0 l-19 -100 l-196 0 l-168 -797 q-8 -38 -8 -57 q0 -82 147 -82 l27 0 l-19 -86 l-596 0 ZM1196 815 l43 207 l-666 0 l-43 -207 l666 0 Z" /><glyph glyph-name="hbar" unicode="&#x127;" d="M463 799 q165 276 379 276 q219 0 219 -227 q0 -56 -25 -170 q-7 -29 -12 -55 l-45 -201 q-27 -121 -27 -215 q0 -98 72 -98 q59 0 131 47 l37 -60 q-134 -116 -250 -116 q-85 0 -135.5 55 q-50.5 55 -50.5 149 q0 94 39 277 l39 171 q30 124 30 191 q0 121 -94 121 q-114 0 -234.5 -155.5 q-120.5 -155.5 -152.5 -305.5 l-102 -483 l-191 0 l254 1214 l-184 0 l18 97 l187 0 q10 46 10 63 q0 96 -144 96 l-16 0 l18 86 l377 0 l-53 -245 l350 0 l-18 -97 l-352 0 l-7 -34 q-51 -248 -90 -381 l23 0 Z" /><glyph glyph-name="dotlessi" unicode="&#x131;" d="M127 1012 l18 86 l367 0 l-139 -658 q-31 -147 -31 -227 q0 -104 68 -104 q59 0 147 53 l37 -60 q-142 -122 -277 -122 q-76 0 -123 55 q-47 55 -47 139 q0 92 46 322 l79 376 q7 33 7 54 q0 86 -125 86 l-27 0 Z" /><glyph glyph-name="kgreenlandic" unicode="&#x138;" d="M694 786 q151 131 151 193 q0 31 -91 31 l18 86 l453 0 l-19 -86 q-119 0 -329 -191 l-185 -170 l187 -405 q79 -172 208 -172 l-18 -86 q-178 0 -256.5 43 q-78.5 43 -128.5 168 l-133 327 l-186 -118 l-84 -406 l-191 0 l170 807 q19 90 19 108 q0 97 -144 97 l-16 0 l18 86 l377 0 l-55 -254 q-39 -182 -88 -338 l323 280 Z" /><glyph glyph-name="Lslash" unicode="&#x141;" d="M-23 86 l27 0 q96 0 138 37.5 q42 37.5 59 109.5 l73 349 l-221 -113 l25 115 l221 112 l115 541 q8 38 8 57 q0 82 -148 82 l-26 0 l18 86 l596 0 l-18 -86 l-27 0 q-98 0 -139 -36.5 q-41 -36.5 -57 -102.5 l-91 -422 l357 186 l-25 -118 l-356 -185 l-127 -596 l403 0 q157 0 219 185 l54 153 l106 0 l-106 -440 l-1096 0 l18 86 Z" /><glyph glyph-name="lslash" unicode="&#x142;" d="M209 565 l-193 -96 l25 115 l192 100 l140 647 q6 26 6 45 q0 94 -146 94 l-26 0 l18 86 l387 0 l-163 -763 l219 112 l-25 -119 l-219 -110 l-49 -236 q-31 -149 -31 -227 q0 -104 68 -104 q59 0 147 53 l37 -60 q-142 -122 -277 -122 q-74 0 -121.5 54 q-47.5 54 -47.5 140 q0 97 45 322 l14 69 Z" /><glyph glyph-name="Eng" unicode="&#x14a;" d="M1389 1237 q8 38 8 57 q0 82 -148 82 l-26 0 l18 86 l514 0 l-18 -86 l-27 0 q-98 0 -141 -37 q-43 -37 -58 -110 l-264 -1245 q-54 -255 -163.5 -365.5 q-109.5 -110.5 -299.5 -110.5 q-79 0 -145 23 l25 92 q51 -18 112 -18 q122 0 215 98 q93 98 133 285 l-594 1212 l-206 -975 q-9 -43 -9 -57 q0 -82 148 -82 l26 0 l-18 -86 l-512 0 l18 86 l27 0 q96 0 138 37.5 q42 37.5 59 109.5 l213 1004 q8 38 8 57 q0 82 -148 82 l-26 0 l18 86 l361 0 l565 -1153 l197 928 Z" /><glyph glyph-name="eng" unicode="&#x14b;" d="M322 -475 l18 94 q51 -14 94 -14 q103 0 161.5 91.5 q58.5 91.5 98.5 287.5 l135 630 q43 201 43 250 q0 121 -94 121 q-114 0 -233.5 -154 q-119.5 -154 -153.5 -307 l-110 -524 l-191 0 l172 823 q12 57 12 92 q0 97 -143 97 l-16 0 l18 86 l379 0 l-55 -258 l20 0 q168 276 373 276 q219 0 219 -227 q0 -72 -37 -232 l-145 -673 q-54 -249 -157 -362.5 q-103 -113.5 -290 -113.5 q-57 0 -118 17 Z" /><glyph glyph-name="OE" unicode="&#x152;" d="M1073 102 l395 0 q173 0 232 168 l33 88 l106 0 l-90 -358 l-881 0 l-69 -12 q-80 -11 -156 -11 q-243 0 -390 153.5 q-147 153.5 -147 414.5 q0 352 230 646 q230 294 590 294 q102 0 217 -23 l850 0 l-66 -358 l-106 0 q10 70 10 119 q0 133 -145 137 l-345 0 l-116 -545 l493 0 l-20 -100 l-494 0 l-131 -613 ZM872 125 l256 1208 q-113 41 -219 41 q-256 0 -417.5 -283.5 q-161.5 -283.5 -161.5 -603.5 q0 -192 87 -294.5 q87 -102.5 238 -102.5 q135 0 217 35 Z" /><glyph glyph-name="oe" unicode="&#x153;" d="M1579 256 q20 -14 20 -51 q0 -84 -96.5 -154.5 q-96.5 -70.5 -257.5 -70.5 q-239 0 -344 186 q-169 -199 -420 -199 q-182 0 -287.5 117 q-105.5 117 -105.5 319 q0 277 168.5 501 q168.5 224 441.5 224 q248 0 344 -204 q173 194 414 194 q130 0 201.5 -62 q71.5 -62 71.5 -173 q0 -92 -61 -181 q-61 -89 -170.5 -145.5 q-109.5 -56.5 -194 -70 q-84.5 -13.5 -240.5 -13.5 q-6 -46 -6 -86 q0 -278 227 -278 q175 0 295 147 ZM504 68 q168 0 269 205 q101 205 101 452 q0 295 -200 295 q-167 0 -270 -205.5 q-103 -205.5 -103 -452.5 q0 -294 203 -294 ZM1081 567 l21 0 q181 0 298.5 89 q117.5 89 117.5 227 q0 137 -119 137 q-100 0 -186.5 -126.5 q-86.5 -126.5 -131.5 -326.5 Z" /><glyph glyph-name="Tbar" unicode="&#x166;" d="M774 772 l344 0 l-18 -100 l-348 0 l-95 -447 q-8 -38 -8 -57 q0 -82 148 -82 l47 0 l-19 -86 l-637 0 l19 86 l47 0 q96 0 137 33.5 q41 33.5 60 103.5 l94 449 l-340 0 l18 100 l344 0 l125 588 l-196 0 q-146 0 -205 -168 l-29 -88 l-106 0 l86 358 l1153 0 l-66 -358 l-106 0 q10 80 10 125 q0 128 -135 131 l-199 0 l-125 -588 Z" /><glyph glyph-name="tbar" unicode="&#x167;" d="M616 154 l35 -76 q-138 -98 -276 -98 q-223 0 -223 239 q0 83 20 172 l43 205 l-139 0 l18 96 l142 0 l61 289 l-156 0 l19 82 q200 0 313 287 l94 0 l-53 -252 l248 0 l-25 -117 l-248 0 l-61 -289 l246 0 l-19 -96 l-247 0 l-43 -199 q-25 -116 -25 -176 q0 -112 109 -112 q83 0 167 45 Z" /><glyph glyph-name="longs" unicode="&#x17f;" d="M-287 -475 l19 94 q51 -14 94 -14 q102 0 159 87.5 q57 87.5 99 289.5 l260 1228 q78 367 389 367 q131 0 197.5 -41.5 q66.5 -41.5 66.5 -110.5 q0 -133 -170 -133 q0 191 -104 191 q-67 0 -109 -54.5 q-42 -54.5 -73 -199.5 l-265 -1245 q-52 -246 -154 -361 q-102 -115 -290 -115 q-58 0 -119 17 Z" /><glyph glyph-name="florin" unicode="&#x192;" d="M911 815 l-268 0 l-162 -831 q-48 -247 -152 -361.5 q-104 -114.5 -292 -114.5 q-61 0 -119 15 l19 96 q60 -14 94 -14 q103 0 161 87 q58 87 97 290 l162 833 l-207 0 l18 96 l207 0 l39 205 q70 367 389 367 q131 0 197.5 -42 q66.5 -42 66.5 -110 q0 -133 -170 -133 q0 191 -104 191 q-76 0 -117 -62.5 q-41 -62.5 -65 -191.5 l-43 -224 l268 0 l-19 -96 Z" /><glyph glyph-name="Aringacute" unicode="&#x1fa;" d="M887 1720 q114 107 219 242 l219 0 l-6 -16 q-161 -151 -356 -246 l-82 0 l6 20 ZM1018 1229 l180 -1045 q10 -56 34.5 -77 q24.5 -21 86.5 -21 l27 0 l-17 -86 l-557 0 l16 86 l48 0 q66 0 106.5 25.5 q40.5 25.5 40.5 68.5 q0 38 -4 64 l-29 186 l-553 0 l-112 -174 q-39 -61 -39 -102 q0 -68 114 -68 l48 0 l-17 -86 l-506 0 l17 86 l39 0 q62 0 97.5 29.5 q35.5 29.5 92.5 115.5 l664 1008 q-123 59 -123 199 q0 103 68 163 q68 60 178 60 q109 0 177 -60 q68 -60 68 -163 q0 -155 -145 -209 ZM905 1315 l13 0 q135 0 135 123 q0 123 -135 123 q-136 0 -136 -123 q0 -118 123 -123 ZM885 852 q-31 200 -37 295 q-36 -75 -115 -198 l-264 -417 l465 0 l-49 320 Z" /><glyph glyph-name="aringacute" unicode="&#x1fb;" d="M748 309 l-13 0 q-147 -329 -383 -329 q-125 0 -194.5 98.5 q-69.5 98.5 -69.5 275.5 q0 282 175.5 523 q175.5 241 434.5 241 q139 0 240 -74 l90 52 l66 0 l-140 -656 q-30 -141 -30 -227 q0 -104 67 -104 q58 0 148 53 l37 -60 q-147 -122 -289 -122 q-160 0 -160 170 q0 65 21 159 ZM864 952 q-47 74 -155 74 q-175 0 -293.5 -222.5 q-118.5 -222.5 -118.5 -457.5 q0 -237 129 -237 q102 0 214 151 q112 151 148 330 l76 362 ZM1010 1419 q0 -108 -72 -165.5 q-72 -57.5 -174 -57.5 q-102 0 -174 57.5 q-72 57.5 -72 165.5 q0 109 72 166 q72 57 174 57 q102 0 174 -57 q72 -57 72 -166 ZM899 1419 q0 66 -40 94.5 q-40 28.5 -95 28.5 q-55 0 -95 -28.5 q-40 -28.5 -40 -94.5 q0 -65 40 -94 q40 -29 95 -29 q55 0 95 29 q40 29 40 94 ZM723 1720 q53 49 112.5 116 q59.5 67 106.5 126 l219 0 l-6 -16 q-25 -25 -66.5 -58 q-41.5 -33 -90 -67.5 q-48.5 -34.5 -100.5 -66.5 q-52 -32 -99 -54 l-82 0 l6 20 Z" /><glyph glyph-name="circumflex" unicode="&#x2c6;" d="M381 1268 q186 183 270 301 l195 0 q29 -117 139 -301 l-6 -27 l-72 0 q-95 65 -182 184 q-150 -127 -262 -184 l-88 0 l6 27 Z" /><glyph glyph-name="caron" unicode="&#x2c7;" d="M1085 1542 q-153 -150 -270 -301 l-194 0 q-50 152 -140 301 l6 27 l74 0 q95 -75 174 -187 q129 110 271 187 l86 0 l-7 -27 Z" /><glyph glyph-name="macron" unicode="&#x2c9;" d="M958 1241 l-593 0 l26 121 l594 0 l-27 -121 Z" /><glyph glyph-name="breve" unicode="&#x2d8;" d="M317 1522 l95 0 q16 -140 178 -140 q163 0 221 140 l94 0 q-33 -132 -121.5 -206.5 q-88.5 -74.5 -208.5 -74.5 q-241 0 -258 281 Z" /><glyph glyph-name="dotaccent" unicode="&#x2d9;" d="M459 1303 q-115 0 -115 112 q0 65 33.5 104.5 q33.5 39.5 89.5 39.5 q115 0 115 -113 q0 -70 -34.5 -106.5 q-34.5 -36.5 -88.5 -36.5 Z" /><glyph glyph-name="ring" unicode="&#x2da;" d="M504 1221 q-107 0 -176.5 59 q-69.5 59 -69.5 164 q0 104 69 163.5 q69 59.5 177 59.5 q108 0 177 -59.5 q69 -59.5 69 -163.5 q0 -105 -69.5 -164 q-69.5 -59 -176.5 -59 ZM504 1567 q-135 0 -135 -123 q0 -123 135 -123 q135 0 135 123 q0 123 -135 123 Z" /><glyph glyph-name="ogonek" unicode="&#x2db;" d="M762 0 q-109 -36 -176.5 -104 q-67.5 -68 -67.5 -150 q0 -51 32 -81 q32 -30 85 -30 q52 0 133 17 l-25 -111 q-78 -33 -163 -33 q-240 0 -240 209 q0 102 79.5 176 q79.5 74 225.5 107 l117 0 Z" /><glyph glyph-name="tilde" unicode="&#x2dc;" d="M1028 1483 l92 0 q-72 -242 -266 -242 q-81 0 -169 65 q-89 64 -126 64 q-88 0 -123 -108 l-92 0 q72 241 268 241 q82 0 169 -64 q87 -65 124 -65 q89 0 123 109 Z" /><glyph glyph-name="hungarumlaut" unicode="&#x2dd;" d="M193 1241 l6 27 q112 133 219 301 l219 0 l-6 -21 q-140 -159 -348 -307 l-90 0 ZM561 1241 l6 27 q106 121 219 301 l220 0 l-7 -21 q-4 -13 -119.5 -120.5 q-115.5 -107.5 -228.5 -186.5 l-90 0 Z" /><glyph glyph-name="tonos" unicode="&#x384;" d="M475 1268 q100 167 143 301 l185 0 l-4 -21 q-3 -18 -82 -116.5 q-79 -98.5 -178 -190.5 l-68 0 l4 27 Z" /><glyph glyph-name="dieresistonos" unicode="&#x385;" d="M518 1415 q95 160 144 301 l184 0 l-4 -20 q-4 -19 -81 -115.5 q-77 -96.5 -179 -191.5 l-68 0 l4 26 ZM375 1290 q-92 0 -92 92 q0 115 98 115 q92 0 92 -92 q0 -115 -98 -115 ZM807 1290 q-92 0 -92 92 q0 115 98 115 q92 0 92 -92 q0 -115 -98 -115 Z" /><glyph glyph-name="Gamma" unicode="&#x393;" d="M594 0 l-635 0 l18 86 l25 0 q168 0 199 147 l211 996 q10 47 10 65 q0 82 -148 82 l-26 0 l18 86 l1018 0 l-63 -358 l-107 0 q10 88 10 119 q0 79 -41 108 q-41 29 -127 29 l-309 0 l-241 -1135 q-9 -42 -9 -57 q0 -82 148 -82 l67 0 l-18 -86 Z" /><glyph glyph-name="Theta" unicode="&#x398;" d="M926 1485 q238 0 384 -148 q146 -148 146 -415 q0 -351 -228 -648 q-228 -297 -585 -297 q-243 0 -390 153.5 q-147 153.5 -147 414.5 q0 352 230 646 q230 294 590 294 ZM655 90 q255 0 415.5 282.5 q160.5 282.5 160.5 604.5 q0 191 -84.5 294 q-84.5 103 -237.5 103 q-256 0 -417.5 -283.5 q-161.5 -283.5 -161.5 -603.5 q0 -192 87 -294.5 q87 -102.5 238 -102.5 ZM612 930 l2 -39 q3 -62 44.5 -78 q41.5 -16 105.5 -16 l51 0 q151 0 195 94 l18 39 l86 0 l-80 -369 l-86 0 l-2 39 q-4 85 -153 94 l-52 0 q-86 0 -124.5 -22 q-38.5 -22 -65.5 -72 l-19 -39 l-86 0 l80 369 l86 0 Z" /><glyph glyph-name="Lambda" unicode="&#x39b;" d="M961 1462 l174 -1267 q7 -53 30 -81 q23 -28 92 -28 l27 0 l-18 -86 l-564 0 l19 86 l47 0 q147 0 147 111 q0 39 -4 63 l-84 672 q-20 160 -20 330 q-61 -143 -166 -330 l-365 -658 q-38 -69 -38 -112 q0 -76 116 -76 l47 0 l-18 -86 l-498 0 l19 86 l39 0 q60 0 94.5 29.5 q34.5 29.5 91.5 130.5 l682 1216 l150 0 Z" /><glyph glyph-name="Xi" unicode="&#x39e;" d="M1233 1083 l-107 0 q7 77 7 97 q0 118 -142 118 l-403 0 q-151 0 -205 -153 l-21 -62 l-106 0 l90 379 l957 0 l-70 -379 ZM477 948 l2 -39 q3 -52 37 -73 q34 -21 113 -21 l112 0 q151 0 195 94 l18 39 l86 0 l-82 -389 l-86 0 l-2 39 q-4 85 -155 94 l-113 0 q-89 0 -126.5 -22.5 q-37.5 -22.5 -61.5 -71.5 l-19 -39 l-86 0 l82 389 l86 0 ZM1055 0 l-1078 0 l72 403 l107 0 q-4 -52 -4 -90 q0 -125 139 -125 l526 0 q155 0 205 154 l20 61 l107 0 l-94 -403 Z" /><glyph glyph-name="Pi" unicode="&#x3a0;" d="M768 0 l18 86 l27 0 q97 0 139.5 37 q42.5 37 59.5 110 l239 1127 l-604 0 l-241 -1135 q-9 -42 -9 -57 q0 -82 148 -82 l26 0 l-18 -86 l-596 0 l16 86 l27 0 q99 0 142 37.5 q43 37.5 59 109.5 l213 1004 q8 38 8 57 q0 82 -148 82 l-26 0 l18 86 l1407 0 l-18 -86 l-27 0 q-97 0 -139.5 -36 q-42.5 -36 -58.5 -111 l-213 -1004 q-9 -42 -9 -57 q0 -82 148 -82 l26 0 l-18 -86 l-596 0 Z" /><glyph glyph-name="Sigma" unicode="&#x3a3;" d="M764 188 q163 0 233 195 l23 61 l106 0 l-104 -444 l-1094 0 l13 66 l575 661 l-248 676 l13 59 l960 0 l-65 -358 l-107 0 l6 61 q4 41 4 58 q0 135 -145 135 l-422 0 l197 -545 l-15 -35 l-512 -590 l582 0 Z" /><glyph glyph-name="Phi" unicode="&#x3a6;" d="M809 1237 q8 39 8 57 q0 82 -151 82 l-27 0 l18 86 l592 0 l-18 -86 l-23 0 q-102 0 -144.5 -36.5 q-42.5 -36.5 -57.5 -110.5 l-9 -41 l64 0 q223 0 347 -103.5 q124 -103.5 124 -291.5 q0 -232 -160 -365 q-160 -133 -471 -133 l-94 0 l-14 -70 q-9 -45 -9 -57 q0 -82 152 -82 l22 0 l-18 -86 l-590 0 l19 86 l26 0 q170 0 201 147 l12 62 l-67 0 q-223 0 -345 103.5 q-122 103.5 -122 291.5 q0 233 156.5 365.5 q156.5 132.5 469.5 132.5 l99 0 l10 49 ZM778 1092 l-55 0 q-432 0 -432 -400 q0 -299 299 -299 l41 0 l147 699 ZM827 391 l52 0 q436 0 436 400 q0 299 -303 299 l-37 0 l-148 -699 Z" /><glyph glyph-name="Psi" unicode="&#x3a8;" d="M1348 1462 l-19 -86 l-26 0 q-96 0 -139.5 -36 q-43.5 -36 -59.5 -111 l-133 -623 l49 0 q165 0 250.5 73.5 q85.5 73.5 134.5 299.5 l102 483 l371 0 l-18 -86 q-96 0 -140 -36.5 q-44 -36.5 -59 -110.5 l-53 -254 q-51 -244 -197 -354.5 q-146 -110.5 -391 -110.5 l-70 0 l-59 -285 q-8 -39 -8 -57 q0 -82 147 -82 l27 0 l-19 -86 l-583 0 l16 86 l27 0 q97 0 141 36.5 q44 36.5 59 110.5 l58 277 l-68 0 q-409 0 -409 311 q0 64 18 154 l55 262 q8 38 8 57 q0 82 -147 82 l-27 0 l19 86 l397 0 l-102 -483 q-23 -109 -23 -172 q0 -201 268 -201 l31 0 l135 631 q9 42 9 57 q0 82 -148 82 l-27 0 l19 86 l584 0 Z" /><glyph glyph-name="uni03A9" unicode="&#x3a9;" d="M686 0 l92 428 q262 31 367.5 220 q105.5 189 105.5 378 q0 169 -90.5 258.5 q-90.5 89.5 -261.5 89.5 q-275 0 -396.5 -193 q-121.5 -193 -121.5 -423 q0 -136 67.5 -225.5 q67.5 -89.5 190.5 -104.5 l-78 -428 l-573 0 l28 358 l107 0 l0 -67 q0 -74 37.5 -100.5 q37.5 -26.5 128.5 -26.5 l194 0 l35 180 q-169 37 -265.5 159.5 q-96.5 122.5 -96.5 299.5 q0 278 201 480 q201 202 567 202 q255 0 403 -124.5 q148 -124.5 148 -342.5 q0 -261 -150 -441 q-150 -180 -448 -233 l-43 -180 l194 0 q92 0 141.5 27 q49.5 27 81.5 100 l29 67 l106 0 l-92 -358 l-608 0 Z" /><glyph glyph-name="alpha" unicode="&#x3b1;" d="M739 207 l-8 0 q-145 -227 -346 -227 q-138 0 -219.5 102 q-81.5 102 -81.5 276 q0 323 161 541.5 q161 218.5 386 218.5 q217 0 260 -215 l12 0 q75 140 152 195 l147 0 q-116 -149 -186 -404 l-60 -225 q-32 -120 -32 -229 q0 -117 94 -117 q41 0 104 41 l37 -66 q-117 -108 -233 -108 q-168 0 -187 217 ZM799 590 l32 129 q4 15 -7 96.5 q-11 81.5 -54 128.5 q-43 47 -119 47 q-149 0 -254.5 -189.5 q-105.5 -189.5 -105.5 -436.5 q0 -254 168 -254 q214 0 340 479 Z" /><glyph glyph-name="beta" unicode="&#x3b2;" d="M-16 -494 l352 1659 q84 398 483 398 q179 0 281 -79.5 q102 -79.5 102 -221.5 q0 -289 -340 -385 l0 -9 q236 -96 236 -336 q0 -248 -138 -400 q-138 -152 -366 -152 q-190 0 -297 92 l-121 -566 l-192 0 ZM741 813 q-76 -29 -129 -29 q-71 0 -71 58 q0 84 125 84 q65 0 116 -17 q103 35 164.5 127.5 q61.5 92.5 61.5 212.5 q0 101 -54 161 q-54 60 -145 60 q-113 0 -179 -68.5 q-66 -68.5 -102 -244.5 l-204 -960 q118 -111 262 -111 q150 0 233.5 119.5 q83.5 119.5 83.5 326.5 q0 219 -162 281 Z" /><glyph glyph-name="gamma" unicode="&#x3b3;" d="M512 182 q162 134 271.5 350.5 q109.5 216.5 109.5 350.5 q0 91 -76 112 q27 123 137 123 q113 0 113 -125 q0 -189 -177 -481.5 q-177 -292.5 -378 -450.5 q-34 -253 -112 -403 q-78 -150 -171 -150 q-67 0 -67 78 q0 175 176 424 q-24 565 -62 765 q-38 200 -110 200 q-38 0 -88 -27 l-29 62 q128 94 232 94 q126 0 170.5 -208.5 q44.5 -208.5 60.5 -713.5 Z" /><glyph glyph-name="delta" unicode="&#x3b4;" d="M604 936 q-168 132 -168 293 q0 156 113 247 q113 91 289 91 q154 0 245 -55 q91 -55 91 -132 q0 -71 -47.5 -113 q-47.5 -42 -125.5 -42 q0 248 -186 248 q-91 0 -148 -57.5 q-57 -57.5 -57 -145.5 q0 -123 201 -273 q256 -186 256 -413 q0 -266 -165 -435 q-165 -169 -406 -169 q-191 0 -302.5 104 q-111.5 104 -111.5 283 q0 425 522 569 ZM676 881 q-190 -54 -295 -189 q-105 -135 -105 -321 q0 -137 63.5 -211 q63.5 -74 174.5 -74 q157 0 255.5 126.5 q98.5 126.5 98.5 332.5 q0 202 -192 336 Z" /><glyph glyph-name="epsilon" unicode="&#x3b5;" d="M354 571 l2 11 q-149 63 -149 221 q0 149 121.5 231 q121.5 82 333.5 82 q159 0 245 -47.5 q86 -47.5 86 -128.5 q0 -139 -176 -139 q0 221 -178 221 q-116 0 -178 -66.5 q-62 -66.5 -62 -169.5 q0 -82 40.5 -121.5 q40.5 -39.5 97.5 -39.5 q1 0 39 9 q88 21 124 21 q78 0 78 -55 q0 -98 -127 -98 q-76 0 -164 30 q-98 -22 -161.5 -89 q-63.5 -67 -63.5 -160 q0 -174 227 -174 q202 0 365 151 q23 -15 23 -51 q0 -93 -112.5 -161 q-112.5 -68 -301.5 -68 q-402 0 -402 286 q0 217 293 305 Z" /><glyph glyph-name="zeta" unicode="&#x3b6;" d="M743 1350 q-193 30 -325 166 l71 73 q144 -141 345 -159 q145 92 249 92 q84 0 84 -60 q0 -131 -329 -131 q-237 -213 -390 -492 q-153 -279 -153 -489 q0 -75 45 -119.5 q45 -44.5 211 -85.5 q117 -29 170 -74 q53 -45 53 -124 q0 -120 -89.5 -218 q-89.5 -98 -252.5 -141 l-31 99 q195 53 195 182 q0 55 -44.5 82 q-44.5 27 -166.5 55 q-289 65 -289 289 q0 200 162 503 q162 303 485 552 Z" /><glyph glyph-name="eta" unicode="&#x3b7;" d="M236 694 q32 150 32 342 l0 34 q0 15 -2 28 l117 0 q31 -40 41 -203 l12 0 q162 223 359 223 q278 0 278 -264 q0 -61 -16 -137 l-183 -860 q-32 -152 -32 -235 q0 -85 8 -114 l-197 0 q-8 26 -8 78 q0 107 41 295 l180 846 q13 61 13 94 q0 166 -158 166 q-233 0 -315 -391 l-125 -596 l-193 0 l148 694 Z" /><glyph glyph-name="theta" unicode="&#x3b8;" d="M113 508 q0 398 174 727.5 q174 329.5 458 329.5 q182 0 275.5 -134 q93.5 -134 93.5 -384 q0 -376 -178.5 -721.5 q-178.5 -345.5 -470.5 -345.5 q-168 0 -260 136.5 q-92 136.5 -92 391.5 ZM354 838 l531 0 q35 194 35 331 q0 291 -183 291 q-239 0 -383 -622 ZM866 741 l-532 0 q-41 -200 -41 -354 q0 -147 49 -225 q49 -78 129 -78 q251 0 395 657 Z" /><glyph glyph-name="iota" unicode="&#x3b9;" d="M514 1098 l-149 -701 q-25 -118 -25 -176 q0 -112 109 -112 q72 0 153 41 l35 -76 q-133 -94 -279 -94 q-206 0 -206 239 q0 77 20 172 l150 707 l192 0 Z" /><glyph glyph-name="kappa" unicode="&#x3ba;" d="M1022 848 q0 127 -86 127 q-50 0 -117 -62.5 q-67 -62.5 -194 -240.5 l245 -436 q57 -102 101.5 -133 q44.5 -31 101.5 -31 l23 0 l-21 -86 l-20 0 q-145 0 -222.5 31.5 q-77.5 31.5 -156.5 175.5 l-178 321 l-133 -117 l-84 -397 l-191 0 l170 807 q19 90 19 108 q0 97 -144 97 l-16 0 l18 86 l377 0 l-84 -389 q-25 -116 -55 -211 l184 252 q172 234 258.5 300 q86.5 66 190.5 66 q80 0 126 -37.5 q46 -37.5 46 -97.5 q0 -133 -158 -133 Z" /><glyph glyph-name="lambda" unicode="&#x3bb;" d="M651 1063 q-8 176 -44 277.5 q-36 101.5 -128 101.5 q-91 0 -162 -88 q-22 17 -22 76 q0 66 46 106.5 q46 40.5 132 40.5 q133 0 199.5 -91 q66.5 -91 83.5 -286 l55 -717 q14 -189 67.5 -293 q53.5 -104 125.5 -104 l10 0 l-15 -86 l-47 0 q-135 0 -188 60 q-53 60 -72.5 302.5 q-19.5 242.5 -19.5 485.5 l-6 0 q-54 -141 -172 -328 l-336 -520 l-215 0 l708 1063 Z" /><glyph glyph-name="nu" unicode="&#x3bd;" d="M518 182 q164 141 284 354 q120 213 120 341 q0 97 -80 118 q21 123 137 123 q113 0 113 -133 q0 -195 -195.5 -499 q-195.5 -304 -439.5 -486 l-109 0 q-54 640 -94 807.5 q-40 167.5 -104 167.5 q-36 0 -74 -21 l-27 64 q115 86 223 86 q109 0 152 -149.5 q43 -149.5 94 -772.5 Z" /><glyph glyph-name="xi" unicode="&#x3be;" d="M586 874 l2 11 q-283 72 -283 225 q0 147 297 287 q-191 24 -297 119 l70 73 q125 -98 325 -119 q151 91 281 91 q76 0 76 -50 q0 -133 -363 -133 q-200 -124 -200 -260 q0 -129 200 -180 q108 55 189 55 q75 0 75 -53 q0 -106 -190 -106 q-47 0 -94 10 q-142 -51 -261.5 -194.5 q-119.5 -143.5 -119.5 -280.5 q0 -79 57.5 -129 q57.5 -50 239.5 -95 q131 -30 181 -76.5 q50 -46.5 50 -121.5 q0 -118 -89 -216 q-89 -98 -253 -141 l-30 99 q194 54 194 180 q0 60 -50.5 87.5 q-50.5 27.5 -162.5 49.5 q-346 69 -346 301 q0 171 134.5 326 q134.5 155 367.5 241 Z" /><glyph glyph-name="pi" unicode="&#x3c0;" d="M1292 928 l-219 0 q-60 -174 -109 -404.5 q-49 -230.5 -49 -320.5 q0 -94 84 -94 q41 0 107 30 l33 -63 q-120 -92 -230 -92 q-161 0 -161 174 q0 107 65.5 344 q65.5 237 142.5 426 l-391 0 l-151 -582 q-62 -240 -130.5 -298 q-68.5 -58 -174.5 -58 q-76 0 -132 35 l25 84 q100 0 158.5 69 q58.5 69 109.5 219 l179 531 l-87 0 q-130 0 -176 -129 l-86 0 q34 167 102.5 233 q68.5 66 192.5 66 l934 0 l-37 -170 Z" /><glyph glyph-name="rho" unicode="&#x3c1;" d="M289 76 q-5 -28 -12 -74 q-7 -47 -19 -102 l-84 -392 l-192 0 l233 1092 q57 267 188 392.5 q131 125.5 351 125.5 q190 0 296.5 -110 q106.5 -110 106.5 -316 q0 -320 -153.5 -516 q-153.5 -196 -378.5 -196 q-206 0 -336 96 ZM319 186 q130 -100 293 -100 q149 0 249 168.5 q100 168.5 100 437.5 q0 318 -218 318 q-129 0 -208 -94 q-79 -94 -127 -316 l-89 -414 Z" /><glyph glyph-name="sigma1" unicode="&#x3c2;" d="M432 -410 l-31 99 q195 53 195 182 q0 60 -48.5 91.5 q-48.5 31.5 -162.5 57.5 q-297 73 -297 383 q0 268 173 491.5 q173 223.5 437 223.5 q142 0 220.5 -56.5 q78.5 -56.5 78.5 -139.5 q0 -62 -49.5 -103 q-49.5 -41 -132.5 -41 q0 109 -42 175.5 q-42 66.5 -116 66.5 q-142 0 -249 -208 q-107 -208 -107 -400 q0 -99 50.5 -155 q50.5 -56 195.5 -97 q130 -36 178.5 -85.5 q48.5 -49.5 48.5 -125.5 q0 -120 -89.5 -218 q-89.5 -98 -252.5 -141 Z" /><glyph glyph-name="sigma" unicode="&#x3c3;" d="M1329 1098 l-35 -170 l-327 0 q123 -167 123 -361 q0 -267 -150.5 -429.5 q-150.5 -162.5 -409.5 -162.5 q-204 0 -323 122.5 q-119 122.5 -119 332.5 q0 325 203.5 496.5 q203.5 171.5 537.5 171.5 l500 0 ZM850 928 l-33 0 q-244 0 -390 -132 q-146 -132 -146 -390 q0 -153 73.5 -240.5 q73.5 -87.5 198.5 -87.5 q166 0 254 147.5 q88 147.5 88 421.5 q0 171 -45 281 Z" /><glyph glyph-name="tau" unicode="&#x3c4;" d="M571 928 l-182 0 q-167 0 -209 -174 l-86 0 q71 344 336 344 l643 0 l-35 -170 l-362 0 q-176 -509 -176 -707 q0 -112 108 -112 q73 0 154 41 l35 -76 q-128 -94 -279 -94 q-207 0 -207 194 q0 219 260 754 Z" /><glyph glyph-name="upsilon" unicode="&#x3c5;" d="M375 457 q-17 -77 -17 -129 q0 -217 209 -217 q181 0 298.5 198 q117.5 198 117.5 457 q0 192 -143 213 q19 141 131 141 q73 0 115 -72 q42 -72 42 -194 q0 -344 -168 -609 q-168 -265 -438 -265 q-172 0 -265 86.5 q-93 86.5 -93 240.5 q0 68 14 127 l80 359 q18 81 18 122 q0 97 -143 97 l-16 0 l18 86 l381 0 l-141 -641 Z" /><glyph glyph-name="phi" unicode="&#x3c6;" d="M745 1116 l95 440 l123 0 l-95 -440 q201 -18 309.5 -138 q108.5 -120 108.5 -325 q0 -260 -169 -458.5 q-169 -198.5 -492 -217.5 l-99 -469 l-123 0 l101 472 q-197 18 -306.5 141.5 q-109.5 123.5 -109.5 322.5 q0 262 171 457.5 q171 195.5 486 214.5 ZM844 1006 l-197 -926 q209 23 319.5 191.5 q110.5 168.5 110.5 412.5 q0 288 -233 322 ZM524 80 l197 926 q-205 -26 -314.5 -193 q-109.5 -167 -109.5 -410 q0 -284 227 -323 Z" /><glyph glyph-name="chi" unicode="&#x3c7;" d="M4 -492 l-244 0 l658 871 l-70 422 q-31 184 -115 184 q-61 0 -112 -27 l-25 66 q110 80 217 80 q75 0 111 -46 q36 -46 53 -196 l43 -350 l393 586 l226 0 l-580 -803 l78 -477 q20 -124 48 -157.5 q28 -33.5 63 -33.5 q54 0 112 27 l21 -66 q-110 -80 -213 -80 q-72 0 -107 51 q-35 51 -53 197 l-51 404 l-453 -652 Z" /><glyph glyph-name="psi" unicode="&#x3c8;" d="M117 1012 l18 86 l375 0 l-141 -672 q-11 -52 -11 -96 q0 -202 244 -219 l309 1445 l123 0 l-307 -1439 q221 31 347 207.5 q126 176.5 126 431.5 q0 169 -113 231 q27 123 123 123 q133 0 133 -229 q0 -349 -170 -607 q-170 -258 -475 -290 l-100 -476 l-123 0 l100 474 q-197 7 -304 93 q-107 86 -107 232 q0 62 14 127 l76 363 q22 105 22 118 q0 97 -143 97 l-16 0 Z" /><glyph glyph-name="omega" unicode="&#x3c9;" d="M737 190 l-8 0 q-112 -210 -328 -210 q-141 0 -227 101.5 q-86 101.5 -86 276.5 q0 226 108 423.5 q108 197.5 308 336.5 l71 -67 q-288 -341 -288 -701 q0 -125 42.5 -192.5 q42.5 -67.5 110.5 -67.5 q175 0 262 250 q-10 73 -10 158 q0 126 40 197 q40 71 102 71 q73 0 73 -100 q0 -138 -110 -338 q12 -111 61.5 -174.5 q49.5 -63.5 124.5 -63.5 q157 0 230 207 q73 207 73 412 q0 184 -59 342 l100 67 q150 -189 150 -475 q0 -263 -123.5 -463 q-123.5 -200 -362.5 -200 q-206 0 -254 210 Z" /><glyph glyph-name="afii10051" unicode="&#x402;" d="M745 836 q180 61 324 61 q389 0 389 -326 q0 -194 -81 -387.5 q-81 -193.5 -357 -193.5 q-106 0 -162 22 l27 92 q55 -18 114 -18 q105 0 153 67.5 q48 67.5 72.5 200.5 q24.5 133 24.5 211 q0 209 -229 209 q-144 0 -297 -51 l-107 -498 q-8 -37 -8 -57 q0 -82 148 -82 l26 0 l-18 -86 l-617 0 l19 86 l47 0 q103 0 143 35.5 q40 35.5 54 101.5 l241 1137 l-155 0 q-146 0 -205 -168 l-29 -88 l-106 0 l86 358 l1071 0 l-66 -358 l-106 0 q10 80 10 125 q0 131 -135 131 l-158 0 l-113 -524 Z" /><glyph glyph-name="afii10053" unicode="&#x404;" d="M1073 299 q27 -19 27 -68 q0 -98 -114 -174.5 q-114 -76.5 -314 -76.5 q-267 0 -416.5 143 q-149.5 143 -149.5 405 q0 388 242 671.5 q242 283.5 602 283.5 q179 0 279 -61.5 q100 -61.5 100 -166.5 q0 -73 -55 -116 q-55 -43 -146 -43 q0 278 -204 278 q-186 0 -334.5 -156.5 q-148.5 -156.5 -220.5 -429.5 l571 0 l-20 -100 l-574 0 q-16 -98 -16 -192 q0 -383 364 -383 q237 0 379 186 Z" /><glyph glyph-name="afii10058" unicode="&#x409;" d="M791 1360 q-57 -222 -162.5 -548.5 q-105.5 -326.5 -207 -522.5 q-101.5 -196 -179.5 -249.5 q-78 -53.5 -176 -53.5 q-76 0 -119 38.5 q-43 38.5 -43 98.5 q0 62 34 96.5 q34 34.5 87 34.5 q0 -96 77 -96 q185 0 372.5 546 q187.5 546 187.5 617 q0 55 -150 55 l-31 0 l19 86 l987 0 l-19 -86 l-26 0 q-98 0 -141 -37.5 q-43 -37.5 -58 -109.5 l-90 -420 l55 0 q504 0 504 -342 q0 -225 -151 -346 q-151 -121 -439 -121 l-540 0 l16 86 l27 0 q97 0 141 36.5 q44 36.5 59 110.5 l240 1127 l-274 0 ZM1004 102 l96 0 q391 0 391 349 q0 139 -71.5 200.5 q-71.5 61.5 -217.5 61.5 l-69 0 l-129 -611 Z" /><glyph glyph-name="afii10059" unicode="&#x40a;" d="M1653 1462 l-19 -86 l-26 0 q-98 0 -141 -37 q-43 -37 -58 -110 l-90 -420 l55 0 q504 0 504 -342 q0 -225 -151 -346 q-151 -121 -439 -121 l-540 0 l16 86 l27 0 q97 0 141 36.5 q44 36.5 59 110.5 l101 480 l-584 0 l-102 -488 q-9 -43 -9 -57 q0 -82 148 -82 l26 0 l-18 -86 l-596 0 l16 86 l27 0 q99 0 142 37.5 q43 37.5 59 109.5 l213 1004 q8 38 8 57 q0 82 -148 82 l-26 0 l18 86 l596 0 l-18 -86 l-27 0 q-98 0 -141 -37 q-43 -37 -58 -110 l-88 -414 l584 0 l90 422 q8 38 8 57 q0 82 -147 82 l-27 0 l19 86 l596 0 ZM1169 102 l97 0 q391 0 391 349 q0 139 -70.5 200.5 q-70.5 61.5 -218.5 61.5 l-70 0 l-129 -611 Z" /><glyph glyph-name="afii10060" unicode="&#x40b;" d="M1567 86 l-19 -86 l-596 0 l17 86 l26 0 q170 0 201 147 l27 129 q26 124 26 218 q0 194 -229 194 q-144 0 -297 -51 l-107 -498 q-8 -37 -8 -57 q0 -82 148 -82 l26 0 l-18 -86 l-617 0 l19 86 l47 0 q103 0 143 35.5 q40 35.5 54 101.5 l241 1137 l-155 0 q-146 0 -205 -168 l-29 -88 l-106 0 l86 358 l1071 0 l-66 -358 l-106 0 q10 80 10 125 q0 131 -135 131 l-158 0 l-113 -524 q180 61 324 61 q391 0 391 -303 q0 -95 -28 -221 l-31 -148 q-8 -38 -8 -57 q0 -82 147 -82 l27 0 Z" /><glyph glyph-name="afii10145" unicode="&#x40f;" d="M1219 225 q-9 -42 -9 -57 q0 -82 148 -82 l26 0 l-18 -86 l-426 0 q-228 0 -322 -430 l-94 0 q25 108 25 192 q0 238 -182 238 l-406 0 l19 86 l24 0 q98 0 140 36.5 q42 36.5 57 102.5 l217 1012 q8 37 8 57 q0 82 -147 82 l-27 0 l18 86 l596 0 l-18 -86 l-27 0 q-95 0 -139.5 -36 q-44.5 -36 -60.5 -111 l-238 -1127 l604 0 l242 1135 q8 38 8 57 q0 82 -147 82 l-27 0 l18 86 l596 0 l-18 -86 l-27 0 q-96 0 -138 -33.5 q-42 -33.5 -58 -103.5 l-217 -1014 Z" /><glyph glyph-name="afii10018" unicode="&#x411;" d="M1225 1462 l-66 -358 l-106 0 q10 80 10 125 q0 131 -135 131 l-281 0 l-119 -551 l117 0 q504 0 504 -342 q0 -225 -151 -346 q-151 -121 -439 -121 l-602 0 l16 86 l27 0 q170 0 201 147 l213 1004 q8 38 8 57 q0 82 -148 82 l-26 0 l18 86 l959 0 ZM379 102 l158 0 q391 0 391 349 q0 139 -70.5 200.5 q-70.5 61.5 -218.5 61.5 l-131 0 l-129 -611 Z" /><glyph glyph-name="afii10021" unicode="&#x414;" d="M51 102 q338 458 488.5 792.5 q150.5 334.5 150.5 422.5 q0 28 -27.5 43.5 q-27.5 15.5 -136.5 15.5 l-6 0 l19 86 l942 0 l-19 -86 l-26 0 q-83 0 -120 -34.5 q-37 -34.5 -52 -102.5 l-211 -989 q-6 -28 -6 -51 q0 -97 143 -97 l41 0 l-115 -532 l-94 0 q22 102 22 176 q0 254 -233 254 l-510 0 q-302 0 -393 -430 l-94 0 l114 532 l123 0 ZM823 1360 q-113 -509 -630 -1258 l624 0 l266 1258 l-260 0 Z" /><glyph glyph-name="afii10024" unicode="&#x416;" d="M573 0 l17 86 l26 0 q97 0 140.5 36 q43.5 36 60.5 111 l96 455 q-165 0 -231.5 -24.5 q-66.5 -24.5 -116.5 -114.5 l-205 -356 q-68 -118 -135 -155.5 q-67 -37.5 -270 -37.5 l-66 0 l19 86 l6 0 q162 0 262 164 l203 346 q101 172 344 180 q-81 68 -156 305 q-53 169 -87.5 205.5 q-34.5 36.5 -78.5 36.5 q-92 0 -137 -115 q-74 30 -74 119 q0 148 183 148 q114 0 172.5 -70 q58.5 -70 113.5 -264 q69 -231 127 -295 q58 -64 148 -64 l96 455 q8 38 8 57 q0 82 -147 82 l-27 0 l19 86 l579 0 l-18 -86 l-27 0 q-97 0 -140 -36.5 q-43 -36.5 -58 -110.5 l-95 -447 q157 0 230.5 56 q73.5 56 193.5 303 q87 178 178.5 256 q91.5 78 221.5 78 q157 0 157 -119 q0 -138 -129 -148 q0 115 -96 115 q-71 0 -122 -51.5 q-51 -51.5 -122 -190.5 q-131 -259 -227 -307 q97 -34 145 -178 l119 -346 q56 -164 207 -164 l6 0 l-18 -86 l-29 0 q-167 0 -249.5 35.5 q-82.5 35.5 -119.5 157.5 l-110 356 q-28 90 -76.5 114.5 q-48.5 24.5 -179.5 24.5 l-98 -463 q-9 -43 -9 -57 q0 -82 148 -82 l26 0 l-18 -86 l-580 0 Z" /><glyph glyph-name="afii10025" unicode="&#x417;" d="M182 393 q0 -119 87.5 -211 q87.5 -92 232.5 -92 q340 0 340 350 q0 121 -81 189.5 q-81 68.5 -231 68.5 l-159 0 l22 105 l174 0 q171 0 284.5 96.5 q113.5 96.5 113.5 249.5 q0 109 -64 170 q-64 61 -180 61 q-228 0 -291 -305 q-158 0 -158 129 q0 121 127.5 200 q127.5 79 323.5 79 q201 0 328 -87.5 q127 -87.5 127 -234.5 q0 -166 -115 -276 q-115 -110 -305 -133 q141 -19 227 -102.5 q86 -83.5 86 -207.5 q0 -223 -154 -344 q-154 -121 -438 -121 q-216 0 -334 71.5 q-118 71.5 -118 195.5 q0 70 44 109.5 q44 39.5 111 39.5 Z" /><glyph glyph-name="afii10026" unicode="&#x418;" d="M1737 1376 l-27 0 q-98 0 -141 -37 q-43 -37 -58 -110 l-213 -1004 q-8 -38 -8 -57 q0 -82 148 -82 l26 0 l-18 -86 l-596 0 l16 86 l27 0 q170 0 201 147 l163 785 l-841 -739 l-10 -54 q-9 -49 -9 -57 q0 -82 148 -82 l26 0 l-18 -86 l-596 0 l16 86 l27 0 q99 0 142 37.5 q43 37.5 59 109.5 l213 1004 q8 38 8 57 q0 82 -148 82 l-26 0 l18 86 l596 0 l-18 -86 l-27 0 q-98 0 -141 -37 q-43 -37 -58 -110 l-163 -783 l839 736 l13 55 q8 34 8 57 q0 82 -148 82 l-26 0 l18 86 l596 0 l-18 -86 Z" /><glyph glyph-name="afii10028" unicode="&#x41a;" d="M-43 0 l16 86 l27 0 q98 0 141 37.5 q43 37.5 60 109.5 l213 1004 q8 38 8 57 q0 82 -148 82 l-26 0 l18 86 l596 0 l-18 -86 l-27 0 q-98 0 -141 -37.5 q-43 -37.5 -58 -109.5 l-94 -447 q140 0 202.5 50 q62.5 50 205.5 309 q99 177 191 255.5 q92 78.5 231 78.5 q166 0 166 -123 q0 -134 -129 -144 q0 115 -101 115 q-141 0 -272 -242 q-149 -267 -223 -307 q119 -7 174 -178 l118 -346 q56 -164 207 -164 l6 0 l-18 -86 l-29 0 q-177 0 -252 30 q-75 30 -116 163 l-111 356 q-25 79 -63.5 109 q-38.5 30 -206.5 30 l-98 -463 q-9 -43 -9 -57 q0 -82 148 -82 l26 0 l-18 -86 l-596 0 Z" /><glyph glyph-name="afii10029" unicode="&#x41b;" d="M25 254 q0 -96 77 -96 q185 0 372.5 546 q187.5 546 187.5 617 q0 55 -150 55 l-31 0 l19 86 l1048 0 l-18 -86 l-27 0 q-97 0 -140 -36.5 q-43 -36.5 -58 -110.5 l-213 -1004 q-9 -42 -9 -57 q0 -82 148 -82 l26 0 l-18 -86 l-596 0 l16 86 l27 0 q170 0 201 147 l237 1127 l-333 0 q-58 -223 -163.5 -550 q-105.5 -327 -206.5 -521 q-101 -194 -180 -248.5 q-79 -54.5 -175 -54.5 q-76 0 -119 38.5 q-43 38.5 -43 98.5 q0 62 34 96.5 q34 34.5 87 34.5 Z" /><glyph glyph-name="afii10037" unicode="&#x423;" d="M1571 1462 l-19 -86 l-39 0 q-57 0 -90 -27.5 q-33 -27.5 -98 -131.5 l-524 -842 q-165 -266 -251 -325.5 q-86 -59.5 -314 -59.5 l-150 0 l20 96 l113 0 q221 0 359 223 l-259 959 q-17 63 -40.5 85.5 q-23.5 22.5 -81.5 22.5 l-27 0 l18 86 l568 0 l-17 -86 l-55 0 q-139 0 -139 -100 q0 -46 16 -113 l115 -448 q43 -167 57 -277 q55 120 148 271 l297 479 q39 63 39 115 q0 73 -115 73 l-47 0 l16 86 l500 0 Z" /><glyph glyph-name="afii10040" unicode="&#x426;" d="M-20 86 l24 0 q98 0 140 36.5 q42 36.5 57 102.5 l217 1012 q8 37 8 57 q0 82 -147 82 l-27 0 l18 86 l596 0 l-18 -86 l-27 0 q-95 0 -139.5 -36 q-44.5 -36 -60.5 -111 l-238 -1127 l604 0 l242 1135 q8 38 8 57 q0 82 -147 82 l-27 0 l18 86 l596 0 l-18 -86 l-27 0 q-96 0 -138 -33.5 q-42 -33.5 -58 -103.5 l-217 -1014 q-9 -42 -9 -57 q0 -77 123 -82 l72 0 l-111 -516 l-94 0 q22 100 22 175 q0 255 -245 255 l-1016 0 l19 86 Z" /><glyph glyph-name="afii10041" unicode="&#x427;" d="M719 0 l16 86 l27 0 q170 0 201 147 l84 392 q-254 -88 -388 -88 q-391 0 -391 303 q0 60 39 235 l35 160 q8 37 8 57 q0 82 -147 82 l-27 0 l19 86 l596 0 l-17 -86 l-26 0 q-98 0 -142 -37 q-44 -37 -59 -110 l-31 -142 q-37 -169 -37 -231 q0 -195 230 -195 q123 0 360 78 l107 500 q8 37 8 57 q0 82 -148 82 l-26 0 l18 86 l596 0 l-18 -86 l-27 0 q-98 0 -141 -37 q-43 -37 -58 -110 l-213 -1004 q-8 -38 -8 -57 q0 -82 148 -82 l26 0 l-18 -86 l-596 0 Z" /><glyph glyph-name="afii10042" unicode="&#x428;" d="M-41 0 l18 86 l25 0 q98 0 140 36.5 q42 36.5 57 102.5 l217 1012 q8 37 8 57 q0 82 -148 82 l-26 0 l18 86 l596 0 l-18 -86 l-27 0 q-170 0 -201 -147 l-237 -1127 l522 0 l242 1135 q8 38 8 57 q0 82 -147 82 l-27 0 l18 86 l596 0 l-18 -86 l-27 0 q-96 0 -138 -33.5 q-42 -33.5 -58 -103.5 l-244 -1137 l524 0 l242 1135 q8 38 8 57 q0 82 -147 82 l-27 0 l18 86 l596 0 l-18 -86 l-27 0 q-96 0 -138 -33.5 q-42 -33.5 -58 -103.5 l-217 -1014 q-9 -42 -9 -57 q0 -82 148 -82 l27 0 l-19 -86 l-2052 0 Z" /><glyph glyph-name="afii10043" unicode="&#x429;" d="M2050 86 l-111 -516 l-94 0 q21 99 21 173 q0 251 -230 257 l-1677 0 l18 86 l25 0 q98 0 140 36.5 q42 36.5 57 102.5 l217 1012 q8 37 8 57 q0 82 -148 82 l-26 0 l18 86 l596 0 l-18 -86 l-27 0 q-170 0 -201 -147 l-237 -1127 l522 0 l242 1135 q8 38 8 57 q0 82 -147 82 l-27 0 l18 86 l596 0 l-18 -86 l-27 0 q-96 0 -138 -33.5 q-42 -33.5 -58 -103.5 l-244 -1137 l524 0 l242 1135 q8 38 8 57 q0 82 -147 82 l-27 0 l18 86 l596 0 l-18 -86 l-27 0 q-96 0 -138 -33.5 q-42 -33.5 -58 -103.5 l-217 -1014 q-9 -42 -9 -57 q0 -77 123 -82 l72 0 Z" /><glyph glyph-name="afii10044" unicode="&#x42a;" d="M168 0 l16 86 l27 0 q170 0 201 147 l239 1127 l-155 0 q-146 0 -205 -168 l-29 -88 l-106 0 l86 358 l872 0 l-18 -86 l-68 0 q-97 0 -139.5 -34 q-42.5 -34 -57.5 -103 l-92 -430 l117 0 q504 0 504 -342 q0 -223 -151 -345 q-151 -122 -439 -122 l-602 0 ZM590 102 l158 0 q391 0 391 349 q0 262 -289 262 l-131 0 l-129 -611 Z" /><glyph glyph-name="afii10045" unicode="&#x42b;" d="M-27 86 l60 0 q45 0 97.5 30.5 q52.5 30.5 70.5 116.5 l213 1004 q8 38 8 57 q0 82 -148 82 l-26 0 l18 86 l596 0 l-18 -86 l-27 0 q-100 0 -142.5 -40 q-42.5 -40 -60.5 -119 l-86 -408 l56 0 q503 0 503 -342 q0 -223 -151 -345 q-151 -122 -438 -122 l-541 0 l16 86 ZM379 102 l96 0 q391 0 391 349 q0 138 -70.5 200 q-70.5 62 -217.5 62 l-70 0 l-129 -611 ZM1968 1462 l-18 -86 l-27 0 q-98 0 -141 -37 q-43 -37 -58 -110 l-213 -1004 q-8 -38 -8 -57 q0 -82 148 -82 l26 0 l-18 -86 l-596 0 l16 86 l27 0 q170 0 201 147 l213 1004 q8 38 8 57 q0 82 -148 82 l-26 0 l18 86 l596 0 Z" /><glyph glyph-name="afii10046" unicode="&#x42c;" d="M-27 86 l60 0 q45 0 97.5 30.5 q52.5 30.5 70.5 116.5 l213 1004 q8 38 8 57 q0 82 -148 82 l-26 0 l18 86 l596 0 l-18 -86 l-27 0 q-100 0 -142.5 -40 q-42.5 -40 -60.5 -119 l-86 -408 l138 0 q503 0 503 -342 q0 -223 -151 -345 q-151 -122 -438 -122 l-623 0 l16 86 ZM379 102 l178 0 q391 0 391 349 q0 139 -70.5 200.5 q-70.5 61.5 -218.5 61.5 l-151 0 l-129 -611 Z" /><glyph glyph-name="afii10047" unicode="&#x42d;" d="M965 688 l-570 0 l21 100 l565 0 q23 124 23 213 q0 183 -73 281 q-73 98 -210 98 q-115 0 -195.5 -80.5 q-80.5 -80.5 -109.5 -216.5 q-66 0 -108 36.5 q-42 36.5 -42 105.5 q0 105 131 181.5 q131 76.5 336 76.5 q236 0 367 -136 q131 -136 131 -389 q0 -403 -215.5 -690.5 q-215.5 -287.5 -562.5 -287.5 q-204 0 -315 70 q-111 70 -111 194 q0 70 44 109.5 q44 39.5 111 39.5 q0 -118 79 -210.5 q79 -92.5 208 -92.5 q365 0 496 598 Z" /><glyph glyph-name="afii10048" unicode="&#x42e;" d="M807 713 l-299 0 l-102 -488 q-9 -43 -9 -57 q0 -82 148 -82 l26 0 l-18 -86 l-596 0 l16 86 l27 0 q99 0 142 37.5 q43 37.5 59 109.5 l213 1004 q8 38 8 57 q0 82 -148 82 l-26 0 l18 86 l596 0 l-18 -86 l-27 0 q-98 0 -141 -37 q-43 -37 -58 -110 l-88 -414 l299 0 q84 306 283 488 q199 182 463 182 q227 0 366.5 -148 q139.5 -148 139.5 -415 q0 -351 -217.5 -648 q-217.5 -297 -558.5 -297 q-230 0 -371 153 q-141 153 -141 415 q0 93 14 168 ZM1319 90 q237 0 386.5 282 q149.5 282 149.5 605 q0 192 -78 294.5 q-78 102.5 -221 102.5 q-238 0 -389 -284 q-151 -284 -151 -603 q0 -190 81 -293.5 q81 -103.5 222 -103.5 Z" /><glyph glyph-name="afii10049" unicode="&#x42f;" d="M674 631 l-301 -447 q-72 -107 -150 -145.5 q-78 -38.5 -268 -38.5 l-29 0 l13 86 l6 0 q64 0 114.5 30.5 q50.5 30.5 124.5 133.5 l312 436 q-213 105 -213 334 q0 231 156 336.5 q156 105.5 509 105.5 l506 0 l-18 -86 l-27 0 q-98 0 -141 -37.5 q-43 -37.5 -58 -109.5 l-213 -1004 q-8 -38 -8 -57 q0 -82 148 -82 l26 0 l-18 -86 l-596 0 l16 86 l27 0 q170 0 201 147 l84 398 l-203 0 ZM1032 1364 l-131 0 q-403 0 -403 -344 q0 -293 327 -293 l72 0 l135 637 Z" /><glyph glyph-name="afii10066" unicode="&#x431;" d="M1155 1569 l90 4 q-29 -149 -98.5 -201 q-69.5 -52 -401.5 -88 q-225 -26 -320.5 -106.5 q-95.5 -80.5 -152.5 -339.5 l15 0 q61 103 172.5 164 q111.5 61 234.5 61 q183 0 295.5 -116 q112.5 -116 112.5 -316 q0 -271 -167.5 -461 q-167.5 -190 -430.5 -190 q-189 0 -295.5 144 q-106.5 144 -106.5 404 q0 412 172.5 660.5 q172.5 248.5 485.5 284.5 q363 41 395 96 ZM530 86 q144 0 251.5 167.5 q107.5 167.5 107.5 414.5 q0 286 -211 286 q-144 0 -252.5 -163 q-108.5 -163 -108.5 -416 q0 -289 213 -289 Z" /><glyph glyph-name="afii10067" unicode="&#x432;" d="M639 575 q301 -70 301 -272 q0 -140 -123 -231.5 q-123 -91.5 -319 -91.5 q-194 0 -302 100 q-108 100 -108 282 q0 295 171.5 525.5 q171.5 230.5 438.5 230.5 q137 0 225.5 -66 q88.5 -66 88.5 -169 q0 -232 -373 -308 ZM338 627 l20 0 q208 0 325.5 61.5 q117.5 61.5 117.5 175.5 q0 75 -41.5 115.5 q-41.5 40.5 -106.5 40.5 q-92 0 -184 -118 q-92 -118 -131 -275 ZM319 532 q-18 -88 -18 -194 q0 -246 205 -246 q109 0 170 57 q61 57 61 158 q0 110 -89 172 q-89 62 -132 62 l-197 -9 Z" /><glyph glyph-name="afii10068" unicode="&#x433;" d="M793 254 q22 -20 22 -66 q0 -98 -92 -153 q-92 -55 -272 -55 q-180 0 -278.5 73.5 q-98.5 73.5 -98.5 200.5 q0 88 42 149 q42 61 114 102.5 q72 41.5 251 108.5 q148 56 195 107.5 q47 51.5 47 124.5 q0 141 -164 141 q-189 0 -283 -125 q-16 12 -16 51 q0 203 330 203 q159 0 252.5 -65.5 q93.5 -65.5 93.5 -171.5 q0 -192 -249 -282 q-259 -94 -329.5 -151.5 q-70.5 -57.5 -70.5 -173.5 q0 -166 200 -166 q193 0 306 148 Z" /><glyph glyph-name="afii10069" unicode="&#x434;" d="M911 952 q0 242 -73 382.5 q-73 140.5 -211 140.5 q-111 0 -211 -33 l-27 88 q114 47 266 47 q221 0 341 -172 q120 -172 120 -496 q0 -433 -163 -681 q-163 -248 -447 -248 q-200 0 -309 110.5 q-109 110.5 -109 312.5 q0 265 166 456.5 q166 191.5 418 191.5 q165 0 239 -99 ZM909 778 q-73 166 -247 166 q-153 0 -258 -156.5 q-105 -156.5 -105 -408.5 q0 -299 238 -299 q157 0 257.5 194 q100.5 194 114.5 504 Z" /><glyph glyph-name="afii10072" unicode="&#x436;" d="M827 0 l105 504 l-150 0 q-62 -241 -204 -385 q-142 -144 -322 -144 q-118 0 -186 52 q-68 52 -68 137 q0 63 45 103 q45 40 119 40 q0 -233 129 -233 q124 0 225 203.5 q101 203.5 101 429.5 q0 278 -175 278 q-144 0 -243 -147 q-17 19 -17 51 q0 83 82 154 q82 71 219 71 q153 0 238.5 -101 q85.5 -101 85.5 -282 q0 -67 -10 -131 l151 0 l105 498 l178 0 l-107 -498 l160 0 q65 235 206 376.5 q141 141.5 318 141.5 q117 0 185.5 -51.5 q68.5 -51.5 68.5 -136.5 q0 -63 -44 -103.5 q-44 -40.5 -119 -40.5 q0 234 -129 234 q-124 0 -225 -203.5 q-101 -203.5 -101 -429.5 q0 -278 174 -278 q146 0 244 147 q16 -18 16 -51 q0 -84 -82.5 -154.5 q-82.5 -70.5 -218.5 -70.5 q-152 0 -238 100.5 q-86 100.5 -86 281.5 q0 62 13 142 l-162 0 l-109 -504 l-172 0 Z" /><glyph glyph-name="afii10073" unicode="&#x437;" d="M172 334 q0 -118 64 -187 q64 -69 167 -69 q107 0 176.5 72 q69.5 72 69.5 186 q0 81 -56 132.5 q-56 51.5 -147 51.5 l-190 0 l23 111 l192 0 q119 0 186.5 58 q67.5 58 67.5 163 q0 77 -45.5 123.5 q-45.5 46.5 -130.5 46.5 q-195 0 -244 -221 q-141 0 -141 90 q0 97 103.5 161 q103.5 64 297.5 64 q168 0 264.5 -69.5 q96.5 -69.5 96.5 -182.5 q0 -202 -281 -284 l-2 -11 q205 -57 205 -229 q0 -171 -124.5 -265.5 q-124.5 -94.5 -348.5 -94.5 q-174 0 -272.5 61.5 q-98.5 61.5 -98.5 157.5 q0 58 41.5 96.5 q41.5 38.5 126.5 38.5 Z" /><glyph glyph-name="afii10076" unicode="&#x43a;" d="M88 0 l170 793 q18 84 18 122 q0 97 -143 97 l-16 0 l18 86 l381 0 l-106 -496 q85 0 140.5 50.5 q55.5 50.5 197.5 224.5 q122 144 186 188.5 q64 44.5 153 44.5 q152 0 152 -123 q0 -113 -111 -131 q0 115 -90 115 q-57 0 -114 -46.5 q-57 -46.5 -172 -186.5 q-91 -110 -146 -142 q64 -2 122 -54 q58 -52 89 -126 l72 -166 q71 -164 209 -164 l6 0 l-19 -86 l-71 0 q-150 0 -210 40.5 q-60 40.5 -106 152.5 l-67 172 q-36 92 -84.5 117.5 q-48.5 25.5 -157.5 25.5 l-104 -508 l-197 0 Z" /><glyph glyph-name="afii10077" unicode="&#x43b;" d="M119 254 q0 -38 22 -67 q22 -29 58 -29 q72 0 135.5 115.5 q63.5 115.5 192.5 468.5 q94 260 169.5 314 q75.5 54 202.5 54 q134 0 315 -33 l-141 -663 q-26 -122 -26 -207 q0 -98 73 -98 q51 0 125 45 l37 -60 q-130 -114 -260 -114 q-83 0 -131.5 54.5 q-48.5 54.5 -48.5 139.5 q0 80 22 182 l135 641 q-49 21 -104 21 q-111 0 -162 -74.5 q-51 -74.5 -174 -413.5 q-101 -286 -191 -415 q-90 -129 -235 -129 q-61 0 -95 40 q-34 40 -34 97 q0 57 33 94 q33 37 82 37 Z" /><glyph glyph-name="afii10078" unicode="&#x43c;" d="M1475 848 l-9 0 l-585 -848 l-95 0 l-124 817 q-17 -43 -41 -111 q-106 -303 -169.5 -446 q-63.5 -143 -140.5 -208.5 q-77 -65.5 -178 -65.5 q-61 0 -95 40 q-34 40 -34 97 q0 57 33 94 q33 37 82 37 q0 -38 22 -67 q22 -29 58 -29 q57 0 122.5 93 q65.5 93 188.5 450 q70 203 106 255 q-45 56 -161 56 l-27 0 l16 86 l371 0 l121 -830 l580 830 l364 0 l-16 -86 l-6 0 q-94 0 -129 -35.5 q-35 -35.5 -50 -102.5 l-98 -460 q-27 -127 -27 -207 q0 -98 74 -98 q51 0 125 45 l37 -60 q-130 -114 -260 -114 q-83 0 -131.5 54.5 q-48.5 54.5 -48.5 139.5 q0 80 22 182 l103 492 Z" /><glyph glyph-name="afii10079" unicode="&#x43d;" d="M1184 1098 l-148 -684 q-26 -120 -26 -207 q0 -98 73 -98 q51 0 125 45 l37 -60 q-130 -114 -260 -114 q-83 0 -131.5 54.5 q-48.5 54.5 -48.5 139.5 q0 80 22 182 l33 160 l-471 0 l-108 -516 l-191 0 l172 823 q12 57 12 92 q0 97 -143 97 l-16 0 l18 86 l379 0 l-104 -488 l473 0 l102 488 l201 0 Z" /><glyph glyph-name="afii10086" unicode="&#x444;" d="M762 -72 q-40 -191 -145.5 -305.5 q-105.5 -114.5 -260.5 -114.5 q-237 0 -237 152 q0 111 151 111 q0 -168 111 -168 q138 0 192 260 l41 194 q-97 -77 -239 -77 q-130 0 -208.5 107 q-78.5 107 -78.5 300 q0 278 155.5 504.5 q155.5 226.5 411.5 226.5 q95 0 174 -43 l27 119 q51 224 150.5 303.5 q99.5 79.5 234.5 79.5 q125 0 188.5 -35.5 q63.5 -35.5 63.5 -91.5 q0 -117 -158 -117 q0 150 -104 150 q-137 0 -193 -260 l-39 -183 q98 78 240 78 q129 0 207 -107 q78 -107 78 -300 q0 -279 -156 -505 q-156 -226 -412 -226 q-95 0 -174 43 l-20 -95 ZM639 176 l164 776 q-11 32 -53 53 q-42 21 -84 21 q-160 0 -264.5 -216.5 q-104.5 -216.5 -104.5 -444.5 q0 -273 162 -273 q89 0 180 84 ZM975 922 l-166 -777 q11 -33 53.5 -53 q42.5 -20 83.5 -20 q160 0 264.5 217 q104.5 217 104.5 444 q0 273 -160 273 q-89 0 -180 -84 Z" /><glyph glyph-name="afii10088" unicode="&#x446;" d="M1079 10 q-85 -30 -143 -30 q-77 0 -125.5 53 q-48.5 53 -48.5 141 q0 53 10 121 l-16 0 q-111 -183 -198.5 -248 q-87.5 -65 -197.5 -65 q-219 0 -219 227 q0 65 37 225 l80 359 q18 81 18 122 q0 97 -143 97 l-16 0 l18 86 l381 0 l-135 -613 q-41 -186 -41 -247 q0 -125 100 -125 q105 0 226.5 151.5 q121.5 151.5 158.5 323.5 l107 510 l198 0 l-141 -658 q-28 -131 -28 -227 q0 -104 67 -104 q58 0 131 45 l37 -60 q-47 -288 -110 -424.5 q-63 -136.5 -228 -136.5 q-97 0 -176 31 l23 80 q34 -11 81 -11 q85 0 173.5 103.5 q88.5 103.5 119.5 273.5 Z" /><glyph glyph-name="afii10089" unicode="&#x447;" d="M1147 1098 l-148 -684 q-26 -120 -26 -207 q0 -98 74 -98 q50 0 124 45 l37 -60 q-131 -114 -260 -114 q-83 0 -131.5 54.5 q-48.5 54.5 -48.5 139.5 q0 75 23 182 l30 152 q-166 -92 -237 -111.5 q-71 -19.5 -148 -19.5 q-111 0 -180.5 64.5 q-69.5 64.5 -69.5 174.5 q0 31 11 82 l28 125 q13 58 13 92 q0 97 -144 97 l-16 0 l18 86 l379 0 l-80 -371 q-18 -83 -18 -113 q0 -102 121 -102 q155 0 344 94 l104 492 l201 0 Z" /><glyph glyph-name="afii10090" unicode="&#x448;" d="M1343 258 q-164 -276 -372 -276 q-219 0 -219 227 q0 25 4 49 l-21 0 q-164 -276 -373 -276 q-219 0 -219 227 q0 56 26 170 l95 444 q12 56 12 92 q0 97 -143 97 l-16 0 l18 86 l379 0 l-131 -613 q-43 -201 -43 -252 q0 -120 94 -120 q105 0 217.5 134 q112.5 134 157.5 281 l117 570 l192 0 l-129 -602 q-41 -191 -41 -263 q0 -120 94 -120 q114 0 234.5 155.5 q120.5 155.5 153.5 304.5 l110 525 l191 0 l-142 -658 q-30 -139 -30 -227 q0 -104 67 -104 q58 0 131 45 l37 -60 q-130 -114 -260 -114 q-77 0 -125.5 53 q-48.5 53 -48.5 141 q0 38 6 84 l-23 0 Z" /><glyph glyph-name="afii10091" unicode="&#x449;" d="M1343 258 q-164 -276 -372 -276 q-219 0 -219 227 q0 25 4 49 l-21 0 q-164 -276 -373 -276 q-219 0 -219 227 q0 56 26 170 l95 444 q12 56 12 92 q0 97 -143 97 l-16 0 l18 86 l379 0 l-131 -613 q-43 -201 -43 -252 q0 -120 94 -120 q105 0 217.5 134 q112.5 134 157.5 281 l117 570 l192 0 l-129 -602 q-41 -191 -41 -263 q0 -120 94 -120 q114 0 234.5 155.5 q120.5 155.5 153.5 304.5 l110 525 l191 0 l-142 -658 q-30 -139 -30 -227 q0 -104 67 -104 q58 0 131 45 l37 -60 q-52 -307 -116 -434 q-64 -127 -224 -127 q-97 0 -176 31 l22 80 q37 -11 82 -11 q85 0 174.5 104 q89.5 104 120.5 273 q-86 -30 -143 -30 q-77 0 -125.5 53 q-48.5 53 -48.5 141 q0 38 6 84 l-23 0 Z" /><glyph glyph-name="afii10092" unicode="&#x44a;" d="M674 1012 q-167 -8 -262 -8 q-83 0 -126.5 -34.5 q-43.5 -34.5 -80.5 -131.5 l-27 -68 l-100 0 l84 328 l581 0 l64 -66 q-139 -177 -236 -409 l55 4 q70 6 134 6 q395 0 395 -289 q0 -169 -119.5 -266.5 q-119.5 -97.5 -322.5 -97.5 q-400 0 -400 333 q0 343 361 699 ZM541 518 q-35 -101 -35 -217 q0 -221 215 -221 q103 0 167 73.5 q64 73.5 64 182.5 q0 190 -223 190 q-77 0 -188 -8 Z" /><glyph glyph-name="afii10093" unicode="&#x44b;" d="M94 1012 l19 86 l379 0 l-101 -475 q114 10 187 10 q354 0 354 -289 q0 -168 -106.5 -266 q-106.5 -98 -288.5 -98 q-390 0 -390 292 q0 95 25 207 l70 344 q12 59 12 92 q0 97 -143 97 l-17 0 ZM369 518 q-25 -126 -25 -217 q0 -221 184 -221 q95 0 148 71.5 q53 71.5 53 184.5 q0 190 -192 190 q-72 0 -168 -8 ZM1067 1012 l18 86 l367 0 l-139 -658 q-31 -147 -31 -227 q0 -104 68 -104 q59 0 147 53 l37 -60 q-142 -122 -277 -122 q-77 0 -123.5 55.5 q-46.5 55.5 -46.5 138.5 q0 92 46 322 l79 376 q7 33 7 54 q0 86 -125 86 l-27 0 Z" /><glyph glyph-name="afii10094" unicode="&#x44c;" d="M94 1012 l19 86 l379 0 l-101 -475 q126 10 207 10 q395 0 395 -289 q0 -169 -119.5 -266.5 q-119.5 -97.5 -322.5 -97.5 q-404 0 -404 292 q0 95 25 207 l70 344 q12 59 12 92 q0 97 -143 97 l-17 0 ZM371 518 q-27 -132 -27 -217 q0 -221 215 -221 q106 0 169 74.5 q63 74.5 63 181.5 q0 190 -224 190 q-82 0 -196 -8 Z" /><glyph glyph-name="afii10095" unicode="&#x44d;" d="M178 811 q-26 29 -26 80 q0 92 92 159.5 q92 67.5 254 67.5 q191 0 292 -110 q101 -110 101 -314 q0 -265 -160 -489.5 q-160 -224.5 -399 -224.5 q-161 0 -245.5 59.5 q-84.5 59.5 -84.5 159.5 q0 58 44.5 96.5 q44.5 38.5 129.5 38.5 q0 -124 45.5 -190 q45.5 -66 120.5 -66 q103 0 188 116 q85 116 125 306 l-473 0 l25 110 l467 0 q4 40 4 78 q0 301 -217 301 q-187 0 -283 -178 Z" /><glyph glyph-name="afii10096" unicode="&#x44e;" d="M676 516 l-287 0 l-108 -516 l-191 0 l172 823 q12 57 12 92 q0 97 -143 97 l-16 0 l18 86 l379 0 l-104 -488 l286 0 q62 236 210 372 q148 136 349 136 q173 0 273 -109.5 q100 -109.5 100 -314.5 q0 -272 -160 -493 q-160 -221 -422 -221 q-176 0 -276 111 q-100 111 -100 312 q0 69 8 113 ZM1069 80 q158 0 251 201 q93 201 93 444 q0 285 -186 285 q-156 0 -251 -200.5 q-95 -200.5 -95 -447.5 q0 -282 188 -282 Z" /><glyph glyph-name="afii10097" unicode="&#x44f;" d="M649 494 q-75 0 -116.5 -49.5 q-41.5 -49.5 -90.5 -170.5 q-63 -159 -132 -223.5 q-69 -64.5 -177 -64.5 q-61 0 -95 40 q-34 40 -34 97 q0 57 33 94 q33 37 82 37 q0 -38 22 -67 q22 -29 58 -29 q43 0 78.5 39.5 q35.5 39.5 99.5 185.5 q46 101 104 127 q-128 28 -200 103.5 q-72 75.5 -72 179.5 q0 313 467 313 q178 0 407 -51 l-137 -641 q-26 -122 -26 -207 q0 -98 73 -98 q51 0 125 45 l37 -60 q-130 -114 -260 -114 q-83 0 -131.5 54.5 q-48.5 54.5 -48.5 139.5 q0 80 22 182 l29 138 l-117 0 ZM870 981 q-99 31 -192 31 q-279 0 -279 -230 q0 -88 63.5 -144 q63.5 -56 153.5 -56 l170 0 l84 399 Z" /><glyph glyph-name="afii10099" unicode="&#x452;" d="M324 -475 l18 94 q51 -14 94 -14 q103 0 161.5 91.5 q58.5 91.5 98.5 287.5 l127 598 q41 193 41 243 q0 121 -94 121 q-114 0 -234.5 -155.5 q-120.5 -155.5 -152.5 -305.5 l-102 -485 l-191 0 l254 1214 l-184 0 l20 97 l185 0 q10 46 10 63 q0 96 -144 96 l-16 0 l18 86 l377 0 l-53 -245 l352 0 l-20 -97 l-352 0 l-7 -34 q-50 -242 -90 -379 l23 0 q165 276 379 276 q219 0 219 -227 q0 -58 -25 -173 q-7 -30 -12 -56 l-135 -637 q-52 -244 -155 -360 q-103 -116 -292 -116 q-57 0 -118 17 Z" /><glyph glyph-name="afii10101" unicode="&#x454;" d="M821 256 q21 -13 21 -51 q0 -82 -96.5 -153.5 q-96.5 -71.5 -258.5 -71.5 q-179 0 -289 113 q-110 113 -110 310 q0 268 173 491.5 q173 223.5 437 223.5 q141 0 220 -56 q79 -56 79 -140 q0 -62 -49.5 -103 q-49.5 -41 -132.5 -41 q0 109 -42 175.5 q-42 66.5 -116 66.5 q-100 0 -185.5 -110.5 q-85.5 -110.5 -137.5 -299.5 l469 0 l-23 -110 l-471 0 q-8 -48 -8 -113 q0 -278 225 -278 q179 0 295 147 Z" /><glyph glyph-name="afii10106" unicode="&#x459;" d="M973 997 q-43 21 -96 21 q-109 0 -158.5 -74.5 q-49.5 -74.5 -169.5 -413.5 q-104 -294 -192 -419 q-88 -125 -226 -125 q-61 0 -94 40 q-33 40 -33 97 q0 57 33 94 q33 37 82 37 q0 -39 21 -67.5 q21 -28.5 55 -28.5 q66 0 119.5 96 q53.5 96 196.5 488 q92 254 166.5 311 q74.5 57 203.5 57 q134 0 305 -31 l-94 -456 q114 10 186 10 q354 0 354 -289 q0 -168 -106.5 -266 q-106.5 -98 -288.5 -98 q-385 0 -385 358 q0 51 16 131 l74 354 q31 148 31 174 ZM1069 518 q-25 -136 -25 -235 q0 -203 185 -203 q94 0 147.5 71.5 q53.5 71.5 53.5 184.5 q0 190 -193 190 q-70 0 -168 -8 Z" /><glyph glyph-name="afii10107" unicode="&#x45a;" d="M1094 1098 l-99 -475 q114 10 187 10 q354 0 354 -289 q0 -168 -106.5 -266 q-106.5 -98 -288.5 -98 q-383 0 -383 358 q0 47 14 131 l8 47 l-391 0 l-108 -516 l-191 0 l172 823 q12 57 12 92 q0 97 -143 97 l-16 0 l18 86 l379 0 l-104 -488 l393 0 l100 488 l193 0 ZM973 518 q-25 -136 -25 -235 q0 -203 185 -203 q95 0 147.5 72 q52.5 72 52.5 184 q0 190 -192 190 q-70 0 -168 -8 Z" /><glyph glyph-name="afii10193" unicode="&#x45f;" d="M135 1098 l381 0 l-135 -613 q-41 -186 -41 -247 q0 -125 100 -125 q105 0 226.5 151.5 q121.5 151.5 158.5 323.5 l107 510 l198 0 l-141 -658 q-31 -145 -31 -227 q0 -104 68 -104 q58 0 131 45 l37 -60 q-130 -114 -260 -114 q-77 0 -124.5 55 q-47.5 55 -47.5 139 q0 53 10 121 l-16 0 q-111 -183 -198.5 -248 q-87.5 -65 -197.5 -65 q-219 0 -219 227 q0 65 37 225 l80 359 q18 81 18 122 q0 97 -143 97 l-16 0 l18 86 ZM680 33 q-47 -265 -111.5 -382.5 q-64.5 -117.5 -218.5 -117.5 q-97 0 -176 31 l23 80 q35 -11 82 -11 q88 0 173 87.5 q85 87.5 117 234.5 l111 78 Z" /><glyph glyph-name="afii10050" unicode="&#x490;" d="M1217 1360 l-570 0 l-241 -1135 q-9 -42 -9 -57 q0 -82 148 -82 l67 0 l-18 -86 l-635 0 l18 86 l25 0 q168 0 199 147 l211 996 q10 47 10 65 q0 82 -148 82 l-26 0 l18 86 l666 0 q87 0 144.5 32 q57.5 32 99.5 153 l24 71 l107 0 l-90 -358 Z" /><glyph glyph-name="afii10098" unicode="&#x491;" d="M90 0 l172 823 q12 57 12 92 q0 97 -143 97 l-16 0 l18 86 l518 0 q72 0 108.5 36 q36.5 36 71.5 130 l25 67 l100 0 l-69 -327 l-395 0 l-211 -1004 l-191 0 Z" /><glyph glyph-name="endash" unicode="&#x2013;" d="M1036 489 l-1042 0 l24 121 l1045 0 l-27 -121 Z" /><glyph glyph-name="emdash" unicode="&#x2014;" d="M2060 489 l-2066 0 l24 121 l2069 0 l-27 -121 Z" /><glyph glyph-name="afii00208" unicode="&#x2015;" d="M2060 489 l-2066 0 l24 121 l2069 0 l-27 -121 Z" /><glyph glyph-name="underscoredbl" unicode="&#x2017;" d="M715 -170 l-862 0 l24 121 l862 0 l-24 -121 ZM664 -412 l-861 0 l25 121 l860 0 l-24 -121 Z" /><glyph glyph-name="quoteleft" unicode="&#x2018;" d="M586 1462 l-8 -86 q-209 -46 -209 -172 q0 -36 67 -78 q66 -42 66 -104 q0 -55 -35 -88 q-35 -33 -92 -33 q-67 0 -113.5 46.5 q-46.5 46.5 -46.5 121.5 q0 148 95 252 q95 104 276 141 Z" /><glyph glyph-name="quoteright" unicode="&#x2019;" d="M168 901 l8 86 q209 47 209 172 q0 36 -66 78 q-67 42 -67 104 q0 55 35 88 q35 33 92 33 q69 0 114.5 -46.5 q45.5 -46.5 45.5 -121.5 q0 -151 -96.5 -254 q-96.5 -103 -274.5 -139 Z" /><glyph glyph-name="quotesinglbase" unicode="&#x201a;" d="M-57 -299 l8 86 q209 47 209 172 q0 36 -66 78 q-67 42 -67 104 q0 55 35 88 q35 33 92 33 q69 0 114 -45.5 q45 -45.5 45 -122.5 q0 -150 -95 -253.5 q-95 -103.5 -275 -139.5 Z" /><glyph glyph-name="quotereversed" unicode="&#x201b;" d="M543 969 l-17 -86 q-266 84 -266 315 q0 121 58.5 192.5 q58.5 71.5 150.5 71.5 q104 0 104 -96 q0 -95 -95 -137 q-95 -42 -95 -105 q0 -99 160 -155 Z" /><glyph glyph-name="quotedblleft" unicode="&#x201c;" d="M586 1462 l-8 -86 q-209 -46 -209 -172 q0 -36 67 -78 q66 -42 66 -104 q0 -55 -35 -88 q-35 -33 -92 -33 q-67 0 -113.5 46.5 q-46.5 46.5 -46.5 121.5 q0 148 95 252 q95 104 276 141 ZM995 1462 l-8 -86 q-209 -47 -209 -172 q0 -36 67 -78 q66 -42 66 -104 q0 -55 -34.5 -88 q-34.5 -33 -92.5 -33 q-68 0 -113.5 46.5 q-45.5 46.5 -45.5 121.5 q0 150 95 253.5 q95 103.5 275 139.5 Z" /><glyph glyph-name="quotedblright" unicode="&#x201d;" d="M168 901 l8 86 q209 47 209 172 q0 36 -66 78 q-67 42 -67 104 q0 55 35 88 q35 33 92 33 q69 0 114.5 -46.5 q45.5 -46.5 45.5 -121.5 q0 -151 -96.5 -254 q-96.5 -103 -274.5 -139 ZM578 901 l8 86 q209 47 209 172 q0 36 -66 78 q-67 42 -67 104 q0 55 34 88 q34 33 92 33 q69 0 114.5 -46.5 q45.5 -46.5 45.5 -121.5 q0 -152 -96.5 -255 q-96.5 -103 -273.5 -138 Z" /><glyph glyph-name="quotedblbase" unicode="&#x201e;" d="M-57 -299 l8 86 q209 47 209 172 q0 36 -66 78 q-67 42 -67 104 q0 55 35 88 q35 33 92 33 q69 0 114 -45.5 q45 -45.5 45 -122.5 q0 -150 -95 -253.5 q-95 -103.5 -275 -139.5 ZM350 -299 l8 86 q209 47 209 172 q0 36 -66 78 q-67 42 -67 104 q0 55 35 88 q35 33 92 33 q69 0 114.5 -46.5 q45.5 -46.5 45.5 -121.5 q0 -151 -96.5 -254 q-96.5 -103 -274.5 -139 Z" /><glyph glyph-name="dagger" unicode="&#x2020;" d="M631 772 q-174 -457 -291 -999 l-86 0 q113 532 139 999 l123 232 l-356 -58 l37 176 l331 -53 l52 487 l196 0 l-162 -487 l357 53 l-37 -176 l-332 58 l29 -232 Z" /><glyph glyph-name="daggerdbl" unicode="&#x2021;" d="M434 223 l357 58 l-39 -177 l-332 54 l-25 -385 l-196 0 l135 385 l-354 -54 l38 177 l330 -58 l-24 232 q36 20 86 103 q50 83 50 172 q0 118 -48 144 l123 232 l-357 -57 l39 176 l332 -54 l29 385 l196 0 l-139 -385 l356 54 l-39 -176 l-331 57 l28 -232 q-34 -15 -86 -95.5 q-52 -80.5 -52 -170.5 q0 -115 50 -153 l-127 -232 Z" /><glyph glyph-name="bullet" unicode="&#x2022;" d="M387 1026 q270 0 270 -297 q0 -297 -270 -297 q-270 0 -270 297 q0 297 270 297 Z" /><glyph glyph-name="ellipsis" unicode="&#x2026;" d="M217 -16 q-127 0 -127 125 q0 71 36.5 114 q36.5 43 98.5 43 q127 0 127 -125 q0 -72 -36.5 -114.5 q-36.5 -42.5 -98.5 -42.5 ZM1391 -16 q-127 0 -127 125 q0 71 36.5 114 q36.5 43 98.5 43 q60 0 93.5 -34 q33.5 -34 33.5 -91 q0 -73 -36.5 -115 q-36.5 -42 -98.5 -42 ZM799 -16 q-127 0 -127 125 q0 71 36.5 114 q36.5 43 98.5 43 q127 0 127 -125 q0 -73 -36.5 -115 q-36.5 -42 -98.5 -42 Z" /><glyph glyph-name="perthousand" unicode="&#x2030;" d="M565 1481 q273 0 273 -326 q0 -207 -120.5 -393.5 q-120.5 -186.5 -318.5 -186.5 q-125 0 -194.5 83.5 q-69.5 83.5 -69.5 242.5 q0 216 118 398 q118 182 312 182 ZM297 870 q0 -211 111 -211 q111 0 185.5 177.5 q74.5 177.5 74.5 351.5 q0 211 -111 211 q-111 0 -185.5 -177 q-74.5 -177 -74.5 -352 ZM494 0 l-152 0 l1028 1462 l143 0 l-1019 -1462 ZM1470 889 q273 0 273 -326 q0 -207 -120.5 -393 q-120.5 -186 -317.5 -186 q-265 0 -265 325 q0 216 118 398 q118 182 312 182 ZM1202 279 q0 -211 111 -211 q111 0 185.5 176.5 q74.5 176.5 74.5 351.5 q0 211 -111 211 q-111 0 -185.5 -176.5 q-74.5 -176.5 -74.5 -351.5 ZM2265 889 q272 0 272 -326 q0 -207 -120.5 -393 q-120.5 -186 -317.5 -186 q-264 0 -264 325 q0 216 118 398 q118 182 312 182 ZM1997 279 q0 -211 110 -211 q111 0 185.5 176.5 q74.5 176.5 74.5 351.5 q0 211 -110 211 q-111 0 -185.5 -176.5 q-74.5 -176.5 -74.5 -351.5 Z" /><glyph glyph-name="guilsinglleft" unicode="&#x2039;" d="M139 586 l389 356 l103 0 l-295 -397 l129 -381 l-103 0 l-237 356 l14 66 Z" /><glyph glyph-name="guilsinglright" unicode="&#x203a;" d="M543 520 l-389 -356 l-103 0 l299 397 l-133 381 l102 0 l238 -356 l-14 -66 Z" /><glyph glyph-name="fraction" unicode="&#x2044;" d="M-379 0 l-143 0 l1032 1462 l139 0 l-1028 -1462 Z" /><glyph glyph-name="nsuperior" unicode="&#x207f;" d="M301 791 l-168 0 l103 487 q8 38 8 55 q0 60 -86 60 l-11 0 l17 69 l272 0 l-22 -127 l12 0 q54 78 103.5 109 q49.5 31 136.5 31 q151 0 151 -136 q0 -32 -20 -135 l-35 -160 q-19 -87 -19 -112 q0 -55 54 -55 q36 0 80 28 l26 -45 q-82 -82 -186 -82 q-69 0 -107.5 35.5 q-38.5 35.5 -38.5 89.5 q0 59 25 164 l25 109 q18 78 18 124 q0 74 -57 74 q-67 0 -128.5 -79.5 q-61.5 -79.5 -82.5 -174.5 l-70 -329 Z" /><glyph glyph-name="franc" unicode="&#x20a3;" d="M-55 86 l26 0 q104 0 144.5 36.5 q40.5 36.5 54.5 100.5 l31 150 l-187 0 l21 96 l186 0 l164 768 q8 37 8 57 q0 82 -147 82 l-27 0 l19 86 l970 0 l-65 -358 l-107 0 l4 36 q1 19 3 36 q4 34 4 47 q0 137 -154 137 l-295 0 l-127 -592 l473 0 l-20 -100 l-473 0 l-43 -199 l297 0 l-21 -96 l-297 0 l-29 -140 q-6 -29 -6 -51 q0 -96 142 -96 l67 0 l-16 -86 l-617 0 l17 86 Z" /><glyph glyph-name="afii08941" unicode="&#x20a4;" d="M512 815 l356 0 l-20 -96 l-322 0 l4 -29 q7 -51 7 -115 l280 0 l-20 -96 l-273 0 q-36 -161 -245 -286 l2 -9 q84 37 157 37 q60 0 179 -39 q118 -39 159 -39 q114 0 205 93 l55 -68 q-185 -188 -348 -188 q-65 0 -189 46 q-124 46 -198 46 q-114 0 -238 -60 l-28 -14 l-37 82 l72 41 q246 140 286 358 l-278 0 l20 96 l267 0 q-3 49 -15 115 l-4 29 l-217 0 l21 96 l178 0 q-21 105 -21 184 q0 226 135.5 355 q135.5 129 364.5 129 q155 0 247.5 -56 q92.5 -56 92.5 -145 q0 -162 -170 -162 q0 260 -201 260 q-139 0 -214 -96.5 q-75 -96.5 -75 -271.5 q0 -88 25 -197 Z" /><glyph glyph-name="peseta" unicode="&#x20a7;" d="M-86 0 l18 86 l27 0 q96 0 139 37 q43 37 58 110 l213 1004 q8 38 8 57 q0 82 -148 82 l-26 0 l18 86 l463 0 q222 0 344.5 -103 q122.5 -103 122.5 -292 q0 -233 -157.5 -365.5 q-157.5 -132.5 -469.5 -132.5 l-90 0 l-74 -344 q-8 -37 -8 -57 q0 -82 148 -82 l67 0 l-18 -86 l-635 0 ZM455 666 l47 0 q432 0 432 399 q0 299 -299 299 l-33 0 l-147 -698 ZM1532 129 l35 -66 q-104 -83 -238 -83 q-221 0 -221 206 q0 89 29 205 l55 258 l-156 0 l17 72 q200 0 313 287 l74 0 l-54 -252 l228 0 l-23 -107 l-227 0 l-55 -252 q-27 -124 -27 -202 q0 -107 102 -107 q78 0 148 41 Z" /><glyph glyph-name="Euro" unicode="&#x20ac;" d="M936 223 q25 -17 25 -49 q0 -67 -95 -130.5 q-95 -63.5 -254 -63.5 q-197 0 -305 119 q-108 119 -108 345 q0 72 4 103 l-150 0 l21 96 l141 0 q11 82 27 143 l-140 0 l21 97 l145 0 q178 596 637 596 q141 0 224 -53 q83 -53 83 -138 q0 -149 -180 -149 q0 239 -166 239 q-261 0 -401 -495 l430 0 l-21 -97 l-434 0 q-17 -63 -26 -143 l350 0 l-21 -96 l-342 0 q-4 -31 -4 -117 q0 -158 65 -244 q65 -86 187 -86 q167 0 287 123 Z" /><glyph glyph-name="afii61248" unicode="&#x2105;" d="M629 967 q14 -19 14 -54 q0 -49 -63.5 -91 q-63.5 -42 -171.5 -42 q-128 0 -201.5 67 q-73.5 67 -73.5 189 q0 191 119 315 q119 124 307 124 q97 0 152 -33 q55 -33 55 -86 q0 -41 -44.5 -74 q-44.5 -33 -111.5 -33 q0 146 -84 146 q-85 0 -149 -120 q-64 -120 -64 -239 q0 -157 142 -157 q103 0 174 88 ZM334 0 l-152 0 l1028 1462 l144 0 l-1020 -1462 ZM1059 -16 q-133 0 -208 68.5 q-75 68.5 -75 187.5 q0 161 117 296.5 q117 135.5 303 135.5 q127 0 203 -66.5 q76 -66.5 76 -185.5 q0 -162 -115 -299 q-115 -137 -301 -137 ZM1182 590 q-98 0 -162 -119.5 q-64 -119.5 -64 -253.5 q0 -151 103 -151 q98 0 160.5 117.5 q62.5 117.5 62.5 260.5 q0 146 -100 146 Z" /><glyph glyph-name="afii61289" unicode="&#x2113;" d="M825 319 l80 0 q-48 -342 -301 -342 q-145 0 -223 91.5 q-78 91.5 -78 255.5 l0 192 q-85 -30 -211 -63 l0 90 q94 25 211 65 l0 563 q0 330 287 330 q124 0 191 -86.5 q67 -86.5 67 -245.5 q0 -381 -363 -571 l0 -268 q0 -244 158 -244 q149 0 182 233 ZM485 700 q258 134 258 471 q0 105 -35.5 169.5 q-35.5 64.5 -99.5 64.5 q-123 0 -123 -238 l0 -467 Z" /><glyph glyph-name="afii61352" unicode="&#x2116;" d="M299 225 q-8 -38 -8 -57 q0 -82 147 -82 l27 0 l-19 -86 l-499 0 l18 86 l27 0 q97 0 139 38 q42 38 57 109 l213 1004 q9 42 9 57 q0 82 -148 82 l-26 0 l18 86 l342 0 l432 -1132 l193 907 q8 38 8 57 q0 82 -148 82 l-26 0 l18 86 l502 0 l-19 -86 l-26 0 q-96 0 -139 -36.5 q-43 -36.5 -60 -110.5 l-260 -1229 l-113 0 l-456 1180 l-203 -955 ZM1608 272 q-133 0 -208 68.5 q-75 68.5 -75 187.5 q0 162 117 297.5 q117 135.5 303 135.5 q127 0 202.5 -66.5 q75.5 -66.5 75.5 -185.5 q0 -161 -114 -299 q-114 -138 -301 -138 ZM1731 879 q-98 0 -162 -120 q-64 -120 -64 -253 q0 -152 103 -152 q99 0 161 120.5 q62 120.5 62 258.5 q0 146 -100 146 ZM1296 0 l33 154 l533 0 l-33 -154 l-533 0 Z" /><glyph glyph-name="trademark" unicode="&#x2122;" d="M1479 754 l0 55 q74 0 80 55 l0 457 l-232 -567 l-72 0 l-231 569 l0 -451 q0 -41 21 -52 q21 -11 61 -11 l0 -55 l-248 0 l0 55 l21 0 q76 0 79 57 l0 482 q0 57 -79 57 l-21 0 l0 57 l236 0 l225 -567 l231 567 l232 0 l0 -57 l-23 0 q-78 0 -78 -62 l0 -471 q0 -63 78 -63 l23 0 l0 -55 l-303 0 ZM580 872 q0 -63 77 -63 l33 0 l0 -55 l-348 0 l0 55 l35 0 q76 0 76 57 l0 531 l-91 0 q-71 0 -81 -72 l-9 -49 l-59 0 l6 186 l598 0 l6 -186 l-59 0 l-8 49 q-11 70 -82 72 l-94 0 l0 -525 Z" /><glyph glyph-name="estimated" unicode="&#x212e;" d="M1163 530 l-827 0 l0 -356 q121 -123 297 -123 q255 0 395 234 l72 -41 q-97 -156 -206.5 -217.5 q-109.5 -61.5 -260.5 -61.5 q-241 0 -386 163 q-145 163 -145 402 q0 261 153.5 413.5 q153.5 152.5 377.5 152.5 q232 0 381 -156.5 q149 -156.5 149 -409.5 ZM932 616 l0 277 q-121 119 -301 119 q-171 0 -295 -117 l0 -279 l596 0 Z" /><glyph glyph-name="partialdiff" unicode="&#x2202;" d="M344 1176 q-141 0 -141 108 q0 89 79 144 q79 55 218 55 q200 0 313 -146 q113 -146 113 -403 q0 -415 -144.5 -684.5 q-144.5 -269.5 -396.5 -269.5 q-159 0 -241.5 96.5 q-82.5 96.5 -82.5 267.5 q0 226 135 414 q135 188 363 188 q175 0 254 -141 l8 0 q2 13 2 73 l0 23 q0 207 -75.5 338 q-75.5 131 -200.5 131 q-97 0 -150 -53.5 q-53 -53.5 -53 -140.5 ZM793 643 q0 49 -56.5 125 q-56.5 76 -146.5 76 q-143 0 -233.5 -165.5 q-90.5 -165.5 -90.5 -361.5 q0 -227 183 -227 q98 0 181.5 106 q83.5 106 123 252.5 q39.5 146.5 39.5 194.5 Z" /><glyph glyph-name="Delta" unicode="&#x2206;" d="M1042 0 l-1116 0 l23 109 l764 1353 l178 0 l176 -1339 l-25 -123 ZM852 137 l-94 803 q-31 261 -31 334 q-49 -117 -162 -316 l-463 -821 l750 0 Z" /><glyph glyph-name="product" unicode="&#x220f;" d="M1579 1462 l0 -86 l-27 0 q-98 0 -133 -37.5 q-35 -37.5 -35 -109.5 l0 -1497 q0 -138 168 -138 l27 0 l0 -86 l-596 0 l0 86 l27 0 q99 0 133.5 38.5 q34.5 38.5 34.5 109.5 l0 1618 l-666 0 l0 -1618 q0 -72 34.5 -110 q34.5 -38 133.5 -38 l27 0 l0 -86 l-596 0 l0 86 l26 0 q99 0 133.5 38.5 q34.5 38.5 34.5 109.5 l0 1495 q0 139 -168 139 l-26 0 l0 86 l1468 0 Z" /><glyph glyph-name="summation" unicode="&#x2211;" d="M1055 -303 q169 0 192 194 l8 62 l107 0 l-10 -445 l-1239 0 l0 99 l569 860 l-524 915 l0 80 l1104 0 l10 -358 l-107 0 l-10 88 q-19 166 -180 166 l-569 0 l446 -770 l0 -74 l-539 -817 l742 0 Z" /><glyph glyph-name="minus" unicode="&#x2212;" d="M1028 672 l-878 0 l0 121 l878 0 l0 -121 Z" /><glyph glyph-name="radical" unicode="&#x221a;" d="M664 -14 l-123 0 l-291 817 l-168 0 l0 100 l285 0 l249 -710 l453 1484 l111 0 l-516 -1691 Z" /><glyph glyph-name="infinity" unicode="&#x221e;" d="M727 451 q-127 -244 -317 -244 q-142 0 -232 106 q-90 106 -90 285 q0 169 90.5 280 q90.5 111 231.5 111 q217 0 344 -244 q126 238 323 238 q139 0 227.5 -107 q88.5 -107 88.5 -284 q0 -164 -89.5 -277.5 q-89.5 -113.5 -228.5 -113.5 q-209 0 -348 250 ZM668 598 q-113 268 -267 268 q-87 0 -142.5 -77.5 q-55.5 -77.5 -55.5 -192.5 q0 -117 54 -191.5 q54 -74.5 149 -74.5 q144 0 262 268 ZM813 592 q114 -268 264 -268 q90 0 146.5 76 q56.5 76 56.5 194 q0 116 -58 191 q-58 75 -147 75 q-139 0 -262 -268 Z" /><glyph glyph-name="integral" unicode="&#x222b;" d="M223 -233 q0 -105 28 -134.5 q28 -29.5 81 -29.5 q147 0 147 299 l-4 604 q0 315 9.5 573 q9.5 258 110 373 q100.5 115 247.5 115 q241 0 241 -144 q0 -114 -149 -114 q0 105 -28 134.5 q-28 29.5 -81 29.5 q-147 0 -147 -299 l4 -633 q0 -568 -24.5 -702.5 q-24.5 -134.5 -117.5 -232.5 q-93 -98 -237 -98 q-229 0 -229 144 q0 115 149 115 Z" /><glyph glyph-name="approxequal" unicode="&#x2248;" d="M250 770 l-121 0 q28 358 258 358 q101 0 248 -135 q107 -102 168 -102 q57 0 84 62 q27 62 41 175 l123 0 q-39 -358 -258 -358 q-100 0 -282 170 q-74 68 -132 68 q-107 0 -129 -238 ZM250 334 l-121 0 q28 358 258 358 q94 0 248 -135 q107 -102 168 -102 q57 0 84 62 q27 62 41 175 l123 0 q-39 -358 -258 -358 q-97 0 -238 129 q-118 108 -176 108 q-60 0 -89 -58.5 q-29 -58.5 -40 -178.5 Z" /><glyph glyph-name="notequal" unicode="&#x2260;" d="M596 993 l57 219 l119 0 l-57 -219 l313 0 l0 -121 l-344 0 l-74 -282 l418 0 l0 -121 l-448 0 l-56 -219 l-121 0 l58 219 l-311 0 l0 121 l342 0 l73 282 l-415 0 l0 121 l446 0 Z" /><glyph glyph-name="lessequal" unicode="&#x2264;" d="M150 696 l0 72 l878 473 l0 -137 l-688 -373 l688 -369 l0 -137 l-878 471 ZM1028 0 l-878 0 l0 121 l878 0 l0 -121 Z" /><glyph glyph-name="greaterequal" unicode="&#x2265;" d="M150 225 l0 137 l688 369 l-688 373 l0 137 l878 -473 l0 -72 l-878 -471 ZM1028 0 l-878 0 l0 121 l878 0 l0 -121 Z" /><glyph glyph-name="lozenge" unicode="&#x25ca;" d="M618 0 l-81 0 l-459 729 l459 733 l81 0 l459 -731 l-459 -731 ZM580 1309 l-355 -578 l355 -584 l350 584 l-350 578 Z" /><glyph glyph-name="fi" unicode="&#xfb01;" d="M889 981 l-400 0 l-213 -997 q-53 -247 -155 -361.5 q-102 -114.5 -289 -114.5 q-58 0 -119 17 l19 94 q51 -14 94 -14 q99 0 156 85 q57 85 102 292 l215 999 l-186 0 l12 74 l197 43 l26 112 q85 367 467 367 q158 0 238 -41.5 q80 -41.5 80 -110.5 q0 -133 -222 -133 q0 191 -135 191 q-185 0 -235 -254 l-27 -131 l592 0 l-139 -658 q-31 -147 -31 -227 q0 -104 68 -104 q59 0 147 53 l37 -60 q-143 -122 -277 -122 q-76 0 -123 55 q-47 55 -47 139 q0 97 45 322 l103 485 Z" /><glyph glyph-name="fl" unicode="&#xfb02;" d="M514 1098 l227 0 l-22 -117 l-230 0 l-213 -997 q-53 -247 -155 -361.5 q-102 -114.5 -289 -114.5 q-58 0 -119 17 l19 94 q51 -14 94 -14 q99 0 156 85 q57 85 102 292 l215 999 l-186 0 l12 74 l197 43 l26 112 q85 367 467 367 q110 0 201 -51 l143 30 l45 0 l-237 -1116 q-31 -146 -31 -227 q0 -104 68 -104 q59 0 147 53 l37 -60 q-143 -122 -277 -122 q-76 0 -123 55 q-47 55 -47 139 q0 97 45 322 l175 821 q7 32 -42 99 q-49 67 -143 67 q-91 0 -146 -58 q-55 -58 -89 -196 l-27 -131 Z" /><glyph glyph-name="uni2000" unicode="&#x2000;" d="" /><glyph glyph-name="uni2001" unicode="&#x2001;" d="" /><glyph glyph-name="uni2002" unicode="&#x2002;" d="" /><glyph glyph-name="uni2003" unicode="&#x2003;" d="" /><glyph glyph-name="uni2004" unicode="&#x2004;" d="" /><glyph glyph-name="uni2005" unicode="&#x2005;" d="" /><glyph glyph-name="uni2006" unicode="&#x2006;" d="" /><glyph glyph-name="uni2007" unicode="&#x2007;" d="" /><glyph glyph-name="uni2008" unicode="&#x2008;" d="" /><glyph glyph-name="uni2009" unicode="&#x2009;" d="" /><glyph glyph-name="uni200A" unicode="&#x200a;" d="" /><glyph glyph-name="uni200B" unicode="&#x200b;" d="" /><glyph glyph-name="uniFEFF" unicode="&#xfeff;" d="" /><glyph glyph-name="uniFFFC" unicode="&#xfffc;" d="M84 1214 l0 304 l303 0 l0 -111 l-192 0 l0 -193 l-111 0 ZM1681 1407 l0 111 l304 0 l0 -304 l-109 0 l0 193 l-195 0 ZM84 -383 l0 303 l111 0 l0 -194 l192 0 l0 -109 l-303 0 ZM1681 -383 l0 109 l195 0 l0 194 l109 0 l0 -303 l-304 0 ZM1290 -383 l0 109 l273 0 l0 -109 l-273 0 ZM508 -383 l0 109 l270 0 l0 -109 l-270 0 ZM508 1407 l0 111 l270 0 l0 -111 l-270 0 ZM1985 39 l-109 0 l0 270 l109 0 l0 -270 ZM1985 823 l-109 0 l0 271 l109 0 l0 -271 ZM899 -383 l0 109 l272 0 l0 -109 l-272 0 ZM195 39 l-111 0 l0 270 l111 0 l0 -270 ZM899 1407 l0 111 l272 0 l0 -111 l-272 0 ZM1290 1407 l0 111 l273 0 l0 -111 l-273 0 ZM195 430 l-111 0 l0 272 l111 0 l0 -272 ZM195 823 l-111 0 l0 271 l111 0 l0 -271 ZM1985 430 l-109 0 l0 272 l109 0 l0 -272 ZM862 631 q0 -68 -18 -123 q-18 -55 -53 -95 q-35 -40 -86.5 -61.5 q-51.5 -21.5 -118.5 -21.5 q-70 0 -122.5 21.5 q-52.5 21.5 -87 61.5 q-34.5 40 -52 95 q-17.5 55 -17.5 123 q0 68 17.5 123.5 q17.5 55.5 52 95 q34.5 39.5 87 61 q52.5 21.5 122.5 21.5 q67 0 118.5 -21.5 q51.5 -21.5 86.5 -61 q35 -39.5 53 -95 q18 -55.5 18 -123.5 ZM446 631 q0 -117 31.5 -182.5 q31.5 -65.5 108.5 -65.5 q76 0 107.5 65.5 q31.5 65.5 31.5 182.5 q0 58 -7.5 104 q-7.5 46 -24 78 q-16.5 32 -43 49 q-26.5 17 -64.5 17 q-39 0 -65.5 -17 q-26.5 -17 -43 -49 q-16.5 -32 -24 -78 q-7.5 -46 -7.5 -104 ZM1384 772 q0 -54 -29 -81.5 q-29 -27.5 -75 -43.5 l0 -4 q57 -14 93 -50.5 q36 -36.5 36 -94.5 q0 -162 -235 -162 l-265 0 l0 43 l35 0 q17 0 30 9.5 q13 9.5 13 43.5 l0 393 q0 32 -13 43 q-13 11 -30 11 l-35 0 l0 43 l240 0 q118 0 176.5 -36.5 q58.5 -36.5 58.5 -113.5 ZM1116 387 l53 0 q56 0 78.5 25 q22.5 25 22.5 88 q0 60 -21 88 q-21 28 -78 28 l-55 0 l0 -229 ZM1108 668 l31 0 q56 0 77 24 q21 24 21 80 q0 56 -22.5 77 q-22.5 21 -77.5 21 l-29 0 l0 -202 ZM1761 879 l-35 0 q-17 0 -28.5 -10 q-11.5 -10 -11.5 -44 l0 -301 q0 -55 -18.5 -92.5 q-18.5 -37.5 -49 -60 q-30.5 -22.5 -70.5 -32 q-40 -9.5 -82 -9.5 l-28 0 l0 47 l14 0 q20 0 38.5 7.5 q18.5 7.5 32.5 24.5 q14 17 22.5 45.5 q8.5 28.5 8.5 69.5 l0 303 q0 32 -12 42 q-12 10 -29 10 l-34 0 l0 43 l282 0 l0 -43 Z" /><glyph glyph-name="uniFFFD" unicode="&#xfffd;" d="M1022 1556 l940 -938 l-940 -937 l-938 937 l938 938 ZM1413 858 q0 71 -30 127 q-30 56 -83.5 94.5 q-53.5 38.5 -127 59 q-73.5 20.5 -160.5 20.5 q-90 0 -155.5 -15 q-65.5 -15 -108.5 -40.5 q-43 -25.5 -63.5 -60 q-20.5 -34.5 -20.5 -74.5 q0 -29 17 -51 q17 -22 48 -36 q31 -14 73 -21 q42 -7 93 -7 q0 42 6.5 79.5 q6.5 37.5 22 66 q15.5 28.5 40.5 45 q25 16.5 62 16.5 q34 0 58 -13 q24 -13 39.5 -36.5 q15.5 -23.5 22.5 -56 q7 -32.5 7 -72.5 q0 -48 -10 -96 q-10 -48 -36 -92 q-26 -44 -70.5 -82 q-44.5 -38 -114.5 -66 l32 -201 l101 0 l32 150 q82 34 143 70 q61 36 101.5 79 q40.5 43 61 95 q20.5 52 20.5 118 ZM868 90 q0 -37 10.5 -62 q10.5 -25 28.5 -40.5 q18 -15.5 42.5 -22 q24.5 -6.5 51.5 -6.5 q28 0 52.5 6.5 q24.5 6.5 43 22 q18.5 15.5 29.5 40.5 q11 25 11 62 q0 37 -11 62.5 q-11 25.5 -29.5 40.5 q-18.5 15 -43 21.5 q-24.5 6.5 -52.5 6.5 q-27 0 -51.5 -6.5 q-24.5 -6.5 -42.5 -21.5 q-18 -15 -28.5 -40.5 q-10.5 -25.5 -10.5 -62.5 Z" /><glyph glyph-name="uni03D1" unicode="&#x3d1;" d="M969 965 q2 29 3 56 q1 27 1 52 q0 98 -15.5 170 q-15.5 72 -42.5 119.5 q-27 47.5 -63 70.5 q-36 23 -78 23 q-45 0 -80 -15.5 q-35 -15.5 -58.5 -43.5 q-23.5 -28 -35.5 -67 q-12 -39 -12 -87 q0 -55 19 -105 q19 -50 63 -88 q44 -38 117.5 -61 q73.5 -23 181.5 -24 ZM1153 874 q-17 -124 -46.5 -238.5 q-29.5 -114.5 -72.5 -214 q-43 -99.5 -99.5 -181 q-56.5 -81.5 -127.5 -139.5 q-71 -58 -156.5 -89.5 q-85.5 -31.5 -185.5 -31.5 q-95 0 -161 23.5 q-66 23.5 -107 62.5 q-41 39 -59.5 90.5 q-18.5 51.5 -18.5 107.5 q0 33 7.5 74 q7.5 41 18.5 83.5 q11 42.5 24 84.5 q13 42 24 77.5 q11 35.5 18.5 62 q7.5 26.5 7.5 38.5 q0 31 -18 48.5 q-18 17.5 -62 17.5 l-65 0 l18 86 l137 0 q52 0 87.5 -9 q35.5 -9 57.5 -25.5 q22 -16.5 31 -39.5 q9 -23 9 -51 q0 -36 -16 -93 q-16 -57 -35.5 -121.5 q-19.5 -64.5 -35.5 -127.5 q-16 -63 -16 -111 q0 -38 10.5 -69.5 q10.5 -31.5 32.5 -54 q22 -22.5 56 -35.5 q34 -13 82 -13 q172 0 290 198 q118 198 174 590 q-153 3 -257.5 35 q-104.5 32 -169 83 q-64.5 51 -93 115 q-28.5 64 -28.5 130 q0 75 25.5 136 q25.5 61 72.5 103.5 q47 42.5 115 65.5 q68 23 153 23 q107 0 182 -34 q75 -34 122.5 -98 q47.5 -64 69 -157 q21.5 -93 21.5 -211 q0 -23 -2 -51.5 q-2 -28.5 -4 -52.5 l144 0 l-17 -87 l-137 0 Z" /><glyph glyph-name="uni03D2" unicode="&#x3d2;" d="M672 225 q-3 -12 -5.5 -30 q-2.5 -18 -2.5 -27 q0 -26 11 -42 q11 -16 30.5 -25 q19.5 -9 46.5 -12 q27 -3 59 -3 l47 0 l-18 -86 l-637 0 l18 86 l47 0 q34 0 65 4 q31 4 57 18.5 q26 14.5 45.5 41.5 q19.5 27 29.5 73 l39 180 q6 28 8 58.5 q2 30.5 2 62.5 q1 59 -7 122.5 q-8 63.5 -21 126 q-13 62.5 -30 121.5 q-17 59 -34 111.5 q-17 52.5 -33 94.5 q-16 42 -27 71 q-15 39 -33 76 q-18 37 -41.5 66 q-23.5 29 -53 47 q-29.5 18 -66.5 18 l-8 0 l18 84 l105 0 q70 0 117.5 -13.5 q47.5 -13.5 82 -44.5 q34.5 -31 59.5 -82.5 q25 -51.5 50 -127.5 q22 -68 40 -137 q18 -69 31.5 -134.5 q13.5 -65.5 23 -125.5 q9.5 -60 15.5 -111 q34 67 71.5 137.5 q37.5 70.5 76 138 q38.5 67.5 75.5 129 q37 61.5 70 111.5 q56 84 104 137 q48 53 92 83 q44 30 86 41.5 q42 11.5 87 11.5 q59 0 97 -28 q38 -28 38 -91 q0 -33 -10 -59.5 q-10 -26.5 -27 -45.5 q-17 -19 -39 -29.5 q-22 -10.5 -45 -11.5 q-6 42 -25 71.5 q-19 29.5 -61 29.5 q-25 0 -51 -10 q-26 -10 -56.5 -38 q-30.5 -28 -68.5 -77.5 q-38 -49.5 -88 -128.5 q-22 -34 -51 -80.5 q-29 -46.5 -60 -100 q-31 -53.5 -62.5 -112 q-31.5 -58.5 -59 -116 q-27.5 -57.5 -48 -112 q-20.5 -54.5 -30.5 -100.5 l-45 -211 Z" /><glyph glyph-name="uni03D6" unicode="&#x3d6;" d="M1118 -20 q-53 0 -94.5 16 q-41.5 16 -71 44 q-29.5 28 -47.5 66.5 q-18 38.5 -24 83.5 l-9 0 q-24 -45 -58 -83.5 q-34 -38.5 -76 -66.5 q-42 -28 -92 -44 q-50 -16 -107 -16 q-72 0 -129 21 q-57 21 -96.5 62 q-39.5 41 -61 101.5 q-21.5 60.5 -21.5 140.5 q0 81 22 165 q22 84 59.5 164.5 q37.5 80.5 88 155 q50.5 74.5 107.5 138.5 l-135 0 q-45 0 -78.5 -13.5 q-33.5 -13.5 -56.5 -37.5 q-23 -24 -37.5 -55.5 q-14.5 -31.5 -22.5 -67.5 l-86 0 q20 93 52.5 158 q32.5 65 76 106.5 q43.5 41.5 96 60.5 q52.5 19 111.5 19 l1264 0 q45 0 78.5 13.5 q33.5 13.5 57 37.5 q23.5 24 38 55.5 q14.5 31.5 22.5 67.5 l86 0 q-20 -93 -53 -158.5 q-33 -65.5 -76.5 -106.5 q-43.5 -41 -96.5 -60 q-53 -19 -112 -19 l-80 0 q11 -24 22.5 -55 q11.5 -31 20.5 -67 q9 -36 15 -76.5 q6 -40.5 6 -82.5 q0 -87 -12.5 -170 q-12.5 -83 -39 -157.5 q-26.5 -74.5 -67.5 -136.5 q-41 -62 -96.5 -107.5 q-55.5 -45.5 -127 -70.5 q-71.5 -25 -159.5 -25 ZM649 928 q-39 -59 -78 -133.5 q-39 -74.5 -69.5 -157.5 q-30.5 -83 -50 -169.5 q-19.5 -86.5 -19.5 -168.5 q0 -56 12.5 -95.5 q12.5 -39.5 34 -65 q21.5 -25.5 51 -37 q29.5 -11.5 64.5 -11.5 q49 0 88.5 17 q39.5 17 70.5 47 q31 30 55 72 q24 42 42 93 q-3 22 -5.5 50.5 q-2.5 28.5 -2.5 62.5 q0 70 10.5 119 q10.5 49 29 80.5 q18.5 31.5 43 46 q24.5 14.5 52.5 14.5 q32 0 52 -20.5 q20 -20.5 20 -67.5 q0 -41 -12 -84.5 q-12 -43.5 -29 -83.5 q-17 -40 -35.5 -72 q-18.5 -32 -30.5 -49 q0 -44 8.5 -84.5 q8.5 -40.5 28 -71.5 q19.5 -31 51 -50 q31.5 -19 76.5 -19 q65 0 115 31.5 q50 31.5 86 82.5 q36 51 60 114.5 q24 63.5 38.5 127 q14.5 63.5 20.5 120.5 q6 57 6 96 q0 47 -2 85 q-2 38 -5.5 69.5 q-3.5 31.5 -8 58.5 q-4.5 27 -9.5 53 l-758 0 Z" /><glyph glyph-name="uni02F3" unicode="&#x2f3;" d="M442 -348 q0 -55 -19 -96.5 q-19 -41.5 -52 -69.5 q-33 -28 -78 -42.5 q-45 -14.5 -96 -14.5 q-52 0 -97 14.5 q-45 14.5 -78 42.5 q-33 28 -52 69.5 q-19 41.5 -19 96.5 q0 54 19 96 q19 42 52 70 q33 28 78 42.5 q45 14.5 97 14.5 q51 0 96 -14.5 q45 -14.5 78 -42.5 q33 -28 52 -70 q19 -42 19 -96 ZM332 -348 q0 33 -11 56.5 q-11 23.5 -29.5 38 q-18.5 14.5 -43 21.5 q-24.5 7 -51.5 7 q-28 0 -52.5 -7 q-24.5 -7 -43 -21.5 q-18.5 -14.5 -29.5 -38 q-11 -23.5 -11 -56.5 q0 -33 11 -56.5 q11 -23.5 29.5 -38 q18.5 -14.5 43 -21.5 q24.5 -7 52.5 -7 q27 0 51.5 7 q24.5 7 43 21.5 q18.5 14.5 29.5 38 q11 23.5 11 56.5 Z" /><glyph glyph-name="uniFB03" unicode="&#xfb03;" d="M1350 174 q0 31 4.5 74 q4.5 43 11.5 88 q7 45 15 87.5 q8 42.5 14 72.5 l102 485 l-399 0 l-213 -997 q-29 -137 -71 -228.5 q-42 -91.5 -97.5 -146.5 q-55.5 -55 -124.5 -78 q-69 -23 -152 -23 q-31 0 -64.5 5.5 q-33.5 5.5 -53.5 11.5 l18 94 q17 -5 44 -9.5 q27 -4.5 50 -4.5 q50 0 88 20.5 q38 20.5 68.5 65.5 q30.5 45 55 117 q24.5 72 46.5 174 l215 999 l-418 0 l-213 -997 q-29 -137 -71 -228.5 q-42 -91.5 -97 -146.5 q-55 -55 -124 -78 q-69 -23 -152 -23 q-31 0 -65 5.5 q-34 5.5 -54 11.5 l19 94 q17 -5 44 -9.5 q27 -4.5 50 -4.5 q50 0 88 20.5 q38 20.5 68.5 65.5 q30.5 45 55 117 q24.5 72 46.5 174 l215 999 l-186 0 l12 74 l197 43 l10 47 q45 208 143 309.5 q98 101.5 262 101.5 q65 0 110 -10 q45 -10 72.5 -26.5 q27.5 -16.5 39.5 -38 q12 -21.5 12 -45.5 q0 -54 -35.5 -85.5 q-35.5 -31.5 -108.5 -31.5 q0 21 -4.5 46 q-4.5 25 -16.5 46.5 q-12 21.5 -32.5 36 q-20.5 14.5 -52.5 14.5 q-38 0 -65.5 -16.5 q-27.5 -16.5 -49.5 -52 q-22 -35.5 -40.5 -92 q-18.5 -56.5 -37.5 -136.5 l-14 -67 l416 0 l26 112 q21 88 58.5 156 q37.5 68 94.5 115 q57 47 135 71.5 q78 24.5 179 24.5 q158 0 238 -41.5 q80 -41.5 80 -110.5 q0 -68 -57.5 -100.5 q-57.5 -32.5 -163.5 -32.5 q0 39 -5.5 74 q-5.5 35 -20.5 61 q-15 26 -41.5 41 q-26.5 15 -68.5 15 q-97 0 -153 -61.5 q-56 -61.5 -82 -192.5 l-27 -131 l592 0 l-139 -658 q-4 -17 -9 -47 q-5 -30 -10 -63 q-5 -33 -8.5 -64.5 q-3.5 -31.5 -3.5 -52.5 q0 -104 68 -104 q34 0 71.5 15 q37.5 15 75.5 38 l37 -60 q-22 -20 -53.5 -41.5 q-31.5 -21.5 -68.5 -39.5 q-37 -18 -76.5 -29.5 q-39.5 -11.5 -77.5 -11.5 q-41 0 -72.5 15.5 q-31.5 15.5 -53.5 42 q-22 26.5 -33 61.5 q-11 35 -11 75 Z" /><glyph glyph-name="uniFB04" unicode="&#xfb04;" d="M1350 174 q0 31 4.5 74 q4.5 43 11.5 88 q7 45 15 87.5 q8 42.5 14 72.5 l174 821 q-4 34 -19 64.5 q-15 30.5 -39 53 q-24 22.5 -56 35.5 q-32 13 -71 13 q-48 0 -85 -15.5 q-37 -15.5 -65 -47 q-28 -31.5 -48.5 -79.5 q-20.5 -48 -36.5 -112 l-27 -131 l228 0 l-23 -117 l-229 0 l-213 -997 q-29 -137 -71 -228.5 q-42 -91.5 -97.5 -146.5 q-55.5 -55 -124.5 -78 q-69 -23 -152 -23 q-31 0 -64.5 5.5 q-33.5 5.5 -53.5 11.5 l18 94 q17 -5 44 -9.5 q27 -4.5 50 -4.5 q50 0 88 20.5 q38 20.5 68.5 65.5 q30.5 45 55 117 q24.5 72 46.5 174 l215 999 l-418 0 l-213 -997 q-29 -137 -71 -228.5 q-42 -91.5 -97 -146.5 q-55 -55 -124 -78 q-69 -23 -152 -23 q-31 0 -65 5.5 q-34 5.5 -54 11.5 l19 94 q17 -5 44 -9.5 q27 -4.5 50 -4.5 q50 0 88 20.5 q38 20.5 68.5 65.5 q30.5 45 55 117 q24.5 72 46.5 174 l215 999 l-186 0 l12 74 l197 43 l10 47 q45 208 143 309.5 q98 101.5 262 101.5 q65 0 110 -10 q45 -10 72.5 -26.5 q27.5 -16.5 39.5 -38 q12 -21.5 12 -45.5 q0 -54 -35.5 -85.5 q-35.5 -31.5 -108.5 -31.5 q0 21 -4.5 46 q-4.5 25 -16.5 46.5 q-12 21.5 -32.5 36 q-20.5 14.5 -52.5 14.5 q-38 0 -65.5 -16.5 q-27.5 -16.5 -49.5 -52 q-22 -35.5 -40.5 -92 q-18.5 -56.5 -37.5 -136.5 l-14 -67 l416 0 l26 112 q21 88 58.5 156 q37.5 68 94.5 115 q57 47 135 71.5 q78 24.5 179 24.5 q25 0 53 -4 q28 -4 54.5 -11 q26.5 -7 51 -16.5 q24.5 -9.5 42.5 -19.5 l143 30 l45 0 l-237 -1116 q-4 -17 -9 -47 q-5 -30 -10 -63 q-5 -33 -8.5 -64.5 q-3.5 -31.5 -3.5 -52.5 q0 -104 68 -104 q34 0 71.5 15 q37.5 15 75.5 38 l37 -60 q-22 -20 -53.5 -41.5 q-31.5 -21.5 -68.5 -39.5 q-37 -18 -76.5 -29.5 q-39.5 -11.5 -77.5 -11.5 q-41 0 -72.5 15.5 q-31.5 15.5 -53.5 42 q-22 26.5 -33 61.5 q-11 35 -11 75 Z" /><glyph glyph-name="Ohorn" unicode="&#x1a0;" d="M1399 1206 q149 50 149 140 q0 21 -29 54 q-30 33 -30 70 q0 107 121 107 q55 0 87 -32 q32 -32 32 -83 q0 -208 -304 -321 q31 -94 31 -219 q0 -351 -228 -648 q-228 -297 -585 -297 q-243 0 -390 153.5 q-147 153.5 -147 414.5 q0 352 230 646 q230 294 590 294 q337 0 473 -279 ZM655 90 q255 0 415.5 282.5 q160.5 282.5 160.5 604.5 q0 191 -84.5 294 q-84.5 103 -237.5 103 q-256 0 -417.5 -283.5 q-161.5 -283.5 -161.5 -603.5 q0 -192 87 -294.5 q87 -102.5 238 -102.5 Z" /><glyph glyph-name="ohorn" unicode="&#x1a1;" d="M1044 915 q146 49 146 140 q0 19 -30 54 q-30 35 -30 71 q0 51 34.5 78.5 q34.5 27.5 86.5 27.5 q56 0 87.5 -32 q31.5 -32 31.5 -83 q0 -206 -301 -319 q18 -70 18 -158 q0 -273 -167 -493.5 q-167 -220.5 -439 -220.5 q-185 0 -289 112 q-104 112 -104 311 q0 276 168.5 495.5 q168.5 219.5 441.5 219.5 q253 0 346 -203 ZM504 80 q169 0 269.5 200.5 q100.5 200.5 100.5 444.5 q0 285 -200 285 q-167 0 -270 -201 q-103 -201 -103 -447 q0 -282 203 -282 Z" /><glyph glyph-name="Uhorn" unicode="&#x1af;" d="M205 1376 l18 86 l596 0 l-16 -86 l-27 0 q-96 0 -140 -36.5 q-44 -36.5 -61 -110.5 l-153 -723 q-25 -118 -25 -191 q0 -213 295 -213 q166 0 263 74 q97 74 135 246 l174 815 q8 37 8 57 q0 82 -148 82 l-26 0 l18 86 l320 0 l-58 -270 q95 14 151 56 q56 42 56 98 q0 21 -29 54 q-30 33 -30 70 q0 107 121 107 q55 0 86.5 -32 q31.5 -32 31.5 -83 q0 -129 -108 -223 q-108 -94 -295 -125 l-148 -696 q-93 -438 -552 -438 q-226 0 -345.5 92 q-119.5 92 -119.5 262 q0 83 22 182 l152 721 q8 38 8 57 q0 82 -148 82 l-26 0 Z" /><glyph glyph-name="uhorn" unicode="&#x1b0;" d="M516 1098 l-135 -613 q-41 -186 -41 -247 q0 -125 100 -125 q105 0 226.5 151.5 q121.5 151.5 158.5 323.5 l107 510 l198 0 l-43 -197 q91 13 149 55 q58 42 58 99 q0 21 -29 54 q-30 33 -30 71 q0 106 121 106 q56 0 87.5 -32 q31.5 -32 31.5 -83 q0 -129 -107.5 -223 q-107.5 -94 -296.5 -125 l-82 -383 q-31 -145 -31 -227 q0 -104 68 -104 q58 0 131 45 l37 -60 q-130 -114 -260 -114 q-77 0 -124.5 55 q-47.5 55 -47.5 139 q0 53 10 121 l-16 0 q-111 -183 -198.5 -248 q-87.5 -65 -197.5 -65 q-219 0 -219 227 q0 65 37 225 l80 359 q18 81 18 122 q0 97 -143 97 l-16 0 l18 86 l381 0 Z" /><glyph glyph-name="hook" unicode="&#x309;" d="M-442 1327 l-35 -119 l-101 0 l23 185 q121 15 159 43.5 q38 28.5 38 76.5 q0 64 -86 64 q-94 0 -170 -82 q-37 22 -37 57 q0 60 61 93.5 q61 33.5 164 33.5 q99 0 157 -40 q58 -40 58 -113 q0 -158 -231 -199 Z" /><glyph glyph-name="uni0460" unicode="&#x460;" d="M922 176 q-148 -196 -404 -196 q-195 0 -299 125.5 q-104 125.5 -104 361.5 q0 396 182.5 706 q182.5 310 497.5 310 q122 0 190 -46.5 q68 -46.5 68 -123.5 q0 -140 -150 -144 q0 93 -39.5 149 q-39.5 56 -111.5 56 q-169 0 -292.5 -299.5 q-123.5 -299.5 -123.5 -617.5 q0 -342 229 -342 q228 0 287 278 l57 269 l205 0 l-55 -275 q-10 -50 -10 -100 q0 -82 54 -127 q54 -45 148 -45 q217 0 349.5 308 q132.5 308 132.5 667 q0 284 -166 284 q-147 0 -226 -205 q-122 0 -122 111 q0 85 95 144 q95 59 240 59 q185 0 288.5 -121.5 q103.5 -121.5 103.5 -347.5 q0 -423 -179.5 -728.5 q-179.5 -305.5 -504.5 -305.5 q-250 0 -340 196 Z" /><glyph glyph-name="uni0461" unicode="&#x461;" d="M938 1098 q61 -374 94 -910 q175 160 277 355.5 q102 195.5 102 339.5 q0 93 -76 112 q0 60 36 91.5 q36 31.5 91 31.5 q119 0 119 -139 q0 -436 -586 -979 l-127 0 l-28 459 l-344 -459 l-140 0 q-45 614 -84 794.5 q-39 180.5 -102 180.5 q-38 0 -76 -21 l-33 64 q110 86 197 86 q118 0 163 -147.5 q45 -147.5 99 -770.5 l305 402 q-23 249 -75 510 l188 0 Z" /><glyph glyph-name="uni0462" unicode="&#x462;" d="M-27 86 l43 0 q155 0 185 147 l178 838 l-64 0 q-118 0 -153 -29.5 q-35 -29.5 -60 -99.5 l-8 -22 l-96 0 l61 245 l340 0 l15 72 q8 38 8 57 q0 82 -148 82 l-26 0 l18 86 l596 0 l-18 -86 l-27 0 q-100 0 -142.5 -40 q-42.5 -40 -60.5 -119 l-12 -52 l379 0 l-43 -245 l-94 0 l0 22 q0 91 -32 110 q-32 19 -124 19 l-104 0 l-56 -262 l138 0 q503 0 503 -342 q0 -223 -151 -345 q-151 -122 -438 -122 l-623 0 l16 86 ZM379 102 l178 0 q391 0 391 349 q0 139 -70.5 200.5 q-70.5 61.5 -218.5 61.5 l-151 0 l-129 -611 Z" /><glyph glyph-name="uni0463" unicode="&#x463;" d="M94 1040 l195 0 l51 242 q12 57 12 92 q0 96 -143 96 l-16 0 l18 86 l379 0 l-111 -516 l301 0 l-20 -96 l-301 0 l-68 -321 q126 10 207 10 q395 0 395 -289 q0 -169 -119.5 -266.5 q-119.5 -97.5 -322.5 -97.5 q-404 0 -404 292 q0 86 31 238 l90 434 l-194 0 l20 96 ZM371 518 q-27 -132 -27 -217 q0 -221 215 -221 q106 0 169 75 q63 75 63 181 q0 190 -224 190 q-82 0 -196 -8 Z" /><glyph glyph-name="uni0464" unicode="&#x464;" d="M1690 289 q24 -19 24 -58 q0 -98 -105 -174.5 q-105 -76.5 -288 -76.5 q-253 0 -387.5 141.5 q-134.5 141.5 -134.5 404.5 q0 107 14 187 l-305 0 l-102 -488 q-9 -43 -9 -57 q0 -45 33.5 -63.5 q33.5 -18.5 114.5 -18.5 l26 0 l-18 -86 l-596 0 l16 86 l27 0 q170 0 201 147 l213 1004 q8 38 8 55 q0 41 -29 62.5 q-29 21.5 -119 21.5 l-26 0 l18 86 l596 0 l-18 -86 l-27 0 q-96 0 -139 -36.5 q-43 -36.5 -60 -110.5 l-88 -414 l304 0 q82 314 287 491 q205 177 478 177 q162 0 254.5 -56.5 q92.5 -56.5 92.5 -150.5 q0 -75 -57 -120.5 q-57 -45.5 -150 -45.5 q4 34 4 65 q0 199 -184 199 q-172 0 -303.5 -149 q-131.5 -149 -194.5 -410 l508 0 l-21 -102 l-510 0 q-16 -98 -16 -217 q0 -183 83.5 -283 q83.5 -100 246.5 -100 q203 0 338 176 Z" /><glyph glyph-name="uni0465" unicode="&#x465;" d="M1382 256 q21 -13 21 -51 q0 -82 -96.5 -153.5 q-96.5 -71.5 -257.5 -71.5 q-177 0 -279 110.5 q-102 110.5 -102 312.5 q0 51 8 113 l-287 0 l-108 -516 l-191 0 l172 823 q12 57 12 92 q0 97 -143 97 l-16 0 l18 86 l379 0 l-104 -488 l284 0 q63 240 212.5 374 q149.5 134 355.5 134 q140 0 219.5 -56 q79.5 -56 79.5 -140 q0 -63 -50 -103.5 q-50 -40.5 -133 -40.5 q0 108 -41 175 q-41 67 -116 67 q-100 0 -186 -110.5 q-86 -110.5 -138 -299.5 l469 0 l-23 -110 l-471 0 q-8 -48 -8 -113 q0 -278 225 -278 q179 0 295 147 Z" /><glyph glyph-name="uni0466" unicode="&#x466;" d="M600 713 l-102 0 l-256 -439 q-39 -67 -39 -112 q0 -76 104 -76 l-18 -86 l-418 0 l18 86 l19 0 q90 0 186 160 l723 1216 l148 0 l223 -1265 q20 -111 106 -111 l21 0 l-19 -86 l-493 0 l18 86 q76 0 112 26 q36 26 36 95 q0 23 -4 53 l-66 453 l-108 0 l-152 -713 l-193 0 l154 713 ZM557 815 l326 0 l-21 121 q-34 194 -47 334 q-42 -85 -190 -338 l-68 -117 Z" /><glyph glyph-name="uni0467" unicode="&#x467;" d="M469 516 l-94 0 l-152 -242 q-57 -91 -57 -135 q0 -44 55 -53 l-16 -86 l-314 0 l17 86 l8 0 q73 0 174 160 l545 852 l166 0 l190 -901 q23 -111 90 -111 l11 0 l-17 -86 l-393 0 l16 86 q95 0 95 104 q0 32 -7 70 l-45 256 l-102 0 l-113 -516 l-172 0 l115 516 ZM434 610 l291 0 l-8 41 q-41 211 -49 324 l-6 0 l-228 -365 Z" /><glyph glyph-name="uni0468" unicode="&#x468;" d="M1317 713 l-103 0 l-256 -439 q-38 -65 -38 -112 q0 -76 104 -76 l-18 -86 l-410 0 l18 86 l11 0 q90 0 186 160 l276 467 l-579 0 l-102 -488 q-9 -43 -9 -57 q0 -82 148 -82 l26 0 l-18 -86 l-596 0 l16 86 l27 0 q99 0 142 37.5 q43 37.5 59 109.5 l213 1004 q8 38 8 57 q0 82 -148 82 l-26 0 l18 86 l596 0 l-18 -86 l-27 0 q-98 0 -141 -37 q-43 -37 -58 -110 l-88 -414 l619 0 l385 647 l147 0 l224 -1265 q20 -111 106 -111 l10 0 l-18 -86 l-483 0 l18 86 q75 0 111.5 26 q36.5 26 36.5 95 q0 16 -5 53 l-65 453 l-109 0 l-151 -713 l-193 0 l154 713 ZM1274 815 l325 0 l-20 121 q-36 221 -47 334 q-54 -108 -191 -338 l-67 -117 Z" /><glyph glyph-name="uni0469" unicode="&#x469;" d="M928 516 l-94 0 l-152 -242 q-57 -91 -57 -135 q0 -44 55 -53 l-16 -86 l-314 0 l17 86 l8 0 q73 0 174 160 l172 270 l-332 0 l-108 -516 l-191 0 l172 823 q12 57 12 92 q0 97 -143 97 l-16 0 l18 86 l379 0 l-104 -488 l374 0 l312 488 l166 0 l190 -901 q23 -111 90 -111 l10 0 l-16 -86 l-393 0 l16 86 q94 0 94 104 q0 30 -6 70 l-45 256 l-102 0 l-113 -516 l-172 0 l115 516 ZM893 610 l291 0 l-8 41 q-43 223 -50 324 l-6 0 l-227 -365 Z" /><glyph glyph-name="uni046A" unicode="&#x46a;" d="M1546 1354 l-532 -543 l45 0 q120 0 187.5 -64 q67.5 -64 76.5 -172 l35 -325 q10 -90 41.5 -127 q31.5 -37 103.5 -37 l6 0 l-18 -86 l-8 0 q-197 0 -258.5 45 q-61.5 45 -69.5 152 l-29 352 q-8 96 -46.5 133 q-38.5 37 -139.5 37 l-102 -486 q-7 -32 -7 -52 q0 -95 146 -95 l10 0 l-18 -86 l-539 0 l19 86 l10 0 q94 0 132 33.5 q38 33.5 54 103.5 l105 496 q-98 0 -151 -34 q-53 -34 -105 -136 l-181 -352 q-59 -115 -132.5 -156 q-73.5 -41 -274.5 -41 l-25 0 l19 86 l6 0 q72 0 121 35.5 q49 35.5 98 128.5 l182 346 q113 215 338 215 l53 0 l-290 543 l22 108 l1139 0 l-23 -108 ZM891 834 l473 491 l-735 0 l262 -491 Z" /><glyph glyph-name="uni046B" unicode="&#x46b;" d="M225 440 q60 98 136.5 140.5 q76.5 42.5 211.5 44.5 l-241 372 l18 101 l959 0 l-19 -101 l-393 -372 q130 -6 192 -52 q62 -46 85 -149 l36 -174 q15 -75 41.5 -119.5 q26.5 -44.5 94.5 -44.5 l8 0 l-17 -86 l-43 0 q-154 0 -198.5 42 q-44.5 42 -65.5 151 l-39 198 q-17 86 -46 115 q-29 29 -126 29 l-65 -312 q-9 -43 -9 -65 q0 -37 18.5 -54.5 q18.5 -17.5 78.5 -17.5 l18 0 l-16 -86 l-449 0 l17 86 l8 0 q80 0 110 38.5 q30 38.5 45 108.5 l64 302 q-91 0 -136 -25.5 q-45 -25.5 -97 -118.5 l-113 -198 q-61 -106 -120.5 -149.5 q-59.5 -43.5 -223.5 -43.5 l-41 0 l16 86 l4 0 q48 0 82.5 29.5 q34.5 29.5 98.5 134.5 l116 190 ZM745 625 l11 0 l362 346 l-592 0 l219 -346 Z" /><glyph glyph-name="uni046C" unicode="&#x46c;" d="M2255 1354 l-533 -543 l45 0 q239 0 265 -236 l34 -325 q8 -77 37 -120.5 q29 -43.5 109 -43.5 l6 0 l-18 -86 l-9 0 q-198 0 -258.5 45.5 q-60.5 45.5 -68.5 151.5 l-29 352 q-8 96 -46.5 133 q-38.5 37 -139.5 37 l-103 -486 q-6 -28 -6 -50 q0 -97 146 -97 l10 0 l-19 -86 l-538 0 l18 86 l10 0 q95 0 133.5 34.5 q38.5 34.5 53.5 102.5 l104 496 q-93 0 -146 -31.5 q-53 -31.5 -110 -138.5 l-180 -352 q-58 -113 -130.5 -155 q-72.5 -42 -277.5 -42 l-18 0 l18 86 l7 0 q74 0 120 37.5 q46 37.5 93 126.5 l182 344 q43 82 100 119 l-608 0 l-102 -488 q-9 -43 -9 -57 q0 -82 148 -82 l26 0 l-18 -86 l-596 0 l16 86 l27 0 q99 0 142 37.5 q43 37.5 59 109.5 l213 1004 q8 38 8 57 q0 82 -148 82 l-26 0 l18 86 l596 0 l-18 -86 l-27 0 q-98 0 -141 -37 q-43 -37 -58 -110 l-88 -414 l875 0 l-289 539 l23 108 l1138 0 l-22 -108 ZM1599 834 l474 491 l-736 0 l262 -491 Z" /><glyph glyph-name="uni046D" unicode="&#x46d;" d="M670 440 q29 47 69 76 l-350 0 l-108 -516 l-191 0 l172 823 q12 57 12 92 q0 97 -143 97 l-16 0 l18 86 l379 0 l-104 -488 l608 0 l-240 387 l19 101 l979 0 l-19 -101 l-418 -387 q133 -4 196 -45 q63 -41 85 -141 l37 -174 q19 -90 45 -127 q26 -37 90 -37 l8 0 l-16 -86 l-43 0 q-146 0 -193.5 38.5 q-47.5 38.5 -70.5 154.5 l-39 198 q-16 82 -51 105.5 q-35 23.5 -123 23.5 l-64 -297 q-8 -37 -8 -65 q0 -35 17.5 -53.5 q17.5 -18.5 78.5 -18.5 l19 0 l-17 -86 l-448 0 l16 86 l8 0 q80 0 109.5 36 q29.5 36 46.5 111 l61 287 q-92 0 -138 -23 q-46 -23 -93 -106 l-113 -198 q-61 -106 -120.5 -149.5 q-59.5 -43.5 -223.5 -43.5 l-41 0 l17 86 l4 0 q48 0 83 31 q35 31 97 133 l117 190 ZM1188 610 l10 0 l389 361 l-620 0 l221 -361 Z" /><glyph glyph-name="uni046E" unicode="&#x46e;" d="M371 698 l22 105 l174 0 q171 0 284.5 96.5 q113.5 96.5 113.5 249.5 q0 109 -64 170 q-64 61 -180 61 q-228 0 -291 -305 q-158 0 -158 129 q0 113 114 190 q114 77 296 87 q-53 110 -156 231 l4 27 l80 0 q83 -63 187 -195 q106 127 166 162 q60 35 124 35 q91 0 91 -72 q0 -31 -27 -53 q-31 12 -68 12 q-102 0 -213 -158 q144 -28 226 -110.5 q82 -82.5 82 -198.5 q0 -163 -112.5 -273 q-112.5 -110 -307.5 -136 q141 -19 227 -102.5 q86 -83.5 86 -207.5 q0 -198 -134.5 -302.5 q-134.5 -104.5 -485.5 -139.5 q-244 -25 -244 -164 q0 -112 131 -112 q90 0 231 55 q140 55 232 55 q155 0 155 -123 q0 -117 -135 -137 q-26 92 -119 92 q-52 0 -183 -26 q-131 -27 -212 -27 q-311 0 -311 213 q0 108 87.5 180.5 q87.5 72.5 389.5 106.5 q210 24 289.5 101.5 q79.5 77.5 79.5 225.5 q0 121 -81 189.5 q-81 68.5 -231 68.5 l-159 0 Z" /><glyph glyph-name="uni046F" unicode="&#x46f;" d="M649 -399 q-23 84 -106 84 q-47 0 -165 -25 q-119 -25 -192 -25 q-278 0 -278 193 q0 102 81 166 q81 64 341 96 q319 39 319 246 q0 81 -56 132.5 q-56 51.5 -147 51.5 l-190 0 l23 111 l192 0 q119 0 186.5 58 q67.5 58 67.5 163 q0 77 -45.5 123.5 q-45.5 46.5 -130.5 46.5 q-195 0 -244 -221 q-141 0 -141 90 q0 85 82.5 147 q82.5 62 230.5 74 q-52 100 -145 213 l4 27 l80 0 q86 -66 186 -195 q107 128 167 162.5 q60 34.5 124 34.5 q90 0 90 -72 q0 -33 -27 -53 q-29 12 -67 12 q-100 0 -199 -137 q114 -23 175 -88 q61 -65 61 -152 q0 -202 -281 -284 l-2 -11 q205 -57 205 -229 q0 -160 -123.5 -243.5 q-123.5 -83.5 -407.5 -110.5 q-221 -21 -221 -148 q0 -100 119 -100 q73 0 204 49 q131 49 212 49 q141 0 141 -110 q0 -105 -123 -125 Z" /><glyph glyph-name="uni0472" unicode="&#x472;" d="M926 1485 q238 0 384 -148 q146 -148 146 -415 q0 -351 -228 -648 q-228 -297 -585 -297 q-243 0 -390 153.5 q-147 153.5 -147 414.5 q0 352 230 646 q230 294 590 294 ZM1219 815 q12 86 12 162 q0 191 -84.5 294 q-84.5 103 -237.5 103 q-176 0 -315 -145 q-139 -145 -215 -404 q133 66 237 66 q77 0 216 -65 q139 -66 219 -66 q79 0 168 55 ZM1198 702 q-122 -65 -237 -65 q-79 0 -219 66 q-141 65 -222 65 q-77 0 -168 -55 q-22 -120 -22 -226 q0 -192 87 -294.5 q87 -102.5 238 -102.5 q188 0 332 163.5 q144 163.5 211 448.5 Z" /><glyph glyph-name="uni0473" unicode="&#x473;" d="M698 1118 q181 0 285 -109 q104 -109 104 -315 q0 -273 -167 -493.5 q-167 -220.5 -439 -220.5 q-185 0 -289 112 q-104 112 -104 311 q0 276 168.5 495.5 q168.5 219.5 441.5 219.5 ZM868 610 q6 59 6 115 q0 285 -200 285 q-234 0 -340 -381 q74 39 125 39 q61 0 160 -43 q99 -43 155 -43 q53 0 94 28 ZM852 508 q-67 -37 -123 -37 q-63 0 -162 43 q-99 43 -153 43 q-54 0 -101 -31 q-12 -86 -12 -164 q0 -282 203 -282 q124 0 215 113.5 q91 113.5 133 314.5 Z" /><glyph glyph-name="uni0474" unicode="&#x474;" d="M659 0 l-167 0 l-175 1268 q-9 64 -34.5 86 q-25.5 22 -85.5 22 l-29 0 l18 86 l557 0 l-16 -86 l-41 0 q-154 0 -154 -112 q0 -27 5 -62 l81 -665 q21 -172 21 -336 q81 202 149 336 l279 561 q116 233 202.5 305 q86.5 72 194.5 72 q135 0 135 -97 q0 -76 -88 -102 q-17 47 -75 47 q-118 0 -242 -248 l-535 -1075 Z" /><glyph glyph-name="uni0475" unicode="&#x475;" d="M197 903 q-17 109 -142 109 l-20 0 l16 86 l307 0 l95 -606 q23 -148 30 -349 l6 0 q132 299 183 394 l123 239 q105 203 172.5 268.5 q67.5 65.5 177.5 65.5 q133 0 133 -98 q0 -76 -88 -101 q-18 60 -74 60 q-54 0 -95.5 -46.5 q-41.5 -46.5 -121.5 -199.5 l-375 -723 l-184 -20 l-143 921 Z" /><glyph glyph-name="uni0478" unicode="&#x478;" d="M877 1485 q222 0 359.5 -148.5 q137.5 -148.5 137.5 -414.5 q0 -360 -212 -652.5 q-212 -292.5 -552 -292.5 q-227 0 -365.5 153.5 q-138.5 153.5 -138.5 414.5 q0 365 216 652.5 q216 287.5 555 287.5 ZM627 90 q230 0 376 281 q146 281 146 606 q0 397 -293 397 q-232 0 -379 -284 q-147 -284 -147 -603 q0 -195 78 -296 q78 -101 219 -101 ZM1589 903 q-15 67 -50.5 88 q-35.5 21 -90.5 21 l-8 0 l16 86 l287 0 l119 -553 q55 -256 65 -371 l6 0 q277 421 277 680 q0 111 -101 111 q0 69 40 110 q40 41 94 41 q139 0 139 -172 q0 -240 -270 -682 q-270 -442 -438 -598 q-168 -156 -408 -156 q-108 0 -193 37 l31 103 q77 -23 160 -23 q126 0 247.5 77.5 q121.5 77.5 286.5 295.5 l-209 905 Z" /><glyph glyph-name="uni0479" unicode="&#x479;" d="M674 1118 q173 0 273 -110 q100 -110 100 -314 q0 -289 -157.5 -501.5 q-157.5 -212.5 -418.5 -212.5 q-179 0 -281 112 q-102 112 -102 311 q0 288 160.5 501.5 q160.5 213.5 425.5 213.5 ZM492 80 q155 0 248.5 198.5 q93.5 198.5 93.5 446.5 q0 285 -183 285 q-157 0 -253.5 -201.5 q-96.5 -201.5 -96.5 -446.5 q0 -282 191 -282 ZM1212 903 q-15 67 -50.5 88 q-35.5 21 -90.5 21 l-8 0 l16 86 l287 0 l119 -553 q55 -256 65 -371 l6 0 q277 421 277 680 q0 111 -100 111 q0 68 40 109.5 q40 41.5 93 41.5 q139 0 139 -172 q0 -180 -123.5 -421 q-123.5 -241 -322.5 -534 q-199 -293 -340 -387 q-141 -94 -330 -94 q-106 0 -193 37 l31 103 q77 -23 160 -23 q126 0 246.5 76 q120.5 76 287.5 297 l-209 905 Z" /><glyph glyph-name="uni047A" unicode="&#x47a;" d="M838 1475 q30 110 157 110 q129 0 129 -117 q197 -42 305.5 -185 q108.5 -143 108.5 -361 q0 -329 -195.5 -607 q-195.5 -278 -537.5 -327 q-28 -113 -158 -113 q-125 0 -125 111 l0 8 q-199 45 -307.5 191 q-108.5 146 -108.5 360 q0 329 195.5 603 q195.5 274 536.5 327 ZM555 109 q36 86 143 86 q112 0 127 -86 q230 68 359 327.5 q129 259.5 129 540.5 q0 303 -223 379 q-33 -90 -146 -90 q-114 0 -127 88 q-229 -71 -358 -331.5 q-129 -260.5 -129 -535.5 q0 -299 225 -378 Z" /><glyph glyph-name="uni047B" unicode="&#x47b;" d="M645 1108 q26 98 135 98 q113 0 113 -100 q317 -75 317 -422 q0 -245 -145 -447.5 q-145 -202.5 -410 -246.5 q-24 -101 -135 -101 q-112 0 -112 105 q-153 33 -236.5 143 q-83.5 110 -83.5 277 q0 251 149 451.5 q149 200.5 408 242.5 ZM436 100 q32 76 127 76 q101 0 113 -74 q151 55 236 230 q85 175 85 379 q0 217 -135 278 q-33 -69 -125 -69 q-100 0 -112 67 q-152 -55 -238 -231 q-86 -176 -86 -379 q0 -213 135 -277 Z" /><glyph glyph-name="uni047C" unicode="&#x47c;" d="M1671 1993 l-29 -129 l-40 0 q-89 0 -239 56 q-151 56 -233 56 q-109 0 -143 -112 l-92 0 q60 241 272 241 q80 0 234 -56 q153 -56 235 -56 l35 0 ZM1053 1546 l14 64 q150 21 150 100 q0 17 -38 43 q-38 25 -38 57 q0 86 104 86 q105 0 105 -108 q0 -86 -83.5 -157 q-83.5 -71 -213.5 -85 ZM905 133 q-162 -153 -387 -153 q-195 0 -299 125.5 q-104 125.5 -104 361.5 q0 396 182.5 706 q182.5 310 497.5 310 q122 0 190 -46.5 q68 -46.5 68 -123.5 q0 -140 -150 -144 q0 93 -39.5 149 q-39.5 56 -111.5 56 q-169 0 -292.5 -299.5 q-123.5 -299.5 -123.5 -617.5 q0 -342 229 -342 q161 0 359 194 l18 0 q116 -194 309 -194 q217 0 349.5 308 q132.5 308 132.5 667 q0 284 -166 284 q-147 0 -226 -205 q-122 0 -122 111 q0 85 95 144 q95 59 240 59 q185 0 288.5 -121.5 q103.5 -121.5 103.5 -347.5 q0 -424 -179 -729 q-179 -305 -499 -305 q-228 0 -363 153 Z" /><glyph glyph-name="uni047D" unicode="&#x47d;" d="M1397 1688 l-29 -129 l-41 0 q-88 0 -238 56 q-151 56 -233 56 q-110 0 -143 -112 l-92 0 q59 241 272 241 q78 0 233 -56 q155 -56 236 -56 l35 0 ZM778 1241 l15 64 q149 20 149 100 q0 17 -38 43 q-38 25 -38 57 q0 86 105 86 q104 0 104 -108 q0 -86 -84 -158 q-84 -72 -213 -84 ZM760 270 q107 -178 241 -178 q160 0 247 208 q87 208 87 499 q0 217 -127 217 q-68 0 -102.5 -41 q-34.5 -41 -54.5 -144 q-129 0 -129 84 l0 13 q0 65 77 127.5 q77 62.5 226 62.5 q148 0 225.5 -101.5 q77.5 -101.5 77.5 -287.5 q0 -317 -136.5 -533 q-136.5 -216 -375.5 -216 q-176 0 -283 124 q-128 -124 -309 -124 q-165 0 -250.5 104.5 q-85.5 104.5 -85.5 296.5 q0 300 131.5 518.5 q131.5 218.5 368.5 218.5 q122 0 188 -45 q66 -45 66 -112 q0 -130 -158 -130 q6 44 6 76 q0 109 -106 109 q-119 0 -211 -202 q-92 -202 -92 -472 q0 -250 192 -250 q117 0 275 178 l12 0 Z" /><glyph glyph-name="uni047E" unicode="&#x47e;" d="M1628 1796 l-4 -27 l-119 -172 l-35 0 l-26 103 l-184 0 l-72 -103 l-35 0 l-27 103 l-184 0 l-72 -103 l-34 0 l-43 172 l6 27 l829 0 ZM922 176 q-148 -196 -404 -196 q-195 0 -299 125.5 q-104 125.5 -104 361.5 q0 396 182.5 706 q182.5 310 497.5 310 q122 0 190 -46.5 q68 -46.5 68 -123.5 q0 -140 -150 -144 q0 93 -39.5 149 q-39.5 56 -111.5 56 q-169 0 -292.5 -299.5 q-123.5 -299.5 -123.5 -617.5 q0 -342 229 -342 q228 0 287 278 l57 269 l205 0 l-55 -275 q-10 -50 -10 -100 q0 -82 54 -127 q54 -45 148 -45 q217 0 349.5 308 q132.5 308 132.5 667 q0 284 -166 284 q-147 0 -226 -205 q-122 0 -122 111 q0 85 95 144 q95 59 240 59 q185 0 288.5 -121.5 q103.5 -121.5 103.5 -347.5 q0 -423 -179.5 -728.5 q-179.5 -305.5 -504.5 -305.5 q-250 0 -340 196 Z" /><glyph glyph-name="uni047F" unicode="&#x47f;" d="M1356 1444 l-4 -27 l-119 -172 l-35 0 l-27 103 l-184 0 l-72 -103 l-34 0 l-27 103 l-184 0 l-72 -103 l-35 0 l-43 172 l6 27 l830 0 ZM938 1098 q61 -374 94 -910 q175 160 277 355.5 q102 195.5 102 339.5 q0 93 -76 112 q0 60 36 91.5 q36 31.5 91 31.5 q119 0 119 -139 q0 -436 -586 -979 l-127 0 l-28 459 l-344 -459 l-140 0 q-45 614 -84 794.5 q-39 180.5 -102 180.5 q-38 0 -76 -21 l-33 64 q110 86 197 86 q118 0 163 -147.5 q45 -147.5 99 -770.5 l305 402 q-23 249 -75 510 l188 0 Z" /><glyph glyph-name="uni0480" unicode="&#x480;" d="M846 127 l-82 -385 q-6 -28 -6 -59 q0 -89 153 -89 l27 0 l-18 -86 l-596 0 l18 86 l27 0 q96 0 134.5 38 q38.5 38 53.5 110 l51 240 q-242 17 -372 160.5 q-130 143.5 -130 385.5 q0 388 242 671.5 q242 283.5 602 283.5 q179 0 279 -61.5 q100 -61.5 100 -166.5 q0 -73 -55 -116 q-55 -43 -146 -43 q0 278 -204 278 q-253 0 -423.5 -275.5 q-170.5 -275.5 -170.5 -602.5 q0 -383 364 -383 q90 0 144 14 l8 0 Z" /><glyph glyph-name="uni0481" unicode="&#x481;" d="M709 145 l4 0 l-131 -637 l-193 0 l103 472 q-183 0 -293.5 113 q-110.5 113 -110.5 310 q0 268 173 491.5 q173 223.5 437 223.5 q141 0 220 -56 q79 -56 79 -140 q0 -62 -49.5 -103 q-49.5 -41 -132.5 -41 q0 109 -42 175.5 q-42 66.5 -116 66.5 q-143 0 -249.5 -214 q-106.5 -214 -106.5 -419 q0 -278 231 -278 q104 0 177 36 Z" /><glyph glyph-name="uni0482" unicode="&#x482;" d="M588 432 l284 -166 l-71 -123 l-285 164 l-180 -313 l-129 74 l180 315 l-283 164 l70 123 l287 -164 l198 346 l-284 164 l71 125 l285 -164 l182 313 l127 -73 l-182 -316 l287 -164 l-74 -123 l-283 164 l-200 -346 Z" /><glyph glyph-name="uni0483" unicode="&#x483;" d="M520 1262 q-19 -95 -108 -95 q-86 0 -86 80 q0 123 131 123 l438 0 q19 94 109 94 q88 0 88 -75 q0 -123 -134 -127 l-438 0 Z" /><glyph glyph-name="uni0484" unicode="&#x484;" d="M389 1382 q114 0 276 58 q161 57 236 57 q97 0 153 -47.5 q56 -47.5 56 -132.5 q0 -29 -6 -64 l-129 0 q18 115 -90 115 q-43 0 -97 -18 q-202 -67 -273 -82 q-71 -15 -146 -15 l-17 0 l27 129 l10 0 Z" /><glyph glyph-name="uni0485" unicode="&#x485;" d="M723 1315 l0 -76 q-242 61 -242 223 q0 57 34 92 q34 35 93 35 q97 0 97 -76 q0 -40 -49 -61 q-50 -21 -50 -45 q0 -51 117 -92 Z" /><glyph glyph-name="uni0486" unicode="&#x486;" d="M481 1239 l0 76 q117 41 117 92 q0 23 -49 45 q-49 22 -49 61 q0 76 96 76 q59 0 93 -35 q34 -35 34 -92 q0 -162 -242 -223 Z" /><glyph glyph-name="uni0488" unicode="&#x488;" d="M1135 1231 q-7 88 -134 88 q-70 0 -99 -17 q-29 -17 -34 -71 l-75 0 q13 194 208 194 q196 0 213 -194 l-79 0 ZM1714 946 q-6 88 -133 88 q-71 0 -99.5 -17 q-28.5 -17 -33.5 -71 l-76 0 q14 195 209 195 q196 0 213 -195 l-80 0 ZM561 946 q-6 88 -133 88 q-71 0 -99.5 -17 q-28.5 -17 -33.5 -71 l-76 0 q14 195 209 195 q196 0 213 -195 l-80 0 ZM1905 459 q-7 88 -133 88 q-71 0 -100 -17 q-29 -17 -34 -71 l-75 0 q13 194 209 194 q91 0 148.5 -51.5 q57.5 -51.5 64.5 -142.5 l-80 0 ZM383 459 q-6 88 -133 88 q-71 0 -99.5 -17 q-28.5 -17 -33.5 -71 l-76 0 q13 194 209 194 q196 0 213 -194 l-80 0 ZM1714 -41 q-7 88 -133 88 q-71 0 -99.5 -17 q-28.5 -17 -33.5 -71 l-76 0 q14 195 209 195 q196 0 213 -195 l-80 0 ZM561 -41 q-7 88 -133 88 q-71 0 -99.5 -17 q-28.5 -17 -33.5 -71 l-76 0 q14 195 209 195 q196 0 213 -195 l-80 0 ZM1135 -319 q-8 88 -134 88 q-70 0 -99 -17 q-29 -17 -34 -71 l-75 0 q14 194 208 194 q196 0 213 -194 l-79 0 Z" /><glyph glyph-name="uni0489" unicode="&#x489;" d="M881 1141 l-11 14 q43 160 123 336 l97 0 q-50 -210 -70 -350 l-139 0 ZM492 877 l-17 2 q-84 149 -151 323 l67 70 q107 -171 199 -297 l-98 -98 ZM1325 1018 l2 16 q150 85 324 152 l69 -68 q-175 -109 -297 -198 l-98 98 ZM1567 651 l14 11 q160 -43 336 -123 l0 -97 q-210 50 -350 70 l0 139 ZM391 453 l-14 -11 q-156 41 -336 123 l0 97 q210 -50 350 -70 l0 -139 ZM1464 184 l17 -2 q81 -140 151 -323 l-67 -70 q-110 175 -199 297 l98 98 ZM633 45 l-2 -16 q-140 -81 -324 -152 l-69 68 q175 109 297 198 l98 -98 ZM1079 -35 l11 -14 q-41 -156 -123 -336 l-97 0 q50 210 70 350 l139 0 Z" /><glyph glyph-name="uni048A" unicode="&#x48a;" d="M743 1839 l183 47 q-15 -47 -15 -90 q0 -108 127 -108 q233 0 392 251 l75 -47 q-191 -313 -497 -313 q-275 0 -275 190 q0 42 10 70 ZM866 86 l27 0 q170 0 201 147 l163 785 l-841 -739 l-10 -54 q-9 -49 -9 -57 q0 -82 148 -82 l26 0 l-18 -86 l-596 0 l16 86 l27 0 q99 0 142 37.5 q43 37.5 59 109.5 l213 1004 q8 38 8 57 q0 82 -148 82 l-26 0 l18 86 l596 0 l-18 -86 l-27 0 q-98 0 -141 -37 q-43 -37 -58 -110 l-163 -783 l839 736 l13 55 q8 34 8 57 q0 82 -148 82 l-26 0 l18 86 l596 0 l-18 -86 l-27 0 q-98 0 -141 -37 q-43 -37 -58 -110 l-211 -993 q-6 -26 -6 -48 q0 -42 27.5 -68 q27.5 -26 118.5 -26 l80 0 l0 -10 l-240 -514 l-193 0 l283 430 l-520 0 l16 86 Z" /><glyph glyph-name="uni048B" unicode="&#x48b;" d="M430 1501 l182 47 q-14 -44 -14 -90 q0 -108 127 -108 q236 0 391 252 l76 -48 q-192 -313 -498 -313 q-274 0 -274 191 q0 41 10 69 ZM135 1098 l381 0 l-135 -613 q-41 -186 -41 -247 q0 -125 100 -125 q105 0 226.5 151.5 q121.5 151.5 158.5 323.5 l107 510 l198 0 l-141 -658 q-31 -145 -31 -227 q0 -104 68 -104 q58 0 131 45 l37 -60 l-244 -524 l-188 0 l287 434 q-58 -24 -115 -24 q-77 0 -124.5 55 q-47.5 55 -47.5 139 q0 53 10 121 l-16 0 q-111 -183 -198.5 -248 q-87.5 -65 -197.5 -65 q-219 0 -219 227 q0 65 37 225 l80 359 q18 81 18 122 q0 97 -143 97 l-16 0 l18 86 Z" /><glyph glyph-name="uni048C" unicode="&#x48c;" d="M223 1251 l193 0 l65 305 l205 0 l-65 -305 l350 0 l-23 -100 l-348 0 l-72 -342 l138 0 q503 0 503 -342 q0 -223 -151 -345 q-151 -122 -438 -122 l-623 0 l16 86 l60 0 q45 0 97.5 30.5 q52.5 30.5 70.5 116.5 l194 918 l-194 0 l22 100 ZM379 102 l178 0 q391 0 391 349 q0 139 -70.5 200.5 q-70.5 61.5 -218.5 61.5 l-151 0 l-129 -611 Z" /><glyph glyph-name="uni048D" unicode="&#x48d;" d="M285 1040 l57 279 l193 0 l-58 -279 l299 0 l-20 -96 l-299 0 l-66 -321 q126 10 207 10 q395 0 395 -289 q0 -169 -119.5 -266.5 q-119.5 -97.5 -322.5 -97.5 q-404 0 -404 292 q0 95 25 207 l94 465 l-194 0 l20 96 l193 0 ZM371 518 q-27 -132 -27 -217 q0 -221 215 -221 q106 0 169 75 q63 75 63 181 q0 190 -224 190 q-82 0 -196 -8 Z" /><glyph glyph-name="uni048E" unicode="&#x48e;" d="M-41 0 l18 86 l27 0 q96 0 139 37 q43 37 58 110 l213 1004 q8 38 8 57 q0 82 -148 82 l-26 0 l18 86 l525 0 q222 0 344 -103 q122 -103 122 -292 q0 -300 -258 -426 l113 -160 l-82 -55 l-125 178 q-117 -35 -274 -35 l-152 0 l-73 -344 q-9 -42 -9 -57 q0 -82 148 -82 l67 0 l-18 -86 l-635 0 ZM500 666 l108 0 q140 0 230 36 l-127 181 l82 55 l129 -184 q118 95 118 311 q0 299 -299 299 l-94 0 l-147 -698 Z" /><glyph glyph-name="uni048F" unicode="&#x48f;" d="M389 -406 l-18 -86 l-385 0 l272 1299 q18 86 18 108 q0 97 -143 97 l-16 0 l18 86 l363 0 l-49 -273 l10 0 q148 293 375 293 q125 0 192.5 -95 q67.5 -95 67.5 -275 q0 -180 -87 -373.5 q-87 -193.5 -231 -296.5 l125 -178 l-82 -56 l-127 183 q-98 -47 -209 -47 q-117 0 -200 47 q-9 -66 -17 -99 l-28 -125 q-19 -85 -19 -114 q0 -95 143 -95 l27 0 ZM315 145 q66 -73 162 -73 q81 0 150 49 l-127 180 l82 55 l116 -168 q86 104 136.5 263.5 q50.5 159.5 50.5 298.5 q0 239 -129 239 q-106 0 -214 -147.5 q-108 -147.5 -143 -306.5 l-84 -390 Z" /><glyph glyph-name="uni0492" unicode="&#x492;" d="M594 0 l-635 0 l18 86 l25 0 q168 0 199 147 l98 472 l-223 0 l20 100 l226 0 l90 424 q10 47 10 65 q0 82 -148 82 l-26 0 l18 86 l1018 0 l-63 -358 l-107 0 q10 88 10 119 q0 79 -41 108 q-41 29 -127 29 l-309 0 l-119 -555 l318 0 l-21 -100 l-317 0 l-102 -480 q-9 -42 -9 -57 q0 -82 148 -82 l67 0 l-18 -86 Z" /><glyph glyph-name="uni0493" unicode="&#x493;" d="M217 604 l45 219 q12 58 12 90 q0 99 -141 99 l-18 0 l18 86 l842 0 l-70 -328 l-96 0 q0 133 -21 183.5 q-21 50.5 -104 50.5 l-192 0 l-84 -400 l241 0 l-20 -96 l-242 0 l-106 -508 l-191 0 l107 508 l-195 0 l21 96 l194 0 Z" /><glyph glyph-name="uni0494" unicode="&#x494;" d="M594 0 l-635 0 l18 86 l25 0 q168 0 199 147 l211 996 q10 47 10 65 q0 82 -148 82 l-26 0 l18 86 l1018 0 l-63 -358 l-107 0 q10 88 10 119 q0 79 -41 108 q-41 29 -127 29 l-309 0 l-121 -569 q84 12 166 12 q239 0 377.5 -129 q138.5 -129 138.5 -367 q0 -341 -189.5 -580 q-189.5 -239 -506.5 -239 q-416 0 -416 221 q0 144 187 144 q0 -152 63.5 -202 q63.5 -50 181.5 -50 q204 0 337.5 216 q133.5 216 133.5 490 q0 184 -95.5 279.5 q-95.5 95.5 -264.5 95.5 q-101 0 -137 -6 l-96 -451 q-9 -42 -9 -57 q0 -82 148 -82 l67 0 l-18 -86 Z" /><glyph glyph-name="uni0495" unicode="&#x495;" d="M90 0 l172 823 q12 57 12 90 q0 99 -141 99 l-18 0 l18 86 l842 0 l-70 -328 l-96 0 q0 133 -21 183.5 q-21 50.5 -104 50.5 l-192 0 l-86 -404 q76 14 143 14 q184 0 292.5 -101.5 q108.5 -101.5 108.5 -297.5 q0 -303 -151.5 -505 q-151.5 -202 -419.5 -202 q-160 0 -246 50 q-86 50 -86 133 q0 65 45.5 102 q45.5 37 122.5 37 q0 -128 43.5 -175.5 q43.5 -47.5 136.5 -47.5 q161 0 260 181.5 q99 181.5 99 436.5 q0 283 -252 283 q-73 0 -117 -8 l-104 -500 l-191 0 Z" /><glyph glyph-name="uni0496" unicode="&#x496;" d="M1360 549 q-28 91 -76.5 115 q-48.5 24 -179.5 24 l-98 -463 q-9 -43 -9 -57 q0 -82 148 -82 l26 0 l-18 -86 l-580 0 l17 86 l26 0 q97 0 140.5 36 q43.5 36 60.5 111 l96 455 q-165 0 -230 -24 q-65 -24 -118 -115 l-205 -356 q-82 -142 -160 -167.5 q-78 -25.5 -245 -25.5 l-66 0 l19 86 l6 0 q162 0 262 164 l203 346 q101 172 344 180 q-81 68 -156 305 q-49 161 -82.5 201.5 q-33.5 40.5 -83.5 40.5 q-92 0 -137 -115 q-74 30 -74 119 q0 148 183 148 q113 0 171.5 -69.5 q58.5 -69.5 114.5 -264.5 q69 -231 127 -295 q58 -64 148 -64 l96 455 q8 38 8 57 q0 82 -147 82 l-27 0 l19 86 l579 0 l-18 -86 l-27 0 q-97 0 -139.5 -36 q-42.5 -36 -58.5 -111 l-95 -447 q157 0 230.5 56 q73.5 56 193.5 303 q87 178 178.5 256 q91.5 78 221.5 78 q157 0 157 -119 q0 -138 -129 -148 q0 115 -96 115 q-71 0 -122 -51.5 q-51 -51.5 -122 -190.5 q-131 -259 -227 -307 q98 -35 145 -178 l119 -346 q35 -102 81.5 -133 q46.5 -31 129.5 -31 l41 0 l-110 -516 l-93 0 q21 114 21 183 q0 165 -133 251 q-104 72 -140 189 l-110 356 Z" /><glyph glyph-name="uni0497" unicode="&#x497;" d="M827 0 l105 504 l-150 0 q-62 -241 -204 -385 q-142 -144 -322 -144 q-118 0 -186 52 q-68 52 -68 137 q0 63 45 103 q45 40 119 40 q0 -233 129 -233 q124 0 225 203.5 q101 203.5 101 429.5 q0 278 -175 278 q-144 0 -243 -147 q-17 19 -17 51 q0 83 82 154 q82 71 219 71 q153 0 238.5 -101 q85.5 -101 85.5 -282 q0 -67 -10 -131 l151 0 l105 498 l178 0 l-107 -498 l160 0 q65 235 206 376.5 q141 141.5 318 141.5 q117 0 185.5 -51.5 q68.5 -51.5 68.5 -136.5 q0 -63 -44 -103.5 q-44 -40.5 -119 -40.5 q0 234 -129 234 q-124 0 -225 -203.5 q-101 -203.5 -101 -429.5 q0 -278 174 -278 q146 0 244 147 q16 -18 16 -51 q0 -19 -6 -51 q-7 -32 -12 -60 q-55 -320 -120 -440.5 q-65 -120.5 -218 -120.5 q-97 0 -176 31 l22 80 q37 -11 82 -11 q84 0 171 101.5 q87 101.5 120 261.5 l4 20 q-69 -36 -168 -36 q-152 0 -238 100.5 q-86 100.5 -86 281.5 q0 62 13 142 l-162 0 l-109 -504 l-172 0 Z" /><glyph glyph-name="uni049A" unicode="&#x49a;" d="M774 549 q-25 79 -63.5 109 q-38.5 30 -206.5 30 l-98 -463 q-9 -43 -9 -57 q0 -82 148 -82 l26 0 l-18 -86 l-596 0 l16 86 l27 0 q99 0 142 37.5 q43 37.5 59 109.5 l213 1004 q8 38 8 57 q0 82 -148 82 l-26 0 l18 86 l596 0 l-18 -86 l-27 0 q-98 0 -141 -37 q-43 -37 -58 -110 l-94 -447 q140 0 202.5 50 q62.5 50 205.5 309 q96 174 188.5 254 q92.5 80 233.5 80 q166 0 166 -123 q0 -134 -129 -144 q0 115 -101 115 q-138 0 -272 -242 q-141 -260 -223 -307 q119 -5 174 -178 l118 -346 q35 -101 81.5 -132.5 q46.5 -31.5 129.5 -31.5 l41 0 l-110 -516 l-92 0 q20 110 20 180 q0 168 -133 254 q-57 40 -87 78 q-30 38 -52 111 l-111 356 Z" /><glyph glyph-name="uni049B" unicode="&#x49b;" d="M1128 86 q-47 -290 -111.5 -421.5 q-64.5 -131.5 -223.5 -131.5 q-98 0 -177 31 l23 80 q35 -11 82 -11 q81 0 169.5 99.5 q88.5 99.5 121.5 267.5 q-148 0 -208 40.5 q-60 40.5 -106 152.5 l-67 172 q-36 92 -84.5 117.5 q-48.5 25.5 -157.5 25.5 l-104 -508 l-197 0 l170 793 q18 84 18 122 q0 97 -143 97 l-16 0 l18 86 l381 0 l-106 -496 q85 0 140.5 50.5 q55.5 50.5 197.5 224.5 q122 144 186 188.5 q64 44.5 153 44.5 q152 0 152 -123 q0 -113 -111 -131 q0 115 -90 115 q-57 0 -114 -46.5 q-57 -46.5 -172 -186.5 q-91 -110 -146 -142 q64 -2 122 -54 q58 -52 89 -126 l72 -166 q71 -164 207 -164 l32 0 Z" /><glyph glyph-name="uni049C" unicode="&#x49c;" d="M625 688 l-121 0 l-98 -463 q-9 -43 -9 -57 q0 -82 148 -82 l26 0 l-18 -86 l-596 0 l16 86 l27 0 q99 0 142 37.5 q43 37.5 59 109.5 l213 1004 q8 38 8 57 q0 82 -148 82 l-26 0 l18 86 l596 0 l-18 -86 l-27 0 q-98 0 -141 -37 q-43 -37 -58 -110 l-94 -447 l119 0 l72 332 l119 0 l-64 -297 q65 36 223 324 q98 175 190 254.5 q92 79.5 232 79.5 q166 0 166 -123 q0 -134 -129 -144 q0 115 -100 115 q-139 0 -273 -242 q-141 -260 -223 -307 q119 -5 174 -178 l119 -346 q56 -164 207 -164 l6 0 l-19 -86 l-28 0 q-184 0 -257 33 q-73 33 -112 160 l-110 356 q-33 107 -97 125 l-67 -318 l-119 0 l72 332 Z" /><glyph glyph-name="uni049D" unicode="&#x49d;" d="M88 0 l170 793 q18 84 18 122 q0 97 -143 97 l-16 0 l18 86 l381 0 l-106 -496 l106 0 l51 238 l109 0 l-45 -195 q21 26 77 102 q169 232 259 297.5 q90 65.5 182 65.5 q151 0 151 -123 q0 -113 -110 -131 q0 115 -90 115 q-57 0 -116 -48.5 q-59 -48.5 -170 -185.5 q-102 -125 -146 -151 q149 -22 211 -170 l71 -166 q70 -164 209 -164 l6 0 l-18 -86 l-72 0 q-132 0 -199 33.5 q-67 33.5 -116 159.5 l-68 172 q-48 121 -90 131 l-45 -215 l-108 0 l47 227 l-107 0 l-104 -508 l-197 0 Z" /><glyph glyph-name="uni049E" unicode="&#x49e;" d="M-43 0 l16 86 l27 0 q99 0 142 37.5 q43 37.5 59 109.5 l188 887 l-190 0 l20 101 l193 0 q10 40 10 73 q0 82 -148 82 l-26 0 l18 86 l596 0 l-18 -86 l-27 0 q-98 0 -141 -37 q-43 -37 -58 -110 l-2 -8 l199 0 l-22 -101 l-197 0 l-72 -338 q140 0 202.5 50 q62.5 50 205.5 309 q96 174 188.5 254 q92.5 80 233.5 80 q166 0 166 -123 q0 -134 -129 -144 q0 115 -101 115 q-138 0 -272 -242 q-141 -260 -223 -307 q119 -5 174 -178 l118 -346 q56 -164 207 -164 l6 0 l-18 -86 l-29 0 q-177 0 -252 30 q-75 30 -116 163 l-111 356 q-25 79 -63.5 109 q-38.5 30 -206.5 30 l-98 -463 q-9 -43 -9 -57 q0 -82 148 -82 l26 0 l-18 -86 l-596 0 Z" /><glyph glyph-name="uni049F" unicode="&#x49f;" d="M539 1214 l-129 -612 q85 0 140.5 50.5 q55.5 50.5 197.5 224.5 q122 144 186 188.5 q64 44.5 153 44.5 q152 0 152 -123 q0 -113 -111 -131 q0 115 -90 115 q-57 0 -114 -46.5 q-57 -46.5 -172 -186.5 q-91 -110 -146 -142 q64 -2 122 -54 q58 -52 89 -126 l72 -166 q71 -164 209 -164 l6 0 l-19 -86 l-71 0 q-150 0 -210 40.5 q-60 40.5 -106 152.5 l-67 172 q-36 92 -84.5 117.5 q-48.5 25.5 -157.5 25.5 l-104 -508 l-197 0 l262 1214 l-188 0 l20 97 l187 0 q8 45 8 63 q0 96 -148 96 l-16 0 l18 86 l381 0 l-53 -245 l266 0 l-20 -97 l-266 0 Z" /><glyph glyph-name="uni04A0" unicode="&#x4a0;" d="M131 0 l16 86 l27 0 q99 0 142 37.5 q43 37.5 59 109.5 l241 1135 l-161 0 q-74 0 -108.5 -25 q-34.5 -25 -59.5 -102 l-8 -24 l-101 0 l60 245 l798 0 l-18 -86 l-27 0 q-97 0 -139.5 -36 q-42.5 -36 -58.5 -111 l-95 -447 q154 0 213.5 56.5 q59.5 56.5 194.5 302.5 q96 174 188.5 254 q92.5 80 233.5 80 q166 0 166 -123 q0 -134 -129 -144 q0 115 -101 115 q-138 0 -272 -242 q-141 -260 -223 -307 q119 -5 174 -178 l119 -346 q56 -164 206 -164 l7 0 l-19 -86 l-29 0 q-177 0 -252 30 q-75 30 -116 163 l-111 356 q-25 79 -63.5 109 q-38.5 30 -206.5 30 l-98 -463 q-9 -43 -9 -57 q0 -82 148 -82 l26 0 l-18 -86 l-596 0 Z" /><glyph glyph-name="uni04A1" unicode="&#x4a1;" d="M299 0 l215 1006 l-149 0 q-74 0 -108.5 -27 q-34.5 -27 -61.5 -107 l-7 -18 l-94 0 l58 244 l575 0 l-106 -496 q90 0 147 56 q57 56 190 219 q121 142 186 187.5 q65 45.5 154 45.5 q152 0 152 -123 q0 -113 -111 -131 q0 115 -90 115 q-57 0 -114 -46.5 q-57 -46.5 -172 -186.5 q-91 -110 -146 -142 q64 -2 122 -54 q58 -52 89 -126 l72 -166 q71 -164 209 -164 l6 0 l-19 -86 l-71 0 q-150 0 -210 40.5 q-60 40.5 -106 152.5 l-67 172 q-36 92 -84.5 117.5 q-48.5 25.5 -157.5 25.5 l-104 -508 l-197 0 Z" /><glyph glyph-name="uni04A2" unicode="&#x4a2;" d="M1464 86 l-110 -516 l-94 0 q21 100 21 176 q0 254 -245 254 l-207 0 l17 86 l26 0 q98 0 142 36.5 q44 36.5 59 110.5 l101 480 l-666 0 l-102 -488 q-9 -43 -9 -57 q0 -82 148 -82 l26 0 l-18 -86 l-596 0 l16 86 l27 0 q99 0 142 37.5 q43 37.5 59 109.5 l213 1004 q8 38 8 57 q0 82 -148 82 l-26 0 l18 86 l596 0 l-18 -86 l-27 0 q-98 0 -141 -37 q-43 -37 -58 -110 l-88 -414 l666 0 l90 422 q8 38 8 57 q0 82 -147 82 l-27 0 l19 86 l596 0 l-19 -86 l-26 0 q-98 0 -141 -37.5 q-43 -37.5 -58 -109.5 l-213 -1004 q-8 -38 -8 -57 q0 -82 143 -82 l51 0 Z" /><glyph glyph-name="uni04A3" unicode="&#x4a3;" d="M1184 1098 l-148 -684 q-26 -120 -26 -207 q0 -98 73 -98 q51 0 125 45 l37 -60 q-47 -288 -110 -424.5 q-63 -136.5 -228 -136.5 q-97 0 -176 31 l23 80 q35 -11 82 -11 q85 0 173.5 104.5 q88.5 104.5 120.5 278.5 q-75 -36 -145 -36 q-83 0 -131.5 54.5 q-48.5 54.5 -48.5 139.5 q0 80 22 182 l33 160 l-471 0 l-108 -516 l-191 0 l172 823 q12 57 12 92 q0 97 -143 97 l-16 0 l18 86 l379 0 l-104 -488 l473 0 l102 488 l201 0 Z" /><glyph glyph-name="uni04A4" unicode="&#x4a4;" d="M1800 1239 q0 75 -26.5 102 q-26.5 27 -96.5 27 l-157 0 l-242 -1143 q-8 -38 -8 -57 q0 -82 147 -82 l27 0 l-19 -86 l-596 0 l17 86 l26 0 q98 0 142 36.5 q44 36.5 59 110.5 l101 480 l-666 0 l-102 -488 q-9 -43 -9 -57 q0 -82 148 -82 l26 0 l-18 -86 l-596 0 l16 86 l27 0 q99 0 142 37.5 q43 37.5 59 109.5 l213 1004 q8 38 8 57 q0 82 -148 82 l-26 0 l18 86 l596 0 l-18 -86 l-27 0 q-98 0 -141 -37 q-43 -37 -58 -110 l-88 -414 l666 0 l90 422 q8 38 8 57 q0 82 -147 82 l-27 0 l19 86 l798 0 l-43 -245 l-94 0 l0 22 Z" /><glyph glyph-name="uni04A5" unicode="&#x4a5;" d="M1565 1098 l-43 -244 l-90 0 l0 23 q0 74 -25.5 101.5 q-25.5 27.5 -99.5 27.5 l-144 0 l-127 -592 q-26 -121 -26 -207 q0 -98 73 -98 q51 0 125 45 l37 -60 q-130 -114 -260 -114 q-83 0 -131.5 54.5 q-48.5 54.5 -48.5 139.5 q0 80 22 182 l33 160 l-471 0 l-108 -516 l-191 0 l172 823 q12 57 12 92 q0 97 -143 97 l-16 0 l18 86 l379 0 l-104 -488 l473 0 l102 488 l582 0 Z" /><glyph glyph-name="uni04A6" unicode="&#x4a6;" d="M1313 676 l-96 -451 q-9 -42 -9 -57 q0 -82 148 -82 l26 0 l-18 -86 l-596 0 l18 86 l27 0 q97 0 139.5 37 q42.5 37 59.5 110 l239 1127 l-604 0 l-241 -1135 q-9 -42 -9 -57 q0 -82 148 -82 l26 0 l-18 -86 l-596 0 l16 86 l27 0 q99 0 142 37.5 q43 37.5 59 109.5 l213 1004 q8 38 8 57 q0 82 -148 82 l-26 0 l18 86 l1407 0 l-18 -86 l-27 0 q-97 0 -139.5 -36 q-42.5 -36 -58.5 -111 l-93 -438 q84 12 166 12 q239 0 377.5 -129 q138.5 -129 138.5 -367 q0 -341 -189.5 -580 q-189.5 -239 -506.5 -239 q-416 0 -416 221 q0 144 187 144 q0 -152 63.5 -202 q63.5 -50 181.5 -50 q204 0 337.5 216 q133.5 216 133.5 490 q0 183 -109 279 q-109 96 -288 96 q-50 0 -100 -6 Z" /><glyph glyph-name="uni04A7" unicode="&#x4a7;" d="M1077 498 l-106 -498 l-193 0 l215 1004 l-501 0 l-211 -1004 l-191 0 l174 831 q10 48 10 80 q0 101 -139 101 l-20 0 l18 86 l1260 0 l-19 -86 l-18 0 q-110 0 -146 -36 q-36 -36 -51 -102 l-59 -276 q80 16 143 16 q186 0 294 -102.5 q108 -102.5 108 -296.5 q0 -301 -151.5 -504 q-151.5 -203 -420.5 -203 q-160 0 -246 50 q-86 50 -86 133 q0 65 45.5 102 q45.5 37 122.5 37 q0 -129 44 -176 q44 -47 137 -47 q160 0 259 181.5 q99 181.5 99 436.5 q0 283 -252 283 q-61 0 -119 -10 Z" /><glyph glyph-name="uni04A8" unicode="&#x4a8;" d="M985 78 q53 -51 148 -51 q94 0 159 61 q31 -20 31 -47 q0 -48 -59.5 -86.5 q-59.5 -38.5 -157.5 -38.5 q-170 0 -289 88 q-91 -24 -186 -24 q-233 0 -379 153 q-146 153 -146 406 q0 365 232.5 655.5 q232.5 290.5 568.5 290.5 q232 0 232 -101 q0 -47 -52 -67 q-80 57 -184 57 q-252 0 -412.5 -286 q-160.5 -286 -160.5 -594 q0 -194 85.5 -299 q85.5 -105 237.5 -105 q42 0 70 6 q-111 157 -111 391 q0 285 135.5 497 q135.5 212 362.5 212 q299 0 299 -367 q0 -236 -113 -436.5 q-113 -200.5 -311 -314.5 ZM901 172 q142 105 219.5 315.5 q77.5 210.5 77.5 425.5 q0 172 -92 172 q-108 0 -190 -195.5 q-82 -195.5 -82 -410.5 q0 -188 67 -307 Z" /><glyph glyph-name="uni04A9" unicode="&#x4a9;" d="M883 70 q47 -25 116 -25 q65 0 109 35 q27 -14 27 -43 q0 -98 -174 -98 q-124 0 -238 65 q-102 -24 -197 -24 q-210 0 -324 107.5 q-114 107.5 -114 303.5 q0 309 180 518 q180 209 477 209 q90 0 133.5 -24.5 q43.5 -24.5 43.5 -53.5 q0 -37 -43 -63 q-76 33 -152 33 q-201 0 -313.5 -194 q-112.5 -194 -112.5 -449 q0 -287 244 -287 q34 0 71 12 q-98 124 -98 295 q0 201 103.5 341 q103.5 140 283.5 140 q121 0 189.5 -70.5 q68.5 -70.5 68.5 -207.5 q0 -157 -72 -298 q-72 -141 -208 -222 ZM766 150 q98 69 154.5 210.5 q56.5 141.5 56.5 288.5 q0 113 -76 113 q-81 0 -134.5 -119 q-53.5 -119 -53.5 -270 q0 -142 53 -223 Z" /><glyph glyph-name="uni04AA" unicode="&#x4aa;" d="M1073 299 q27 -19 27 -68 q0 -92 -105 -167.5 q-105 -75.5 -293 -83.5 q-165 -131 -165 -240 q0 -68 69 -68 q44 0 86 21 q6 -15 6 -31 q0 -108 -147 -108 q-82 0 -127 41 q-45 41 -45 110 q0 151 205 279 q-228 23 -353 164 q-125 141 -125 380 q0 388 242 671.5 q242 283.5 602 283.5 q179 0 279 -61.5 q100 -61.5 100 -166.5 q0 -73 -55 -116 q-55 -43 -146 -43 q0 278 -204 278 q-253 0 -423.5 -275.5 q-170.5 -275.5 -170.5 -602.5 q0 -383 364 -383 q237 0 379 186 Z" /><glyph glyph-name="uni04AB" unicode="&#x4ab;" d="M821 256 q21 -13 21 -51 q0 -76 -80.5 -143 q-80.5 -67 -220.5 -80 q-168 -133 -168 -242 q0 -68 69 -68 q44 0 86 21 q7 -18 7 -31 q0 -108 -148 -108 q-81 0 -124.5 42 q-43.5 42 -43.5 111 q0 144 209 277 q-157 19 -248.5 129 q-91.5 110 -91.5 290 q0 268 173 491.5 q173 223.5 437 223.5 q141 0 220 -56 q79 -56 79 -140 q0 -62 -49.5 -103 q-49.5 -41 -132.5 -41 q0 109 -42 175.5 q-42 66.5 -116 66.5 q-143 0 -249.5 -214 q-106.5 -214 -106.5 -419 q0 -278 225 -278 q179 0 295 147 Z" /><glyph glyph-name="uni04AC" unicode="&#x4ac;" d="M657 225 q-8 -38 -8 -59 q0 -80 142 -80 l53 0 l-111 -516 l-94 0 q22 100 22 175 q0 255 -245 255 l-228 0 l19 86 l47 0 q103 0 143 35.5 q40 35.5 54 101.5 l241 1137 l-196 0 q-146 0 -205 -168 l-29 -88 l-106 0 l86 358 l1153 0 l-66 -358 l-106 0 q10 80 10 125 q0 131 -135 131 l-199 0 l-242 -1135 Z" /><glyph glyph-name="uni04AD" unicode="&#x4ad;" d="M920 0 l-195 0 q0 46 26 212.5 q26 166.5 44 248.5 l47 212 q30 124 30 191 q0 121 -94 121 q-114 0 -234.5 -155.5 q-120.5 -155.5 -152.5 -305.5 l-110 -524 l-191 0 l172 823 q12 57 12 92 q0 97 -143 97 l-16 0 l18 86 l379 0 l-55 -258 l20 0 q166 276 373 276 q219 0 219 -227 q0 -25 -4 -49 l20 0 q167 276 373 276 q219 0 219 -227 q0 -65 -37 -225 l-53 -242 q-26 -119 -26 -215 q0 -98 71 -98 q59 0 131 47 l38 -62 q-48 -294 -113 -427.5 q-65 -133.5 -225 -133.5 q-97 0 -176 31 l22 80 q37 -11 82 -11 q81 0 169.5 99.5 q88.5 99.5 121.5 267.5 l1 12 q-63 -32 -133 -32 q-84 0 -135 55 q-51 55 -51 149 q0 94 39 277 l35 160 q43 197 43 243 q0 121 -95 121 q-105 0 -217 -134.5 q-112 -134.5 -157 -281.5 l-33 -147 q-13 -56 -36 -219 q-23 -163 -23 -203 Z" /><glyph glyph-name="uni04AF" unicode="&#x4af;" d="M358 4 l-137 899 q-10 65 -36 87 q-26 22 -87 22 l-16 0 l18 86 l289 0 l88 -647 q15 -109 21 -308 l10 0 q383 401 383 711 q0 111 -100 111 q0 68 40 109.5 q40 41.5 93 41.5 q139 0 139 -172 q0 -198 -145 -450.5 q-145 -252.5 -371 -473.5 l-51 -260 q-8 -41 -8 -69 q0 -54 31.5 -76.5 q31.5 -22.5 111.5 -22.5 l14 0 l-18 -84 l-373 0 l104 496 Z" /><glyph glyph-name="uni04B0" unicode="&#x4b0;" d="M729 1462 l-18 -86 l-103 0 q-84 0 -84 -55 q0 -40 27 -119 l92 -274 q49 -146 55 -246 q20 38 154 215 l195 260 q75 100 75 166 q0 53 -98 53 l-76 0 l19 86 l506 0 l-19 -86 l-39 0 q-39 0 -77.5 -31.5 q-38.5 -31.5 -108.5 -123.5 l-477 -625 l-21 -88 l291 0 l-21 -100 l-290 0 l-39 -183 q-8 -38 -8 -57 q0 -82 147 -82 l47 0 l-18 -86 l-637 0 l18 86 l47 0 q103 0 143 35.5 q40 35.5 54 101.5 l39 185 l-283 0 l21 100 l284 0 l19 92 l-238 668 q-23 65 -45.5 86.5 q-22.5 21.5 -77.5 21.5 l-26 0 l18 86 l553 0 Z" /><glyph glyph-name="uni04B1" unicode="&#x4b1;" d="M543 0 l272 0 l-20 -96 l-273 0 l-26 -142 q-8 -44 -8 -70 q0 -53 31 -76.5 q31 -23.5 112 -23.5 l14 0 l-18 -84 l-373 0 l84 396 l-258 0 l20 96 l258 0 l0 4 l-137 899 q-10 65 -36 87 q-26 22 -87 22 l-16 0 l18 86 l289 0 l88 -647 q15 -109 21 -308 l10 0 q383 401 383 711 q0 111 -100 111 q0 68 40 109.5 q40 41.5 93 41.5 q139 0 139 -172 q0 -198 -145 -450.5 q-145 -252.5 -371 -473.5 l-4 -20 Z" /><glyph glyph-name="uni04B2" unicode="&#x4b2;" d="M1458 1376 l-18 0 q-56 0 -100.5 -30 q-44.5 -30 -131.5 -123 l-387 -428 l228 -555 q37 -90 69.5 -122 q32.5 -32 102.5 -32 l65 0 l-110 -516 l-95 0 q22 100 22 175 q0 255 -245 255 l-194 0 l18 86 l23 0 q61 0 96 20.5 q35 20.5 35 51.5 q0 42 -39 141 l-133 326 l-306 -340 q-82 -91 -82 -144 q0 -55 121 -55 l6 0 l-18 -86 l-485 0 l18 86 l8 0 q67 0 119.5 35 q52.5 35 122.5 112 l453 494 l-220 545 q-42 104 -159 104 l-27 0 l18 86 l555 0 l-18 -86 l-47 0 q-96 0 -96 -57 q0 -29 37 -123 l116 -299 l256 295 q78 90 78 133 q0 51 -98 51 l-6 0 l18 86 l449 0 l-19 -86 Z" /><glyph glyph-name="uni04B3" unicode="&#x4b3;" d="M-41 0 l23 86 l26 0 q56 0 97.5 25.5 q41.5 25.5 115.5 115.5 l262 318 l-133 319 q-39 95 -64.5 121.5 q-25.5 26.5 -82.5 26.5 l-27 0 l17 86 l272 0 l156 -414 l272 414 l262 0 l-33 -86 l-26 0 q-66 0 -106.5 -31.5 q-40.5 -31.5 -106.5 -116.5 l-215 -276 l141 -355 q39 -97 66.5 -122 q27.5 -25 80.5 -25 l48 0 q-50 -297 -114.5 -425 q-64.5 -128 -221.5 -128 q-97 0 -176 31 l22 80 q37 -11 82 -11 q81 0 168.5 99 q87.5 99 122.5 268 l-195 0 l-166 451 l-307 -451 l-260 0 Z" /><glyph glyph-name="uni04B4" unicode="&#x4b4;" d="M1464 -430 q22 100 22 175 q0 255 -245 255 l-1100 0 l19 86 l26 0 q169 0 197 139 l242 1135 l-127 0 q-153 0 -207 -168 l-29 -88 l-106 0 l86 358 l991 0 l-66 -358 l-106 0 q10 112 10 127 q0 129 -137 129 l-103 0 l-266 -1258 l686 0 l244 1145 q6 28 6 47 q0 48 -36.5 65 q-36.5 17 -110.5 17 l-17 0 l19 86 l586 0 l-19 -86 l-27 0 q-96 0 -138 -33.5 q-42 -33.5 -58 -103.5 l-217 -1014 q-8 -37 -8 -57 q0 -82 143 -82 l51 0 l-110 -516 l-95 0 Z" /><glyph glyph-name="uni04B5" unicode="&#x4b5;" d="M651 1004 l-114 -519 q-39 -178 -39 -247 q0 -125 118 -125 q152 0 295 148.5 q143 148.5 183 334.5 l104 502 l199 0 l-142 -658 q-28 -130 -28 -227 q0 -104 67 -104 q58 0 131 45 l37 -60 q-47 -288 -110 -424.5 q-63 -136.5 -228 -136.5 q-97 0 -176 31 l23 80 q35 -11 82 -11 q85 0 174 105 q89 105 119 272 q-86 -30 -144 -30 q-77 0 -125.5 53 q-48.5 53 -48.5 141 q0 53 10 121 l-18 0 q-132 -177 -239 -245 q-107 -68 -232 -68 q-120 0 -185 59.5 q-65 59.5 -65 167.5 q0 85 35 225 l127 570 l-80 0 q-70 0 -109.5 -31.5 q-39.5 -31.5 -78.5 -134.5 l-25 -68 l-100 0 l82 328 l847 0 l-57 -328 l-90 0 l0 68 q0 103 -25.5 134.5 q-25.5 31.5 -95.5 31.5 l-78 0 Z" /><glyph glyph-name="uni04B6" unicode="&#x4b6;" d="M1167 225 q-8 -38 -8 -55 q0 -84 135 -84 l60 0 l-111 -516 l-94 0 q21 100 21 176 q0 254 -242 254 l-209 0 l16 86 l27 0 q170 0 201 147 l84 392 q-254 -88 -388 -88 q-391 0 -391 303 q0 60 39 235 l35 160 q8 37 8 57 q0 82 -147 82 l-27 0 l19 86 l596 0 l-17 -86 l-26 0 q-98 0 -142 -37 q-44 -37 -59 -110 l-31 -142 q-37 -169 -37 -231 q0 -195 230 -195 q123 0 360 78 l107 500 q8 37 8 57 q0 82 -148 82 l-26 0 l18 86 l596 0 l-18 -86 l-27 0 q-98 0 -141 -37 q-43 -37 -58 -110 l-213 -1004 Z" /><glyph glyph-name="uni04B7" unicode="&#x4b7;" d="M1147 1098 l-148 -684 q-26 -120 -26 -207 q0 -98 74 -98 q50 0 124 45 l37 -60 q-49 -302 -113.5 -431.5 q-64.5 -129.5 -224.5 -129.5 q-97 0 -176 31 l23 80 q35 -11 82 -11 q82 0 169.5 99.5 q87.5 99.5 121.5 267.5 l4 20 q-70 -40 -146 -40 q-83 0 -131.5 54.5 q-48.5 54.5 -48.5 139.5 q0 75 23 182 l30 152 q-166 -92 -237 -111.5 q-71 -19.5 -148 -19.5 q-111 0 -180.5 64.5 q-69.5 64.5 -69.5 174.5 q0 31 11 82 l28 125 q13 58 13 92 q0 97 -144 97 l-16 0 l18 86 l379 0 l-80 -371 q-18 -83 -18 -113 q0 -102 121 -102 q155 0 344 94 l104 492 l201 0 Z" /><glyph glyph-name="uni04B8" unicode="&#x4b8;" d="M719 0 l16 86 l27 0 q170 0 201 147 l84 392 q-144 -54 -273 -76 l-69 -336 l-119 0 l67 324 q-385 0 -385 303 q0 60 39 235 l35 160 q8 37 8 57 q0 82 -147 82 l-27 0 l19 86 l596 0 l-17 -86 l-26 0 q-98 0 -142 -37 q-44 -37 -59 -110 l-31 -142 q-37 -169 -37 -231 q0 -180 201 -195 l76 357 l118 0 l-73 -348 q131 21 268 69 l107 500 q8 37 8 57 q0 82 -148 82 l-26 0 l18 86 l596 0 l-18 -86 l-27 0 q-98 0 -141 -37 q-43 -37 -58 -110 l-213 -1004 q-8 -38 -8 -57 q0 -82 148 -82 l26 0 l-18 -86 l-596 0 Z" /><glyph glyph-name="uni04B9" unicode="&#x4b9;" d="M1147 1098 l-148 -684 q-26 -120 -26 -207 q0 -98 74 -98 q50 0 124 45 l37 -60 q-131 -114 -260 -114 q-83 0 -131.5 54.5 q-48.5 54.5 -48.5 139.5 q0 75 23 182 l30 152 q-156 -86 -205 -100 l-47 -226 l-112 0 l43 199 q-27 -4 -64 -4 q-111 0 -180.5 64.5 q-69.5 64.5 -69.5 174.5 q0 31 11 82 l28 125 q13 58 13 92 q0 97 -144 97 l-16 0 l18 86 l379 0 l-80 -371 q-18 -83 -18 -113 q0 -102 121 -102 l30 0 l50 231 l112 0 l-47 -215 q78 19 199 78 l104 492 l201 0 Z" /><glyph glyph-name="uni04BA" unicode="&#x4ba;" d="M862 1462 l-16 -86 l-27 0 q-98 0 -141 -37.5 q-43 -37.5 -60 -109.5 l-83 -391 q254 88 387 88 q391 0 391 -303 q0 -60 -39 -236 l-35 -162 q-8 -37 -8 -57 q0 -82 147 -82 l27 0 l-19 -86 l-595 0 l16 86 l27 0 q169 0 200 147 l31 144 q37 172 37 231 q0 195 -230 195 q-131 0 -360 -78 l-106 -500 q-9 -42 -9 -57 q0 -82 148 -82 l26 0 l-18 -86 l-596 0 l18 86 l27 0 q98 0 141 37.5 q43 37.5 58 109.5 l213 1004 q8 38 8 57 q0 82 -148 82 l-26 0 l18 86 l596 0 Z" /><glyph glyph-name="uni04BB" unicode="&#x4bb;" d="M262 823 q12 57 12 92 q0 97 -141 97 l-18 0 l18 86 l379 0 l-109 -508 q221 131 385 131 q252 0 252 -221 q0 -47 -23 -156 q-24 -110 -24 -156 q0 -79 72 -79 q59 0 131 47 l37 -60 q-134 -116 -250 -116 q-83 0 -134.5 52.5 q-51.5 52.5 -51.5 127.5 q0 53 26 160 q25 107 25 163 q0 103 -121 103 q-152 0 -344 -94 l-102 -492 l-191 0 l172 823 Z" /><glyph glyph-name="uni04BC" unicode="&#x4bc;" d="M1352 297 q18 -16 18 -43 q0 -119 -131 -196.5 q-131 -77.5 -336 -77.5 q-260 0 -398 147.5 q-138 147.5 -138 404.5 q0 78 10 154 q-295 10 -295 203 q0 75 42 121.5 q42 46.5 116 46.5 q47 0 77 -27 q-51 -63 -51 -131 q0 -101 131 -111 q81 319 291 508 q210 189 486 189 q211 0 323.5 -87.5 q112.5 -87.5 112.5 -246.5 q0 -229 -232.5 -351 q-232.5 -122 -695.5 -122 l-76 0 q-16 -87 -16 -191 q0 -370 340 -370 q217 0 422 180 ZM627 780 l78 0 q339 0 514.5 96 q175.5 96 175.5 277 q0 221 -238 221 q-176 0 -316.5 -157.5 q-140.5 -157.5 -213.5 -436.5 Z" /><glyph glyph-name="uni04BD" unicode="&#x4bd;" d="M1040 256 q21 -13 21 -51 q0 -82 -96.5 -153.5 q-96.5 -71.5 -257.5 -71.5 q-180 0 -290 113 q-110 113 -110 310 q0 43 6 82 q-270 19 -270 193 q0 71 40.5 114.5 q40.5 43.5 109.5 43.5 q38 0 71 -23 q-47 -61 -47 -125 q0 -92 113 -108 q60 244 220 391 q160 147 368 147 q130 0 201 -62 q71 -62 71 -173 q0 -166 -172.5 -289 q-172.5 -123 -421.5 -123 l-35 0 q-18 0 -37 2 q-4 -28 -4 -86 q0 -278 225 -278 q175 0 295 147 ZM543 567 l20 0 q181 0 298.5 88 q117.5 88 117.5 228 q0 137 -119 137 q-100 0 -186.5 -127.5 q-86.5 -127.5 -130.5 -325.5 Z" /><glyph glyph-name="uni04BE" unicode="&#x4be;" d="M1352 297 q18 -16 18 -43 q0 -92 -82.5 -161.5 q-82.5 -69.5 -220.5 -96.5 q-176 -84 -250 -426 l-94 0 q25 117 25 192 q0 108 -40 172 q-40 64 -143 140 q-198 142 -198 458 q0 78 10 154 q-295 10 -295 203 q0 75 42 121.5 q42 46.5 116 46.5 q47 0 77 -27 q-51 -63 -51 -131 q0 -101 131 -111 q81 319 291 508 q210 189 486 189 q211 0 323.5 -87.5 q112.5 -87.5 112.5 -246.5 q0 -229 -232.5 -351 q-232.5 -122 -695.5 -122 l-76 0 q-16 -87 -16 -191 q0 -370 340 -370 q217 0 422 180 ZM627 780 l78 0 q339 0 514.5 96 q175.5 96 175.5 277 q0 221 -238 221 q-176 0 -316.5 -157.5 q-140.5 -157.5 -213.5 -436.5 Z" /><glyph glyph-name="uni04BF" unicode="&#x4bf;" d="M1040 256 q21 -13 21 -51 q0 -69 -69 -133 q-69 -64 -185 -84 q-58 -43 -95 -115.5 q-37 -72.5 -83 -302.5 l-94 0 q36 172 36 256 q0 138 -102 221 q-162 121 -162 356 q0 43 6 82 q-270 19 -270 193 q0 71 40.5 114.5 q40.5 43.5 109.5 43.5 q38 0 71 -23 q-47 -61 -47 -125 q0 -92 113 -108 q60 244 220 391 q160 147 368 147 q130 0 201 -62 q71 -62 71 -173 q0 -166 -172.5 -289 q-172.5 -123 -421.5 -123 l-35 0 q-18 0 -37 2 q-4 -28 -4 -86 q0 -278 225 -278 q175 0 295 147 ZM543 567 l20 0 q181 0 298.5 88 q117.5 88 117.5 228 q0 137 -119 137 q-100 0 -186.5 -127.5 q-86.5 -127.5 -130.5 -325.5 Z" /><glyph glyph-name="uni04C3" unicode="&#x4c3;" d="M498 666 l-92 -441 q-9 -43 -9 -57 q0 -82 148 -82 l26 0 l-18 -86 l-596 0 l16 86 l27 0 q99 0 142 37.5 q43 37.5 59 109.5 l213 1004 q8 38 8 57 q0 82 -148 82 l-26 0 l18 86 l596 0 l-18 -86 l-27 0 q-98 0 -141 -37 q-43 -37 -58 -110 l-94 -447 q140 0 202.5 50 q62.5 50 205.5 309 q96 174 188.5 254 q92.5 80 233.5 80 q166 0 166 -123 q0 -134 -129 -144 q0 115 -101 115 q-138 0 -272 -242 q-122 -225 -191 -282 q216 -18 333.5 -145 q117.5 -127 117.5 -347 q0 -341 -189.5 -580 q-189.5 -239 -506.5 -239 q-416 0 -416 221 q0 144 186 144 q0 -147 62.5 -199.5 q62.5 -52.5 183.5 -52.5 q203 0 337 215 q134 215 134 491 q0 183 -109 279 q-109 96 -288 96 q-83 0 -174 -16 Z" /><glyph glyph-name="uni04C4" unicode="&#x4c4;" d="M387 504 l-102 -504 l-197 0 l170 793 q18 84 18 122 q0 97 -143 97 l-16 0 l18 86 l381 0 l-106 -496 q85 0 140.5 50.5 q55.5 50.5 197.5 224.5 q122 144 186 188.5 q64 44.5 153 44.5 q152 0 152 -123 q0 -113 -111 -131 q0 115 -90 115 q-58 0 -112.5 -45.5 q-54.5 -45.5 -200.5 -218.5 q-38 -45 -72 -74 q207 -9 316.5 -117 q109.5 -108 109.5 -301 q0 -303 -151.5 -505 q-151.5 -202 -419.5 -202 q-160 0 -246 50 q-86 50 -86 133 q0 65 45.5 102 q45.5 37 122.5 37 q0 -128 43.5 -175.5 q43.5 -47.5 136.5 -47.5 q161 0 260 181.5 q99 181.5 99 436.5 q0 145 -79.5 223 q-79.5 78 -217.5 78 q-115 0 -199 -22 Z" /><glyph glyph-name="uni04C5" unicode="&#x4c5;" d="M1094 236 q-7 -33 -7 -48 q0 -46 26.5 -70 q26.5 -24 119.5 -24 l80 0 l0 -10 l-240 -514 l-192 0 l282 430 l-520 0 l16 86 l27 0 q170 0 201 147 l237 1127 l-333 0 q-60 -233 -166 -558 q-106 -325 -205 -515.5 q-99 -190.5 -179 -245.5 q-80 -55 -175 -55 q-76 0 -119 38.5 q-43 38.5 -43 98.5 q0 62 34 96.5 q34 34.5 87 34.5 q0 -96 77 -96 q184 0 372 545 q188 545 188 618 q0 55 -150 55 l-31 0 l19 86 l1048 0 l-18 -86 l-27 0 q-97 0 -139.5 -36 q-42.5 -36 -58.5 -111 l-211 -993 Z" /><glyph glyph-name="uni04C6" unicode="&#x4c6;" d="M1137 4 q-56 -24 -115 -24 q-83 0 -131.5 54.5 q-48.5 54.5 -48.5 139.5 q0 80 22 182 l135 641 q-49 21 -104 21 q-111 0 -162 -74 q-51 -74 -174 -414 q-101 -286 -191 -415 q-90 -129 -235 -129 q-61 0 -95 40 q-34 40 -34 97 q0 57 33 94 q33 37 82 37 q0 -38 22 -67 q22 -29 58 -29 q72 0 135.5 115.5 q63.5 115.5 192.5 468.5 q94 260 169.5 314 q75.5 54 202.5 54 q134 0 315 -33 l-141 -663 q-26 -122 -26 -207 q0 -98 73 -98 q51 0 125 45 l37 -60 l-244 -524 l-168 0 l267 434 Z" /><glyph glyph-name="uni04C7" unicode="&#x4c7;" d="M1264 152 q-72 -339 -236.5 -491.5 q-164.5 -152.5 -458.5 -152.5 q-184 0 -290.5 52 q-106.5 52 -106.5 145 q0 127 145 127 q44 -225 261 -225 q367 0 483 567 l113 539 l-666 0 l-102 -488 q-9 -43 -9 -57 q0 -82 148 -82 l26 0 l-18 -86 l-596 0 l16 86 l27 0 q99 0 142 37.5 q43 37.5 59 109.5 l213 1004 q8 38 8 57 q0 82 -148 82 l-26 0 l18 86 l596 0 l-18 -86 l-27 0 q-98 0 -141 -37 q-43 -37 -58 -110 l-88 -414 l666 0 l90 422 q8 38 8 57 q0 82 -147 82 l-27 0 l19 86 l596 0 l-19 -86 l-26 0 q-98 0 -141 -37.5 q-43 -37.5 -58 -109.5 l-227 -1077 Z" /><glyph glyph-name="uni04C8" unicode="&#x4c8;" d="M862 516 l-473 0 l-108 -516 l-191 0 l172 823 q12 57 12 92 q0 97 -143 97 l-16 0 l18 86 l379 0 l-104 -488 l473 0 l102 488 l201 0 l-234 -1100 q-54 -253 -187 -371.5 q-133 -118.5 -364 -118.5 q-161 0 -246 50 q-85 50 -85 133 q0 65 45.5 102 q45.5 37 122.5 37 q0 -128 43.5 -175.5 q43.5 -47.5 136.5 -47.5 q137 0 216.5 104 q79.5 104 123.5 312 l106 493 Z" /><glyph glyph-name="uni04C9" unicode="&#x4c9;" d="M846 86 l26 0 q98 0 142 36.5 q44 36.5 59 110.5 l101 480 l-666 0 l-102 -488 q-9 -43 -9 -57 q0 -82 148 -82 l26 0 l-18 -86 l-596 0 l16 86 l27 0 q99 0 142 37.5 q43 37.5 59 109.5 l213 1004 q8 38 8 57 q0 82 -148 82 l-26 0 l18 86 l596 0 l-18 -86 l-27 0 q-98 0 -141 -37 q-43 -37 -58 -110 l-88 -414 l666 0 l90 422 q8 38 8 57 q0 82 -147 82 l-27 0 l19 86 l596 0 l-19 -86 l-26 0 q-98 0 -141 -37.5 q-43 -37.5 -58 -109.5 l-211 -993 q-6 -27 -6 -49 q0 -43 27.5 -68 q27.5 -25 117.5 -25 l80 0 l0 -10 l-239 -514 l-193 0 l283 430 l-521 0 l17 86 Z" /><glyph glyph-name="uni04CA" unicode="&#x4ca;" d="M1100 4 q-56 -24 -115 -24 q-83 0 -131.5 54.5 q-48.5 54.5 -48.5 139.5 q0 80 22 182 l33 160 l-471 0 l-108 -516 l-191 0 l172 823 q12 57 12 92 q0 97 -143 97 l-16 0 l18 86 l379 0 l-104 -488 l473 0 l102 488 l201 0 l-148 -684 q-26 -120 -26 -207 q0 -98 73 -98 q51 0 125 45 l37 -60 l-244 -524 l-188 0 l287 434 Z" /><glyph glyph-name="uni04CB" unicode="&#x4cb;" d="M1118 0 q-172 0 -266 -94 q-94 -94 -145 -336 l-95 0 l111 516 l41 0 q168 0 199 147 l84 392 q-254 -88 -388 -88 q-391 0 -391 303 q0 60 39 235 l35 160 q8 37 8 59 q0 82 -147 82 l-27 0 l19 86 l596 0 l-17 -86 l-26 0 q-98 0 -142 -37 q-44 -37 -59 -110 l-31 -144 q-37 -172 -37 -231 q0 -195 230 -195 q123 0 360 78 l107 500 q8 37 8 57 q0 82 -148 82 l-26 0 l18 86 l596 0 l-18 -86 l-27 0 q-98 0 -141 -37 q-43 -37 -58 -110 l-213 -1004 q-8 -38 -8 -57 q0 -82 148 -82 l26 0 l-18 -86 l-197 0 Z" /><glyph glyph-name="uni04CC" unicode="&#x4cc;" d="M821 508 q-166 -92 -237 -111.5 q-71 -19.5 -148 -19.5 q-111 0 -180.5 64.5 q-69.5 64.5 -69.5 174.5 q0 31 11 82 l28 125 q13 58 13 92 q0 97 -144 97 l-16 0 l18 86 l379 0 l-80 -371 q-18 -83 -18 -113 q0 -102 121 -102 q155 0 344 94 l104 492 l201 0 l-189 -875 q-6 -26 -6 -45 q0 -92 146 -92 l26 0 l-18 -86 l-201 0 q-138 0 -213.5 -67 q-75.5 -67 -118.5 -218 l-41 -145 l-100 0 l113 524 l47 0 q97 0 127.5 33.5 q30.5 33.5 42.5 91.5 l59 289 Z" /><glyph glyph-name="uni04CD" unicode="&#x4cd;" d="M1796 84 l-240 -514 l-192 0 l283 430 l-469 0 l18 86 l6 0 q87 0 122 32.5 q35 32.5 52 96.5 l234 1094 l-748 -1309 l-110 0 l-199 1309 l-229 -1084 q-9 -43 -9 -57 q0 -82 148 -82 l26 0 l-18 -86 l-512 0 l18 86 l27 0 q102 0 141.5 36 q39.5 36 53.5 101 l215 1014 q8 38 8 57 q0 82 -148 82 l-26 0 l18 86 l465 0 l174 -1167 l670 1167 l457 0 l-19 -86 l-26 0 q-98 0 -141 -37.5 q-43 -37.5 -58 -109.5 l-207 -975 q-10 -47 -10 -64 q0 -55 35.5 -75.5 q35.5 -20.5 109.5 -20.5 l80 0 l0 -10 Z" /><glyph glyph-name="uni04CE" unicode="&#x4ce;" d="M1475 848 l-9 0 l-585 -848 l-95 0 l-124 817 q-17 -43 -41 -111 q-106 -303 -169.5 -446 q-63.5 -143 -140.5 -208.5 q-77 -65.5 -178 -65.5 q-61 0 -95 40 q-34 40 -34 97 q0 57 33 94 q33 37 82 37 q0 -38 22 -67 q22 -29 58 -29 q57 0 122.5 93 q65.5 93 188.5 450 q70 203 106 255 q-45 56 -161 56 l-27 0 l16 86 l371 0 l121 -830 l580 830 l364 0 l-16 -86 l-6 0 q-94 0 -129 -35.5 q-35 -35.5 -50 -102.5 l-98 -460 q-27 -127 -27 -207 q0 -98 74 -98 q51 0 125 45 l37 -60 l-244 -524 l-188 0 l280 430 q-58 -20 -108 -20 q-83 0 -131.5 54.5 q-48.5 54.5 -48.5 139.5 q0 80 22 182 l103 492 Z" /><glyph glyph-name="uni04D8" unicode="&#x4d8;" d="M319 1167 q-18 16 -18 43 q0 119 130.5 197 q130.5 78 336.5 78 q260 0 398.5 -147.5 q138.5 -147.5 138.5 -405.5 q0 -377 -229.5 -664.5 q-229.5 -287.5 -577.5 -287.5 q-209 0 -323 86 q-114 86 -114 247 q0 232 234 360 q234 128 698 128 l74 0 q14 107 14 176 q0 371 -340 371 q-217 0 -422 -181 ZM1049 698 l-78 0 q-342 0 -518.5 -107.5 q-176.5 -107.5 -176.5 -279.5 q0 -221 238 -221 q181 0 324.5 167 q143.5 167 210.5 441 Z" /><glyph glyph-name="uni04D9" unicode="&#x4d9;" d="M188 842 q-20 14 -20 51 q0 85 97 155 q97 70 257 70 q180 0 290 -113 q110 -113 110 -311 q0 -267 -173 -490.5 q-173 -223.5 -438 -223.5 q-130 0 -201 62 q-71 62 -71 173 q0 166 172.5 289 q172.5 123 421.5 123 l35 0 q18 0 37 -2 q4 28 4 86 q0 278 -226 278 q-169 0 -295 -147 ZM686 530 l-20 0 q-180 0 -298 -88 q-118 -88 -118 -227 q0 -137 119 -137 q99 0 186 127 q87 127 131 325 Z" /><glyph glyph-name="uni04E0" unicode="&#x4e0;" d="M410 805 l553 491 l-377 0 q-107 0 -139.5 -25.5 q-32.5 -25.5 -57.5 -101.5 l-6 -18 l-90 0 l76 311 l856 0 l-17 -84 l-618 -540 q234 -7 358.5 -105 q124.5 -98 124.5 -264 q0 -225 -150.5 -358.5 q-150.5 -133.5 -424.5 -133.5 q-222 0 -348.5 72.5 q-126.5 72.5 -126.5 181.5 q0 80 52.5 124 q52.5 44 139.5 44 q0 -309 295 -309 q154 0 249 108 q95 108 95 279 q0 244 -324 244 l-133 0 l13 84 Z" /><glyph glyph-name="uni04E1" unicode="&#x4e1;" d="M324 440 l503 494 l-360 0 q-69 0 -105 -27.5 q-36 -27.5 -61 -101.5 l-10 -29 l-101 0 l80 322 l777 0 l-15 -94 l-551 -541 q194 -16 305 -120 q111 -104 111 -275 q0 -259 -162.5 -409.5 q-162.5 -150.5 -410.5 -150.5 q-204 0 -312 61 q-108 61 -108 152 q0 70 45.5 111 q45.5 41 122.5 41 q10 -266 258 -266 q171 0 269.5 129.5 q98.5 129.5 98.5 324.5 q0 139 -89 217 q-89 78 -263 78 l-39 0 l17 84 Z" /><glyph glyph-name="uni04E8" unicode="&#x4e8;" d="M926 1485 q238 0 384 -148 q146 -148 146 -415 q0 -351 -228 -648 q-228 -297 -585 -297 q-243 0 -390 153.5 q-147 153.5 -147 414.5 q0 352 230 646 q230 294 590 294 ZM377 815 l842 0 q12 86 12 162 q0 191 -84.5 294 q-84.5 103 -237.5 103 q-180 0 -320 -148.5 q-140 -148.5 -212 -410.5 ZM1200 713 l-848 0 q-22 -120 -22 -226 q0 -192 87 -294.5 q87 -102.5 238 -102.5 q191 0 334.5 166.5 q143.5 166.5 210.5 456.5 Z" /><glyph glyph-name="uni04E9" unicode="&#x4e9;" d="M698 1118 q181 0 285 -109 q104 -109 104 -315 q0 -273 -167 -493.5 q-167 -220.5 -439 -220.5 q-185 0 -289 112 q-104 112 -104 311 q0 276 168.5 495.5 q168.5 219.5 441.5 219.5 ZM334 621 l536 0 q4 48 4 104 q0 285 -200 285 q-241 0 -340 -389 ZM854 518 l-541 0 q-12 -82 -12 -156 q0 -282 203 -282 q125 0 216.5 116.5 q91.5 116.5 133.5 321.5 Z" /><glyph glyph-name="uni04F6" unicode="&#x4f6;" d="M406 225 q-9 -42 -9 -55 q0 -84 146 -84 l69 0 l-110 -516 l-94 0 q21 99 21 174 q0 256 -245 256 l-225 0 l18 86 l25 0 q168 0 199 147 l211 996 q10 47 10 65 q0 82 -148 82 l-26 0 l18 86 l1018 0 l-63 -358 l-107 0 q10 88 10 119 q0 79 -41 108 q-41 29 -127 29 l-309 0 l-241 -1135 Z" /><glyph glyph-name="uni04F7" unicode="&#x4f7;" d="M262 823 q12 57 12 90 q0 99 -141 99 l-18 0 l18 86 l842 0 l-70 -328 l-96 0 q0 133 -21 183.5 q-21 50.5 -104 50.5 l-192 0 l-164 -775 q-6 -28 -6 -47 q0 -88 131 -88 l61 0 q-47 -288 -110 -424.5 q-63 -136.5 -228 -136.5 q-97 0 -176 31 l23 80 q34 -11 81 -11 q82 0 170 99.5 q88 99.5 121 267.5 l-305 0 l172 823 Z" /><glyph glyph-name="uni04FB" unicode="&#x4fb;" d="M217 604 l45 219 q12 58 12 90 q0 99 -141 99 l-18 0 l18 86 l842 0 l-70 -328 l-96 0 q0 133 -21 183.5 q-21 50.5 -104 50.5 l-192 0 l-84 -400 l241 0 l-20 -96 l-242 0 l-57 -275 q-6 -29 -6 -51 q0 -88 131 -88 l61 0 l-37 -205 q-28 -153 -89.5 -222.5 q-61.5 -69.5 -170.5 -69.5 q-145 0 -145 98 q0 58 45 94 q44 -37 100 -37 q114 0 146 148 l20 100 l-295 0 l107 508 l-195 0 l21 96 l194 0 Z" /><glyph glyph-name="uni04FE" unicode="&#x4fe;" d="M1458 1376 l-18 0 q-56 0 -100.5 -30 q-44.5 -30 -131.5 -123 l-366 -406 l409 0 l-20 -100 l-379 0 l215 -522 q45 -109 141 -109 l27 0 l-18 -86 l-553 0 l18 86 l23 0 q61 0 96 20.5 q35 20.5 35 51.5 q0 42 -39 141 l-133 326 l-306 -340 q-82 -91 -82 -144 q0 -55 121 -55 l6 0 l-18 -86 l-485 0 l18 86 l8 0 q67 0 119.5 35 q52.5 35 122.5 112 l444 484 l-417 0 l20 100 l371 0 l-185 455 q-42 104 -159 104 l-27 0 l18 86 l555 0 l-18 -86 l-47 0 q-96 0 -96 -57 q0 -29 37 -123 l116 -299 l256 295 q78 90 78 133 q0 51 -98 51 l-6 0 l18 86 l449 0 l-19 -86 Z" /><glyph glyph-name="uni04FF" unicode="&#x4ff;" d="M-41 0 l23 86 l26 0 q56 0 97.5 25.5 q41.5 25.5 115.5 115.5 l262 318 l-4 8 l-350 0 l21 96 l290 0 l-90 215 q-40 95 -65 121.5 q-25 26.5 -82 26.5 l-27 0 l17 86 l272 0 l156 -414 l272 414 l262 0 l-33 -86 l-26 0 q-66 0 -106.5 -31.5 q-40.5 -31.5 -106.5 -116.5 l-168 -215 l329 0 l-20 -96 l-344 0 l129 -320 q40 -98 67 -122.5 q27 -24.5 80 -24.5 l27 0 l-16 -86 l-275 0 l-166 451 l-307 -451 l-260 0 Z" /><glyph glyph-name="uni0500" unicode="&#x500;" d="M1378 1462 l-18 -86 l-27 0 q-95 0 -137.5 -36.5 q-42.5 -36.5 -58.5 -110.5 l-213 -1004 q-9 -42 -9 -57 q0 -82 148 -82 l27 0 l-19 -86 l-518 0 q-224 0 -348.5 92.5 q-124.5 92.5 -124.5 265.5 q0 212 155.5 331.5 q155.5 119.5 460.5 119.5 l144 0 l92 428 q8 37 8 57 q0 82 -147 82 l-68 0 l18 86 l635 0 ZM819 713 l-100 0 q-422 0 -422 -346 q0 -269 305 -269 l88 0 l129 615 Z" /><glyph glyph-name="uni0502" unicode="&#x502;" d="M1210 723 l19 86 l579 0 l-18 -86 l-10 0 q-113 0 -149.5 -37.5 q-36.5 -37.5 -49.5 -101.5 l-53 -250 q-75 -354 -457 -354 q-242 0 -317 165 l-9 0 q-110 -165 -325 -165 q-175 0 -273 89 q-98 89 -98 253 q0 225 166.5 356 q166.5 131 466.5 131 l137 0 l94 438 q7 33 7 45 q0 41 -28 62.5 q-28 21.5 -120 21.5 l-67 0 l18 86 l635 0 l-19 -86 l-24 0 q-98 0 -141 -37 q-43 -37 -58 -110 l-186 -879 q-15 -71 -15 -112 q0 -156 162 -156 q100 0 158 60 q58 60 90 210 l47 223 q8 38 8 60 q0 46 -27 67 q-27 21 -116 21 l-27 0 ZM799 713 l-107 0 q-430 0 -430 -416 q0 -219 187 -219 q215 0 264 227 l86 408 Z" /><glyph glyph-name="uni0503" unicode="&#x503;" d="M735 309 q-147 -329 -383 -329 q-125 0 -194.5 98.5 q-69.5 98.5 -69.5 275.5 q0 282 175.5 523 q175.5 241 434.5 241 q115 0 201 -49 q16 94 23 115 l20 98 q14 69 14 92 q0 96 -143 96 l-16 0 l18 86 l377 0 l-240 -1116 q-28 -130 -28 -198 q0 -160 153 -160 q100 0 158 58.5 q58 58.5 90 209.5 l25 117 q6 28 6 53 q0 46 -28 70 q-28 24 -120 24 l17 86 l530 0 l-16 -86 q-96 0 -135.5 -30 q-39.5 -30 -55.5 -109 l-28 -141 q-35 -178 -139.5 -266 q-104.5 -88 -307.5 -88 q-336 0 -336 260 q0 24 6 69 l-8 0 ZM864 952 q-47 74 -155 74 q-175 0 -293.5 -222.5 q-118.5 -222.5 -118.5 -457.5 q0 -237 129 -237 q102 0 214 151 q112 151 148 330 l76 362 Z" /><glyph glyph-name="uni0504" unicode="&#x504;" d="M1255 723 l19 86 l579 0 l-18 -86 l-10 0 q-113 0 -149.5 -37.5 q-36.5 -37.5 -49.5 -101.5 l-53 -250 q-75 -354 -457 -354 q-366 0 -366 268 q0 54 12 104 l10 51 q8 41 8 78 q0 217 -321 217 l-160 0 l23 105 l174 0 q172 0 284.5 96.5 q112.5 96.5 112.5 249.5 q0 109 -64 170 q-64 61 -180 61 q-228 0 -291 -305 q-157 0 -157 129 q0 122 127 200.5 q127 78.5 323 78.5 q201 0 328 -87.5 q127 -87.5 127 -234.5 q0 -163 -112.5 -273 q-112.5 -110 -307.5 -136 q305 -38 305 -260 q0 -29 -6 -64 l-14 -82 q-10 -59 -10 -108 q0 -156 161 -156 q100 0 158 60 q58 60 90 210 l47 223 q6 28 6 60 q0 47 -27 67.5 q-27 20.5 -114 20.5 l-27 0 Z" /><glyph glyph-name="uni0505" unicode="&#x505;" d="M1184 467 q6 28 6 53 q0 46 -28 70 q-28 24 -120 24 l17 86 l530 0 l-16 -86 q-96 0 -135.5 -30 q-39.5 -30 -55.5 -109 l-28 -141 q-36 -181 -142 -267.5 q-106 -86.5 -305 -86.5 q-346 0 -346 264 q0 31 4 66 q4 35 4 67 q0 78 -37.5 110.5 q-37.5 32.5 -160.5 32.5 l-191 0 l23 111 l192 0 q119 0 186.5 58 q67.5 58 67.5 163 q0 77 -45.5 123.5 q-45.5 46.5 -130.5 46.5 q-195 0 -244 -221 q-141 0 -141 90 q0 97 104.5 161 q104.5 64 296.5 64 q168 0 264.5 -69.5 q96.5 -69.5 96.5 -182.5 q0 -202 -281 -284 l-2 -11 q197 -25 197 -196 q0 -29 -4 -64 q-4 -35 -4 -67 q0 -160 155 -160 q100 0 158 58.5 q58 58.5 90 209.5 l25 117 Z" /><glyph glyph-name="uni0506" unicode="&#x506;" d="M688 0 l82 391 q10 48 10 88 q0 219 -321 219 l-160 0 l23 105 l174 0 q172 0 284.5 96.5 q112.5 96.5 112.5 249.5 q0 109 -64 170 q-64 61 -180 61 q-228 0 -291 -305 q-157 0 -157 129 q0 122 127 200.5 q127 78.5 323 78.5 q201 0 328 -87.5 q127 -87.5 127 -234.5 q0 -163 -112.5 -273 q-112.5 -110 -307.5 -136 q305 -38 305 -260 q0 -29 -6 -64 l-39 -199 q-8 -41 -8 -61 q0 -78 123 -82 l61 0 l-110 -516 l-94 0 q21 99 21 174 q0 256 -243 256 l-8 0 Z" /><glyph glyph-name="uni0507" unicode="&#x507;" d="M549 330 q6 28 6 49 q0 141 -195 141 l-190 0 l23 111 l192 0 q119 0 186.5 58 q67.5 58 67.5 163 q0 77 -45.5 123.5 q-45.5 46.5 -130.5 46.5 q-195 0 -244 -221 q-141 0 -141 90 q0 97 103.5 161 q103.5 64 297.5 64 q168 0 264.5 -69.5 q96.5 -69.5 96.5 -182.5 q0 -202 -281 -284 l-2 -11 q186 -47 186 -188 q0 -19 -8 -62 l-18 -92 q-6 -31 -6 -47 q0 -86 131 -86 l61 0 q-47 -288 -110 -424.5 q-63 -136.5 -228 -136.5 q-97 0 -176 31 l23 80 q35 -11 82 -11 q82 0 169.5 100 q87.5 100 120.5 267 l-305 0 l70 330 Z" /><glyph glyph-name="uni0508" unicode="&#x508;" d="M1997 809 l-19 -86 l-10 0 q-111 0 -147.5 -36.5 q-36.5 -36.5 -51.5 -102.5 l-53 -250 q-75 -354 -456 -354 q-361 0 -361 268 q0 45 16 123 l209 989 l-333 0 q-60 -233 -166 -558 q-106 -325 -205 -515.5 q-99 -190.5 -179 -245.5 q-80 -55 -175 -55 q-76 0 -119 38.5 q-43 38.5 -43 98.5 q0 62 34 96.5 q34 34.5 87 34.5 q0 -96 77 -96 q184 0 372 545 q188 545 188 618 q0 55 -150 55 l-31 0 l19 86 l1048 0 l-18 -86 l-27 0 q-97 0 -139.5 -36 q-42.5 -36 -58.5 -111 l-187 -877 q-14 -66 -14 -114 q0 -156 162 -156 q98 0 156.5 59.5 q58.5 59.5 90.5 210.5 l50 232 q8 37 8 57 q0 82 -148 82 l-26 0 l18 86 l582 0 Z" /><glyph glyph-name="uni0509" unicode="&#x509;" d="M1475 467 q6 28 6 53 q0 48 -29 71 q-29 23 -119 23 l17 86 l530 0 l-16 -86 q-96 0 -135.5 -30 q-39.5 -30 -55.5 -109 l-28 -141 q-35 -178 -139.5 -266 q-104.5 -88 -307.5 -88 q-346 0 -346 264 q0 57 16 131 l131 622 q-49 21 -104 21 q-111 0 -162 -74 q-51 -74 -174 -414 q-101 -286 -191 -415 q-90 -129 -235 -129 q-61 0 -95 40 q-34 40 -34 97 q0 57 33 94 q33 37 82 37 q0 -38 22 -67 q22 -29 58 -29 q72 0 135.5 115.5 q63.5 115.5 192.5 468.5 q94 260 169.5 314 q75.5 54 202.5 54 q134 0 315 -33 l-149 -704 q-18 -85 -18 -131 q0 -160 155 -160 q100 0 158 58.5 q58 58.5 90 209.5 l25 117 Z" /><glyph glyph-name="uni050A" unicode="&#x50a;" d="M1749 584 q8 38 8 57 q0 82 -147 82 l-27 0 l19 86 l581 0 l-18 -86 l-11 0 q-110 0 -146.5 -35 q-36.5 -35 -51.5 -104 l-53 -250 q-37 -176 -145 -265 q-108 -89 -312 -89 q-361 0 -361 268 q0 40 17 123 l72 342 l-666 0 l-102 -488 q-9 -43 -9 -57 q0 -82 148 -82 l26 0 l-18 -86 l-596 0 l16 86 l27 0 q99 0 142 37.5 q43 37.5 59 109.5 l213 1004 q8 38 8 57 q0 82 -148 82 l-26 0 l18 86 l596 0 l-18 -86 l-27 0 q-98 0 -141 -37 q-43 -37 -58 -110 l-88 -414 l666 0 l90 422 q8 38 8 57 q0 82 -147 82 l-27 0 l19 86 l596 0 l-19 -86 l-26 0 q-98 0 -141 -37.5 q-43 -37.5 -58 -109.5 l-186 -877 q-15 -71 -15 -114 q0 -156 162 -156 q100 0 158 60 q58 60 90 210 l49 232 Z" /><glyph glyph-name="uni050B" unicode="&#x50b;" d="M1438 467 q6 28 6 53 q0 46 -28 70 q-28 24 -120 24 l17 86 l530 0 l-16 -86 q-96 0 -135.5 -30 q-39.5 -30 -55.5 -109 l-28 -141 q-36 -181 -142 -267.5 q-106 -86.5 -305 -86.5 q-346 0 -346 264 q0 57 16 131 l29 141 l-471 0 l-108 -516 l-191 0 l172 823 q12 57 12 92 q0 97 -143 97 l-16 0 l18 86 l379 0 l-104 -488 l473 0 l102 488 l201 0 l-156 -725 q-18 -84 -18 -131 q0 -160 155 -160 q100 0 158 58.5 q58 58.5 90 209.5 l25 117 Z" /><glyph glyph-name="uni050C" unicode="&#x50c;" d="M1202 1100 q0 274 -260 274 q-256 0 -434 -266 q-178 -266 -178 -598 q0 -204 95 -309 q95 -105 269 -105 q222 0 301.5 156 q79.5 156 79.5 254 q0 43 -30 63.5 q-30 20.5 -115 20.5 l-21 0 l19 86 l545 0 l-19 -86 l-8 0 q-86 0 -120.5 -38.5 q-34.5 -38.5 -51.5 -109.5 q-56 -244 -192 -353 q-136 -109 -400 -109 q-277 0 -426.5 144.5 q-149.5 144.5 -149.5 412.5 q0 393 247.5 669.5 q247.5 276.5 627.5 276.5 q210 0 324 -61 q114 -61 114 -162 q0 -72 -60 -116 q-60 -44 -157 -44 Z" /><glyph glyph-name="uni050D" unicode="&#x50d;" d="M983 774 q0 242 -217 242 q-219 0 -342 -186 q-123 -186 -123 -459 q0 -285 285 -285 q158 0 233.5 96.5 q75.5 96.5 75.5 194.5 q0 67 -119 67 l-33 0 l19 86 l481 0 l-18 -86 l-8 0 q-53 0 -81 -21.5 q-28 -21.5 -49 -90.5 q-55 -188 -174.5 -270 q-119.5 -82 -349.5 -82 q-224 0 -349.5 113 q-125.5 113 -125.5 313 q0 314 197 513 q197 199 526 199 q163 0 260.5 -54 q97.5 -54 97.5 -142 q0 -71 -52.5 -109.5 q-52.5 -38.5 -133.5 -38.5 Z" /><glyph glyph-name="uni050E" unicode="&#x50e;" d="M1282 334 q-75 -354 -457 -354 q-360 0 -360 268 q0 45 16 123 l211 989 l-196 0 q-146 0 -205 -168 l-29 -88 l-106 0 l86 358 l1153 0 l-66 -358 l-106 0 q10 80 10 125 q0 131 -135 131 l-199 0 l-215 -1008 q-14 -66 -14 -114 q0 -156 161 -156 q100 0 158 60 q58 60 90 210 l49 232 q9 43 9 57 q0 82 -148 82 l-26 0 l18 86 l582 0 l-19 -86 l-10 0 q-112 0 -148.5 -37.5 q-36.5 -37.5 -50.5 -101.5 l-53 -250 Z" /><glyph glyph-name="uni050F" unicode="&#x50f;" d="M989 377 q6 29 6 53 q0 49 -29.5 71.5 q-29.5 22.5 -117.5 22.5 l16 86 l531 0 l-17 -86 q-100 0 -138.5 -33 q-38.5 -33 -51.5 -106 l-10 -51 q-34 -176 -138.5 -265 q-104.5 -89 -308.5 -89 q-346 0 -346 264 q0 57 16 131 l138 629 l-158 0 q-70 0 -109.5 -31.5 q-39.5 -31.5 -78.5 -134.5 l-25 -68 l-100 0 l82 328 l1009 0 l-57 -328 l-90 0 l0 68 q0 103 -25.5 134.5 q-25.5 31.5 -95.5 31.5 l-162 0 l-133 -627 q-16 -75 -16 -135 q0 -160 155 -160 q103 0 160 59 q57 59 88 207 l6 29 Z" /><glyph glyph-name="uni0510" unicode="&#x510;" d="M1006 287 q28 -17 28 -58 q0 -106 -128 -179 q-128 -73 -339 -73 q-229 0 -363 93.5 q-134 93.5 -134 265.5 q0 178 117.5 289 q117.5 111 334.5 139 l2 10 q-258 70 -258 293 q0 196 152.5 306 q152.5 110 394.5 110 q192 0 305 -68.5 q113 -68.5 113 -177.5 q0 -162 -197 -162 q0 305 -248 305 q-142 0 -225.5 -88 q-83.5 -88 -83.5 -241 q0 -110 71 -176 q71 -66 191 -66 l174 0 l-22 -104 l-174 0 q-416 0 -416 -347 q0 -245 285 -245 q255 0 420 174 Z" /><glyph glyph-name="uni0511" unicode="&#x511;" d="M358 586 l2 10 q-153 64 -153 207 q0 149 121.5 231 q121.5 82 333.5 82 q159 0 245 -47.5 q86 -47.5 86 -128.5 q0 -139 -176 -139 q0 221 -178 221 q-116 0 -178 -66.5 q-62 -66.5 -62 -169.5 q0 -155 146 -155 l209 0 l-23 -111 l-196 0 q-125 0 -199 -66 q-74 -66 -74 -171 q0 -174 227 -174 q202 0 365 151 q23 -15 23 -51 q0 -93 -112.5 -161 q-112.5 -68 -301.5 -68 q-402 0 -402 286 q0 238 297 320 Z" /><glyph glyph-name="uni0513" unicode="&#x513;" d="M119 254 q0 -38 22 -67 q22 -29 58 -29 q72 0 135.5 115.5 q63.5 115.5 192.5 468.5 q94 260 169.5 314 q75.5 54 202.5 54 q134 0 315 -33 l-141 -663 q-26 -122 -26 -207 q0 -98 73 -98 q51 0 125 45 l37 -60 l-41 -207 q-31 -158 -91.5 -224 q-60.5 -66 -166.5 -66 q-145 0 -145 98 q0 58 45 94 q44 -37 100 -37 q113 0 145 148 l25 110 q-67 -30 -131 -30 q-83 0 -131.5 54.5 q-48.5 54.5 -48.5 139.5 q0 80 22 182 l135 641 q-49 21 -104 21 q-111 0 -162 -74 q-51 -74 -174 -414 q-101 -286 -191 -415 q-90 -129 -235 -129 q-61 0 -95 40 q-34 40 -34 97 q0 57 33 94 q33 37 82 37 Z" /><glyph glyph-name="uni030F" unicode="&#x30f;" d="M-285 1241 l-100 0 q-160 134 -272 307 l0 21 l198 0 q80 -168 174 -301 l0 -27 ZM-647 1241 l-101 0 q-160 134 -272 307 l0 21 l199 0 q87 -183 174 -301 l0 -27 Z" /></font>
</defs>
</svg>
