<?xml version="1.0" standalone="no"?><!DOCTYPE svg PUBLIC "-//W3C//DTD SVG 1.1//EN" "http://www.w3.org/Graphics/SVG/1.1/DTD/svg11.dtd" ><svg xmlns="http://www.w3.org/2000/svg"><metadata></metadata><defs><font id="Google:Roboto Slab:2013" horiz-adv-x="2607"><font-face font-family="Roboto Slab" font-weight="400" font-stretch="normal" units-per-em="2048" panose-1="0 0 0 0 0 0 0 0 0 0" ascent="2146" descent="-555" x-height="0" bbox="-890 -616 2562 2146" underline-thickness="100" underline-position="-150" unicode-range="U+0000-fffd" /><missing-glyph horiz-adv-x="509"  /><glyph glyph-name=".null" unicode="" d="" /><glyph glyph-name="nonmarkingreturn" unicode="" d="" /><glyph glyph-name="space" unicode=" " d="" /><glyph glyph-name="quotedbl" unicode="&quot;" d="M324 1290 l-61 -250 l-97 0 l0 520 l158 0 l0 -270 ZM632 1290 l-61 -250 l-97 0 l0 520 l158 0 l0 -270 Z" /><glyph glyph-name="numbersign" unicode="#" d="M705 410 l-256 0 l-80 -410 l-151 0 l80 410 l-235 0 l0 140 l263 0 l68 348 l-255 0 l0 142 l283 0 l82 416 l151 0 l-82 -416 l255 0 l82 416 l151 0 l-82 -416 l200 0 l0 -142 l-227 0 l-68 -348 l220 0 l0 -140 l-248 0 l-80 -410 l-151 0 l80 410 ZM477 550 l256 0 l68 348 l-256 0 l-68 -348 Z" /><glyph glyph-name="dollar" unicode="$" d="M815 376 q0 90 -63.5 153.5 q-63.5 63.5 -210.5 113.5 q-202 61 -305 163 q-103 102 -103 272 q0 165 95 269 q95 104 261 125 l0 221 l158 0 l0 -222 q167 -24 259.5 -143.5 q92.5 -119.5 92.5 -320.5 l-196 0 q0 136 -62.5 220 q-62.5 84 -174.5 84 q-118 0 -177 -61.5 q-59 -61.5 -59 -168.5 q0 -97 61 -157 q61 -60 219 -114 q204 -66 303 -164.5 q99 -98.5 99 -267.5 q0 -172 -103 -274 q-103 -102 -283 -121 l0 -191 l-156 0 l0 191 q-172 18 -282 125.5 q-110 107.5 -106 315.5 l2 5 l190 0 q0 -154 77.5 -219.5 q77.5 -65.5 190.5 -65.5 q129 0 201 61.5 q72 61.5 72 170.5 Z" /><glyph glyph-name="percent" unicode="%" d="M77 1176 q0 127 82 214 q82 87 218 87 q138 0 220 -86.5 q82 -86.5 82 -214.5 l0 -77 q0 -127 -82 -213 q-82 -86 -218 -86 q-137 0 -219.5 86 q-82.5 86 -82.5 213 l0 77 ZM223 1099 q0 -74 40.5 -125.5 q40.5 -51.5 115.5 -51.5 q73 0 113.5 51 q40.5 51 40.5 126 l0 77 q0 74 -41 126.5 q-41 52.5 -115 52.5 q-74 0 -114 -52.5 q-40 -52.5 -40 -126.5 l0 -77 ZM782 357 q0 126 82 213 q82 87 218 87 q137 0 219.5 -86.5 q82.5 -86.5 82.5 -213.5 l0 -78 q0 -128 -82 -214 q-82 -86 -218 -86 q-138 0 -220 86 q-82 86 -82 214 l0 78 ZM928 279 q0 -75 40.5 -126.5 q40.5 -51.5 115.5 -51.5 q74 0 114 51.5 q40 51.5 40 126.5 l0 78 q0 74 -41 126 q-41 52 -115 52 q-74 0 -114 -52 q-40 -52 -40 -126 l0 -78 ZM442 110 l-109 67 l711 1138 l109 -67 l-711 -1138 Z" /><glyph glyph-name="ampersand" unicode="&amp;" d="M74 392 q0 122 70.5 213.5 q70.5 91.5 210.5 183.5 q-78 99 -116 176.5 q-38 77.5 -38 159.5 q0 169 97.5 260.5 q97.5 91.5 268.5 91.5 q158 0 257 -91 q99 -91 99 -219 q0 -98 -52.5 -169.5 q-52.5 -71.5 -155.5 -146.5 l-109 -80 l340 -409 q41 65 64 144 q23 79 23 167 l176 0 q0 -131 -39 -243 q-39 -112 -113 -201 l185 -224 l-2 -5 l-229 0 l-85 102 q-80 -60 -177 -91.5 q-97 -31.5 -201 -31.5 q-217 0 -345.5 115 q-128.5 115 -128.5 298 ZM548 133 q72 0 142 24.5 q70 24.5 132 70.5 l-361 435 l-40 -29 q-91 -68 -120.5 -130 q-29.5 -62 -29.5 -112 q0 -113 71 -186 q71 -73 206 -73 ZM398 1127 q0 -53 27 -110.5 q27 -57.5 81 -125.5 l138 95 q57 38 77.5 82.5 q20.5 44.5 20.5 98.5 q0 61 -48.5 108 q-48.5 47 -126.5 47 q-81 0 -125 -56.5 q-44 -56.5 -44 -138.5 Z" /><glyph glyph-name="quotesingle" unicode="&#39;" d="M324 1337 l-61 -282 l-97 0 l0 505 l158 0 l0 -223 Z" /><glyph glyph-name="parenleft" unicode="(" d="M114 591 q0 394 159 673 q159 279 334 372 l6 -1 l37 -116 q-137 -107 -238 -343 q-101 -236 -101 -583 l0 -13 q0 -348 100.5 -583.5 q100.5 -235.5 238.5 -351.5 l-37 -108 l-6 0 q-175 93 -334 371.5 q-159 278.5 -159 673.5 l0 9 Z" /><glyph glyph-name="parenright" unicode=")" d="M547 582 q0 -395 -159.5 -673.5 q-159.5 -278.5 -333.5 -371.5 l-6 0 l-37 108 q135 105 237 345.5 q102 240.5 102 589.5 l0 13 q0 343 -105 584 q-105 241 -234 351 l37 108 l6 0 q174 -93 333.5 -372 q159.5 -279 159.5 -673 l0 -9 Z" /><glyph glyph-name="asterisk" unicode="*" d="M362 982 l-296 89 l49 154 l296 -111 l-10 342 l161 0 l-10 -348 l293 110 l48 -156 l-302 -89 l193 -270 l-131 -96 l-181 287 l-176 -279 l-132 93 l198 274 Z" /><glyph glyph-name="plus" unicode="+" d="M671 783 l400 0 l0 -178 l-400 0 l0 -459 l-197 0 l0 459 l-401 0 l0 178 l401 0 l0 423 l197 0 l0 -423 Z" /><glyph glyph-name="comma" unicode="," d="M315 72 q0 -98 -49 -205 q-49 -107 -132 -178 l-111 74 q47 72 71 147 q24 75 24 159 l0 152 l197 0 l0 -149 Z" /><glyph glyph-name="hyphen" unicode="-" d="M643 538 l-489 0 l0 154 l489 0 l0 -154 Z" /><glyph glyph-name="period" unicode="." d="M342 0 l-197 0 l0 202 l197 0 l0 -202 Z" /><glyph glyph-name="slash" unicode="/" d="M167 -125 l-167 0 l608 1581 l166 0 l-607 -1581 Z" /><glyph glyph-name="zero" unicode="0" d="M1048 555 q0 -279 -124 -427.5 q-124 -148.5 -339 -148.5 q-214 0 -339 149 q-125 149 -125 427 l0 345 q0 278 124 427.5 q124 149.5 338 149.5 q215 0 340 -149.5 q125 -149.5 125 -427.5 l0 -345 ZM851 942 q0 189 -68.5 284.5 q-68.5 95.5 -199.5 95.5 q-129 0 -197 -95.5 q-68 -95.5 -68 -284.5 l0 -427 q0 -189 69 -285.5 q69 -96.5 198 -96.5 q131 0 198.5 96 q67.5 96 67.5 286 l0 427 Z" /><glyph glyph-name="one" unicode="1" d="M121 126 l225 28 l0 1091 l-229 -4 l0 123 l426 92 l0 -1302 l224 -28 l0 -126 l-646 0 l0 126 Z" /><glyph glyph-name="two" unicode="2" d="M97 0 l0 135 l477 530 q128 143 173.5 227 q45.5 84 45.5 172 q0 109 -64 183.5 q-64 74.5 -169 74.5 q-151 0 -222 -77 q-71 -77 -71 -218 l-189 0 l-2 6 q-5 188 124.5 316 q129.5 128 359.5 128 q197 0 313.5 -114.5 q116.5 -114.5 116.5 -291.5 q0 -119 -70.5 -238 q-70.5 -119 -198.5 -257 l-383 -417 l2 -5 l517 0 l16 167 l167 0 l0 -321 l-943 0 Z" /><glyph glyph-name="three" unicode="3" d="M363 819 l172 0 q131 0 185.5 65.5 q54.5 65.5 54.5 182.5 q0 125 -62 190 q-62 65 -183 65 q-115 0 -184.5 -67.5 q-69.5 -67.5 -69.5 -179.5 l-189 0 l-2 6 q-5 165 119.5 280.5 q124.5 115.5 325.5 115.5 q202 0 322 -107.5 q120 -107.5 120 -306.5 q0 -90 -54.5 -179.5 q-54.5 -89.5 -163.5 -136.5 q131 -43 185.5 -135 q54.5 -92 54.5 -206 q0 -199 -130.5 -313 q-130.5 -114 -333.5 -114 q-200 0 -330 107.5 q-130 107.5 -125 291.5 l3 6 l188 0 q0 -115 70.5 -183 q70.5 -68 193.5 -68 q125 0 196 68 q71 68 71 201 q0 135 -63 199 q-63 64 -199 64 l-172 0 l0 154 Z" /><glyph glyph-name="four" unicode="4" d="M913 490 l201 0 l0 -154 l-201 0 l0 -182 l163 -28 l0 -126 l-522 0 l0 126 l163 28 l0 182 l-654 0 l0 111 l642 1009 l208 0 l0 -966 ZM273 490 l444 0 l0 685 l-6 2 l-20 -53 l-418 -634 Z" /><glyph glyph-name="five" unicode="5" d="M819 1168 l-19 113 l-435 0 l-47 -409 q45 34 101.5 56.5 q56.5 22.5 130.5 24.5 q201 2 316.5 -131 q115.5 -133 115.5 -358 q0 -219 -117.5 -352 q-117.5 -133 -342.5 -133 q-185 0 -307.5 101 q-122.5 101 -117.5 297 l2 6 l178 0 q0 -118 68.5 -184 q68.5 -66 176.5 -66 q125 0 194 88 q69 88 69 241 q0 141 -69.5 230.5 q-69.5 89.5 -192.5 89.5 q-116 0 -168.5 -35 q-52.5 -35 -76.5 -107 l-164 17 l84 799 l769 0 l0 -288 l-148 0 Z" /><glyph glyph-name="six" unicode="6" d="M664 1477 q74 0 147.5 -17 q73.5 -17 121.5 -43 l-38 -147 q-47 23 -103 37.5 q-56 14.5 -128 14.5 q-153 0 -243.5 -115.5 q-90.5 -115.5 -96.5 -348.5 l4 -4 q56 52 137 82.5 q81 30.5 175 30.5 q195 0 311 -135 q116 -135 116 -342 q0 -226 -123.5 -368.5 q-123.5 -142.5 -329.5 -142.5 q-213 0 -353 155 q-140 155 -140 439 l0 196 q0 346 152 527 q152 181 391 181 ZM597 820 q-101 0 -172 -40.5 q-71 -40.5 -108 -108.5 l0 -117 q0 -203 84.5 -312 q84.5 -109 212.5 -109 q121 0 188.5 102.5 q67.5 102.5 67.5 254.5 q0 144 -72.5 237 q-72.5 93 -200.5 93 Z" /><glyph glyph-name="seven" unicode="7" d="M1060 1301 q-264 -314 -356.5 -556.5 q-92.5 -242.5 -133.5 -587.5 l-16 -157 l-197 0 l16 157 q42 344 163 615 q121 271 331 529 l-608 0 l-15 -167 l-168 0 l0 322 l984 0 l0 -155 Z" /><glyph glyph-name="eight" unicode="8" d="M999 1076 q0 -114 -64 -199.5 q-64 -85.5 -173 -127.5 q126 -44 201.5 -138 q75.5 -94 75.5 -217 q0 -202 -131.5 -308.5 q-131.5 -106.5 -341.5 -106.5 q-214 0 -344 106.5 q-130 106.5 -130 308.5 q0 123 74 217 q74 94 200 138 q-109 42 -171 127.5 q-62 85.5 -62 199.5 q0 192 118.5 296.5 q118.5 104.5 312.5 104.5 q192 0 313.5 -104.5 q121.5 -104.5 121.5 -296.5 ZM843 398 q0 120 -79 197 q-79 77 -200 77 q-122 0 -198.5 -76.5 q-76.5 -76.5 -76.5 -197.5 q0 -124 75.5 -194.5 q75.5 -70.5 201.5 -70.5 q123 0 200 71 q77 71 77 194 ZM802 1072 q0 108 -67.5 179 q-67.5 71 -170.5 71 q-105 0 -169.5 -68.5 q-64.5 -68.5 -64.5 -181.5 q0 -111 65 -178 q65 -67 171 -67 q104 0 170 67 q66 67 66 178 Z" /><glyph glyph-name="nine" unicode="9" d="M511 133 q142 0 224.5 108.5 q82.5 108.5 85.5 349.5 l-4 5 q-40 -67 -112 -103 q-72 -36 -162 -36 q-213 0 -336 131.5 q-123 131.5 -123 369.5 q0 228 131.5 373.5 q131.5 145.5 319.5 145.5 q228 0 359.5 -142.5 q131.5 -142.5 131.5 -421.5 l0 -263 q0 -341 -140.5 -506 q-140.5 -165 -374.5 -165 q-76 0 -155.5 14.5 q-79.5 14.5 -142.5 44.5 l30 149 q61 -29 124.5 -41.5 q63.5 -12.5 143.5 -12.5 ZM543 612 q109 0 181.5 47 q72.5 47 104.5 120 l0 154 q0 193 -73.5 291 q-73.5 98 -214.5 98 q-109 0 -184.5 -102 q-75.5 -102 -75.5 -262 q0 -157 70 -251.5 q70 -94.5 192 -94.5 Z" /><glyph glyph-name="less" unicode="&lt;" d="M333 579 l-85 -18 l0 -6 l85 -19 l559 -228 l0 -201 l-816 379 l0 149 l816 378 l0 -201 l-559 -233 Z" /><glyph glyph-name="equal" unicode="=" d="M981 823 l-834 0 l0 164 l834 0 l0 -164 ZM981 407 l-834 0 l0 164 l834 0 l0 -164 Z" /><glyph glyph-name="greater" unicode="&gt;" d="M125 798 l0 195 l855 -378 l0 -149 l-855 -379 l0 196 l598 238 l84 17 l0 6 l-84 20 l-598 234 Z" /><glyph glyph-name="question" unicode="?" d="M360 410 q1 146 24.5 201.5 q23.5 55.5 125.5 147.5 q99 117 141 180 q42 63 42 152 q0 106 -56.5 163 q-56.5 57 -161.5 57 q-91 0 -154.5 -49.5 q-63.5 -49.5 -63.5 -145.5 l-188 0 l-3 6 q-3 161 113 258 q116 97 296 97 q197 0 306 -100.5 q109 -100.5 109 -280.5 q0 -129 -70.5 -236 q-70.5 -107 -186.5 -219 q-53 -54 -64.5 -97 q-11.5 -43 -11.5 -134 l-197 0 ZM563 0 l-205 0 l0 208 l205 0 l0 -208 Z" /><glyph glyph-name="at" unicode="@" d="M1704 502 q-9 -214 -120 -368.5 q-111 -154.5 -332 -154.5 q-73 0 -126.5 41.5 q-53.5 41.5 -76.5 116.5 q-50 -80 -122 -119 q-72 -39 -167 -39 q-125 0 -194 120.5 q-69 120.5 -51 316.5 q23 259 137.5 415.5 q114.5 156.5 278.5 156.5 q105 0 168.5 -26 q63.5 -26 140.5 -80 l-4 -4 l6 0 l-51 -585 q-9 -110 21.5 -151.5 q30.5 -41.5 81.5 -41.5 q123 0 196.5 113.5 q73.5 113.5 81.5 288.5 q17 382 -143.5 595.5 q-160.5 213.5 -495.5 213.5 q-309 0 -496 -231 q-187 -231 -202 -602 q-18 -376 150 -594.5 q168 -218.5 482 -218.5 q88 0 178 21.5 q90 21.5 152 56.5 l39 -107 q-68 -42 -171.5 -65.5 q-103.5 -23.5 -201.5 -23.5 q-380 0 -588 249.5 q-208 249.5 -189 681.5 q19 423 249 688 q230 265 602 265 q379 0 581.5 -250 q202.5 -250 185.5 -679 ZM691 416 q-11 -141 22 -215.5 q33 -74.5 107 -74.5 q63 0 116.5 25 q53.5 25 97.5 88 q-1 12 -0.5 25 q0.5 13 2.5 29 l47 538 q-26 12 -54.5 19 q-28.5 7 -59.5 7 q-125 0 -191 -109 q-66 -109 -87 -332 Z" /><glyph glyph-name="A" unicode="a" d="M55 126 l108 15 l509 1315 l169 0 l500 -1315 l107 -15 l0 -126 l-418 0 l0 126 l110 19 l-96 268 l-583 0 l-99 -268 l110 -19 l0 -126 l-417 0 l0 126 ZM522 578 l462 0 l-226 625 l-6 0 l-230 -625 Z" /><glyph glyph-name="B" unicode="b" d="M709 1456 q228 0 356.5 -98.5 q128.5 -98.5 128.5 -295.5 q0 -97 -61.5 -173.5 q-61.5 -76.5 -162.5 -113.5 q131 -28 207 -129 q76 -101 76 -235 q0 -200 -130 -305.5 q-130 -105.5 -352 -105.5 l-700 0 l0 126 l163 28 l0 1147 l-163 28 l0 127 l163 0 l475 0 ZM431 683 l0 -529 l340 0 q135 0 209.5 66.5 q74.5 66.5 74.5 188.5 q0 128 -62.5 201 q-62.5 73 -191.5 73 l-370 0 ZM431 837 l329 0 q106 3 171.5 63 q65.5 60 65.5 166 q0 118 -74 176.5 q-74 58.5 -214 58.5 l-278 0 l0 -464 Z" /><glyph glyph-name="C" unicode="c" d="M1200 1009 l-139 0 l-37 206 q-48 47 -118 77 q-70 30 -167 30 q-227 0 -349 -164.5 q-122 -164.5 -122 -417.5 l0 -23 q0 -253 119.5 -418.5 q119.5 -165.5 331.5 -165.5 q99 0 180 31 q81 31 125 76 l37 206 l139 0 l0 -259 q-63 -81 -189 -144.5 q-126 -63.5 -292 -63.5 q-284 0 -466 210 q-182 210 -182 528 l0 21 q0 320 179 529.5 q179 209.5 469 209.5 q166 0 292 -64.5 q126 -64.5 189 -144.5 l0 -259 Z" /><glyph glyph-name="D" unicode="d" d="M681 1456 q285 0 458.5 -175.5 q173.5 -175.5 173.5 -453.5 l0 -199 q0 -279 -173.5 -453.5 q-173.5 -174.5 -458.5 -174.5 l-610 0 l0 126 l163 28 l0 1147 l-163 28 l0 127 l163 0 l447 0 ZM431 1301 l0 -1147 l250 0 q202 0 318.5 133 q116.5 133 116.5 341 l0 201 q0 206 -116.5 339 q-116.5 133 -318.5 133 l-250 0 Z" /><glyph glyph-name="E" unicode="e" d="M71 0 l0 126 l163 28 l0 1147 l-163 28 l0 127 l1118 0 l0 -350 l-169 0 l-16 195 l-573 0 l0 -471 l557 0 l0 -155 l-557 0 l0 -521 l585 0 l16 195 l168 0 l0 -349 l-1129 0 Z" /><glyph glyph-name="F" unicode="f" d="M71 126 l163 28 l0 1147 l-163 28 l0 127 l1125 0 l0 -350 l-168 0 l-16 195 l-581 0 l0 -502 l563 0 l0 -155 l-563 0 l0 -490 l163 -28 l0 -126 l-523 0 l0 126 Z" /><glyph glyph-name="G" unicode="g" d="M1230 165 q-64 -67 -189 -126.5 q-125 -59.5 -325 -59.5 q-292 0 -476.5 205 q-184.5 205 -184.5 532 l0 24 q0 329 182.5 533 q182.5 204 485.5 204 q162 0 284.5 -50.5 q122.5 -50.5 206.5 -133.5 l0 -264 l-138 0 l-48 201 q-49 40 -118.5 66 q-69.5 26 -166.5 26 q-236 0 -363.5 -161.5 q-127.5 -161.5 -127.5 -418.5 l0 -26 q0 -261 123.5 -422 q123.5 -161 340.5 -161 q119 0 195 25 q76 25 122 55 l0 319 l-239 10 l0 145 l436 0 l0 -522 Z" /><glyph glyph-name="H" unicode="h" d="M71 1329 l0 127 l523 0 l0 -127 l-163 -28 l0 -503 l706 0 l0 503 l-163 28 l0 127 l163 0 l197 0 l163 0 l0 -127 l-163 -28 l0 -1147 l163 -28 l0 -126 l-523 0 l0 126 l163 28 l0 489 l-706 0 l0 -489 l163 -28 l0 -126 l-523 0 l0 126 l163 28 l0 1147 l-163 28 Z" /><glyph glyph-name="I" unicode="i" d="M70 1329 l0 127 l523 0 l0 -127 l-163 -28 l0 -1147 l163 -28 l0 -126 l-523 0 l0 126 l163 28 l0 1147 l-163 28 Z" /><glyph glyph-name="J" unicode="j" d="M1124 1456 l0 -127 l-163 -28 l0 -898 q0 -195 -123.5 -309.5 q-123.5 -114.5 -320.5 -114.5 q-210 0 -334 106.5 q-124 106.5 -119 309.5 l2 6 l189 0 q0 -135 68.5 -201.5 q68.5 -66.5 193.5 -66.5 q109 0 178 73.5 q69 73.5 69 196.5 l0 898 l-163 28 l0 127 l360 0 l163 0 Z" /><glyph glyph-name="K" unicode="k" d="M71 126 l163 28 l0 1147 l-163 28 l0 127 l523 0 l0 -127 l-163 -28 l0 -489 l151 0 l407 503 l-109 14 l0 127 l462 0 l0 -127 l-137 -25 l-445 -552 l486 -601 l137 -25 l0 -126 l-478 0 l0 126 l111 14 l-415 517 l-170 0 l0 -503 l163 -28 l0 -126 l-523 0 l0 126 Z" /><glyph glyph-name="L" unicode="l" d="M71 0 l0 126 l163 28 l0 1147 l-163 28 l0 127 l163 0 l197 0 l163 0 l0 -127 l-163 -28 l0 -1147 l506 0 l15 167 l168 0 l0 -321 l-1049 0 Z" /><glyph glyph-name="M" unicode="m" d="M1494 1166 l-5 1 l-471 -1167 l-131 0 l-471 1166 l-5 -1 l20 -589 l0 -422 l163 -28 l0 -126 l-523 0 l0 126 l163 28 l0 1147 l-163 28 l0 127 l163 0 l252 0 l464 -1183 l6 0 l463 1183 l416 0 l0 -127 l-163 -28 l0 -1147 l163 -28 l0 -126 l-523 0 l0 126 l163 28 l0 422 l19 590 Z" /><glyph glyph-name="N" unicode="n" d="M1497 1456 l0 -127 l-163 -28 l0 -1301 l-197 0 l-700 1124 l-6 -2 l0 -968 l163 -28 l0 -126 l-523 0 l0 126 l163 28 l0 1147 l-163 28 l0 127 l163 0 l197 0 l700 -1123 l6 2 l0 966 l-163 28 l0 127 l360 0 l163 0 Z" /><glyph glyph-name="O" unicode="o" d="M1368 717 q0 -318 -182.5 -528 q-182.5 -210 -472.5 -210 q-282 0 -458 210 q-176 210 -176 528 l0 21 q0 317 176 528 q176 211 458 211 q290 0 472.5 -211 q182.5 -211 182.5 -528 l0 -21 ZM1171 740 q0 254 -121.5 414.5 q-121.5 160.5 -336.5 160.5 q-206 0 -321.5 -161 q-115.5 -161 -115.5 -414 l0 -23 q0 -256 115.5 -416.5 q115.5 -160.5 321.5 -160.5 q218 0 338 160 q120 160 120 417 l0 23 Z" /><glyph glyph-name="P" unicode="p" d="M740 1456 q233 0 362.5 -120 q129.5 -120 129.5 -316 q0 -198 -129.5 -317 q-129.5 -119 -362.5 -119 l-309 0 l0 -430 l163 -28 l0 -126 l-523 0 l0 126 l163 28 l0 1147 l-163 28 l0 127 l163 0 l506 0 ZM431 738 l309 0 q148 0 221.5 79.5 q73.5 79.5 73.5 200.5 q0 121 -73.5 202 q-73.5 81 -221.5 81 l-309 0 l0 -563 Z" /><glyph glyph-name="Q" unicode="q" d="M1368 717 q0 -194 -72 -354 q-72 -160 -201 -258 l295 -208 l-135 -120 l-331 236 q-50 -16 -103 -25 q-53 -9 -108 -9 q-282 0 -458 210 q-176 210 -176 528 l0 21 q0 317 176 528 q176 211 458 211 q290 0 472.5 -211 q182.5 -211 182.5 -528 l0 -21 ZM1171 740 q0 254 -121.5 414.5 q-121.5 160.5 -336.5 160.5 q-206 0 -321.5 -161 q-115.5 -161 -115.5 -414 l0 -23 q0 -256 115.5 -416.5 q115.5 -160.5 321.5 -160.5 q218 0 338 160 q120 160 120 417 l0 23 Z" /><glyph glyph-name="R" unicode="r" d="M710 1455 q238 0 365 -105.5 q127 -105.5 127 -299.5 q0 -106 -59 -188 q-59 -82 -169 -129 q119 -39 171.5 -127 q52.5 -88 52.5 -217 l0 -117 q0 -67 17 -99 q17 -32 56 -38 l48 -6 l0 -129 l-106 0 q-115 0 -163.5 80 q-48.5 80 -48.5 194 l0 113 q0 119 -69 191 q-69 72 -185 72 l-316 0 l0 -496 l163 -28 l0 -126 l-523 0 l0 126 l163 28 l0 1147 l-163 28 l0 126 l163 0 l476 0 ZM431 805 l259 0 q165 0 240 63 q75 63 75 184 q0 115 -72 182 q-72 67 -223 67 l-279 0 l0 -496 Z" /><glyph glyph-name="S" unicode="s" d="M1125 1026 l-149 0 l-37 208 q-45 38 -120 63 q-75 25 -174 25 q-157 0 -241 -66.5 q-84 -66.5 -84 -173.5 q0 -95 85.5 -158.5 q85.5 -63.5 276.5 -111.5 q230 -57 349.5 -168 q119.5 -111 119.5 -275 q0 -176 -143.5 -283 q-143.5 -107 -375.5 -107 q-168 0 -298.5 55 q-130.5 55 -212.5 144 l0 271 l148 0 l38 -209 q57 -47 136 -77 q79 -30 189 -30 q149 0 235.5 63 q86.5 63 86.5 171 q0 100 -75 167.5 q-75 67.5 -265 113.5 q-231 55 -361 162 q-130 107 -130 269 q0 171 145 284.5 q145 113.5 377 113.5 q153 0 278.5 -52.5 q125.5 -52.5 201.5 -127.5 l0 -271 Z" /><glyph glyph-name="T" unicode="t" d="M1247 1456 l0 -322 l-168 0 l-15 167 l-323 0 l0 -1147 l163 -28 l0 -126 l-523 0 l0 126 l163 28 l0 1147 l-324 0 l-14 -167 l-169 0 l0 322 l1210 0 Z" /><glyph glyph-name="U" unicode="u" d="M583 1456 l0 -127 l-163 -28 l0 -832 q0 -165 94 -250.5 q94 -85.5 248 -85.5 q162 0 261 85 q99 85 99 251 l0 832 l-163 28 l0 127 l360 0 l163 0 l0 -127 l-163 -28 l0 -832 q0 -237 -154.5 -363.5 q-154.5 -126.5 -402.5 -126.5 q-241 0 -390 126.5 q-149 126.5 -149 363.5 l0 832 l-163 28 l0 127 l163 0 l360 0 Z" /><glyph glyph-name="V" unicode="v" d="M507 1329 l-133 -21 l326 -946 l33 -115 l6 0 l33 115 l325 947 l-131 20 l0 127 l459 0 l0 -127 l-117 -16 l-488 -1313 l-169 0 l-488 1313 l-116 16 l0 127 l460 0 l0 -127 Z" /><glyph glyph-name="W" unicode="w" d="M489 1329 l-148 -23 l187 -802 l27 -182 l6 -1 l39 183 l268 952 l174 0 l269 -952 l40 -187 l6 0 l29 187 l183 802 l-149 23 l0 127 l463 0 l0 -127 l-117 -15 l-317 -1314 l-176 0 l-288 1010 l-26 131 l-6 0 l-25 -131 l-292 -1010 l-175 0 l-317 1314 l-117 15 l0 127 l462 0 l0 -127 Z" /><glyph glyph-name="X" unicode="x" d="M43 126 l131 22 l414 586 l-404 573 l-131 22 l0 127 l472 0 l0 -127 l-117 -13 l291 -437 l294 437 l-117 13 l0 127 l475 0 l0 -127 l-131 -22 l-404 -573 l413 -586 l132 -22 l0 -126 l-471 0 l0 126 l115 13 l-302 448 l-303 -448 l117 -13 l0 -126 l-474 0 l0 126 Z" /><glyph glyph-name="Y" unicode="y" d="M555 1329 l-157 -19 l305 -594 l305 594 l-156 19 l0 127 l500 0 l0 -127 l-123 -19 l-432 -798 l0 -358 l163 -28 l0 -126 l-522 0 l0 126 l163 28 l0 373 l-424 783 l-122 19 l0 127 l500 0 l0 -127 Z" /><glyph glyph-name="Z" unicode="z" d="M313 154 l631 0 l16 167 l168 0 l0 -321 l-1036 0 l0 146 l777 1155 l-584 0 l-14 -167 l-169 0 l0 322 l993 0 l0 -141 l-782 -1161 Z" /><glyph glyph-name="bracketleft" unicode="[" d="M541 1509 l-187 0 l0 -1666 l187 0 l0 -155 l-384 0 l0 1976 l384 0 l0 -155 Z" /><glyph glyph-name="backslash" unicode="\" d="M36 1456 l186 0 l608 -1581 l-186 0 l-608 1581 Z" /><glyph glyph-name="bracketright" unicode="]" d="M23 1664 l385 0 l0 -1976 l-385 0 l0 155 l188 0 l0 1666 l-188 0 l0 155 Z" /><glyph glyph-name="asciicircum" unicode="^" d="M253 729 l-182 0 l299 727 l134 0 l298 -727 l-182 0 l-166 419 l-16 70 l-6 0 l-16 -70 l-163 -419 Z" /><glyph glyph-name="underscore" unicode="_" d="M1041 -154 l-922 0 l0 154 l922 0 l0 -154 Z" /><glyph glyph-name="grave" unicode="`" d="M492 1211 l-159 0 l-249 260 l3 6 l230 0 l175 -266 Z" /><glyph glyph-name="a" unicode="a" d="M795 0 q-9 44 -14 79 q-5 35 -7 70 q-57 -73 -142.5 -121.5 q-85.5 -48.5 -182.5 -48.5 q-169 0 -257 82.5 q-88 82.5 -88 232.5 q0 154 124.5 237.5 q124.5 83.5 341.5 83.5 l203 0 l0 126 q0 95 -60 150.5 q-60 55.5 -167 55.5 q-74 0 -130.5 -19 q-56.5 -19 -91.5 -52 l-21 -114 l-152 0 l0 210 q74 59 179 94.5 q105 35.5 228 35.5 q184 0 298 -94 q114 -94 114 -269 l0 -521 q0 -21 0.5 -41 q0.5 -20 2.5 -40 l80 -11 l0 -126 l-258 0 ZM478 144 q98 0 179 47 q81 47 116 113 l0 178 l-210 0 q-121 0 -191.5 -56 q-70.5 -56 -70.5 -136 q0 -71 44 -108.5 q44 -37.5 133 -37.5 Z" /><glyph glyph-name="b" unicode="b" d="M1079 500 q0 -234 -112.5 -377.5 q-112.5 -143.5 -309.5 -143.5 q-106 0 -184 40.5 q-78 40.5 -130 119.5 l-18 -139 l-170 0 l0 1405 l-163 28 l0 127 l360 0 l0 -606 q51 72 126.5 110 q75.5 38 176.5 38 q200 0 312 -160 q112 -160 112 -421 l0 -21 ZM881 521 q0 187 -68 304 q-68 117 -208 117 q-91 0 -153.5 -44 q-62.5 -44 -99.5 -118 l0 -478 q37 -75 100.5 -119 q63.5 -44 154.5 -44 q139 0 206.5 99 q67.5 99 67.5 262 l0 21 Z" /><glyph glyph-name="c" unicode="c" d="M575 133 q98 0 172.5 60.5 q74.5 60.5 74.5 148.5 l177 0 l2 -6 q5 -140 -124.5 -248.5 q-129.5 -108.5 -301.5 -108.5 q-236 0 -360.5 154 q-124.5 154 -124.5 387 l0 42 q0 231 125 385.5 q125 154.5 360 154.5 q130 0 233.5 -43 q103.5 -43 171.5 -118 l9 -240 l-157 0 l-43 170 q-35 34 -90 55 q-55 21 -124 21 q-155 0 -221.5 -111.5 q-66.5 -111.5 -66.5 -273.5 l0 -42 q0 -166 66 -276.5 q66 -110.5 222 -110.5 Z" /><glyph glyph-name="d" unicode="d" d="M818 129 q-53 -74 -129.5 -112 q-76.5 -38 -177.5 -38 q-198 0 -309.5 143.5 q-111.5 143.5 -111.5 377.5 l0 21 q0 261 111.5 421 q111.5 160 311.5 160 q96 0 169.5 -35.5 q73.5 -35.5 125.5 -102.5 l0 441 l-163 28 l0 127 l163 0 l197 0 l0 -1406 l163 -28 l0 -126 l-334 0 l-16 129 ZM287 500 q0 -163 67 -262 q67 -99 207 -99 q88 0 148 40 q60 40 99 113 l0 502 q-38 68 -99 108 q-61 40 -146 40 q-141 0 -208.5 -117 q-67.5 -117 -67.5 -304 l0 -21 Z" /><glyph glyph-name="e" unicode="e" d="M583 -21 q-226 0 -359.5 150.5 q-133.5 150.5 -133.5 390.5 l0 44 q0 231 137.5 384.5 q137.5 153.5 325.5 153.5 q218 0 330.5 -132 q112.5 -132 112.5 -352 l0 -123 l-702 0 l-3 -5 q3 -156 79 -256.5 q76 -100.5 213 -100.5 q100 0 175.5 28.5 q75.5 28.5 130.5 78.5 l77 -128 q-58 -56 -153.5 -94.5 q-95.5 -38.5 -229.5 -38.5 ZM553 947 q-99 0 -169 -83.5 q-70 -83.5 -86 -209.5 l2 -5 l499 0 l0 26 q0 116 -62 194 q-62 78 -184 78 Z" /><glyph glyph-name="f" unicode="f" d="M70 936 l0 146 l169 0 l0 137 q0 173 90.5 267.5 q90.5 94.5 252.5 94.5 q34 0 68.5 -5.5 q34.5 -5.5 76.5 -15.5 l-24 -150 q-18 4 -43.5 7 q-25.5 3 -52.5 3 q-87 0 -129 -51.5 q-42 -51.5 -42 -149.5 l0 -137 l226 0 l0 -146 l-226 0 l0 -782 l163 -28 l0 -126 l-523 0 l0 126 l163 28 l0 782 l-169 0 Z" /><glyph glyph-name="g" unicode="g" d="M90 521 q0 261 114 421 q114 160 315 160 q102 0 179 -40 q77 -40 129 -116 l18 136 l166 0 l0 -1068 q0 -210 -117 -330.5 q-117 -120.5 -333 -120.5 q-78 0 -169 21.5 q-91 21.5 -160 58.5 l51 153 q55 -29 130 -48 q75 -19 146 -19 q132 0 193.5 74 q61.5 74 61.5 211 l0 103 q-53 -68 -127 -103 q-74 -35 -170 -35 q-199 0 -313 144 q-114 144 -114 377 l0 21 ZM287 500 q0 -163 69 -262 q69 -99 210 -99 q89 0 149 40.5 q60 40.5 99 114.5 l0 498 q-38 69 -99 109.5 q-61 40.5 -147 40.5 q-141 0 -211 -118 q-70 -118 -70 -303 l0 -21 Z" /><glyph glyph-name="h" unicode="h" d="M62 126 l163 28 l0 1251 l-163 28 l0 127 l360 0 l0 -622 q56 78 137 121 q81 43 180 43 q174 0 270 -104 q96 -104 96 -320 l0 -524 l163 -28 l0 -126 l-523 0 l0 126 l163 28 l0 526 q0 134 -57.5 198 q-57.5 64 -171.5 64 q-81 0 -147.5 -38.5 q-66.5 -38.5 -109.5 -104.5 l0 -645 l163 -28 l0 -126 l-523 0 l0 126 Z" /><glyph glyph-name="i" unicode="i" d="M89 126 l163 28 l0 773 l-163 28 l0 127 l360 0 l0 -928 l163 -28 l0 -126 l-523 0 l0 126 ZM449 1359 l-197 0 l0 201 l197 0 l0 -201 Z" /><glyph glyph-name="j" unicode="j" d="M424 -89 q0 -167 -86 -257.5 q-86 -90.5 -239 -90.5 q-32 0 -58 4.5 q-26 4.5 -54 13.5 l13 155 q14 -5 41 -8.5 q27 -3.5 44 -3.5 q65 0 103.5 44 q38.5 44 38.5 143 l0 1016 l-163 28 l0 127 l360 0 l0 -1171 ZM418 1363 l-197 0 l0 197 l197 0 l0 -197 Z" /><glyph glyph-name="k" unicode="k" d="M62 1433 l0 127 l360 0 l0 -904 l126 0 l231 286 l-99 13 l0 127 l453 0 l0 -127 l-132 -26 l-285 -340 l347 -439 l123 -24 l0 -126 l-449 0 l0 126 l101 13 l-287 360 l-129 0 l0 -345 l163 -28 l0 -126 l-523 0 l0 126 l163 28 l0 1251 l-163 28 Z" /><glyph glyph-name="l" unicode="l" d="M62 1433 l0 127 l360 0 l0 -1406 l163 -28 l0 -126 l-523 0 l0 126 l163 28 l0 1251 l-163 28 Z" /><glyph glyph-name="m" unicode="m" d="M50 126 l163 28 l0 773 l-163 28 l0 127 l340 0 l13 -141 q52 77 134 119 q82 42 190 42 q108 0 185.5 -50 q77.5 -50 116.5 -150 q51 92 135 146 q84 54 196 54 q166 0 262 -113.5 q96 -113.5 96 -341.5 l0 -493 l163 -28 l0 -126 l-524 0 l0 126 l163 28 l0 495 q0 160 -55 226.5 q-55 66.5 -163 66.5 q-103 0 -165.5 -72.5 q-62.5 -72.5 -72.5 -182.5 l0 -533 l163 -28 l0 -126 l-523 0 l0 126 l163 28 l0 495 q0 152 -56.5 222.5 q-56.5 70.5 -163.5 70.5 q-90 0 -148 -37 q-58 -37 -89 -104 l0 -647 l163 -28 l0 -126 l-523 0 l0 126 Z" /><glyph glyph-name="n" unicode="n" d="M60 126 l163 28 l0 773 l-163 28 l0 127 l339 0 l14 -161 q54 86 135.5 133.5 q81.5 47.5 185.5 47.5 q175 0 271 -102.5 q96 -102.5 96 -316.5 l0 -529 l163 -28 l0 -126 l-523 0 l0 126 l163 28 l0 525 q0 143 -56.5 203 q-56.5 60 -172.5 60 q-85 0 -150.5 -41 q-65.5 -41 -104.5 -112 l0 -635 l163 -28 l0 -126 l-523 0 l0 126 Z" /><glyph glyph-name="o" unicode="o" d="M90 551 q0 240 130 395.5 q130 155.5 353 155.5 q224 0 354.5 -155 q130.5 -155 130.5 -396 l0 -22 q0 -242 -130 -396 q-130 -154 -353 -154 q-225 0 -355 154.5 q-130 154.5 -130 395.5 l0 22 ZM287 529 q0 -172 72.5 -284 q72.5 -112 215.5 -112 q140 0 213 112 q73 112 73 284 l0 22 q0 170 -73 283 q-73 113 -215 113 q-142 0 -214 -113 q-72 -113 -72 -283 l0 -22 Z" /><glyph glyph-name="p" unicode="p" d="M65 -289 l163 28 l0 1188 l-163 28 l0 127 l332 0 l18 -132 q54 74 131.5 113 q77.5 39 179.5 39 q201 0 312.5 -159.5 q111.5 -159.5 111.5 -421.5 l0 -21 q0 -234 -112 -377.5 q-112 -143.5 -309 -143.5 q-100 0 -175.5 33.5 q-75.5 33.5 -128.5 99.5 l0 -373 l163 -28 l0 -127 l-523 0 l0 127 ZM952 521 q0 185 -72 303 q-72 118 -214 118 q-84 0 -144 -38 q-60 -38 -97 -104 l0 -527 q37 -67 96.5 -103.5 q59.5 -36.5 146.5 -36.5 q140 0 212 102 q72 102 72 265 l0 21 Z" /><glyph glyph-name="q" unicode="q" d="M90 521 q0 261 111.5 421 q111.5 160 311.5 160 q95 0 169 -35.5 q74 -35.5 126 -103.5 l16 119 l170 0 l0 -1343 l163 -28 l0 -127 l-523 0 l0 127 l163 28 l0 363 q-52 -61 -123.5 -92 q-71.5 -31 -162.5 -31 q-198 0 -309.5 143.5 q-111.5 143.5 -111.5 377.5 l0 21 ZM287 500 q0 -164 67 -265.5 q67 -101.5 207 -101.5 q82 0 139.5 36 q57.5 36 96.5 102 l0 543 q-39 61 -97 97 q-58 36 -137 36 q-141 0 -208.5 -119.5 q-67.5 -119.5 -67.5 -306.5 l0 -21 Z" /><glyph glyph-name="r" unicode="r" d="M89 955 l0 127 l339 0 l19 -157 q46 83 113.5 130 q67.5 47 154.5 47 q23 0 47.5 -3.5 q24.5 -3.5 37.5 -7.5 l-26 -183 l-112 6 q-78 0 -131 -36.5 q-53 -36.5 -82 -102.5 l0 -621 l163 -28 l0 -126 l-523 0 l0 126 l163 28 l0 773 l-163 28 Z" /><glyph glyph-name="s" unicode="s" d="M917 742 l-148 0 l-32 130 q-36 34 -90.5 54.5 q-54.5 20.5 -123.5 20.5 q-105 0 -156 -46 q-51 -46 -51 -111 q0 -64 45 -101 q45 -37 183 -66 q205 -44 305 -119.5 q100 -75.5 100 -202.5 q0 -144 -116.5 -233 q-116.5 -89 -304.5 -89 q-123 0 -221 28.5 q-98 28.5 -175 82.5 l-1 247 l148 0 l37 -145 q34 -31 92.5 -45 q58.5 -14 119.5 -14 q105 0 164.5 42.5 q59.5 42.5 59.5 111.5 q0 65 -49.5 107 q-49.5 42 -187.5 73 q-197 43 -297 117 q-100 74 -100 200 q0 132 112.5 225 q112.5 93 292.5 93 q123 0 221 -32 q98 -32 163 -89 l10 -239 Z" /><glyph glyph-name="t" unicode="t" d="M433 1343 l0 -261 l205 0 l0 -146 l-205 0 l0 -657 q0 -76 31.5 -107 q31.5 -31 83.5 -31 q26 0 58.5 4.5 q32.5 4.5 54.5 9.5 l27 -135 q-28 -18 -82 -29.5 q-54 -11.5 -108 -11.5 q-120 0 -191 72.5 q-71 72.5 -71 227.5 l0 657 l-171 0 l0 146 l171 0 l0 261 l197 0 Z" /><glyph glyph-name="u" unicode="u" d="M863 160 q-51 -87 -131.5 -134 q-80.5 -47 -185.5 -47 q-176 0 -275 113 q-99 113 -99 352 l0 483 l-124 28 l0 127 l124 0 l197 0 l0 -640 q0 -173 51 -238 q51 -65 159 -65 q105 0 173.5 42.5 q68.5 42.5 103.5 120.5 l0 625 l-145 28 l0 127 l145 0 l197 0 l0 -928 l124 -28 l0 -126 l-301 0 l-13 160 Z" /><glyph glyph-name="v" unicode="v" d="M460 955 l-130 -20 l223 -616 l18 -78 l6 0 l19 78 l216 616 l-131 20 l0 127 l418 0 l0 -127 l-89 -15 l-363 -940 l-149 0 l-367 940 l-89 15 l0 127 l418 0 l0 -127 Z" /><glyph glyph-name="w" unicode="w" d="M473 955 l-124 -22 l141 -539 l23 -131 l6 0 l28 131 l216 688 l158 0 l217 -688 l31 -146 l6 0 l29 146 l133 539 l-126 22 l0 127 l412 0 l0 -127 l-94 -14 l-273 -941 l-159 0 l-210 659 l-45 182 l-6 -1 l-42 -181 l-206 -659 l-159 0 l-273 941 l-95 14 l0 127 l412 0 l0 -127 Z" /><glyph glyph-name="x" unicode="x" d="M62 126 l116 23 l319 398 l-309 385 l-116 23 l0 127 l424 0 l0 -127 l-98 -12 l202 -260 l203 261 l-97 11 l0 127 l427 0 l0 -127 l-116 -23 l-309 -385 l318 -398 l117 -23 l0 -126 l-424 0 l0 126 l96 11 l-212 272 l-212 -272 l97 -11 l0 -126 l-426 0 l0 126 Z" /><glyph glyph-name="y" unicode="y" d="M1117 955 l-97 -15 l-412 -1106 q-41 -109 -118 -190 q-77 -81 -207 -81 q-23 0 -60 5.5 q-37 5.5 -57 10.5 l20 155 q-6 1 35.5 -2 q41.5 -3 52.5 -3 q63 0 102 54.5 q39 54.5 68 125.5 l47 112 l-357 918 l-99 16 l0 127 l437 0 l0 -127 l-122 -20 l187 -534 l36 -138 l6 0 l225 672 l-123 20 l0 127 l436 0 l0 -127 Z" /><glyph glyph-name="z" unicode="z" d="M346 154 l442 0 l16 167 l167 0 l0 -321 l-859 0 l0 138 l585 788 l-396 0 l-15 -166 l-168 0 l0 322 l820 0 l0 -134 l-592 -794 Z" /><glyph glyph-name="braceleft" unicode="{" d="M631 -364 q-195 55 -277.5 175 q-82.5 120 -82.5 290 l0 205 q0 112 -51 174.5 q-51 62.5 -157 62.5 l0 147 q106 0 157 61.5 q51 61.5 51 174.5 l0 206 q0 171 82.5 290.5 q82.5 119.5 277.5 174.5 l40 -117 q-110 -35 -156.5 -125.5 q-46.5 -90.5 -46.5 -222.5 l0 -206 q0 -105 -42 -185 q-42 -80 -127 -125 q85 -46 127 -126.5 q42 -80.5 42 -183.5 l0 -205 q0 -132 46.5 -221.5 q46.5 -89.5 156.5 -125.5 l-40 -118 Z" /><glyph glyph-name="bar" unicode="|" d="M307 -270 l-157 0 l0 1726 l157 0 l0 -1726 Z" /><glyph glyph-name="braceright" unicode="}" d="M27 -246 q108 36 155 125.5 q47 89.5 47 221.5 l0 205 q0 107 45 187 q45 80 139 123 q-94 41 -139 121 q-45 80 -45 189 l0 206 q0 132 -47 222.5 q-47 90.5 -155 125.5 l40 117 q194 -55 276.5 -174.5 q82.5 -119.5 82.5 -290.5 l0 -206 q0 -113 51 -174.5 q51 -61.5 158 -61.5 l0 -147 q-107 0 -158 -62.5 q-51 -62.5 -51 -174.5 l0 -205 q0 -170 -82.5 -290 q-82.5 -120 -276.5 -175 l-40 118 Z" /><glyph glyph-name="asciitilde" unicode="~" d="M1257 740 q0 -137 -87.5 -238 q-87.5 -101 -217.5 -101 q-89 0 -162.5 33 q-73.5 33 -158.5 107 q-60 48 -109 72 q-49 24 -98 24 q-67 0 -114.5 -53 q-47.5 -53 -47.5 -128 l-141 18 q0 136 85.5 232.5 q85.5 96.5 217.5 96.5 q88 0 163 -34.5 q75 -34.5 160 -104.5 q59 -51 106.5 -74 q47.5 -23 98.5 -23 q66 0 114.5 57 q48.5 57 48.5 134 l142 -18 Z" /><glyph glyph-name="exclamdown" unicode="¡" d="M339 -374 l-197 0 l0 978 l197 0 l0 -978 ZM339 876 l-197 0 l0 206 l197 0 l0 -206 Z" /><glyph glyph-name="cent" unicode="¢" d="M589 133 q98 0 172.5 60.5 q74.5 60.5 74.5 148.5 l178 0 l2 -6 q4 -123 -99.5 -225 q-103.5 -102 -252.5 -126 l0 -230 l-197 0 l0 237 q-178 38 -270.5 183 q-92.5 145 -92.5 345 l0 42 q0 197 92.5 342 q92.5 145 270.5 185 l0 229 l197 0 l0 -220 q104 -12 188 -52.5 q84 -40.5 142 -104.5 l9 -240 l-157 0 l-43 170 q-35 34 -90 55 q-55 21 -124 21 q-155 0 -221.5 -111.5 q-66.5 -111.5 -66.5 -273.5 l0 -42 q0 -166 66 -276.5 q66 -110.5 222 -110.5 Z" /><glyph glyph-name="sterling" unicode="£" d="M427 615 l6 -149 q0 -90 -15.5 -171.5 q-15.5 -81.5 -44.5 -140.5 l551 0 l16 167 l167 0 l0 -167 l1 0 l-1 -154 l-975 0 l0 154 l10 0 q47 13 71 111 q24 98 24 201 l-6 149 l-163 0 l0 155 l157 0 l-10 270 q0 204 112 320.5 q112 116.5 300 116.5 q200 0 310 -104.5 q110 -104.5 106 -276.5 l-2 -6 l-189 0 q0 118 -63.5 175 q-63.5 57 -161.5 57 q-99 0 -157 -74.5 q-58 -74.5 -58 -207.5 l10 -270 l419 0 l0 -155 l-414 0 Z" /><glyph glyph-name="currency" unicode="¤" d="M1087 108 q-77 -62 -169.5 -95 q-92.5 -33 -193.5 -33 q-101 0 -193 32.5 q-92 32.5 -169 94.5 l-130 -133 l-138 138 l138 140 q-50 76 -76.5 166.5 q-26.5 90.5 -26.5 189.5 q0 102 28.5 196 q28.5 94 82.5 172 l-146 149 l138 139 l143 -146 q74 55 163.5 85.5 q89.5 30.5 185.5 30.5 q97 0 186 -31 q89 -31 164 -87 l146 149 l140 -140 l-150 -153 q52 -78 80.5 -170.5 q28.5 -92.5 28.5 -193.5 q0 -98 -26.5 -187.5 q-26.5 -89.5 -74.5 -165.5 l142 -143 l-140 -139 l-133 135 ZM311 608 q0 -188 120.5 -320.5 q120.5 -132.5 292.5 -132.5 q170 0 290.5 132.5 q120.5 132.5 120.5 320.5 q0 186 -120.5 318 q-120.5 132 -290.5 132 q-172 0 -292.5 -132 q-120.5 -132 -120.5 -318 Z" /><glyph glyph-name="yen" unicode="¥" d="M1335 1329 l-139 -20 l-333 -571 l312 0 l0 -123 l-383 0 l0 -167 l383 0 l0 -122 l-383 0 l0 -172 l163 -28 l0 -126 l-523 0 l0 126 l163 28 l0 172 l-375 0 l0 122 l375 0 l0 167 l-375 0 l0 123 l311 0 l-333 570 l-139 21 l0 127 l442 0 l0 -127 l-87 -15 l283 -521 l283 521 l-86 15 l0 127 l441 0 l0 -127 Z" /><glyph glyph-name="brokenbar" unicode="¦" d="M150 -270 l0 792 l197 0 l0 -792 l-197 0 ZM347 698 l-197 0 l0 758 l197 0 l0 -758 Z" /><glyph glyph-name="section" unicode="§" d="M1144 431 q0 -94 -48 -164 q-48 -70 -136 -110 q70 -51 105 -119 q35 -68 35 -166 q0 -172 -133 -269.5 q-133 -97.5 -358 -97.5 q-222 0 -372.5 102.5 q-150.5 102.5 -145.5 322.5 l2 6 l188 2 q0 -143 96.5 -210.5 q96.5 -67.5 231.5 -67.5 q136 0 215 59.5 q79 59.5 79 150.5 q0 91 -72 141.5 q-72 50.5 -276 113.5 q-239 63 -352 156 q-113 93 -113 270 q0 91 46.5 161.5 q46.5 70.5 133.5 111.5 q-68 50 -101.5 119.5 q-33.5 69.5 -33.5 166.5 q0 166 133.5 266.5 q133.5 100.5 358.5 100.5 q232 0 362.5 -111.5 q130.5 -111.5 126.5 -313.5 l-3 -6 l-188 0 q0 118 -79.5 197 q-79.5 79 -218.5 79 q-146 0 -220.5 -59.5 q-74.5 -59.5 -74.5 -150.5 q0 -99 67 -148.5 q67 -49.5 278 -107.5 q244 -69 355.5 -159.5 q111.5 -90.5 111.5 -265.5 ZM599 689 q-48 12 -89.5 25 q-41.5 13 -77.5 27 q-73 -19 -109 -69 q-36 -50 -36 -119 q0 -101 67.5 -152 q67.5 -51 278.5 -110 q52 -16 90 -27.5 q38 -11.5 72 -23.5 q73 20 113 70 q40 50 40 118 q0 91 -73.5 144.5 q-73.5 53.5 -275.5 116.5 Z" /><glyph glyph-name="dieresis" unicode="¨" d="M840 1256 l-218 0 l0 200 l218 0 l0 -200 ZM370 1256 l-218 0 l0 200 l218 0 l0 -200 Z" /><glyph glyph-name="copyright" unicode="©" d="M1114 596 l2 -6 q4 -151 -83.5 -229.5 q-87.5 -78.5 -244.5 -78.5 q-160 0 -254.5 106 q-94.5 106 -94.5 281 l0 119 q0 173 94.5 280 q94.5 107 254.5 107 q157 0 245 -79 q88 -79 84 -228 l-2 -6 l-146 0 q0 95 -45.5 138.5 q-45.5 43.5 -135.5 43.5 q-95 0 -146 -70.5 q-51 -70.5 -51 -184.5 l0 -120 q0 -117 51 -187 q51 -70 146 -70 q90 0 135 43 q45 43 45 141 l146 0 ZM212 729 q0 -265 172 -447 q172 -182 418 -182 q244 0 416 182 q172 182 172 447 q0 263 -172 444 q-172 181 -416 181 q-246 0 -418 -180.5 q-172 -180.5 -172 -444.5 ZM92 729 q0 315 207 531 q207 216 503 216 q295 0 502 -216 q207 -216 207 -531 q0 -316 -207.5 -533 q-207.5 -217 -501.5 -217 q-296 0 -503 217 q-207 217 -207 533 Z" /><glyph glyph-name="ordfeminine" unicode="ª" d="M598 706 q-8 21 -13 45 q-5 24 -8 50 q-33 -47 -89 -78 q-56 -31 -133 -31 q-119 0 -184 61 q-65 61 -65 167 q0 110 84 170 q84 60 246 60 l138 0 l0 52 q0 63 -29.5 97 q-29.5 34 -87.5 34 q-67 0 -103.5 -27 q-36.5 -27 -36.5 -76 l-163 13 l-1 6 q-6 98 79 163 q85 65 225 65 q133 0 211.5 -71 q78.5 -71 78.5 -205 l0 -314 q0 -51 6 -95 q6 -44 20 -86 l-175 0 ZM397 831 q51 0 105 29.5 q54 29.5 72 65.5 l0 110 l-137 0 q-75 0 -117 -33 q-42 -33 -42 -79 q0 -45 29.5 -69 q29.5 -24 89.5 -24 Z" /><glyph glyph-name="logicalnot" unicode="¬" d="M955 375 l-197 0 l0 262 l-637 0 l0 165 l834 0 l0 -427 Z" /><glyph glyph-name="registered" unicode="®" d="M92 729 q0 315 207 531 q207 216 503 216 q295 0 502 -216 q207 -216 207 -531 q0 -316 -207.5 -533 q-207.5 -217 -501.5 -217 q-296 0 -503 217 q-207 217 -207 533 ZM212 729 q0 -265 172 -447 q172 -182 418 -182 q244 0 416 182 q172 182 172 447 q0 263 -172 444 q-172 181 -416 181 q-246 0 -418 -180.5 q-172 -180.5 -172 -444.5 ZM657 654 l0 -338 l-149 0 l0 850 l280 0 q152 0 238 -65.5 q86 -65.5 86 -191.5 q0 -61 -33 -108.5 q-33 -47.5 -95 -78.5 q66 -26 95.5 -79 q29.5 -53 29.5 -128 l0 -56 q0 -41 3.5 -73.5 q3.5 -32.5 13.5 -53.5 l0 -16 l-153 0 q-9 21 -11 61.5 q-2 40.5 -2 82.5 l0 54 q0 72 -33.5 106 q-33.5 34 -110.5 34 l-159 0 ZM657 784 l152 0 q65 1 110 32.5 q45 31.5 45 87.5 q0 73 -39 102.5 q-39 29.5 -137 29.5 l-131 0 l0 -252 Z" /><glyph glyph-name="macron" unicode="¯&#x2c9;" d="M875 1310 l-721 0 l0 146 l721 0 l0 -146 Z" /><glyph glyph-name="degree" unicode="°" d="M124 1216 q0 106 75.5 183.5 q75.5 77.5 180.5 77.5 q104 0 178.5 -77.5 q74.5 -77.5 74.5 -183.5 q0 -108 -74.5 -182.5 q-74.5 -74.5 -178.5 -74.5 q-106 0 -181 74.5 q-75 74.5 -75 182.5 ZM254 1216 q0 -55 36.5 -91 q36.5 -36 89.5 -36 q52 0 87.5 36 q35.5 36 35.5 91 q0 55 -35.5 92.5 q-35.5 37.5 -87.5 37.5 q-53 0 -89.5 -37.5 q-36.5 -37.5 -36.5 -92.5 Z" /><glyph glyph-name="plusminus" unicode="±" d="M633 856 l358 0 l0 -154 l-358 0 l0 -413 l-178 0 l0 413 l-380 0 l0 154 l380 0 l0 411 l178 0 l0 -411 ZM959 5 l-835 0 l0 155 l835 0 l0 -155 Z" /><glyph glyph-name="twosuperior" unicode="²" d="M714 667 l-592 0 l0 130 l302 262 q69 59 90.5 96.5 q21.5 37.5 21.5 80.5 q0 50 -28 81 q-28 31 -86 31 q-67 0 -103.5 -32 q-36.5 -32 -36.5 -82 l-161 0 l-2 6 q-6 99 78 169 q84 70 225 70 q135 0 211 -64 q76 -64 76 -180 q0 -80 -44.5 -136 q-44.5 -56 -160.5 -161 l-153 -135 l2 -6 l361 0 l0 -130 Z" /><glyph glyph-name="threesuperior" unicode="³" d="M424 1137 q67 0 99 28.5 q32 28.5 32 80.5 q0 44 -36 72.5 q-36 28.5 -105 28.5 q-56 0 -91 -24 q-35 -24 -35 -64 l-162 0 l-2 6 q-6 94 78.5 153.5 q84.5 59.5 211.5 59.5 q145 0 229 -59.5 q84 -59.5 84 -169.5 q0 -55 -35.5 -100.5 q-35.5 -45.5 -97.5 -71.5 q71 -24 108.5 -71.5 q37.5 -47.5 37.5 -115.5 q0 -111 -90 -173 q-90 -62 -236 -62 q-127 0 -218 58 q-91 58 -85 169 l1 6 l163 0 q0 -46 37.5 -74.5 q37.5 -28.5 101.5 -28.5 q72 0 113.5 29.5 q41.5 29.5 41.5 77.5 q0 63 -36 91 q-36 28 -109 28 l-133 0 l0 126 l133 0 Z" /><glyph glyph-name="acute" unicode="´" d="M279 1478 l230 0 l2 -6 l-269 -260 l-147 0 l184 266 Z" /><glyph glyph-name="mu" unicode="µ" d="M900 109 q-44 -64 -108 -97 q-64 -33 -147 -33 q-72 0 -126 16.5 q-54 16.5 -94 51.5 l0 -463 l-196 0 l0 1343 l-163 28 l0 127 l163 0 l196 0 l0 -622 q0 -189 55 -258 q55 -69 157 -69 q99 0 160 36.5 q61 36.5 92 107.5 l0 650 l-163 28 l0 127 l360 0 l0 -928 l163 -28 l0 -126 l-340 0 l-9 109 Z" /><glyph glyph-name="paragraph" unicode="¶" d="M570 520 q-234 0 -363 129.5 q-129 129.5 -129 338.5 q0 207 129.5 337.5 q129.5 130.5 362.5 130.5 l443 0 l0 -127 l-163 -28 l0 -1147 l163 -28 l0 -126 l-523 0 l0 126 l163 28 l0 366 l-83 0 Z" /><glyph glyph-name="periodcentered" unicode="·" d="M357 624 l-198 0 l0 212 l198 0 l0 -212 Z" /><glyph glyph-name="cedilla" unicode="¸" d="M276 0 l-12 -52 q65 -11 108 -52 q43 -41 43 -121 q0 -96 -79 -153 q-79 -57 -226 -57 l-7 109 q72 0 115.5 24.5 q43.5 24.5 43.5 73.5 q0 48 -36 67 q-36 19 -123 26 l32 135 l141 0 Z" /><glyph glyph-name="onesuperior" unicode="¹" d="M396 665 l-174 0 l0 655 l-127 0 l0 134 l301 23 l0 -812 Z" /><glyph glyph-name="ordmasculine" unicode="º" d="M121 1142 q0 148 93.5 241.5 q93.5 93.5 251.5 93.5 q158 0 252 -93.5 q94 -93.5 94 -241.5 l0 -117 q0 -149 -93.5 -241.5 q-93.5 -92.5 -250.5 -92.5 q-159 0 -253 92.5 q-94 92.5 -94 241.5 l0 117 ZM293 1025 q0 -88 44 -140.5 q44 -52.5 131 -52.5 q83 0 127 53 q44 53 44 140 l0 117 q0 84 -44.5 137.5 q-44.5 53.5 -128.5 53.5 q-84 0 -128.5 -53.5 q-44.5 -53.5 -44.5 -137.5 l0 -117 Z" /><glyph glyph-name="questiondown" unicode="¿" d="M588 672 q-2 -146 -26 -202 q-24 -56 -125 -147 q-101 -120 -141.5 -182 q-40.5 -62 -40.5 -149 q0 -107 55.5 -163.5 q55.5 -56.5 161.5 -56.5 q90 0 154.5 49.5 q64.5 49.5 64.5 145.5 l188 0 l3 -6 q2 -161 -114.5 -258 q-116.5 -97 -295.5 -97 q-198 0 -306 100.5 q-108 100.5 -108 280.5 q0 127 69.5 233.5 q69.5 106.5 186.5 220.5 q53 53 65 96 q12 43 12 135 l197 0 ZM385 1083 l205 0 l0 -209 l-205 0 l0 209 Z" /><glyph glyph-name="AE" unicode="æ" d="M51 126 l141 20 l793 1310 l967 0 l0 -322 l-168 0 l-15 167 l-508 0 l20 -466 l590 0 l0 -155 l-584 0 l22 -526 l522 0 l16 167 l167 0 l0 -321 l-1058 0 l0 126 l156 27 l-8 197 l-556 0 l-121 -210 l82 -14 l0 -126 l-458 0 l0 126 ZM651 529 l446 0 l-31 710 l-5 2 l-410 -712 Z" /><glyph glyph-name="multiply" unicode="×" d="M79 351 l327 334 l-327 334 l126 126 l326 -333 l327 333 l126 -126 l-328 -334 l328 -334 l-126 -126 l-327 332 l-326 -332 l-126 126 Z" /><glyph glyph-name="Oslash" unicode="ø" d="M1368 717 q0 -318 -182.5 -528 q-182.5 -210 -472.5 -210 q-90 0 -170.5 23 q-80.5 23 -149.5 67 l-97 -163 l-149 0 l144 244 q-102 101 -157 247.5 q-55 146.5 -55 319.5 l0 21 q0 317 176 528 q176 211 458 211 q87 0 166.5 -21.5 q79.5 -21.5 150.5 -61.5 l73 123 l149 0 l-118 -199 q111 -102 172.5 -252.5 q61.5 -150.5 61.5 -327.5 l0 -21 ZM1171 740 q0 129 -33 236.5 q-33 107.5 -94 180.5 l-6 1 l-560 -945 q48 -36 107 -54.5 q59 -18.5 128 -18.5 q218 0 338 160 q120 160 120 417 l0 23 ZM276 717 q0 -123 27.5 -226.5 q27.5 -103.5 80.5 -174.5 l6 0 l555 935 q-50 31 -108 47.5 q-58 16.5 -124 16.5 q-206 0 -321.5 -161 q-115.5 -161 -115.5 -414 l0 -23 Z" /><glyph glyph-name="Thorn" unicode="þ" d="M70 126 l163 28 l0 1147 l-163 28 l0 127 l360 0 l163 0 l0 -127 l-163 -28 l0 -138 l269 0 q231 0 361 -118 q130 -118 130 -307 q0 -190 -130 -307.5 q-130 -117.5 -361 -117.5 l-269 0 l0 -159 l163 -28 l0 -126 l-523 0 l0 126 ZM430 1009 l0 -542 l269 0 q146 0 220 78 q74 78 74 191 q0 114 -74 193.5 q-74 79.5 -220 79.5 l-269 0 Z" /><glyph glyph-name="germandbls" unicode="ß" d="M414 0 l-359 0 l0 126 l163 28 l0 928 q0 223 117 348 q117 125 301 125 q160 0 261 -86 q101 -86 101 -253 q0 -118 -64 -228 q-64 -110 -64 -167 q0 -82 173 -224 q173 -142 173 -281 q0 -167 -104 -252 q-104 -85 -282 -85 q-84 0 -172.5 20.5 q-88.5 20.5 -125.5 50.5 l43 159 q42 -28 108 -52 q66 -24 126 -24 q109 0 159.5 47 q50.5 47 50.5 126 q0 84 -173 227.5 q-173 143.5 -173 289.5 q0 80 70 190.5 q70 110.5 70 186.5 q0 94 -50.5 147.5 q-50.5 53.5 -116.5 53.5 q-105 0 -168.5 -83 q-63.5 -83 -63.5 -236 l0 -1082 Z" /><glyph glyph-name="ae" unicode="æ" d="M1300 -21 q-135 0 -239 48.5 q-104 48.5 -170 137.5 q-56 -79 -168 -132.5 q-112 -53.5 -271 -53.5 q-170 0 -262.5 87 q-92.5 87 -92.5 238 q0 158 114.5 244.5 q114.5 86.5 334.5 86.5 l229 0 l0 85 q0 106 -51.5 166.5 q-51.5 60.5 -149.5 60.5 q-103 0 -164 -55 q-61 -55 -61 -133 l-188 18 l-2 6 q-5 138 110 228.5 q115 90.5 305 90.5 q115 0 202 -40.5 q87 -40.5 137 -117.5 q64 75 151.5 116.5 q87.5 41.5 189.5 41.5 q214 0 329.5 -130 q115.5 -130 115.5 -358 l0 -119 l-710 0 l-2 -5 q1 -159 79.5 -258 q78.5 -99 233.5 -99 q104 0 170 27.5 q66 27.5 144 78.5 l68 -138 q-55 -45 -149 -83.5 q-94 -38.5 -233 -38.5 ZM491 133 q76 0 158.5 43 q82.5 43 125.5 100 l0 217 l-227 0 q-120 0 -187 -56 q-67 -56 -67 -137 q0 -74 50 -120.5 q50 -46.5 147 -46.5 ZM1254 947 q-114 0 -183 -84.5 q-69 -84.5 -80 -217.5 l2 -5 l509 0 l0 31 q0 122 -60 199 q-60 77 -188 77 Z" /><glyph glyph-name="eth" unicode="ð" d="M859 1286 q104 -121 161.5 -287 q57.5 -166 57.5 -366 l0 -98 q0 -245 -144 -400.5 q-144 -155.5 -359 -155.5 q-218 0 -357.5 140 q-139.5 140 -139.5 347 q0 228 138 370 q138 142 351 142 q83 0 157.5 -32 q74.5 -32 126.5 -84 l4 5 q-20 98 -62 179.5 q-42 81.5 -101 143.5 l-272 -155 l-77 102 l245 140 q-36 23 -74.5 41.5 q-38.5 18.5 -80.5 34.5 l60 164 q75 -22 143 -57 q68 -35 128 -82 l233 133 l77 -102 l-215 -123 ZM881 635 q0 8 -0.5 25 q-0.5 17 -0.5 25 q-35 58 -115.5 98 q-80.5 40 -197.5 40 q-131 0 -211.5 -104 q-80.5 -104 -80.5 -253 q0 -132 82 -232.5 q82 -100.5 222 -100.5 q133 0 217.5 114 q84.5 114 84.5 288 l0 100 Z" /><glyph glyph-name="divide" unicode="÷" d="M1072 597 l-998 0 l0 188 l998 0 l0 -188 ZM673 999 l-198 0 l0 203 l198 0 l0 -203 ZM673 180 l-198 0 l0 203 l198 0 l0 -203 Z" /><glyph glyph-name="oslash" unicode="ø" d="M90 551 q0 240 130 395.5 q130 155.5 353 155.5 q55 0 105.5 -11 q50.5 -11 97.5 -30 l73 148 l129 0 l-104 -210 q88 -74 136 -190 q48 -116 48 -258 l0 -22 q0 -242 -130 -396 q-130 -154 -353 -154 q-52 0 -99 9 q-47 9 -89 25 l-73 -148 l-129 0 l101 206 q-95 72 -145.5 191 q-50.5 119 -50.5 267 l0 22 ZM287 529 q0 -89 19.5 -164 q19.5 -75 58.5 -123 l6 0 l332 672 q-28 16 -61 24.5 q-33 8.5 -69 8.5 q-142 0 -214 -113 q-72 -113 -72 -283 l0 -22 ZM861 551 q0 81 -17.5 152 q-17.5 71 -50.5 119 l-6 0 l-328 -664 q25 -13 54 -19 q29 -6 62 -6 q140 0 213 112 q73 112 73 284 l0 22 Z" /><glyph glyph-name="thorn" unicode="þ" d="M25 1433 l0 127 l360 0 l0 -598 q53 68 128.5 104 q75.5 36 173.5 36 q200 0 311.5 -159.5 q111.5 -159.5 111.5 -421.5 l0 -21 q0 -234 -111.5 -377.5 q-111.5 -143.5 -308.5 -143.5 q-100 0 -176 33.5 q-76 33.5 -129 100.5 l0 -374 l163 -28 l0 -127 l-523 0 l0 127 l163 28 l0 1666 l-163 28 ZM913 521 q0 185 -72 303 q-72 118 -214 118 q-85 0 -145 -38.5 q-60 -38.5 -97 -105.5 l0 -523 q37 -67 97 -104.5 q60 -37.5 147 -37.5 q140 0 212 102 q72 102 72 265 l0 21 Z" /><glyph glyph-name="Hbar" unicode="&#x126;" d="M1472 1456 l0 -127 l-163 -28 l0 -201 l131 0 l0 -145 l-131 0 l0 -801 l163 -28 l0 -126 l-523 0 l0 126 l163 28 l0 489 l-706 0 l0 -489 l163 -28 l0 -126 l-523 0 l0 126 l163 28 l0 801 l-161 0 l0 145 l161 0 l0 201 l-163 28 l0 127 l523 0 l0 -127 l-163 -28 l0 -201 l706 0 l0 201 l-163 28 l0 127 l163 0 l197 0 l163 0 ZM406 798 l706 0 l0 157 l-706 0 l0 -157 Z" /><glyph glyph-name="dotlessi" unicode="&#x131;" d="M90 955 l0 127 l360 0 l0 -928 l163 -28 l0 -126 l-523 0 l0 126 l163 28 l0 773 l-163 28 Z" /><glyph glyph-name="kgreenlandic" unicode="&#x138;" d="M62 126 l163 28 l0 773 l-154 28 l0 126 l351 0 l0 -425 l126 0 l252 287 l-90 12 l0 127 l452 0 l0 -127 l-132 -26 l-311 -343 l344 -436 l123 -24 l0 -126 l-237 0 l-398 499 l-129 0 l0 -345 l163 -28 l0 -126 l-523 0 l0 126 Z" /><glyph glyph-name="Lslash" unicode="&#x141;" d="M594 1329 l-163 -28 l0 -449 l238 76 l0 -165 l-238 -76 l0 -533 l506 0 l15 167 l168 0 l0 -321 l-1049 0 l0 126 l163 28 l0 471 l-154 -49 l0 165 l154 49 l0 511 l-163 28 l0 127 l523 0 l0 -127 Z" /><glyph glyph-name="lslash" unicode="&#x142;" d="M422 873 l149 57 l0 -165 l-149 -57 l0 -554 l163 -28 l0 -126 l-523 0 l0 126 l163 28 l0 479 l-144 -55 l0 165 l144 55 l0 607 l-163 28 l0 127 l163 0 l197 0 l0 -687 Z" /><glyph glyph-name="Eng" unicode="&#x14a;" d="M70 126 l163 28 l0 1147 l-163 28 l0 127 l360 0 l700 -1112 l6 2 l0 955 l-163 28 l0 127 l163 0 l197 0 l163 0 l0 -127 l-163 -28 l0 -1390 q0 -167 -86 -257.5 q-86 -90.5 -240 -90.5 q-31 0 -57 4.5 q-26 4.5 -55 13.5 l14 150 q13 -5 47 -9 q34 -4 51 -4 q61 0 95 51.5 q34 51.5 34 141.5 l0 89 l-700 1112 l-6 -2 l0 -956 l163 -28 l0 -126 l-523 0 l0 126 Z" /><glyph glyph-name="eng" unicode="&#x14b;" d="M90 955 l0 127 l339 0 l13 -149 q54 80 134 124.5 q80 44.5 180 44.5 q174 0 270.5 -102.5 q96.5 -102.5 96.5 -316.5 l0 -772 q0 -167 -86.5 -257.5 q-86.5 -90.5 -239.5 -90.5 q-32 0 -58.5 4.5 q-26.5 4.5 -54.5 13.5 l14 160 q13 -5 47 -8.5 q34 -3.5 52 -3.5 q61 0 95 47 q34 47 34 135 l0 768 q0 143 -57 203 q-57 60 -174 60 q-85 0 -146 -32.5 q-61 -32.5 -99 -91.5 l0 -664 l163 -28 l0 -126 l-523 0 l0 126 l163 28 l0 773 l-163 28 Z" /><glyph glyph-name="OE" unicode="&#x152;" d="M963 0 q-91 -10 -156.5 -15.5 q-65.5 -5.5 -132.5 -5.5 q-249 0 -404.5 166 q-155.5 166 -155.5 431 l0 304 q0 265 154.5 431 q154.5 166 403.5 166 q69 0 140.5 -6 q71.5 -6 150.5 -15 l910 0 l0 -350 l-169 0 l-16 195 l-573 0 l0 -471 l557 0 l0 -155 l-557 0 l0 -521 l585 0 l16 195 l168 0 l0 -349 l-921 0 ZM674 134 q53 0 107 3.5 q54 3.5 107 11.5 l30 5 l0 1147 l-53 9 q-50 5 -98 8.5 q-48 3.5 -95 3.5 q-169 0 -265 -113.5 q-96 -113.5 -96 -326.5 l0 -306 q0 -214 97 -328 q97 -114 266 -114 Z" /><glyph glyph-name="oe" unicode="&#x153;" d="M104 551 q0 240 129.5 395.5 q129.5 155.5 352.5 155.5 q130 0 230.5 -55 q100.5 -55 164.5 -154 q64 98 161.5 153.5 q97.5 55.5 206.5 55.5 q218 0 330.5 -132 q112.5 -132 112.5 -352 l0 -123 l-702 0 l-3 -5 q3 -156 78.5 -256.5 q75.5 -100.5 213.5 -100.5 q100 0 175.5 28.5 q75.5 28.5 130.5 78.5 l77 -128 q-59 -57 -153.5 -95 q-94.5 -38 -229.5 -38 q-132 0 -234 53 q-102 53 -166 150 q-64 -97 -163.5 -150 q-99.5 -53 -227.5 -53 q-224 0 -354 154.5 q-130 154.5 -130 395.5 l0 22 ZM301 529 q0 -172 72 -284 q72 -112 215 -112 q141 0 214 112 q73 112 73 284 l0 22 q0 170 -73.5 283 q-73.5 113 -215.5 113 q-141 0 -213 -113 q-72 -113 -72 -283 l0 -22 ZM1349 947 q-99 0 -169 -83.5 q-70 -83.5 -86 -209.5 l2 -5 l499 0 l0 26 q0 116 -62 194 q-62 78 -184 78 Z" /><glyph glyph-name="longs" unicode="&#x17f;" d="M57 126 l163 28 l0 1065 q0 173 90.5 267.5 q90.5 94.5 252.5 94.5 q34 0 68.5 -5.5 q34.5 -5.5 76.5 -15.5 l-25 -145 q-19 5 -41 8 q-22 3 -47 3 q-87 0 -132.5 -54.5 q-45.5 -54.5 -45.5 -152.5 l0 -1065 l163 -28 l0 -126 l-523 0 l0 126 Z" /><glyph glyph-name="florin" unicode="&#x192;" d="M630 936 l-196 0 l0 -1025 q0 -167 -86 -257.5 q-86 -90.5 -239 -90.5 q-32 0 -58 4.5 q-26 4.5 -54 13.5 l13 150 q14 -5 47.5 -9 q33.5 -4 51.5 -4 q59 0 93.5 51.5 q34.5 51.5 34.5 141.5 l0 1025 l-170 0 l0 146 l170 0 l0 137 q0 173 90 267.5 q90 94.5 252 94.5 q34 0 68.5 -5.5 q34.5 -5.5 76.5 -15.5 l-24 -150 q-18 4 -43.5 7 q-25.5 3 -52.5 3 q-87 0 -128.5 -51.5 q-41.5 -51.5 -41.5 -149.5 l0 -137 l196 0 l0 -146 Z" /><glyph glyph-name="Ohorn" unicode="&#x1a0;" d="M1363 717 q0 -318 -182.5 -528 q-182.5 -210 -472.5 -210 q-282 0 -458 210 q-176 210 -176 528 l0 21 q0 317 176 528 q176 211 458 211 q119 0 223 -39 q104 -39 187 -110 q81 15 118 82.5 q37 67.5 37 182.5 l178 0 q0 -150 -57.5 -247.5 q-57.5 -97.5 -169.5 -135.5 q67 -97 103 -217.5 q36 -120.5 36 -254.5 l0 -21 ZM1166 740 q0 254 -121.5 414.5 q-121.5 160.5 -336.5 160.5 q-206 0 -321.5 -161 q-115.5 -161 -115.5 -414 l0 -23 q0 -256 115.5 -416.5 q115.5 -160.5 321.5 -160.5 q218 0 338 160 q120 160 120 417 l0 23 Z" /><glyph glyph-name="ohorn" unicode="&#x1a1;" d="M104 551 q0 240 130 395.5 q130 155.5 353 155.5 q102 0 187 -35 q85 -35 148 -99 q65 16 87 72.5 q22 56.5 22 160.5 l158 0 q0 -136 -45 -221.5 q-45 -85.5 -145 -117.5 q35 -66 54 -145 q19 -79 19 -166 l0 -22 q0 -242 -130 -396 q-130 -154 -353 -154 q-225 0 -355 154.5 q-130 154.5 -130 395.5 l0 22 ZM301 529 q0 -172 72.5 -284 q72.5 -112 215.5 -112 q140 0 213 112 q73 112 73 284 l0 22 q0 170 -73 283 q-73 113 -215 113 q-142 0 -214 -113 q-72 -113 -72 -283 l0 -22 Z" /><glyph glyph-name="Uhorn" unicode="&#x1af;" d="M1274 1251 l6 -1 q124 1 174 76 q50 75 50 223 l171 0 l2 -5 q3 -209 -94.5 -321.5 q-97.5 -112.5 -308.5 -119.5 l0 -634 q0 -237 -154.5 -363.5 q-154.5 -126.5 -402.5 -126.5 q-241 0 -390.5 126.5 q-149.5 126.5 -149.5 363.5 l0 832 l-163 28 l0 127 l163 0 l361 0 l0 -127 l-163 -28 l0 -832 q0 -165 94 -250.5 q94 -85.5 248 -85.5 q162 0 261 85.5 q99 85.5 99 250.5 l0 832 l-163 28 l0 127 l360 0 l0 -205 Z" /><glyph glyph-name="uhorn" unicode="&#x1b0;" d="M1068 952 l6 -2 q103 -1 131.5 47.5 q28.5 48.5 28.5 170.5 l134 0 l2 -5 q3 -164 -63.5 -243.5 q-66.5 -79.5 -238.5 -84.5 l0 -681 l124 -28 l0 -126 l-301 0 l-13 160 q-51 -87 -131.5 -134 q-80.5 -47 -185.5 -47 q-176 0 -275 113 q-99 113 -99 352 l0 483 l-124 28 l0 127 l124 0 l197 0 l0 -640 q0 -173 51 -238 q51 -65 159 -65 q105 0 173.5 42.5 q68.5 42.5 103.5 120.5 l0 625 l-145 28 l0 127 l342 0 l0 -130 Z" /><glyph glyph-name="uni0237" unicode="&#x237;" d="M433 -89 q0 -167 -86 -257.5 q-86 -90.5 -239 -90.5 q-32 0 -58 4.5 q-26 4.5 -54 13.5 l13 150 q14 -5 47.5 -9 q33.5 -4 51.5 -4 q59 0 93.5 51.5 q34.5 51.5 34.5 141.5 l0 1016 l-163 28 l0 127 l360 0 l0 -1171 Z" /><glyph glyph-name="schwa" unicode="&#x259;" d="M516 1103 q225 0 359 -151 q134 -151 134 -390 l0 -44 q0 -232 -137.5 -385 q-137.5 -153 -324.5 -152 q-220 0 -332 131 q-112 131 -112 352 l0 123 l701 0 l3 5 q-3 155 -78.5 256 q-75.5 101 -212.5 101 q-101 0 -176 -29.5 q-75 -29.5 -130 -78.5 l-77 129 q58 56 153 94.5 q95 38.5 230 38.5 ZM547 135 q97 0 167 82.5 q70 82.5 86 209.5 l-2 5 l-498 0 l0 -25 q0 -117 62 -194.5 q62 -77.5 185 -77.5 Z" /><glyph glyph-name="circumflex" unicode="&#x2c6;" d="M717 1277 l0 -25 l-161 0 l-147 148 l-145 -148 l-160 0 l0 26 l246 237 l119 0 l248 -238 Z" /><glyph glyph-name="caron" unicode="&#x2c7;" d="M402 1367 l147 148 l170 0 l0 -18 l-257 -245 l-119 0 l-253 243 l0 20 l166 0 l146 -148 Z" /><glyph glyph-name="breve" unicode="&#x2d8;" d="M713 1456 l2 -6 q4 -116 -77 -189 q-81 -73 -218 -73 q-138 0 -219 73 q-81 73 -76 189 l2 6 l150 0 q0 -65 34.5 -106.5 q34.5 -41.5 108.5 -41.5 q72 0 107 41.5 q35 41.5 35 106.5 l151 0 Z" /><glyph glyph-name="dotaccent" unicode="&#x2d9;" d="M369 1255 l-217 0 l0 201 l217 0 l0 -201 Z" /><glyph glyph-name="ring" unicode="&#x2da;" d="M138 1308 q0 84 60.5 141 q60.5 57 147.5 57 q85 0 145 -56.5 q60 -56.5 60 -141.5 q0 -86 -60 -140 q-60 -54 -145 -54 q-87 0 -147.5 54 q-60.5 54 -60.5 140 ZM241 1308 q0 -43 31 -73.5 q31 -30.5 74 -30.5 q42 0 72 29.5 q30 29.5 30 74.5 q0 45 -30 76 q-30 31 -72 31 q-44 0 -74.5 -31 q-30.5 -31 -30.5 -76 Z" /><glyph glyph-name="ogonek" unicode="&#x2db;" d="M373 0 q-70 -52 -109.5 -99.5 q-39.5 -47.5 -39.5 -101.5 q0 -42 22.5 -66 q22.5 -24 73.5 -24 q27 0 50 7.5 q23 7.5 49 18.5 l33 -123 q-36 -19 -79.5 -31.5 q-43.5 -12.5 -103.5 -12.5 q-94 0 -154.5 55 q-60.5 55 -60.5 154 q0 80 60.5 152 q60.5 72 187.5 128 l71 -57 Z" /><glyph glyph-name="tilde" unicode="&#x2dc;" d="M820 1491 q0 -94 -59.5 -159 q-59.5 -65 -149.5 -65 q-71 0 -148 46.5 q-77 46.5 -128 46.5 q-42 0 -71.5 -32.5 q-29.5 -32.5 -29.5 -78.5 l-107 26 q0 93 58.5 161.5 q58.5 68.5 149.5 68.5 q56 0 140 -47 q84 -47 136 -47 q41 0 71 32.5 q30 32.5 30 79.5 l108 -32 Z" /><glyph glyph-name="hungarumlaut" unicode="&#x2dd;" d="M614 1518 l228 0 l3 -6 l-299 -260 l-171 0 l-2 5 l241 261 ZM288 1518 l211 0 l2 -5 l-240 -261 l-157 0 l184 266 Z" /><glyph glyph-name="uni02F3" unicode="&#x2f3;" d="M72 -235 q0 65 45.5 107.5 q45.5 42.5 111.5 42.5 q63 0 108 -42.5 q45 -42.5 45 -107.5 q0 -64 -44.5 -105 q-44.5 -41 -108.5 -41 q-66 0 -111.5 41 q-45.5 41 -45.5 105 ZM161 -235 q0 -26 20 -45.5 q20 -19.5 48 -19.5 q26 0 45 19 q19 19 19 46 q0 30 -19 49.5 q-19 19.5 -45 19.5 q-28 0 -48 -20 q-20 -20 -20 -49 Z" /><glyph glyph-name="gravecomb" unicode="&#x300;" d="M394 1210 l-131 0 l-176 348 l185 0 l122 -348 Z" /><glyph glyph-name="acutecomb" unicode="&#x301;" d="M244 1559 l182 0 l-188 -349 l-120 0 l126 349 Z" /><glyph glyph-name="hook" unicode="&#x309;" d="M154 1242 l-1 154 q76 4 108.5 19.5 q32.5 15.5 32.5 53.5 q0 39 -44 58 q-44 19 -115 19 l7 108 q146 0 225 -51.5 q79 -51.5 79 -137.5 q0 -70 -43.5 -106.5 q-43.5 -36.5 -107.5 -45.5 l-1 -71 l-140 0 Z" /><glyph glyph-name="uni030F" unicode="&#x30f;" d="M558 1257 l-2 -5 l-171 0 l-299 260 l3 6 l228 0 l241 -261 ZM827 1252 l-157 0 l-240 261 l2 5 l211 0 l184 -266 Z" /><glyph glyph-name="dotbelow" unicode="&#x323;" d="M299 -337 l-218 0 l0 200 l218 0 l0 -200 Z" /><glyph glyph-name="tonos" unicode="&#x384;" d="M196 1660 l208 0 l-175 -390 l-93 0 l60 390 Z" /><glyph glyph-name="dieresistonos" unicode="&#x385;" d="M858 1256 l-198 0 l0 200 l198 0 l0 -200 ZM349 1256 l-198 0 l0 200 l198 0 l0 -200 ZM472 1673 l218 0 l-126 -265 l-142 0 l50 265 Z" /><glyph glyph-name="Gamma" unicode="&#x393;" d="M77 126 l163 28 l0 1147 l-163 28 l0 127 l1056 0 l0 -322 l-169 0 l-15 167 l-512 0 l0 -1147 l163 -28 l0 -126 l-523 0 l0 126 Z" /><glyph glyph-name="Delta" unicode="&#x394;&#x2206;" d="M647 1456 l169 0 l576 -1456 l-1361 0 l616 1456 ZM295 154 l837 0 l-400 1050 l-6 0 l-431 -1050 Z" /><glyph glyph-name="Theta" unicode="&#x398;" d="M959 659 l-509 0 l0 154 l509 0 l0 -154 ZM1368 717 q0 -318 -182.5 -528 q-182.5 -210 -472.5 -210 q-282 0 -458 210 q-176 210 -176 528 l0 21 q0 317 176 528 q176 211 458 211 q290 0 472.5 -211 q182.5 -211 182.5 -528 l0 -21 ZM1171 740 q0 254 -121.5 414.5 q-121.5 160.5 -336.5 160.5 q-206 0 -321.5 -161 q-115.5 -161 -115.5 -414 l0 -23 q0 -256 115.5 -416.5 q115.5 -160.5 321.5 -160.5 q218 0 338 160 q120 160 120 417 l0 23 Z" /><glyph glyph-name="Lambda" unicode="&#x39b;" d="M52 126 l105 15 l482 1315 l170 0 l482 -1315 l106 -15 l0 -126 l-418 0 l0 126 l111 19 l-363 1026 l-6 0 l-364 -1026 l112 -19 l0 -126 l-417 0 l0 126 Z" /><glyph glyph-name="Xi" unicode="&#x39e;" d="M66 321 l168 0 l15 -167 l690 0 l16 167 l167 0 l0 -321 l-1056 0 l0 321 ZM1111 1456 l0 -322 l-169 0 l-15 167 l-677 0 l-15 -167 l-169 0 l0 322 l1045 0 ZM278 833 l623 0 l0 -155 l-623 0 l0 155 Z" /><glyph glyph-name="Pi" unicode="&#x3a0;" d="M77 126 l163 28 l0 1147 l-163 28 l0 127 l1428 0 l0 -127 l-163 -28 l0 -1147 l163 -28 l0 -126 l-523 0 l0 126 l163 28 l0 1147 l-708 0 l0 -1147 l163 -28 l0 -126 l-523 0 l0 126 Z" /><glyph glyph-name="Sigma" unicode="&#x3a3;" d="M767 715 l-446 -555 l3 -5 l597 0 l15 167 l168 0 l0 -322 l-1025 0 l0 147 l479 581 l-479 581 l0 147 l976 0 l0 -322 l-169 0 l-15 167 l-547 0 l-3 -5 l446 -557 l0 -24 Z" /><glyph glyph-name="Phi" unicode="&#x3a6;" d="M629 213 q-236 0 -393 142.5 q-157 142.5 -157 366.5 q0 223 157 366.5 q157 143.5 393 143.5 l8 0 l0 69 l-163 28 l0 127 l163 0 l360 0 l0 -127 l-163 -28 l0 -69 l6 0 q236 0 394 -142.5 q158 -142.5 158 -365.5 q0 -224 -158.5 -367.5 q-158.5 -143.5 -393.5 -143.5 l-6 0 l0 -59 l163 -28 l0 -126 l-523 0 l0 126 l163 28 l0 59 l-8 0 ZM629 1078 q-170 0 -262.5 -96 q-92.5 -96 -92.5 -260 q0 -165 92 -259.5 q92 -94.5 263 -94.5 l8 0 l0 710 l-8 0 ZM834 1078 l0 -710 l8 0 q168 0 261 95.5 q93 95.5 93 260.5 q0 163 -93 258.5 q-93 95.5 -261 95.5 l-8 0 Z" /><glyph glyph-name="Psi" unicode="&#x3a8;" d="M1080 1456 l0 -127 l-163 -28 l0 -776 l6 -2 q144 19 230.5 124 q86.5 105 86.5 278 l0 531 l360 0 l0 -127 l-163 -28 l0 -376 q0 -245 -143 -393.5 q-143 -148.5 -377 -172.5 l0 -205 l163 -28 l0 -126 l-523 0 l0 126 l163 28 l0 206 q-228 24 -365 172 q-137 148 -137 393 l0 376 l-163 28 l0 127 l163 0 l196 0 l0 -531 q0 -170 82 -275 q82 -105 218 -125 l6 1 l0 775 l-163 28 l0 127 l360 0 l163 0 Z" /><glyph glyph-name="Omega" unicode="&#x3a9;&#x2126;" d="M737 197 q151 25 235 169.5 q84 144.5 84 395.5 l0 57 q0 243 -102.5 373 q-102.5 130 -281.5 130 q-179 0 -280.5 -130 q-101.5 -130 -101.5 -373 l0 -57 q0 -252 86 -396.5 q86 -144.5 239 -168.5 l0 -197 l-496 0 l0 154 l275 0 q-138 92 -219.5 259 q-81.5 167 -81.5 349 l0 55 q0 292 160.5 476 q160.5 184 418.5 184 q258 0 419.5 -184 q161.5 -184 161.5 -476 l0 -55 q0 -182 -81.5 -349 q-81.5 -167 -218.5 -259 l281 0 l0 -154 l-497 0 l0 197 Z" /><glyph glyph-name="alpha" unicode="&#x3b1;" d="M1017 1082 l0 -786 q0 -84 20 -116 q20 -32 56 -32 q8 0 16.5 1.5 q8.5 1.5 14.5 4.5 l24 -141 q-30 -20 -60 -27 q-30 -7 -67 -7 q-71 0 -117 37.5 q-46 37.5 -67 119.5 q-53 -78 -130.5 -117.5 q-77.5 -39.5 -181.5 -39.5 q-198 0 -309.5 143.5 q-111.5 143.5 -111.5 377.5 l0 21 q0 261 111.5 421 q111.5 160 311.5 160 q100 0 176.5 -39.5 q76.5 -39.5 129.5 -113.5 l17 133 l167 0 ZM301 500 q0 -165 67 -266 q67 -101 207 -101 q87 0 146.5 46 q59.5 46 98.5 130 l0 460 q-40 83 -99.5 130.5 q-59.5 47.5 -143.5 47.5 q-141 0 -208.5 -119 q-67.5 -119 -67.5 -307 l0 -21 Z" /><glyph glyph-name="beta" unicode="&#x3b2;" d="M592 1477 q195 0 313 -110 q118 -110 118 -284 q0 -91 -49.5 -167 q-49.5 -76 -136.5 -122 q119 -44 185 -142 q66 -98 66 -227 q0 -209 -126.5 -327.5 q-126.5 -118.5 -328.5 -118.5 q-82 0 -158.5 22 q-76.5 22 -134.5 68 l0 -452 l-197 0 l0 1456 q0 166 132.5 285 q132.5 119 316.5 119 ZM588 860 q122 0 180 60.5 q58 60.5 58 166.5 q0 95 -62.5 165 q-62.5 70 -171.5 70 q-107 0 -179.5 -71.5 q-72.5 -71.5 -72.5 -177.5 l0 -831 q44 -51 114.5 -80 q70.5 -29 158.5 -29 q129 0 203.5 80 q74.5 80 74.5 208 q0 112 -65.5 198 q-65.5 86 -176.5 86 l-143 0 l0 155 l82 0 Z" /><glyph glyph-name="gamma" unicode="&#x3b3;" d="M1063 955 l-86 -14 l-324 -881 l0 -476 l-197 0 l0 467 l-287 813 q-14 39 -30.5 50.5 q-16.5 11.5 -49.5 11.5 q-9 0 -15 -1 q-6 -1 -36 -6 l-18 149 q25 11 64.5 18.5 q39.5 7.5 70.5 7.5 q72 0 108 -28 q36 -28 64 -113 l208 -634 l17 -84 l6 0 l21 84 l201 615 l-135 21 l0 127 l418 0 l0 -127 Z" /><glyph glyph-name="delta" unicode="&#x3b4;" d="M221 1268 q0 137 101 216.5 q101 79.5 280 79.5 q75 0 154 -23 q79 -23 159 -62 l-44 -133 q-57 22 -130 40.5 q-73 18.5 -143 18.5 q-83 0 -130.5 -36.5 q-47.5 -36.5 -47.5 -96.5 q0 -47 48.5 -94.5 q48.5 -47.5 174.5 -90.5 q212 -74 317.5 -213.5 q105.5 -139.5 105.5 -343.5 l0 -21 q0 -232 -130 -380.5 q-130 -148.5 -353 -148.5 q-225 0 -355.5 148.5 q-130.5 148.5 -130.5 380.5 l0 21 q0 171 92.5 297 q92.5 126 230.5 160 l4 11 q-96 38 -149.5 109 q-53.5 71 -53.5 161 ZM295 509 q0 -164 73 -270 q73 -106 215 -106 q140 0 212.5 106 q72.5 106 72.5 270 l0 21 q0 131 -79.5 241.5 q-79.5 110.5 -205.5 135.5 q-141 0 -214.5 -107.5 q-73.5 -107.5 -73.5 -269.5 l0 -21 Z" /><glyph glyph-name="epsilon" unicode="&#x3b5;" d="M105 305 q0 91 51 155 q51 64 150 96 q-86 35 -134 96 q-48 61 -48 134 q0 151 116 232.5 q116 81.5 318 81.5 q183 0 307.5 -87.5 q124.5 -87.5 119.5 -226.5 l-2 -6 l-186 0 q0 70 -69.5 119 q-69.5 49 -169.5 49 q-116 0 -176.5 -47.5 q-60.5 -47.5 -60.5 -114.5 q0 -74 54 -116.5 q54 -42.5 169 -42.5 l210 0 l0 -150 l-210 0 q-120 0 -180.5 -42.5 q-60.5 -42.5 -60.5 -129.5 q0 -73 68.5 -123 q68.5 -50 186.5 -50 q112 0 184.5 56 q72.5 56 72.5 132 l186 0 l2 -6 q5 -162 -128 -247.5 q-133 -85.5 -317 -85.5 q-202 0 -327.5 86.5 q-125.5 86.5 -125.5 237.5 Z" /><glyph glyph-name="zeta" unicode="&#x3b6;" d="M970 1456 l0 -123 l-342 -421 q-129 -153 -185.5 -266.5 q-56.5 -113.5 -56.5 -258.5 q0 -97 32.5 -146.5 q32.5 -49.5 110.5 -66.5 l133 -38 q153 -45 208 -79.5 q55 -34.5 55 -142.5 q-2 -72 -58.5 -158.5 q-56.5 -86.5 -119.5 -138.5 l-104 86 q49 57 71.5 98.5 q22.5 41.5 22.5 82.5 q0 35 -36 60.5 q-36 25.5 -116 46.5 l-90 23 q-171 45 -238.5 127 q-67.5 82 -67.5 241 q0 120 69.5 280.5 q69.5 160.5 213.5 329.5 l268 304 l-2 5 l-623 0 l0 155 l855 0 Z" /><glyph glyph-name="eta" unicode="&#x3b7;" d="M198 0 l0 821 q0 57 -20 79 q-20 22 -54 22 q-20 0 -45.5 -7.5 q-25.5 -7.5 -38.5 -13.5 l-44 141 q41 28 93 44 q52 16 105 16 q82 0 132 -40 q50 -40 64 -126 q54 79 133.5 122.5 q79.5 43.5 178.5 43.5 q177 0 271.5 -97.5 q94.5 -97.5 94.5 -321.5 l0 -1098 l-197 0 l0 1094 q0 143 -57 205.5 q-57 62.5 -173 62.5 q-85 0 -146.5 -33.5 q-61.5 -33.5 -99.5 -93.5 l0 -820 l-197 0 Z" /><glyph glyph-name="theta" unicode="&#x3b8;" d="M1054 555 q0 -279 -124 -427.5 q-124 -148.5 -339 -148.5 q-214 0 -339 149 q-125 149 -125 427 l0 345 q0 278 124 427.5 q124 149.5 338 149.5 q215 0 340 -149.5 q125 -149.5 125 -427.5 l0 -345 ZM324 803 l533 0 l0 139 q0 189 -68.5 284.5 q-68.5 95.5 -199.5 95.5 q-129 0 -197 -95.5 q-68 -95.5 -68 -284.5 l0 -139 ZM857 648 l-533 0 l0 -133 q0 -189 69 -285.5 q69 -96.5 198 -96.5 q131 0 198.5 96 q67.5 96 67.5 286 l0 133 Z" /><glyph glyph-name="iota" unicode="&#x3b9;" d="M392 268 q0 -74 26 -101.5 q26 -27.5 71 -27.5 q25 0 49 7 q24 7 43 19 l44 -133 q-46 -31 -90 -42 q-44 -11 -98 -11 q-119 0 -181 71 q-62 71 -62 229 l0 648 l-163 28 l0 127 l361 0 l0 -814 Z" /><glyph glyph-name="lambda" unicode="&#x3bb;" d="M253 0 l-218 0 l389 1026 l-99 239 q-22 54 -47.5 76 q-25.5 22 -66.5 22 q-9 0 -23.5 -1 q-14.5 -1 -23.5 -1 l-1 145 q17 4 55 8 q38 4 64 4 q97 0 145.5 -39 q48.5 -39 76.5 -124 l441 -1119 q18 -49 39.5 -69 q21.5 -20 55.5 -20 q12 0 20.5 0 q8.5 0 15.5 2 l6 -154 q-15 -4 -36.5 -8 q-21.5 -4 -42.5 -4 q-98 0 -150.5 38.5 q-52.5 38.5 -99.5 165.5 l-234 600 l-6 -1 l-30 -116 l-230 -670 Z" /><glyph glyph-name="xi" unicode="&#x3be;" d="M878 1285 q-62 17 -116 26.5 q-54 9.5 -108 9.5 q-146 0 -220.5 -53.5 q-74.5 -53.5 -74.5 -131.5 q0 -103 77 -160.5 q77 -57.5 241 -57.5 l143 0 l0 -155 l-143 0 q-188 0 -285 -79 q-97 -79 -97 -240 q0 -123 77 -198 q77 -75 191 -101 l113 -24 q144 -34 204 -72 q60 -38 60 -148 q-2 -72 -58.5 -157 q-56.5 -85 -120.5 -138 l-103 86 q55 64 74.5 97.5 q19.5 33.5 19.5 86.5 q0 42 -35 63.5 q-35 21.5 -119 39.5 l-56 13 q-222 51 -333 149 q-111 98 -111 307 q0 147 82.5 247 q82.5 100 230.5 147 q-117 42 -183 118.5 q-66 76.5 -66 171.5 q0 161 132 252 q132 91 358 91 q67 0 137.5 -11 q70.5 -11 117.5 -27 l-29 -152 Z" /><glyph glyph-name="pi" unicode="&#x3c0;" d="M1114 926 l-164 0 l0 -658 q0 -74 26 -101.5 q26 -27.5 71 -27.5 q25 0 49 7 q24 7 43 19 l44 -133 q-46 -31 -90 -42 q-44 -11 -98 -11 q-119 0 -181 71 q-62 71 -62 229 l0 647 l-353 0 l0 -926 l-197 0 l0 926 l-127 0 l0 156 l1039 0 l0 -156 Z" /><glyph glyph-name="rho" unicode="&#x3c1;" d="M1051 500 q0 -235 -109.5 -378 q-109.5 -143 -306.5 -143 q-97 0 -173 30 q-76 30 -131 88 l0 -513 l-197 0 l0 992 l0 1 q0 247 128 386 q128 139 320 139 q228 0 348.5 -158.5 q120.5 -158.5 120.5 -422.5 l0 -21 ZM854 521 q0 189 -66 307.5 q-66 118.5 -206 118.5 q-123 0 -187 -115.5 q-64 -115.5 -64 -255.5 l0 -303 q37 -67 96.5 -103.5 q59.5 -36.5 146.5 -36.5 q140 0 210 102 q70 102 70 265 l0 21 Z" /><glyph glyph-name="sigma1" unicode="&#x3c2;" d="M573 1102 q188 0 304.5 -104.5 q116.5 -104.5 112.5 -282.5 l-2 -6 l-178 0 q0 104 -61 171 q-61 67 -176 67 q-137 0 -207 -115 q-70 -115 -70 -270 l0 -42 q0 -135 86.5 -227 q86.5 -92 261.5 -139 q155 -43 218.5 -83 q63.5 -40 63.5 -150 q-2 -71 -59 -157 q-57 -86 -120 -138 l-103 86 q54 64 73.5 98 q19.5 34 19.5 86 q0 43 -34 64 q-34 21 -119 40 q-240 52 -362.5 181.5 q-122.5 129.5 -122.5 338.5 l0 42 q0 227 127.5 383.5 q127.5 156.5 346.5 156.5 Z" /><glyph glyph-name="sigma" unicode="&#x3c3;" d="M1155 926 l-277 0 q94 -72 144.5 -178 q50.5 -106 50.5 -236 l0 -22 q0 -210 -132 -360.5 q-132 -150.5 -352 -150.5 q-224 0 -354 154.5 q-130 154.5 -130 395.5 l0 22 q0 232 129.5 381.5 q129.5 149.5 352.5 149.5 l568 0 l0 -156 ZM302 529 q0 -172 72 -284 q72 -112 215 -112 q141 0 214 112 q73 112 73 284 l0 22 q0 161 -73.5 268 q-73.5 107 -215.5 107 l-1 0 q-141 -1 -212.5 -107.5 q-71.5 -106.5 -71.5 -267.5 l0 -22 Z" /><glyph glyph-name="tau" unicode="&#x3c4;" d="M947 1082 l0 -153 l-350 0 l0 -661 q0 -73 26.5 -101 q26.5 -28 71.5 -28 q24 0 48 7.5 q24 7.5 43 18.5 l45 -132 q-46 -32 -90.5 -43 q-44.5 -11 -97.5 -11 q-119 0 -181 71 q-62 71 -62 229 l0 650 l-338 0 l0 153 l885 0 Z" /><glyph glyph-name="upsilon" unicode="&#x3c5;" d="M426 427 q0 -153 52 -223.5 q52 -70.5 142 -70.5 q134 0 213 131 q79 131 79 299 q-3 126 -36 254.5 q-33 128.5 -88 264.5 l206 0 q51 -106 83 -235 q32 -129 32 -284 q0 -248 -123 -416 q-123 -168 -356 -168 q-192 0 -296.5 110.5 q-104.5 110.5 -104.5 339.5 l0 392 q0 58 -20 79.5 q-20 21.5 -55 21.5 q-20 0 -45.5 -7.5 q-25.5 -7.5 -38.5 -13.5 l-45 141 q42 28 94.5 44 q52.5 16 104.5 16 q98 0 150 -56 q52 -56 52 -179 l0 -440 Z" /><glyph glyph-name="phi" unicode="&#x3c6;" d="M647 -16 q-274 25 -404 185.5 q-130 160.5 -130 394.5 q0 168 63.5 299.5 q63.5 131.5 191.5 218.5 l107 -136 q-83 -74 -122 -173.5 q-39 -99.5 -43 -208.5 q0 -155 81 -274.5 q81 -119.5 250 -142.5 l6 2 l0 675 q0 102 79.5 180 q79.5 78 198.5 78 q194 0 333 -155 q139 -155 139 -383 q0 -226 -135 -381.5 q-135 -155.5 -418 -178.5 l0 -462 l-197 0 l0 462 ZM844 148 l6 -3 q177 22 263.5 136.5 q86.5 114.5 86.5 262.5 q-4 156 -76 269 q-72 113 -199 113 q-40 0 -60.5 -26.5 q-20.5 -26.5 -20.5 -68.5 l0 -683 Z" /><glyph glyph-name="chi" unicode="&#x3c7;" d="M62 126 l116 23 l309 388 l-299 395 l-116 23 l0 127 l261 -1 l276 -392 l194 255 l-97 11 l0 127 l427 0 l0 -127 l-116 -23 l-308 -380 l317 -403 l117 -23 l0 -126 l-247 0 l-293 409 l-212 -272 l97 -11 l0 -126 l-426 0 l0 126 Z" /><glyph glyph-name="psi" unicode="&#x3c8;" d="M398 594 q0 -204 82 -313.5 q82 -109.5 222 -130.5 l6 2 l0 929 l197 0 l0 -933 l6 -2 q183 20 271 141 q88 121 88 280 q-3 125 -35.5 253 q-32.5 128 -88.5 262 l206 0 q51 -106 83 -234 q32 -128 32 -281 q0 -241 -135.5 -402.5 q-135.5 -161.5 -426.5 -182.5 l0 -456 l-197 0 l0 460 q-243 27 -375 178 q-132 151 -132 432 l0 225 q0 57 -20 79 q-20 22 -54 22 q-20 0 -45.5 -7.5 q-25.5 -7.5 -38.5 -13.5 l-44 141 q40 28 92.5 44 q52.5 16 105.5 16 q97 0 149 -55.5 q52 -55.5 52 -178.5 l0 -274 Z" /><glyph glyph-name="omega" unicode="&#x3c9;" d="M457 1082 q-66 -136 -104 -264.5 q-38 -128.5 -40 -255.5 q0 -190 50.5 -309.5 q50.5 -119.5 160.5 -119.5 q98 0 156 81 q58 81 58 256 l0 300 l198 0 l0 -300 q0 -175 57.5 -256 q57.5 -81 156.5 -81 q110 0 161 118.5 q51 118.5 51 310.5 q-4 127 -42 256.5 q-38 129.5 -102 263.5 l206 0 q60 -106 97.5 -236 q37.5 -130 37.5 -284 q0 -255 -96 -419 q-96 -164 -302 -164 q-119 0 -201 59.5 q-82 59.5 -123 175.5 q-41 -115 -123.5 -175 q-82.5 -60 -199.5 -60 q-207 0 -302.5 164 q-95.5 164 -95.5 419 q0 155 37 285 q37 130 98 235 l206 0 Z" /><glyph glyph-name="uni03D1" unicode="&#x3d1;" d="M654 140 q165 0 260 118.5 q95 118.5 97 326.5 q-217 8 -349.5 133.5 q-132.5 125.5 -132.5 317.5 l0 62 q0 173 94.5 276 q94.5 103 244.5 103 q157 0 248 -101 q91 -101 91 -278 l0 -506 q0 -278 -152 -445.5 q-152 -167.5 -401 -167.5 q-237 0 -385 174 q-148 174 -148 439 l0 660 l197 2 l0 -662 q0 -200 90.5 -326 q90.5 -126 245.5 -126 ZM726 1034 q0 -120 75 -199 q75 -79 204 -83 l6 2 l0 344 q0 108 -36.5 162.5 q-36.5 54.5 -106.5 54.5 q-66 0 -104 -54.5 q-38 -54.5 -38 -162.5 l0 -64 Z" /><glyph glyph-name="uni03D2" unicode="&#x3d2;" d="M817 1239 q51 124 112.5 176 q61.5 52 142.5 52 q34 0 59 -5 q25 -5 51 -19 l-23 -152 q-6 3 -16.5 5.5 q-10.5 2.5 -23.5 2.5 q-34 0 -61 -17.5 q-27 -17.5 -44 -56.5 l-299 -645 l0 -580 l-196 0 l0 578 l-300 647 q-18 39 -45 56.5 q-27 17.5 -60 17.5 q-14 0 -24.5 -2.5 q-10.5 -2.5 -14.5 -5.5 l-23 152 q24 14 49 19 q25 5 60 5 q81 0 142.5 -52 q61.5 -52 113.5 -176 l178 -406 l18 -68 l6 0 l19 68 l179 406 Z" /><glyph glyph-name="uni03D6" unicode="&#x3d6;" d="M1588 926 l-134 0 q29 -81 45.5 -172 q16.5 -91 16.5 -192 q0 -255 -86.5 -419 q-86.5 -164 -271.5 -164 q-119 0 -201 60 q-82 60 -122 176 q-41 -116 -123 -176 q-82 -60 -200 -60 q-185 0 -271.5 164.5 q-86.5 164.5 -86.5 418.5 q0 101 16 192 q16 91 46 172 l-111 0 l0 156 l1483 0 l0 -156 ZM1319 562 q-3 89 -22.5 180 q-19.5 91 -54.5 184 l-814 0 q-35 -94 -55 -185 q-20 -91 -22 -179 q0 -190 41.5 -309.5 q41.5 -119.5 130.5 -119.5 q98 0 156 81 q58 81 58 256 l0 250 l198 0 l0 -250 q0 -175 57.5 -256 q57.5 -81 156.5 -81 q87 0 128.5 119 q41.5 119 41.5 310 Z" /><glyph glyph-name="uni0402" unicode="&#x402;" d="M1245 1134 l-169 0 l-15 167 l-364 0 l0 -461 q81 22 156.5 37 q75.5 15 128.5 15 q246 0 383 -121 q137 -121 137 -338 q0 -216 -126.5 -329 q-126.5 -113 -364.5 -110 l-5 2 l-2 141 q162 0 231.5 76 q69.5 76 69.5 220 q-2 143 -82.5 218.5 q-80.5 75.5 -240.5 75.5 q-62 0 -138.5 -12.5 q-76.5 -12.5 -146.5 -33.5 l0 -527 l144 -28 l0 -126 l-504 0 l0 126 l163 28 l0 1147 l-243 0 l-15 -167 l-168 0 l0 322 l1171 0 l0 -322 Z" /><glyph glyph-name="uni0404" unicode="&#x404;" d="M844 659 l-591 0 l0 154 l591 0 l0 -154 ZM1181 1010 l-139 0 l-37 206 q-48 47 -118 77 q-70 30 -167 30 q-227 0 -349 -164.5 q-122 -164.5 -122 -417.5 l0 -23 q0 -253 119.5 -418.5 q119.5 -165.5 331.5 -165.5 q99 0 180 31 q81 31 125 76 l37 206 l139 0 l0 -259 q-63 -81 -189 -144.5 q-126 -63.5 -292 -63.5 q-284 0 -466 210 q-182 210 -182 528 l0 21 q0 320 179 529.5 q179 209.5 469 209.5 q166 0 292 -64.5 q126 -64.5 189 -144.5 l0 -259 Z" /><glyph glyph-name="uni0409" unicode="&#x409;" d="M1444 1329 l-163 -28 l0 -412 l359 0 q232 0 361 -123.5 q129 -123.5 129 -321.5 q0 -198 -129 -321 q-129 -123 -361 -123 l-556 0 l0 1301 l-504 0 l-1 -531 q-1 -401 -108.5 -585.5 q-107.5 -184.5 -358.5 -184.5 l-52 0 l0 154 l40 0 q150 0 216 142.5 q66 142.5 67 473.5 l0 531 l-163 28 l0 127 l1224 0 l0 -127 ZM1281 735 l0 -581 l359 0 q147 0 220.5 84.5 q73.5 84.5 73.5 207.5 q0 121 -73.5 205 q-73.5 84 -220.5 84 l-359 0 Z" /><glyph glyph-name="uni040A" unicode="&#x40a;" d="M77 1329 l0 127 l523 0 l0 -127 l-163 -28 l0 -474 l708 0 l0 474 l-163 28 l0 127 l163 0 l197 0 l163 0 l0 -127 l-163 -28 l0 -461 l359 0 q233 0 362 -114 q129 -114 129 -302 q0 -189 -129.5 -306.5 q-129.5 -117.5 -361.5 -117.5 l-719 0 l0 126 l163 28 l0 519 l-708 0 l0 -519 l163 -28 l0 -126 l-523 0 l0 126 l163 28 l0 1147 l-163 28 ZM1342 685 l0 -520 l359 0 q148 0 221.5 74 q73.5 74 73.5 187 q0 112 -73.5 185.5 q-73.5 73.5 -221.5 73.5 l-359 0 Z" /><glyph glyph-name="uni040B" unicode="&#x40b;" d="M1227 1134 l-169 0 l-15 167 l-343 0 l0 -433 q76 20 155 30 q79 10 183 10 q240 0 364.5 -106 q124.5 -106 124.5 -342 l0 -306 l163 -28 l0 -126 l-523 0 l0 126 l163 28 l0 306 q0 164 -69.5 228 q-69.5 64 -222.5 64 q-89 0 -172 -11 q-83 -11 -166 -30 l0 -557 l163 -28 l0 -126 l-524 0 l0 126 l163 28 l0 1147 l-263 0 l-14 -167 l-169 0 l0 322 l1171 0 l0 -322 Z" /><glyph glyph-name="uni040F" unicode="&#x40f;" d="M1505 1329 l-163 -28 l0 -1147 l163 -28 l0 -126 l-609 0 l0 -359 l-197 0 l0 359 l-622 0 l0 126 l163 28 l0 1147 l-163 28 l0 127 l360 0 l163 0 l0 -127 l-163 -28 l0 -1147 l708 0 l0 1147 l-163 28 l0 127 l523 0 l0 -127 Z" /><glyph glyph-name="uni0411" unicode="&#x411;" d="M1116 1134 l-169 0 l-15 167 l-502 0 l0 -441 l359 0 q234 0 362.5 -115 q128.5 -115 128.5 -311 q0 -197 -129 -315.5 q-129 -118.5 -362 -118.5 l-729 0 l0 126 l163 28 l0 1147 l-163 28 l0 127 l1056 0 l0 -322 ZM430 705 l0 -551 l359 0 q148 0 221 80 q73 80 73 202 q0 118 -73 193.5 q-73 75.5 -221 75.5 l-359 0 Z" /><glyph glyph-name="uni0414" unicode="&#x414;" d="M1462 1456 l0 -127 l-163 -28 l0 -1147 l200 0 l-20 -511 l-177 0 l0 357 l-1050 0 l0 -359 l-168 0 l-29 513 l125 0 q76 88 140 256 q64 168 70 457 l24 435 l-154 27 l0 127 l1039 0 l163 0 ZM589 867 q-9 -238 -60 -419 q-51 -181 -131 -294 l704 0 l0 1147 l-490 0 l-23 -434 Z" /><glyph glyph-name="uni0416" unicode="&#x416;" d="M747 634 l-301 -495 l79 -13 l0 -126 l-462 0 l0 126 l146 21 l388 614 l-266 424 q-39 59 -73 84.5 q-34 25.5 -81 25.5 q-22 0 -43.5 -3 q-21.5 -3 -42.5 -7 l-29 138 q32 21 69 32.5 q37 11.5 86 11.5 q83 0 146.5 -40 q63.5 -40 133.5 -153 l290 -474 l142 0 l0 501 l-163 28 l0 127 l359 0 l163 0 l0 -127 l-163 -28 l0 -501 l154 0 l290 474 q69 113 132 153 q63 40 148 40 q48 0 85 -11.5 q37 -11.5 69 -32.5 l-29 -138 q-21 4 -42.5 7 q-21.5 3 -42.5 3 q-48 0 -82 -25.5 q-34 -25.5 -73 -84.5 l-279 -433 l382 -605 l146 -21 l0 -126 l-461 0 l0 126 l78 13 l-300 495 l-175 0 l0 -480 l163 -28 l0 -126 l-522 0 l0 126 l163 28 l0 480 l-182 0 Z" /><glyph glyph-name="uni0417" unicode="&#x417;" d="M1096 1062 q0 -101 -63 -184 q-63 -83 -173 -131 q125 -42 191.5 -129 q66.5 -87 66.5 -212 q0 -200 -148.5 -313.5 q-148.5 -113.5 -388.5 -113.5 q-209 0 -359.5 107 q-150.5 107 -145.5 312 l2 6 l188 0 q0 -114 88 -192.5 q88 -78.5 227 -78.5 q159 0 249.5 74.5 q90.5 74.5 90.5 194.5 q0 133 -82 197.5 q-82 64.5 -242 64.5 l-164 0 l0 156 l164 0 q154 0 228 65.5 q74 65.5 74 180.5 q0 113 -83.5 184.5 q-83.5 71.5 -253.5 71.5 q-98 0 -169 -30.5 q-71 -30.5 -116 -76.5 l-38 -205 l-138 0 l0 258 q62 80 188 144.5 q126 64.5 292 64.5 q239 0 377 -108 q138 -108 138 -307 Z" /><glyph glyph-name="uni0418" unicode="&#x418;" d="M600 1456 l0 -127 l-163 -28 l0 -839 l6 -2 l700 749 l0 92 l-163 28 l0 127 l163 0 l197 0 l163 0 l0 -127 l-163 -28 l0 -1147 l163 -28 l0 -126 l-523 0 l0 126 l163 28 l0 812 l-6 2 l-700 -750 l0 -64 l163 -28 l0 -126 l-523 0 l0 126 l163 28 l0 1147 l-163 28 l0 127 l163 0 l197 0 l163 0 Z" /><glyph glyph-name="uni041A" unicode="&#x41a;" d="M71 126 l163 28 l0 1147 l-163 28 l0 127 l523 0 l0 -127 l-163 -28 l0 -501 l159 0 l329 474 q81 112 141 152.5 q60 40.5 139 40.5 q47 0 79.5 -11.5 q32.5 -11.5 68.5 -33.5 l-29 -139 q-27 5 -47.5 8.5 q-20.5 3.5 -40.5 3.5 q-47 0 -79.5 -25 q-32.5 -25 -75.5 -85 l-313 -436 l484 -598 l137 -25 l0 -126 l-478 0 l0 126 l111 14 l-397 494 l-188 0 l0 -480 l163 -28 l0 -126 l-523 0 l0 126 Z" /><glyph glyph-name="uni041B" unicode="&#x41b;" d="M578 1301 l-24 -531 q-19 -410 -114.5 -590 q-95.5 -180 -330.5 -180 l-52 0 l0 154 l40 0 q135 0 190.5 137.5 q55.5 137.5 70.5 478.5 l24 532 l-156 27 l0 127 l1215 0 l0 -127 l-163 -28 l0 -1147 l163 -28 l0 -126 l-523 0 l0 126 l163 28 l0 1147 l-503 0 Z" /><glyph glyph-name="uni0423" unicode="&#x423;" d="M1300 1329 l-114 -17 l-449 -1073 q-59 -131 -128.5 -195.5 q-69.5 -64.5 -221.5 -64.5 q-25 0 -58.5 3 q-33.5 3 -42.5 6 l6 149 q10 -2 43 -3 q33 -1 50 -1 q71 0 101.5 35.5 q30.5 35.5 69.5 116.5 l39 83 l-423 943 l-118 18 l0 127 l457 0 l0 -127 l-122 -19 l221 -535 l73 -188 l6 0 l273 722 l-127 20 l0 127 l465 0 l0 -127 Z" /><glyph glyph-name="uni0424" unicode="&#x424;" d="M673 174 q-253 0 -421 153.5 q-168 153.5 -168 395.5 q0 240 168.5 395 q168.5 155 420.5 155 l29 0 l0 107 l-163 29 l0 126 l523 0 l0 -126 l-163 -29 l0 -107 l26 0 q252 0 421.5 -154 q169.5 -154 169.5 -394 q0 -242 -169.5 -396.5 q-169.5 -154.5 -421.5 -154.5 l-26 0 l0 -98 l163 -29 l0 -126 l-523 0 l0 126 l163 29 l0 98 l-29 0 ZM673 1118 q-189 0 -291.5 -107 q-102.5 -107 -102.5 -288 q0 -183 102.5 -289 q102.5 -106 291.5 -106 l29 0 l0 790 l-29 0 ZM899 1118 l0 -790 l28 0 q186 0 289.5 107 q103.5 107 103.5 290 q0 180 -103.5 286.5 q-103.5 106.5 -289.5 106.5 l-28 0 Z" /><glyph glyph-name="uni0426" unicode="&#x426;" d="M1505 1329 l-163 -28 l0 -1147 l190 0 l0 -505 l-195 0 l0 351 l-1260 0 l0 126 l163 28 l0 1147 l-163 28 l0 127 l163 0 l197 0 l163 0 l0 -127 l-163 -28 l0 -1147 l708 0 l0 1147 l-163 28 l0 127 l523 0 l0 -127 Z" /><glyph glyph-name="uni0427" unicode="&#x427;" d="M942 126 l163 28 l0 449 q-95 -29 -184 -42 q-89 -13 -211 -13 q-240 0 -364 105 q-124 105 -124 343 l0 305 l-163 28 l0 127 l523 0 l0 -127 l-163 -28 l0 -305 q0 -165 69 -228.5 q69 -63.5 222 -63.5 q104 0 200 14 q96 14 195 41 l0 542 l-163 28 l0 127 l163 0 l361 0 l0 -127 l-163 -28 l0 -1147 l163 -28 l0 -126 l-524 0 l0 126 Z" /><glyph glyph-name="uni0428" unicode="&#x428;" d="M77 126 l163 28 l0 1147 l-163 28 l0 127 l360 0 l163 0 l0 -127 l-163 -28 l0 -1147 l492 0 l0 1147 l-163 28 l0 127 l522 0 l0 -127 l-163 -28 l0 -1147 l490 0 l0 1147 l-163 28 l0 127 l163 0 l197 0 l163 0 l0 -127 l-163 -28 l0 -1147 l163 -28 l0 -126 l-1898 0 l0 126 Z" /><glyph glyph-name="uni0429" unicode="&#x429;" d="M1975 1456 l0 -127 l-163 -28 l0 -1146 l180 0 l-20 -506 l-175 0 l0 351 l-1720 0 l0 126 l163 28 l0 1147 l-163 28 l0 127 l163 0 l197 0 l163 0 l0 -127 l-163 -28 l0 -1147 l492 0 l0 1147 l-163 28 l0 127 l163 0 l359 0 l0 -127 l-163 -28 l0 -1147 l490 0 l0 1147 l-163 28 l0 127 l163 0 l360 0 Z" /><glyph glyph-name="uni042A" unicode="&#x42a;" d="M245 1301 l-14 -166 l-169 0 l0 321 l729 0 l163 0 l0 -127 l-163 -28 l0 -441 l359 0 q234 0 362.5 -115 q128.5 -115 128.5 -311 q0 -197 -129 -315.5 q-129 -118.5 -362 -118.5 l-719 0 l0 126 l163 28 l0 1147 l-349 0 ZM791 705 l0 -551 l359 0 q148 0 221 80 q73 80 73 202 q0 118 -73 193.5 q-73 75.5 -221 75.5 l-359 0 Z" /><glyph glyph-name="uni042B" unicode="&#x42b;" d="M447 1456 l0 -596 l359 0 q234 0 362.5 -115 q128.5 -115 128.5 -311 q0 -197 -129 -315.5 q-129 -118.5 -362 -118.5 l-719 0 l0 126 l163 28 l0 1147 l-163 28 l0 127 l163 0 l197 0 ZM1329 126 l163 28 l0 1147 l-163 28 l0 127 l523 0 l0 -127 l-163 -28 l0 -1147 l163 -28 l0 -126 l-523 0 l0 126 ZM447 705 l0 -551 l359 0 q148 0 221 80 q73 80 73 202 q0 118 -73 193.5 q-73 75.5 -221 75.5 l-359 0 ZM610 1456 l0 -127 l-163 -28 l0 155 l163 0 Z" /><glyph glyph-name="uni042C" unicode="&#x42c;" d="M430 1456 l0 -596 l359 0 q234 0 362.5 -115 q128.5 -115 128.5 -311 q0 -197 -129 -315.5 q-129 -118.5 -362 -118.5 l-719 0 l0 126 l163 28 l0 1147 l-163 28 l0 127 l163 0 l197 0 ZM430 705 l0 -551 l359 0 q148 0 221 80 q73 80 73 202 q0 118 -73 193.5 q-73 75.5 -221 75.5 l-359 0 ZM593 1456 l0 -127 l-163 -28 l0 155 l163 0 Z" /><glyph glyph-name="uni042D" unicode="&#x42d;" d="M83 1269 q61 79 187 143.5 q126 64.5 293 64.5 q288 0 458.5 -208 q170.5 -208 170.5 -530 l0 -21 q0 -321 -174 -529.5 q-174 -208.5 -455 -208.5 q-167 0 -293 64 q-126 64 -187 144 l0 259 l138 0 l37 -206 q43 -45 124 -76 q81 -31 181 -31 q194 0 303.5 142.5 q109.5 142.5 120.5 368.5 l-2 5 l-554 0 l0 154 l555 0 l2 5 q-10 228 -122.5 371 q-112.5 143 -322.5 143 q-98 0 -168 -30 q-70 -30 -117 -77 l-37 -206 l-138 0 l0 259 Z" /><glyph glyph-name="uni042E" unicode="&#x42e;" d="M47 1329 l0 127 l523 0 l0 -127 l-163 -28 l0 -515 l214 0 q15 298 189.5 492.5 q174.5 194.5 443.5 194.5 q290 0 472.5 -211 q182.5 -211 182.5 -528 l0 -21 q0 -318 -182.5 -528 q-182.5 -210 -472.5 -210 q-263 0 -435.5 184.5 q-172.5 184.5 -195.5 472.5 l-216 0 l0 -478 l163 -28 l0 -126 l-523 0 l0 126 l163 28 l0 1147 l-163 28 ZM1712 736 q0 254 -121.5 414.5 q-121.5 160.5 -336.5 160.5 q-206 0 -321.5 -161 q-115.5 -161 -115.5 -414 l0 -23 q0 -256 115.5 -416.5 q115.5 -160.5 321.5 -160.5 q218 0 338 160 q120 160 120 417 l0 23 Z" /><glyph glyph-name="uni042F" unicode="&#x42f;" d="M84 173 q17 -5 30.5 -7.5 q13.5 -2.5 30.5 -2.5 q41 0 71.5 24 q30.5 24 58.5 69 l206 356 q-156 51 -238 153.5 q-82 102.5 -82 252.5 q0 208 137 323 q137 115 378 115 l630 0 l0 -127 l-163 -28 l0 -1147 l163 -28 l0 -126 l-361 0 l0 570 l-295 0 l-219 -403 q-49 -85 -112 -130 q-63 -45 -138 -45 q-42 0 -69.5 10 q-27.5 10 -55.5 32 l28 139 ZM358 1020 q0 -131 82 -212.5 q82 -81.5 235 -81.5 l270 0 l0 575 l-269 0 q-156 0 -237 -75 q-81 -75 -81 -206 ZM782 0 l0 126 l163 28 l0 -154 l-163 0 Z" /><glyph glyph-name="uni0431" unicode="&#x431;" d="M628 1020 q206 0 326 -137.5 q120 -137.5 120 -352.5 l0 -22 q0 -233 -130 -381 q-130 -148 -354 -148 q-224 0 -354 148 q-130 148 -130 381 l0 140 q0 320 134 510 q134 190 360 235 q126 23 182.5 55 q56.5 32 56.5 105 l152 0 l2 -6 q3 -176 -83 -231 q-86 -55 -273 -87 q-137 -23 -233.5 -105.5 q-96.5 -82.5 -118.5 -241.5 l4 -5 q59 63 148.5 103 q89.5 40 190.5 40 ZM588 866 q-141 0 -213 -96 q-72 -96 -72 -240 l0 -22 q0 -163 72 -269 q72 -106 215 -106 q141 0 214 106 q73 106 73 269 l0 22 q0 144 -73.5 240 q-73.5 96 -215.5 96 Z" /><glyph glyph-name="uni0432" unicode="&#x432;" d="M686 1082 q214 0 332 -74.5 q118 -74.5 118 -223.5 q0 -76 -46 -135.5 q-46 -59.5 -130 -90.5 q101 -25 158 -93.5 q57 -68.5 57 -156.5 q0 -152 -110.5 -230 q-110.5 -78 -309.5 -78 l-658 0 l0 126 l163 28 l0 773 l-163 28 l0 127 l163 0 l426 0 ZM457 474 l0 -322 l298 0 q110 0 166 41.5 q56 41.5 56 119.5 q0 77 -56 119 q-56 42 -166 42 l-298 0 ZM457 625 l230 0 q125 0 188.5 37 q63.5 37 63.5 112 q0 77 -63.5 116 q-63.5 39 -189.5 39 l-229 0 l0 -304 Z" /><glyph glyph-name="uni0433" unicode="&#x433;" d="M235 927 l-163 28 l0 127 l851 0 l0 -2 l32 0 l0 -277 l-128 0 l-14 123 l-381 0 l0 -772 l163 -28 l0 -126 l-523 0 l0 126 l163 28 l0 773 Z" /><glyph glyph-name="uni0434" unicode="&#x434;" d="M151 154 q83 96 127 200.5 q44 104.5 59 320.5 l10 253 l-157 27 l0 127 l870 0 l163 0 l0 -127 l-163 -28 l0 -773 l144 0 l-20 -472 l-177 0 l0 318 l-745 0 l0 -318 l-177 0 l-19 472 l85 0 ZM534 675 q-11 -180 -51.5 -307 q-40.5 -127 -104.5 -214 l485 0 l0 753 l-320 0 l-9 -232 Z" /><glyph glyph-name="uni0436" unicode="&#x436;" d="M621 459 l-280 -459 l-302 0 l0 126 l154 22 l281 418 l-181 272 q-29 43 -61.5 67 q-32.5 24 -73.5 24 q-21 0 -27 -1 q-6 -1 -49 -8 l-28 134 q37 24 67 35.5 q30 11.5 77 11.5 q75 0 137.5 -45 q62.5 -45 112.5 -128 l187 -303 l119 0 l0 302 l-163 28 l0 127 l163 0 l360 0 l0 -127 l-163 -28 l0 -302 l129 0 l187 303 q49 83 111.5 128 q62.5 45 139.5 45 q46 0 76.5 -12 q30.5 -12 66.5 -35 l-27 -134 q-43 7 -49.5 8 q-6.5 1 -26.5 1 q-42 0 -75 -24 q-33 -24 -60 -67 l-187 -280 l277 -410 l153 -22 l0 -126 l-302 0 l-281 459 l-132 0 l0 -305 l163 -28 l0 -126 l-523 0 l0 126 l163 28 l0 305 l-133 0 Z" /><glyph glyph-name="uni0437" unicode="&#x437;" d="M527 632 q104 0 148.5 39.5 q44.5 39.5 44.5 114.5 q0 68 -51 115 q-51 47 -155 47 q-93 0 -156 -49 q-63 -49 -63 -119 l-187 0 l-2 6 q-6 139 113 226.5 q119 87.5 295 87.5 q190 0 297 -81.5 q107 -81.5 107 -232.5 q0 -73 -44 -134 q-44 -61 -123 -96 q91 -32 139 -95.5 q48 -63.5 48 -155.5 q0 -152 -116.5 -238 q-116.5 -86 -307.5 -86 q-177 0 -303.5 85.5 q-126.5 85.5 -121.5 247.5 l2 6 l187 0 q0 -76 66 -132 q66 -56 170 -56 q107 0 166 49.5 q59 49.5 59 123.5 q0 87 -51.5 127 q-51.5 40 -160.5 40 l-188 0 l0 160 l188 0 Z" /><glyph glyph-name="uni0438" unicode="&#x438;" d="M619 1082 l0 -127 l-163 -28 l0 -611 l6 -2 l477 768 l197 0 l163 0 l0 -127 l-163 -28 l0 -773 l163 -28 l0 -126 l-523 0 l0 126 l163 28 l0 612 l-6 2 l-477 -768 l-359 0 l0 126 l163 28 l0 773 l-163 28 l0 127 l359 0 l163 0 Z" /><glyph glyph-name="uni043A" unicode="&#x43a;" d="M97 955 l0 127 l523 0 l0 -127 l-163 -28 l0 -302 l104 0 l226 303 q61 85 119.5 129 q58.5 44 131.5 44 q46 0 76 -11.5 q30 -11.5 68 -35.5 l-28 -134 q-43 7 -49.5 8 q-6.5 1 -26.5 1 q-37 0 -72.5 -27 q-35.5 -27 -62.5 -64 l-209 -271 l341 -416 l139 -25 l0 -126 l-263 0 l-366 459 l-128 0 l0 -305 l163 -28 l0 -126 l-523 0 l0 126 l163 28 l0 773 l-163 28 Z" /><glyph glyph-name="uni043B" unicode="&#x43b;" d="M499 926 l0 -306 q0 -320 -84.5 -470 q-84.5 -150 -289.5 -150 l-56 0 l3 168 l41 1 q106 0 147.5 103 q41.5 103 41.5 348 l0 307 l-163 28 l0 127 l924 0 l163 0 l0 -127 l-163 -28 l0 -773 l163 -28 l0 -126 l-523 0 l0 126 l163 28 l0 772 l-367 0 Z" /><glyph glyph-name="uni043C" unicode="&#x43c;" d="M866 258 l6 0 l353 824 l247 0 l163 0 l0 -127 l-163 -28 l0 -773 l163 -28 l0 -126 l-523 0 l0 126 l163 28 l0 597 l-6 2 l-332 -753 l-136 0 l-338 769 l-6 -2 l0 -613 l163 -28 l0 -126 l-523 0 l0 126 l163 28 l0 773 l-163 28 l0 127 l163 0 l254 0 l352 -824 Z" /><glyph glyph-name="uni043D" unicode="&#x43d;" d="M97 955 l0 127 l523 0 l0 -127 l-163 -28 l0 -313 l481 0 l0 313 l-163 28 l0 127 l163 0 l198 0 l163 0 l0 -127 l-163 -28 l0 -773 l163 -28 l0 -126 l-524 0 l0 126 l163 28 l0 306 l-481 0 l0 -306 l163 -28 l0 -126 l-523 0 l0 126 l163 28 l0 773 l-163 28 Z" /><glyph glyph-name="uni043F" unicode="&#x43f;" d="M97 126 l163 28 l0 773 l-163 28 l0 127 l1202 0 l0 -127 l-163 -28 l0 -773 l163 -28 l0 -126 l-523 0 l0 126 l163 28 l0 772 l-482 0 l0 -772 l163 -28 l0 -126 l-523 0 l0 126 Z" /><glyph glyph-name="uni0442" unicode="&#x442;" d="M1102 1082 l0 -322 l-169 0 l-15 169 l-232 0 l0 -775 l163 -28 l0 -126 l-523 0 l0 126 l163 28 l0 775 l-228 0 l-15 -169 l-168 0 l0 322 l1024 0 Z" /><glyph glyph-name="uni0444" unicode="&#x444;" d="M825 1070 q34 15 74 23.5 q40 8.5 87 8.5 q189 0 291.5 -159 q102.5 -159 102.5 -422 l0 -21 q0 -236 -102.5 -378.5 q-102.5 -142.5 -289.5 -142.5 q-47 0 -88 8 q-41 8 -75 22 l0 -270 l163 -28 l0 -127 l-523 0 l0 127 l163 28 l0 266 q-32 -12 -68.5 -19 q-36.5 -7 -77.5 -7 q-187 0 -289 142.5 q-102 142.5 -102 378.5 l0 21 q0 263 101.5 422 q101.5 159 291.5 159 q40 0 76 -7 q36 -7 68 -19 l0 329 l-163 28 l0 127 l360 0 l0 -490 ZM1182 521 q0 188 -63 307 q-63 119 -193 119 q-30 0 -55 -4.5 q-25 -4.5 -46 -12.5 l0 -783 q20 -7 45.5 -10.5 q25.5 -3.5 57.5 -3.5 q129 0 191.5 101 q62.5 101 62.5 266 l0 21 ZM288 500 q0 -167 57.5 -267 q57.5 -100 186.5 -100 q28 0 52 3.5 q24 3.5 44 10.5 l0 786 q-20 6 -43.5 10 q-23.5 4 -50.5 4 q-130 0 -188 -118 q-58 -118 -58 -308 l0 -21 Z" /><glyph glyph-name="uni0446" unicode="&#x446;" d="M1109 1082 l0 -928 l133 0 l-19 -475 l-176 0 l0 321 l-977 0 l0 126 l163 28 l0 773 l-163 28 l0 127 l360 0 l163 0 l0 -127 l-163 -28 l0 -773 l482 0 l0 773 l-163 28 l0 127 l163 0 l197 0 ZM1272 1082 l0 -127 l-163 -28 l0 155 l163 0 Z" /><glyph glyph-name="uni0447" unicode="&#x447;" d="M588 1083 l0 -126 l-163 -28 l0 -164 q0 -130 55.5 -191 q55.5 -61 165.5 -61 q66 0 126 7.5 q60 7.5 119 22.5 l0 384 l-163 28 l0 127 l523 0 l0 -127 l-163 -28 l0 -773 l163 -28 l0 -126 l-523 0 l0 126 l163 28 l0 232 q-58 -15 -118 -22 q-60 -7 -127 -7 q-196 0 -307 103 q-111 103 -111 305 l0 164 l-163 28 l0 126 l360 0 l163 0 Z" /><glyph glyph-name="uni0448" unicode="&#x448;" d="M97 955 l0 127 l360 0 l163 0 l0 -127 l-163 -28 l0 -773 l380 0 l0 928 l197 0 l0 -928 l381 0 l0 773 l-163 28 l0 127 l360 0 l163 0 l0 -127 l-163 -28 l0 -773 l163 -28 l0 -126 l-1678 0 l0 126 l163 28 l0 773 l-163 28 Z" /><glyph glyph-name="uni0449" unicode="&#x449;" d="M1763 955 l-163 -28 l0 -772 l174 0 l-20 -476 l-175 0 l0 321 l-1494 0 l0 126 l163 28 l0 773 l-163 28 l0 127 l163 0 l197 0 l163 0 l0 -127 l-163 -28 l0 -773 l380 0 l0 928 l197 0 l0 -928 l381 0 l0 773 l-163 28 l0 127 l523 0 l0 -127 Z" /><glyph glyph-name="uni044A" unicode="&#x44a;" d="M214 927 l-14 -166 l-169 0 l0 321 l617 0 l163 0 l0 -127 l-163 -28 l0 -217 l268 0 q192 0 299 -97.5 q107 -97.5 107 -253.5 q0 -157 -107.5 -258 q-107.5 -101 -298.5 -101 l-628 0 l0 126 l163 28 l0 773 l-237 0 ZM648 556 l0 -402 l268 0 q107 0 157.5 56.5 q50.5 56.5 50.5 141.5 q0 82 -51 143 q-51 61 -157 61 l-268 0 Z" /><glyph glyph-name="uni044B" unicode="&#x44b;" d="M457 1082 l0 -372 l268 0 q192 0 299 -97.5 q107 -97.5 107 -253.5 q0 -157 -107.5 -258 q-107.5 -101 -298.5 -101 l-628 0 l0 126 l163 28 l0 773 l-163 28 l0 127 l163 0 l197 0 ZM1153 126 l163 28 l0 773 l-163 28 l0 127 l360 0 l0 -928 l163 -28 l0 -126 l-523 0 l0 126 ZM457 556 l0 -402 l268 0 q107 0 157.5 56.5 q50.5 56.5 50.5 141.5 q0 82 -51 143 q-51 61 -157 61 l-268 0 ZM620 1082 l0 -127 l-163 -28 l0 155 l163 0 Z" /><glyph glyph-name="uni044C" unicode="&#x44c;" d="M457 1082 l0 -372 l268 0 q192 0 299 -97.5 q107 -97.5 107 -253.5 q0 -157 -107.5 -258 q-107.5 -101 -298.5 -101 l-628 0 l0 126 l163 28 l0 773 l-163 28 l0 127 l163 0 l197 0 ZM457 556 l0 -402 l268 0 q107 0 157.5 56.5 q50.5 56.5 50.5 141.5 q0 82 -51 143 q-51 61 -157 61 l-268 0 ZM620 1082 l0 -127 l-163 -28 l0 155 l163 0 Z" /><glyph glyph-name="uni044D" unicode="&#x44d;" d="M524 133 q144 0 210.5 96 q66.5 96 70.5 240 l-2 5 l-400 0 l0 154 l399 0 l2 5 q-8 134 -75.5 224 q-67.5 90 -204.5 90 q-70 0 -125 -21 q-55 -21 -90 -55 l-42 -170 l-158 0 l10 240 q67 75 170.5 118 q103.5 43 234.5 43 q234 0 359.5 -154.5 q125.5 -154.5 125.5 -385.5 l0 -42 q0 -233 -125 -387 q-125 -154 -360 -154 q-173 0 -303 108.5 q-130 108.5 -124 248.5 l2 6 l178 0 q0 -88 74 -148.5 q74 -60.5 173 -60.5 Z" /><glyph glyph-name="uni044E" unicode="&#x44e;" d="M69 126 l163 28 l0 773 l-163 28 l0 127 l360 0 l0 -457 l265 0 q20 212 147.5 344.5 q127.5 132.5 332.5 132.5 q224 0 354.5 -155 q130.5 -155 130.5 -396 l0 -22 q0 -242 -130 -396 q-130 -154 -353 -154 q-211 0 -339 136.5 q-128 136.5 -144 355.5 l-264 0 l0 -317 l163 -28 l0 -126 l-523 0 l0 126 ZM888 529 q0 -172 72.5 -284 q72.5 -112 215.5 -112 q140 0 213 112 q73 112 73 284 l0 22 q0 170 -73 283 q-73 113 -215 113 q-142 0 -214 -113 q-72 -113 -72 -283 l0 -22 Z" /><glyph glyph-name="uni044F" unicode="&#x44f;" d="M690 126 l163 28 l0 266 l-267 0 l-256 -420 l-265 0 l0 126 l142 21 l185 302 q-103 37 -158.5 117 q-55.5 80 -55.5 185 q0 146 111 238.5 q111 92.5 304 92.5 l457 0 l163 0 l0 -127 l-163 -28 l0 -773 l163 -28 l0 -126 l-523 0 l0 126 ZM376 749 q0 -72 49.5 -123 q49.5 -51 147.5 -51 l280 0 l0 354 l-260 0 q-107 0 -162 -53.5 q-55 -53.5 -55 -126.5 Z" /><glyph glyph-name="uni0452" unicode="&#x452;" d="M636 1180 l-214 0 l0 -242 q56 78 137 121 q81 43 180 43 q174 0 270 -104 q96 -104 96 -320 l0 -767 q0 -167 -85.5 -257.5 q-85.5 -90.5 -239.5 -90.5 q-32 0 -58.5 4.5 q-26.5 4.5 -54.5 13.5 l15 150 q13 -5 47 -9 q34 -4 51 -4 q60 0 94 51.5 q34 51.5 34 141.5 l0 769 q0 134 -57.5 198 q-57.5 64 -171.5 64 q-81 0 -147.5 -38.5 q-66.5 -38.5 -109.5 -104.5 l0 -645 l163 -28 l0 -126 l-523 0 l0 126 l163 28 l0 1026 l-194 0 l0 113 l194 0 l0 112 l-163 28 l0 127 l360 0 l0 -267 l214 0 l0 -113 Z" /><glyph glyph-name="uni0454" unicode="&#x454;" d="M599 133 q98 0 172.5 60.5 q74.5 60.5 74.5 148.5 l177 0 l2 -6 q5 -140 -124.5 -248.5 q-129.5 -108.5 -301.5 -108.5 q-236 0 -360.5 154 q-124.5 154 -124.5 387 l0 42 q0 231 125 385.5 q125 154.5 360 154.5 q130 0 233.5 -43 q103.5 -43 171.5 -118 l9 -240 l-157 0 l-43 170 q-35 34 -90 55 q-55 21 -124 21 q-141 0 -208.5 -93.5 q-67.5 -93.5 -72.5 -231.5 l2 -5 l364 0 l0 -154 l-364 0 l-2 -5 q5 -141 72 -233 q67 -92 209 -92 Z" /><glyph glyph-name="uni0459" unicode="&#x459;" d="M505 926 l0 -306 q0 -318 -89 -469 q-89 -151 -295 -151 l-56 0 l3 158 l41 1 q106 0 152.5 109 q46.5 109 46.5 352 l0 307 l-163 28 l0 127 l1038 0 l0 -127 l-163 -28 l0 -256 l268 0 q192 0 299 -92.5 q107 -92.5 107 -239.5 q0 -148 -107.5 -243.5 q-107.5 -95.5 -298.5 -95.5 l-628 0 l0 126 l163 28 l0 772 l-318 0 ZM1020 517 l0 -365 l268 0 q106 0 157 56 q51 56 51 133 q0 73 -50.5 124.5 q-50.5 51.5 -157.5 51.5 l-268 0 Z" /><glyph glyph-name="uni045A" unicode="&#x45a;" d="M97 126 l163 28 l0 773 l-163 28 l0 127 l523 0 l0 -127 l-163 -28 l0 -253 l481 0 l0 253 l-163 28 l0 127 l361 0 l163 0 l0 -127 l-163 -28 l0 -257 l268 0 q192 0 299 -92 q107 -92 107 -239 q0 -148 -107.5 -243.5 q-107.5 -95.5 -298.5 -95.5 l-629 0 l0 126 l163 28 l0 367 l-481 0 l0 -367 l163 -28 l0 -126 l-523 0 l0 126 ZM1136 517 l0 -365 l268 0 q106 0 157 56 q51 56 51 133 q0 73 -50.5 124.5 q-50.5 51.5 -157.5 51.5 l-268 0 Z" /><glyph glyph-name="uni045B" unicode="&#x45b;" d="M62 126 l163 28 l0 1008 l-176 0 l0 155 l176 0 l0 88 l-163 28 l0 127 l360 0 l0 -243 l268 0 l0 -155 l-268 0 l0 -224 q56 78 137 121 q81 43 180 43 q174 0 270 -104 q96 -104 96 -320 l0 -524 l163 -28 l0 -126 l-523 0 l0 126 l163 28 l0 526 q0 134 -57.5 198 q-57.5 64 -171.5 64 q-81 0 -147.5 -38.5 q-66.5 -38.5 -109.5 -104.5 l0 -645 l163 -28 l0 -126 l-523 0 l0 126 Z" /><glyph glyph-name="uni045F" unicode="&#x45f;" d="M800 -356 l-197 0 l0 356 l-505 0 l0 126 l163 28 l0 773 l-163 28 l0 127 l360 0 l163 0 l0 -127 l-163 -28 l0 -773 l482 0 l0 773 l-163 28 l0 127 l163 0 l197 0 l163 0 l0 -127 l-163 -28 l0 -773 l163 -28 l0 -126 l-500 0 l0 -356 Z" /><glyph glyph-name="uni0460" unicode="&#x460;" d="M1628 1456 l0 -1065 q0 -201 -115.5 -306.5 q-115.5 -105.5 -302.5 -105.5 q-109 0 -194 43.5 q-85 43.5 -132 129.5 q-51 -86 -139.5 -129.5 q-88.5 -43.5 -201.5 -43.5 q-180 0 -289.5 105.5 q-109.5 105.5 -109.5 306.5 l0 1065 l197 0 l0 -1065 q0 -126 55.5 -192 q55.5 -66 146.5 -66 q108 0 174.5 65.5 q66.5 65.5 66.5 192.5 l0 1065 l204 0 l0 -1065 q0 -126 61 -192 q61 -66 161 -66 q99 0 160 66 q61 66 61 192 l0 1065 l197 0 Z" /><glyph glyph-name="uni0461" unicode="&#x461;" d="M1470 1082 l0 -730 q0 -182 -105 -277.5 q-105 -95.5 -274 -95.5 q-94 0 -167 36 q-73 36 -116 107 q-47 -71 -124.5 -107 q-77.5 -36 -174.5 -36 q-162 0 -260.5 95.5 q-98.5 95.5 -98.5 277.5 l0 730 l197 0 l0 -730 q0 -108 44 -163.5 q44 -55.5 118 -55.5 q90 0 146 56 q56 56 56 163 l0 730 l198 0 l0 -730 q0 -108 49.5 -163.5 q49.5 -55.5 132.5 -55.5 q81 0 131.5 56 q50.5 56 50.5 163 l0 730 l197 0 Z" /><glyph glyph-name="uni0463" unicode="&#x463;" d="M463 1236 l321 0 l0 -154 l-321 0 l0 -334 l268 0 q192 0 299 -102.5 q107 -102.5 107 -267.5 q0 -165 -107.5 -271.5 q-107.5 -106.5 -298.5 -106.5 l-628 0 l0 126 l163 28 l0 928 l-191 0 l0 154 l191 0 l0 169 l-163 28 l0 127 l360 0 l0 -324 ZM463 594 l0 -440 l268 0 q107 0 157.5 62 q50.5 62 50.5 155 q0 90 -51 156.5 q-51 66.5 -157 66.5 l-268 0 Z" /><glyph glyph-name="uni0464" unicode="&#x464;" d="M1737 1010 l-139 0 l-37 206 q-48 47 -118 77 q-70 30 -167 30 q-205 0 -324.5 -135 q-119.5 -135 -137.5 -348 l3 -6 l543 0 l0 -155 l-547 0 l-3 -5 q6 -235 124.5 -387.5 q118.5 -152.5 321.5 -152.5 q99 0 180 31 q81 31 125 76 l37 206 l139 0 l0 -259 q-63 -81 -189 -144.5 q-126 -63.5 -292 -63.5 q-274 0 -454.5 197.5 q-180.5 197.5 -192.5 501.5 l-192 0 l0 -525 l163 -28 l0 -126 l-523 0 l0 126 l163 28 l0 1147 l-163 28 l0 127 l163 0 l197 0 l163 0 l0 -127 l-163 -28 l0 -467 l195 0 q27 284 202 464 q175 180 442 180 q166 0 292 -64.5 q126 -64.5 189 -144.5 l0 -259 Z" /><glyph glyph-name="uni0465" unicode="&#x465;" d="M448 616 l215 0 q14 211 138 348.5 q124 137.5 345 137.5 q130 0 233.5 -43 q103.5 -43 171.5 -118 l9 -240 l-157 0 l-43 170 q-35 34 -90 55 q-55 21 -124 21 q-141 0 -208.5 -93.5 q-67.5 -93.5 -72.5 -232.5 l2 -5 l360 0 l0 -154 l-360 0 l-2 -5 q5 -140 72 -232 q67 -92 209 -92 q98 0 172.5 60.5 q74.5 60.5 74.5 148.5 l177 0 l2 -6 q5 -140 -124.5 -248.5 q-129.5 -108.5 -301.5 -108.5 q-221 0 -344.5 135.5 q-123.5 135.5 -138.5 347.5 l-215 0 l0 -308 l163 -28 l0 -126 l-523 0 l0 126 l163 28 l0 773 l-163 28 l0 127 l163 0 l197 0 l0 -466 Z" /><glyph glyph-name="uni0466" unicode="&#x466;" d="M52 126 l104 15 l474 1315 l168 0 l465 -1315 l104 -15 l0 -126 l-418 0 l0 126 l113 19 l-105 312 l-155 0 l0 -457 l-196 0 l0 457 l-142 0 l-108 -312 l113 -19 l0 -126 l-417 0 l0 126 ZM521 621 l380 0 l-185 544 l-6 0 l-189 -544 Z" /><glyph glyph-name="uni0467" unicode="&#x467;" d="M806 294 l-106 0 l0 -294 l-196 0 l0 294 l-113 0 l-116 -294 l-215 0 l0 126 l70 13 l384 943 l169 0 l386 -943 l72 -13 l0 -126 l-216 0 l-119 294 ZM452 449 l292 0 l-126 312 l-18 68 l-6 0 l-18 -68 l-124 -312 Z" /><glyph glyph-name="uni0468" unicode="&#x468;" d="M563 1456 l0 -127 l-163 -28 l0 -679 l478 0 l301 834 l168 0 l465 -1315 l104 -15 l0 -126 l-418 0 l0 126 l113 19 l-105 312 l-155 0 l0 -457 l-196 0 l0 457 l-142 0 l-108 -312 l113 -19 l0 -126 l-417 0 l0 126 l104 15 l114 317 l-419 0 l0 -304 l163 -28 l0 -126 l-523 0 l0 126 l163 28 l0 1147 l-163 28 l0 127 l163 0 l197 0 l163 0 ZM1070 621 l380 0 l-185 544 l-6 0 l-189 -544 Z" /><glyph glyph-name="uni0469" unicode="&#x469;" d="M402 449 l404 0 l258 633 l169 0 l386 -943 l72 -13 l0 -126 l-216 0 l-119 294 l-106 0 l0 -294 l-196 0 l0 294 l-113 0 l-116 -294 l-215 0 l0 126 l70 13 l63 154 l-341 0 l0 -139 l163 -28 l0 -126 l-523 0 l0 126 l163 28 l0 773 l-163 28 l0 127 l163 0 l197 0 l0 -633 ZM1002 449 l292 0 l-126 312 l-18 68 l-6 0 l-18 -68 l-124 -312 Z" /><glyph glyph-name="uni046A" unicode="&#x46a;" d="M836 659 l-131 0 q-153 0 -221.5 -63 q-68.5 -63 -68.5 -225 l0 -217 l163 -28 l0 -126 l-523 0 l0 126 l163 28 l0 217 q0 234 123.5 338.5 q123.5 104.5 363.5 104.5 l37 0 l-301 494 l-144 21 l0 127 l1316 0 l0 -127 l-143 -21 l-301 -494 l22 0 q239 0 363.5 -104.5 q124.5 -104.5 124.5 -338.5 l0 -217 l163 -28 l0 -126 l-523 0 l0 126 l163 28 l0 217 q0 162 -69 225 q-69 63 -222 63 l-116 0 l-25 -42 l0 -463 l163 -28 l0 -126 l-523 0 l0 126 l163 28 l0 478 l-17 27 ZM950 814 l10 0 l284 487 l-578 0 l284 -487 Z" /><glyph glyph-name="uni046B" unicode="&#x46b;" d="M543 126 l163 28 l0 287 l-5 9 l-61 0 q-133 0 -192 -62.5 q-59 -62.5 -59 -225.5 l0 -162 l-321 0 l0 126 l124 28 l0 8 q0 226 106.5 330 q106.5 104 311.5 111 l-197 331 l-142 21 l0 127 l1072 0 l0 -127 l-141 -21 l-197 -331 q197 -10 301 -115 q104 -105 104 -326 l0 -8 l124 -28 l0 -126 l-321 0 l0 162 q0 162 -59.5 225 q-59.5 63 -191.5 63 l-48 0 l-11 -19 l0 -277 l163 -28 l0 -126 l-523 0 l0 126 ZM807 607 l176 319 l-351 0 l175 -319 Z" /><glyph glyph-name="uni046C" unicode="&#x46c;" d="M56 126 l163 28 l0 1147 l-163 28 l0 127 l523 0 l0 -127 l-163 -28 l0 -486 l891 0 l-300 493 l-144 21 l0 127 l1316 0 l0 -127 l-143 -21 l-301 -494 l22 0 q239 0 363.5 -104.5 q124.5 -104.5 124.5 -338.5 l0 -217 l163 -28 l0 -126 l-523 0 l0 126 l163 28 l0 217 q0 162 -69 225 q-69 63 -222 63 l-116 0 l-25 -42 l0 -463 l163 -28 l0 -126 l-523 0 l0 126 l163 28 l0 478 l-17 27 l-131 0 q-153 0 -221.5 -63 q-68.5 -63 -68.5 -225 l0 -217 l163 -28 l0 -126 l-523 0 l0 126 l163 28 l0 217 q0 92 19.5 164 q19.5 72 58.5 125 l-446 0 l0 -506 l163 -28 l0 -126 l-523 0 l0 126 ZM1516 814 l10 0 l284 487 l-578 0 l284 -487 Z" /><glyph glyph-name="uni046D" unicode="&#x46d;" d="M18 126 l163 28 l0 773 l-163 28 l0 127 l360 0 l0 -477 l764 0 l-196 329 l-142 21 l0 127 l1072 0 l0 -127 l-141 -21 l-197 -331 q197 -10 301 -115 q104 -105 104 -326 l0 -8 l124 -28 l0 -126 l-321 0 l0 162 q0 162 -59.5 225 q-59.5 63 -191.5 63 l-48 0 l-11 -19 l0 -277 l163 -28 l0 -126 l-523 0 l0 126 l163 28 l0 287 l-5 9 l-61 0 q-133 0 -192 -62.5 q-59 -62.5 -59 -225.5 l0 -162 l-321 0 l0 126 l124 28 l0 8 q0 92 18 163.5 q18 71.5 54 124.5 l-419 0 l0 -296 l163 -28 l0 -126 l-523 0 l0 126 ZM1340 607 l176 319 l-351 0 l175 -319 Z" /><glyph glyph-name="uni046E" unicode="&#x46e;" d="M427 825 q154 0 227 63.5 q73 63.5 73 177.5 q0 104 -72 174.5 q-72 70.5 -208 70.5 q-77 0 -136.5 -20.5 q-59.5 -20.5 -97.5 -55.5 l-13 -170 l-158 0 l1 241 q67 75 170.5 117.5 q103.5 42.5 233.5 42.5 q209 0 343 -111 q134 -111 134 -293 q0 -103 -65 -185 q-65 -82 -179 -126 q129 -41 198 -129 q69 -88 69 -215 q0 -200 -132.5 -313.5 q-132.5 -113.5 -344.5 -113.5 l-49 0 q-76 0 -110.5 -29.5 q-34.5 -29.5 -34.5 -82.5 q0 -70 46.5 -112.5 q46.5 -42.5 112.5 -72.5 l-79 -127 q-111 47 -189 129 q-78 82 -78 193 q0 129 89.5 193 q89.5 64 250.5 64 l41 0 q130 0 204.5 74.5 q74.5 74.5 74.5 193.5 q0 133 -82 200 q-82 67 -240 67 l-143 0 l0 155 l143 0 ZM526 1758 l147 148 l170 0 l0 -18 l-257 -245 l-119 0 l-253 243 l0 20 l166 0 l146 -148 Z" /><glyph glyph-name="uni046F" unicode="&#x46f;" d="M842 772 q0 -74 -52.5 -136 q-52.5 -62 -144.5 -99 q106 -33 162.5 -94.5 q56.5 -61.5 56.5 -147.5 q0 -150 -120.5 -232.5 q-120.5 -82.5 -314.5 -82.5 l-49 0 q-75 0 -110 -29.5 q-35 -29.5 -35 -82.5 q0 -70 47 -112.5 q47 -42.5 113 -72.5 l-80 -127 q-111 47 -188.5 129 q-77.5 82 -78.5 193 q0 129 89.5 193 q89.5 64 250.5 64 l41 0 q112 0 175 41.5 q63 41.5 63 114.5 q0 81 -72 122 q-72 41 -210 41 l-142 0 l0 155 l142 0 q132 0 196 45.5 q64 45.5 64 121.5 q0 67 -58 113.5 q-58 46.5 -172 47.5 q-69 0 -123.5 -15.5 q-54.5 -15.5 -89.5 -40.5 l-14 -148 l-156 0 l-1 218 q63 66 161.5 103 q98.5 37 222.5 37 q189 0 308 -88 q119 -88 119 -231 ZM414 1415 l147 148 l170 0 l0 -18 l-257 -245 l-119 0 l-253 243 l0 20 l166 0 l146 -148 Z" /><glyph glyph-name="uni0472" unicode="&#x472;" d="M1368 717 q0 -318 -182.5 -528 q-182.5 -210 -472.5 -210 q-282 0 -458 210 q-176 210 -176 528 l0 21 q0 317 176 528 q176 211 458 211 q290 0 472.5 -211 q182.5 -211 182.5 -528 l0 -21 ZM713 1315 q-194 0 -308 -143.5 q-114 -143.5 -123 -370.5 l2 -5 l878 0 l2 5 q-10 227 -129 370.5 q-119 143.5 -322 143.5 ZM713 140 q201 0 318.5 136.5 q117.5 136.5 131.5 359.5 l-2 5 l-875 0 l-2 -5 q13 -222 126 -359 q113 -137 303 -137 Z" /><glyph glyph-name="uni0473" unicode="&#x473;" d="M104 551 q0 240 130 395.5 q130 155.5 353 155.5 q224 0 354.5 -155 q130.5 -155 130.5 -396 l0 -22 q0 -242 -130 -396 q-130 -154 -353 -154 q-225 0 -355 154.5 q-130 154.5 -130 395.5 l0 22 ZM589 133 q128 0 199 92.5 q71 92.5 79 238.5 l-2 5 l-555 0 l-2 -5 q7 -146 78.5 -238.5 q71.5 -92.5 202.5 -92.5 ZM587 947 q-126 0 -196.5 -89.5 q-70.5 -89.5 -81.5 -228.5 l2 -5 l553 0 l2 5 q-11 139 -82.5 228.5 q-71.5 89.5 -196.5 89.5 Z" /><glyph glyph-name="uni0474" unicode="&#x474;" d="M487 1329 l-116 -20 l298 -927 l33 -121 l6 0 l33 121 l253 805 q49 156 114.5 222.5 q65.5 66.5 173.5 66.5 l50 -1 l-1 -169 l-12 0 q-50 0 -80 -31.5 q-30 -31.5 -58 -111.5 l-392 -1163 l-169 0 l-461 1314 l-102 15 l0 127 l430 0 l0 -127 Z" /><glyph glyph-name="uni0475" unicode="&#x475;" d="M482 955 l-118 -20 l190 -616 l18 -77 l6 0 l19 77 l149 535 q41 127 107 187 q66 60 148 60 q34 0 59 -5 q25 -5 50 -20 l-22 -151 q-5 3 -16 5.5 q-11 2.5 -24 2.5 q-32 0 -61.5 -26 q-29.5 -26 -42.5 -68 l-296 -839 l-149 0 l-331 940 l-103 15 l0 127 l417 0 l0 -127 Z" /><glyph glyph-name="uni047A" unicode="&#x47a;" d="M814 1200 l-197 0 l0 389 l197 0 l0 -389 ZM814 -141 l-197 0 l0 398 l197 0 l0 -398 ZM1368 717 q0 -318 -182.5 -528 q-182.5 -210 -472.5 -210 q-282 0 -458 210 q-176 210 -176 528 l0 21 q0 317 176 528 q176 211 458 211 q290 0 472.5 -211 q182.5 -211 182.5 -528 l0 -21 ZM1171 740 q0 254 -121.5 414.5 q-121.5 160.5 -336.5 160.5 q-206 0 -321.5 -161 q-115.5 -161 -115.5 -414 l0 -23 q0 -256 115.5 -416.5 q115.5 -160.5 321.5 -160.5 q218 0 338 160 q120 160 120 417 l0 23 Z" /><glyph glyph-name="uni047B" unicode="&#x47b;" d="M654 836 l-197 0 l0 370 l197 0 l0 -370 ZM654 -118 l-197 0 l0 369 l197 0 l0 -369 ZM104 551 q0 240 130 395.5 q130 155.5 353 155.5 q224 0 354.5 -155 q130.5 -155 130.5 -396 l0 -22 q0 -242 -130 -396 q-130 -154 -353 -154 q-225 0 -355 154.5 q-130 154.5 -130 395.5 l0 22 ZM301 529 q0 -172 72.5 -284 q72.5 -112 215.5 -112 q140 0 213 112 q73 112 73 284 l0 22 q0 170 -73 283 q-73 113 -215 113 q-142 0 -214 -113 q-72 -113 -72 -283 l0 -22 Z" /><glyph glyph-name="uni047C" unicode="&#x47c;" d="M1214 1447 l6 2 q174 4 284 -111 q110 -115 110 -333 l0 -576 q0 -219 -110.5 -334.5 q-110.5 -115.5 -289.5 -115.5 q-114 0 -201.5 42.5 q-87.5 42.5 -137.5 127.5 q-51 -85 -139 -127.5 q-88 -42.5 -201 -42.5 q-180 0 -289.5 115.5 q-109.5 115.5 -109.5 334.5 l0 576 q0 218 109 333 q109 115 284 111 l6 -2 l0 -146 q-91 0 -146.5 -76 q-55.5 -76 -55.5 -220 l0 -576 q0 -145 55.5 -220.5 q55.5 -75.5 146.5 -75.5 q108 0 174.5 65.5 q66.5 65.5 66.5 192.5 l0 432 l198 0 l0 -432 q0 -126 66 -192 q66 -66 174 -66 q91 0 147 75.5 q56 75.5 56 220.5 l0 576 q0 144 -56 220 q-56 76 -147 76 l0 146 ZM1317 1756 l0 -129 l-47 0 q-131 0 -280.5 61.5 q-149.5 61.5 -191.5 61.5 q-50 0 -78.5 -27 q-28.5 -27 -28.5 -79 l0 -18 l-135 0 l0 36 q0 108 62 163 q62 55 176 55 q72 0 218.5 -62 q146.5 -62 259.5 -62 l45 0 ZM831 1318 l-80 66 l58 115 l-1 140 l188 0 l0 -123 l-165 -198 Z" /><glyph glyph-name="uni047D" unicode="&#x47d;" d="M1073 1083 l6 3 q157 4 255.5 -101 q98.5 -105 98.5 -304 l0 -291 q0 -201 -99 -306 q-99 -105 -261 -105 q-100 0 -177.5 36 q-77.5 36 -122.5 108 q-47 -72 -124.5 -108 q-77.5 -36 -175.5 -36 q-162 0 -260.5 105 q-98.5 105 -98.5 306 l0 291 q0 199 98 304 q98 105 255 101 l6 -3 l0 -146 q-74 0 -118 -65.5 q-44 -65.5 -44 -190.5 l0 -291 q0 -127 44 -192 q44 -65 118 -65 q90 0 146 56 q56 56 56 163 l0 234 l197 0 l0 -234 q0 -108 55 -163.5 q55 -55.5 146 -55.5 q73 0 118 65.5 q45 65.5 45 191.5 l0 291 q0 125 -45 190.5 q-45 65.5 -118 65.5 l0 146 ZM1247 1397 l0 -129 l-47 0 q-131 0 -280.5 61.5 q-149.5 61.5 -191.5 61.5 q-50 0 -79 -27 q-29 -27 -29 -79 l0 -18 l-134 0 l0 36 q0 108 62 163 q62 55 176 55 q72 0 218.5 -62 q146.5 -62 259.5 -62 l45 0 ZM926 1157 l-165 -198 l-80 66 l58 115 l-1 140 l188 0 l0 -123 Z" /><glyph glyph-name="uni047E" unicode="&#x47e;" d="M466 1688 l0 109 l821 0 l2 -109 l-332 0 l0 -126 l-178 0 l0 126 l-313 0 ZM1431 1456 l0 -1065 q0 -126 -61 -192 q-61 -66 -160 -66 q-100 0 -161 66 q-61 66 -61 192 l0 1065 l-204 0 l0 -1065 q0 -127 -66.5 -192.5 q-66.5 -65.5 -174.5 -65.5 q-91 0 -146.5 66 q-55.5 66 -55.5 192 l0 1065 l-197 0 l0 -1065 q0 -201 109.5 -306.5 q109.5 -105.5 289.5 -105.5 q113 0 201.5 43.5 q88.5 43.5 139.5 129.5 q47 -86 132 -129.5 q85 -43.5 194 -43.5 q187 0 302.5 105.5 q115.5 105.5 115.5 306.5 l0 1065 l-197 0 Z" /><glyph glyph-name="uni047F" unicode="&#x47f;" d="M403 1348 l0 109 l821 0 l3 -109 l-333 0 l0 -128 l-178 0 l0 128 l-313 0 ZM1273 1082 l0 -730 q0 -107 -50.5 -163 q-50.5 -56 -131.5 -56 q-83 0 -132.5 55.5 q-49.5 55.5 -49.5 163.5 l0 730 l-198 0 l0 -730 q0 -107 -56 -163 q-56 -56 -146 -56 q-74 0 -118 55.5 q-44 55.5 -44 163.5 l0 730 l-197 0 l0 -730 q0 -182 98.5 -277.5 q98.5 -95.5 260.5 -95.5 q97 0 174.5 36 q77.5 36 124.5 107 q43 -71 116 -107 q73 -36 167 -36 q169 0 274 95.5 q105 95.5 105 277.5 l0 730 l-197 0 Z" /><glyph glyph-name="uni0480" unicode="&#x480;" d="M786 -383 l-196 0 l0 368 q-215 29 -345.5 198 q-130.5 169 -130.5 415 l0 259 q0 269 155.5 444.5 q155.5 175.5 402.5 175.5 q247 0 392.5 -131.5 q145.5 -131.5 141.5 -348.5 l-2 -6 l-189 0 q0 153 -89.5 242 q-89.5 89 -253.5 89 q-165 0 -263 -133 q-98 -133 -98 -330 l0 -261 q0 -199 98 -332 q98 -133 263 -133 l114 0 l0 -516 Z" /><glyph glyph-name="uni0481" unicode="&#x481;" d="M685 -383 l-197 0 l0 370 q-181 31 -282.5 180.5 q-101.5 149.5 -101.5 352.5 l0 42 q0 227 127.5 383.5 q127.5 156.5 346.5 156.5 q182 0 301 -112 q119 -112 115 -275 l-2 -6 l-178 0 q0 98 -68.5 168 q-68.5 70 -167.5 70 q-137 0 -207 -115 q-70 -115 -70 -270 l0 -42 q0 -159 69 -273 q69 -114 208 -114 l107 0 l0 -516 Z" /><glyph glyph-name="uni0482" unicode="&#x482;" d="M531 447 l289 -172 l-72 -125 l-291 170 l-181 -320 l-173 0 l225 398 l-289 171 l70 124 l293 -171 l203 364 l-290 171 l72 126 l291 -171 l186 330 l170 0 l-228 -407 l293 -171 l-76 -124 l-288 170 l-204 -363 Z" /><glyph glyph-name="uni0483" unicode="&#x483;" d="M331 1314 l0 -126 l-175 1 l0 235 l545 0 l-1 108 l175 -1 l0 -217 l-544 0 Z" /><glyph glyph-name="uni0484" unicode="&#x484;" d="M181 1433 q113 0 259 62 q146 62 219 62 q113 0 175.5 -55 q62.5 -55 62.5 -163 l0 -36 l-134 0 l0 18 q0 52 -29.5 79 q-29.5 27 -78.5 27 q-43 0 -192.5 -62 q-149.5 -62 -279.5 -62 l-46 0 l0 130 l44 0 Z" /><glyph glyph-name="uni0485" unicode="&#x485;" d="M126 1500 l0 123 l187 0 l-1 -140 l59 -116 l-81 -66 l-164 199 Z" /><glyph glyph-name="uni0486" unicode="&#x486;" d="M206 1301 l-80 66 l58 116 l-1 140 l188 0 l0 -123 l-165 -199 Z" /><glyph glyph-name="uni0488" unicode="&#x488;" d="M800 1267 l-2 6 q-5 79 51 130.5 q56 51.5 153 51.5 q96 0 152.5 -51.5 q56.5 -51.5 52.5 -130.5 l-2 -6 l-104 0 q0 43 -24.5 72 q-24.5 29 -74.5 29 q-50 0 -73.5 -29 q-23.5 -29 -23.5 -72 l-105 0 ZM1391 990 l-2 6 q-5 78 51.5 130 q56.5 52 152.5 52 q96 0 153 -51.5 q57 -51.5 53 -130.5 l-2 -6 l-105 0 q0 44 -24 72.5 q-24 28.5 -75 28.5 q-50 0 -73 -29 q-23 -29 -23 -72 l-106 0 ZM1578 487 l-2 6 q-5 78 51.5 130 q56.5 52 152.5 52 q96 0 152.5 -51.5 q56.5 -51.5 52.5 -130.5 l-2 -6 l-104 0 q0 44 -24 72.5 q-24 28.5 -75 28.5 q-50 0 -73.5 -29 q-23.5 -29 -23.5 -72 l-105 0 ZM1381 -32 l-2 6 q-5 78 51.5 130 q56.5 52 152.5 52 q96 0 152.5 -51.5 q56.5 -51.5 52.5 -130.5 l-2 -6 l-104 0 q0 44 -24 72.5 q-24 28.5 -75 28.5 q-50 0 -73.5 -29 q-23.5 -29 -23.5 -72 l-105 0 ZM805 -316 l-2 6 q-5 80 51 131 q56 51 153 51 q96 0 152.5 -51 q56.5 -51 52.5 -131 l-2 -6 l-104 0 q0 44 -24.5 72.5 q-24.5 28.5 -74.5 28.5 q-50 0 -73.5 -28.5 q-23.5 -28.5 -23.5 -72.5 l-105 0 ZM227 990 l-2 6 q-5 79 51.5 130.5 q56.5 51.5 153.5 51.5 q96 0 152.5 -51.5 q56.5 -51.5 52.5 -130.5 l-2 -6 l-104 0 q0 43 -24.5 72 q-24.5 29 -74.5 29 q-50 0 -73.5 -29 q-23.5 -29 -23.5 -72 l-106 0 ZM51 487 l-2 6 q-5 78 51.5 130 q56.5 52 152.5 52 q96 0 152.5 -51.5 q56.5 -51.5 52.5 -130.5 l-2 -6 l-104 0 q0 44 -24 72.5 q-24 28.5 -75 28.5 q-50 0 -73.5 -29 q-23.5 -29 -23.5 -72 l-105 0 ZM217 -32 l-2 6 q-5 78 51.5 130 q56.5 52 152.5 52 q96 0 153 -51.5 q57 -51.5 53 -130.5 l-2 -6 l-105 0 q0 44 -24 72.5 q-24 28.5 -75 28.5 q-50 0 -73 -29 q-23 -29 -23 -72 l-106 0 Z" /><glyph glyph-name="uni0489" unicode="&#x489;" d="M1076 -60 l11 -14 l-122 -339 l-96 0 l70 353 l137 0 ZM881 1126 l-12 14 l122 338 l96 0 l-70 -352 l-136 0 ZM1559 631 l13 12 l333 -124 l0 -98 l-346 71 l0 139 ZM395 433 l-13 -12 l-333 124 l0 98 l346 -71 l0 -139 ZM1319 1002 l2 16 l321 153 l68 -68 q-37 -23 -294 -200 l-97 99 ZM635 21 l-2 -17 l-320 -153 l-69 69 l294 200 l97 -99 ZM495 860 l-17 2 l-148 326 l65 69 l198 -299 l-98 -98 ZM1457 161 l17 -2 l149 -325 l-66 -71 l-197 299 l97 99 Z" /><glyph glyph-name="uni048D" unicode="&#x48d;" d="M457 1456 l292 0 l0 -155 l-292 0 l0 -553 l269 0 q192 0 298.5 -102.5 q106.5 -102.5 106.5 -267.5 q0 -165 -107.5 -271.5 q-107.5 -106.5 -297.5 -106.5 l-629 0 l0 126 l163 28 l0 1147 l-221 0 l0 155 l221 0 l0 39 l-163 29 l0 126 l360 0 l0 -194 ZM457 594 l0 -440 l269 0 q106 0 156.5 62.5 q50.5 62.5 50.5 154.5 q0 90 -51 156.5 q-51 66.5 -156 66.5 l-269 0 Z" /><glyph glyph-name="uni048E" unicode="&#x48e;" d="M1243 594 l-115 -104 l-374 406 l116 104 l373 -406 ZM740 1456 q233 0 362.5 -120 q129.5 -120 129.5 -316 q0 -198 -129.5 -317 q-129.5 -119 -362.5 -119 l-309 0 l0 -430 l163 -28 l0 -126 l-523 0 l0 126 l163 28 l0 1147 l-163 28 l0 127 l163 0 l506 0 ZM431 738 l309 0 q148 0 221.5 79.5 q73.5 79.5 73.5 200.5 q0 121 -73.5 202 q-73.5 81 -221.5 81 l-309 0 l0 -563 Z" /><glyph glyph-name="uni048F" unicode="&#x48f;" d="M1127 35 l-116 -105 l-337 374 l116 105 l337 -374 ZM65 -289 l163 28 l0 1188 l-163 28 l0 127 l332 0 l18 -132 q54 74 131.5 113 q77.5 39 179.5 39 q201 0 312.5 -159.5 q111.5 -159.5 111.5 -421.5 l0 -21 q0 -234 -112 -377.5 q-112 -143.5 -309 -143.5 q-100 0 -175.5 33.5 q-75.5 33.5 -128.5 99.5 l0 -373 l163 -28 l0 -127 l-523 0 l0 127 ZM952 521 q0 185 -72 303 q-72 118 -214 118 q-84 0 -144 -38 q-60 -38 -97 -104 l0 -527 q37 -67 96.5 -103.5 q59.5 -36.5 146.5 -36.5 q140 0 212 102 q72 102 72 265 l0 21 Z" /><glyph glyph-name="uni0490" unicode="&#x490;" d="M958 1790 l158 0 l0 -489 l-696 0 l0 -1147 l163 -28 l0 -126 l-523 0 l0 126 l163 28 l0 1147 l-163 28 l0 127 l871 0 l27 334 Z" /><glyph glyph-name="uni0491" unicode="&#x491;" d="M760 1082 l39 201 l129 0 l0 -357 l-506 0 l0 -772 l163 -28 l0 -126 l-523 0 l0 126 l163 28 l0 773 l-163 28 l0 127 l163 0 l535 0 Z" /><glyph glyph-name="uni0493" unicode="&#x493;" d="M595 0 l-360 0 l0 478 l-153 0 l0 154 l153 0 l0 295 l-163 28 l0 127 l883 0 l0 -279 l-128 0 l-13 123 l-382 0 l0 -294 l290 0 l0 -154 l-290 0 l0 -324 l163 -28 l0 -126 ZM235 0 l-163 0 l0 126 l163 28 l0 -154 Z" /><glyph glyph-name="uni0494" unicode="&#x494;" d="M77 126 l163 28 l0 1147 l-163 28 l0 127 l1056 0 l0 -322 l-169 0 l-15 167 l-512 0 l0 -468 l121 0 q284 0 442 -153.5 q158 -153.5 158 -424.5 q0 -263 -121.5 -403 q-121.5 -140 -348.5 -136 l-6 2 l-2 142 q151 0 216 102 q65 102 65 293 q-2 202 -102 307.5 q-100 105.5 -301 105.5 l-121 0 l0 -514 l163 -28 l0 -126 l-523 0 l0 126 Z" /><glyph glyph-name="uni0495" unicode="&#x495;" d="M945 803 l-128 0 l-14 123 l-381 0 l0 -280 l128 0 q226 0 368.5 -128 q142.5 -128 142.5 -348 q-2 -139 -99 -279 q-97 -140 -288 -175 l-51 149 q129 35 185 112.5 q56 77.5 56 192.5 q-2 147 -88 229 q-86 82 -226 82 l-128 0 l0 -327 l163 -28 l0 -126 l-523 0 l0 126 l163 28 l0 773 l-163 28 l0 127 l163 0 l688 0 l0 -2 l32 0 l0 -277 Z" /><glyph glyph-name="uni049C" unicode="&#x49c;" d="M70 126 l163 28 l0 1147 l-163 28 l0 127 l360 0 l163 0 l0 -127 l-163 -28 l0 -501 l97 0 l0 267 l157 0 l0 -267 l65 0 l238 474 q57 117 119 155 q62 38 151 38 q48 0 85 -11.5 q37 -11.5 70 -32.5 l-29 -138 q-21 4 -42.5 7 q-21.5 3 -43.5 3 q-49 0 -80.5 -24.5 q-31.5 -24.5 -64.5 -85.5 l-234 -435 l346 -604 l138 -20 l0 -126 l-299 0 l-330 634 l-89 0 l0 -219 l-157 0 l0 219 l-97 0 l0 -480 l163 -28 l0 -126 l-523 0 l0 126 Z" /><glyph glyph-name="uni049D" unicode="&#x49d;" d="M90 126 l163 28 l0 773 l-163 28 l0 127 l360 0 l163 0 l0 -127 l-163 -28 l0 -302 l94 0 l0 211 l157 0 l0 -211 l24 0 l167 303 q50 85 108 129 q58 44 133 44 q46 0 76 -11.5 q30 -11.5 68 -35.5 l-28 -134 q-43 7 -49.5 8 q-6.5 1 -26.5 1 q-41 0 -68.5 -22.5 q-27.5 -22.5 -56.5 -68.5 l-162 -263 l280 -429 l120 -20 l0 -126 l-272 0 l-269 459 l-44 0 l0 -191 l-157 0 l0 191 l-94 0 l0 -305 l163 -28 l0 -126 l-523 0 l0 126 Z" /><glyph glyph-name="uni04A0" unicode="&#x4a0;" d="M203 1301 l-15 -166 l-168 0 l0 321 l773 0 l163 0 l0 -127 l-163 -28 l0 -501 l159 0 l329 474 q81 112 141 152.5 q60 40.5 139 40.5 q47 0 79.5 -11.5 q32.5 -11.5 68.5 -33.5 l-29 -139 q-27 5 -47.5 8.5 q-20.5 3.5 -40.5 3.5 q-47 0 -79.5 -25 q-32.5 -25 -75.5 -85 l-313 -436 l484 -598 l137 -25 l0 -126 l-478 0 l0 126 l111 14 l-397 494 l-188 0 l0 -480 l163 -28 l0 -126 l-523 0 l0 126 l163 28 l0 1147 l-393 0 Z" /><glyph glyph-name="uni04A1" unicode="&#x4a1;" d="M265 926 l-14 -165 l-169 0 l0 321 l698 0 l163 0 l0 -127 l-163 -28 l0 -302 l104 0 l226 303 q61 85 119.5 129 q58.5 44 131.5 44 q46 0 76 -11.5 q30 -11.5 68 -35.5 l-28 -134 q-43 7 -49.5 8 q-6.5 1 -26.5 1 q-37 0 -72.5 -27 q-35.5 -27 -62.5 -64 l-209 -271 l341 -416 l139 -25 l0 -126 l-263 0 l-366 459 l-128 0 l0 -305 l163 -28 l0 -126 l-523 0 l0 126 l163 28 l0 772 l-318 0 Z" /><glyph glyph-name="uni04A4" unicode="&#x4a4;" d="M571 1456 l0 -127 l-163 -28 l0 -503 l706 0 l0 503 l-163 28 l0 127 l1027 0 l0 -321 l-168 0 l-15 166 l-452 0 l-6 4 l-26 -4 l0 -1147 l163 -28 l0 -126 l-523 0 l0 126 l163 28 l0 489 l-706 0 l0 -489 l163 -28 l0 -126 l-523 0 l0 126 l163 28 l0 1147 l-163 28 l0 127 l163 0 l197 0 l163 0 Z" /><glyph glyph-name="uni04A5" unicode="&#x4a5;" d="M1534 761 l-169 0 l-15 165 l-226 0 l0 -772 l163 -28 l0 -126 l-524 0 l0 126 l163 28 l0 306 l-481 0 l0 -306 l163 -28 l0 -126 l-523 0 l0 126 l163 28 l0 773 l-163 28 l0 127 l163 0 l197 0 l163 0 l0 -127 l-163 -28 l0 -313 l481 0 l0 313 l-163 28 l0 127 l163 0 l608 0 l0 -321 Z" /><glyph glyph-name="uni04A6" unicode="&#x4a6;" d="M77 1329 l0 127 l1428 0 l0 -127 l-163 -28 l0 -468 l56 0 q284 0 442 -153.5 q158 -153.5 158 -424.5 q0 -263 -121.5 -403 q-121.5 -140 -348.5 -136 l-6 2 l-2 142 q151 0 216 102 q65 102 65 293 q-2 202 -102 307.5 q-100 105.5 -301 105.5 l-56 0 l0 -514 l163 -28 l0 -126 l-523 0 l0 126 l163 28 l0 1147 l-708 0 l0 -1147 l163 -28 l0 -126 l-523 0 l0 126 l163 28 l0 1147 l-163 28 Z" /><glyph glyph-name="uni04A7" unicode="&#x4a7;" d="M1287 1082 l0 -127 l-163 -28 l0 -280 l80 0 q235 0 383 -128.5 q148 -128.5 148 -348.5 q-2 -138 -99 -278.5 q-97 -140.5 -288 -175.5 l-51 149 q128 34 184.5 112.5 q56.5 78.5 56.5 192.5 q-2 147 -93 229.5 q-91 82.5 -241 82.5 l-80 0 l0 -328 l163 -28 l0 -126 l-523 0 l0 126 l163 28 l0 772 l-482 0 l0 -772 l163 -28 l0 -126 l-523 0 l0 126 l163 28 l0 773 l-163 28 l0 127 l163 0 l876 0 l163 0 Z" /><glyph glyph-name="uni04A8" unicode="&#x4a8;" d="M1428 -30 q-111 0 -210.5 18.5 q-99.5 18.5 -185.5 55.5 q-70 -32 -148.5 -48.5 q-78.5 -16.5 -163.5 -16.5 q-273 0 -443.5 199.5 q-170.5 199.5 -170.5 500.5 l0 161 q0 273 125.5 453.5 q125.5 180.5 322.5 175.5 l6 -2 l1 -152 q-119 0 -188.5 -133.5 q-69.5 -133.5 -69.5 -339.5 l0 -163 q0 -236 113.5 -387.5 q113.5 -151.5 303.5 -151.5 q33 0 64.5 3.5 q31.5 3.5 62.5 10.5 q-122 97 -187.5 237 q-65.5 140 -65.5 309 l0 222 q0 237 114 394.5 q114 157.5 297 157.5 q183 0 297 -154 q114 -154 114 -398 l0 -243 q0 -158 -56.5 -292.5 q-56.5 -134.5 -159.5 -229.5 q51 -14 108 -20.5 q57 -6.5 120 -6.5 l0 -160 ZM791 698 q0 -153 58.5 -271 q58.5 -118 169.5 -186 l6 0 q92 67 143 182 q51 115 51 256 l0 246 q0 174 -57.5 281.5 q-57.5 107.5 -156.5 107.5 q-97 0 -155.5 -110.5 q-58.5 -110.5 -58.5 -278.5 l0 -227 Z" /><glyph glyph-name="uni04A9" unicode="&#x4a9;" d="M1189 -12 q-90 0 -170.5 14 q-80.5 14 -150.5 43 q-58 -33 -124 -49.5 q-66 -16.5 -139 -16.5 q-219 0 -356 168 q-137 168 -137 423 l0 57 q0 205 97 338.5 q97 133.5 250 128.5 l6 -2 l0 -151 q-72 0 -114 -87.5 q-42 -87.5 -42 -224.5 l0 -59 q0 -188 80 -309 q80 -121 216 -121 q23 0 44.5 2.5 q21.5 2.5 41.5 8.5 q-93 79 -142 187 q-49 108 -49 235 l0 103 q0 190 86 308.5 q86 118.5 233 118.5 q145 0 232.5 -127 q87.5 -127 87.5 -321 l0 -105 q0 -111 -33 -208.5 q-33 -97.5 -93 -172.5 q39 -11 83 -16 q44 -5 93 -5 l0 -160 ZM942 550 l0 108 q0 124 -32.5 203.5 q-32.5 79.5 -87.5 74.5 l-6 0 q-57 5 -88 -66.5 q-31 -71.5 -31 -191.5 l0 -107 q0 -102 37 -183 q37 -81 108 -131 l6 0 q44 49 69 125.5 q25 76.5 25 167.5 l0 0 Z" /><glyph glyph-name="uni04B4" unicode="&#x4b4;" d="M1031 1456 l0 -322 l-169 0 l-15 167 l-158 0 l0 -1147 l708 0 l0 1147 l-163 28 l0 127 l523 0 l0 -127 l-163 -28 l0 -1147 l190 0 l0 -505 l-195 0 l0 351 l-1260 0 l0 126 l163 28 l0 1147 l-232 0 l-14 -167 l-169 0 l0 322 l954 0 Z" /><glyph glyph-name="uni04B5" unicode="&#x4b5;" d="M986 1082 l0 -321 l-168 0 l-15 167 l-167 0 l0 -774 l512 0 l0 928 l360 0 l0 -127 l-163 -28 l0 -773 l133 0 l-20 -475 l-175 0 l0 321 l-1007 0 l0 126 l163 28 l0 774 l-204 0 l-15 -167 l-169 0 l0 321 l935 0 Z" /><glyph glyph-name="uni04B8" unicode="&#x4b8;" d="M798 316 l-158 0 l0 701 l158 0 l0 -701 ZM942 126 l163 28 l0 449 q-95 -29 -184 -42 q-89 -13 -211 -13 q-240 0 -364 105 q-124 105 -124 343 l0 305 l-163 28 l0 127 l523 0 l0 -127 l-163 -28 l0 -305 q0 -165 69 -228.5 q69 -63.5 222 -63.5 q104 0 200 14 q96 14 195 41 l0 542 l-163 28 l0 127 l163 0 l361 0 l0 -127 l-163 -28 l0 -1147 l163 -28 l0 -126 l-524 0 l0 126 Z" /><glyph glyph-name="uni04B9" unicode="&#x4b9;" d="M764 226 l-158 0 l0 567 l158 0 l0 -567 ZM614 1083 l0 -126 l-163 -28 l0 -164 q0 -130 55.5 -191 q55.5 -61 165.5 -61 q66 0 126 7.5 q60 7.5 119 22.5 l0 384 l-163 28 l0 127 l523 0 l0 -127 l-163 -28 l0 -773 l163 -28 l0 -126 l-523 0 l0 126 l163 28 l0 232 q-58 -15 -118 -22 q-60 -7 -127 -7 q-196 0 -307 103 q-111 103 -111 305 l0 164 l-163 28 l0 126 l360 0 l163 0 Z" /><glyph glyph-name="uni04BA" unicode="&#x4ba;" d="M582 1456 l0 -126 l-163 -28 l0 -449 q96 27 184.5 41 q88.5 14 210.5 14 q239 0 363.5 -105.5 q124.5 -105.5 124.5 -342.5 l0 -305 l163 -28 l0 -127 l-523 0 l0 127 l163 28 l0 305 q0 164 -69.5 228 q-69.5 64 -221.5 64 q-105 0 -201 -14.5 q-96 -14.5 -194 -41.5 l0 -541 l163 -28 l0 -127 l-524 0 l0 127 l163 28 l0 1147 l-163 28 l0 126 l163 0 l198 0 l163 0 Z" /><glyph glyph-name="uni04BC" unicode="&#x4bc;" d="M999 -23 q-291 0 -454.5 172.5 q-163.5 172.5 -163.5 454.5 l0 102 q-158 20 -239 118 q-81 98 -77 252 l2 5 l150 0 q0 -93 40 -154 q40 -61 124 -81 l0 4 q0 271 156.5 448 q156.5 177 385.5 177 q264 0 402.5 -177.5 q138.5 -177.5 138.5 -488.5 l0 -109 l-886 0 l0 -96 q0 -211 104 -342 q104 -131 317 -131 q108 0 185 23 q77 23 150 61 l49 -139 q-50 -36 -146 -67.5 q-96 -31.5 -238 -31.5 ZM578 835 l689 0 l0 32 q0 206 -81 329.5 q-81 123.5 -263 123.5 q-161 0 -253 -134.5 q-92 -134.5 -92 -335.5 l0 -15 Z" /><glyph glyph-name="uni04BD" unicode="&#x4bd;" d="M714 -21 q-226 0 -359.5 150.5 q-133.5 150.5 -133.5 390.5 l0 17 q-105 34 -158 118.5 q-53 84.5 -53 211.5 l157 0 q0 -59 16.5 -103 q16.5 -44 50.5 -71 q37 182 164 295.5 q127 113.5 286 113.5 q218 0 330.5 -132 q112.5 -132 112.5 -352 l0 -123 l-702 0 l-3 -5 q3 -156 79 -256.5 q76 -100.5 213 -100.5 q100 0 175.5 28.5 q75.5 28.5 130.5 78.5 l77 -128 q-58 -56 -153.5 -94.5 q-95.5 -38.5 -229.5 -38.5 ZM684 947 q-99 0 -169 -83.5 q-70 -83.5 -86 -209.5 l2 -5 l499 0 l0 26 q0 116 -62 194 q-62 78 -184 78 Z" /><glyph glyph-name="uni04C3" unicode="&#x4c3;" d="M70 1329 l0 127 l523 0 l0 -127 l-163 -28 l0 -471 l127 0 l521 626 l253 0 l0 -127 l-154 -27 l-399 -476 q246 -23 381.5 -173.5 q135.5 -150.5 135.5 -400.5 q0 -263 -122 -403 q-122 -140 -349 -136 l-6 2 l-2 142 q151 0 216.5 101.5 q65.5 101.5 65.5 293.5 q-2 202 -102 307 q-100 105 -302 105 l-264 0 l0 -510 l163 -28 l0 -126 l-523 0 l0 126 l163 28 l0 1147 l-163 28 Z" /><glyph glyph-name="uni04C4" unicode="&#x4c4;" d="M90 126 l163 28 l0 773 l-163 28 l0 127 l523 0 l0 -127 l-163 -28 l0 -302 l84 0 l348 457 l262 0 l0 -127 l-148 -26 l-257 -315 q188 -28 298 -139.5 q110 -111.5 110 -298.5 q-2 -133 -98.5 -266.5 q-96.5 -133.5 -286.5 -167.5 l-52 150 q128 32 184.5 104.5 q56.5 72.5 56.5 179.5 q-2 144 -90.5 213.5 q-88.5 69.5 -243.5 69.5 l-167 0 l0 -305 l163 -28 l0 -126 l-523 0 l0 126 Z" /><glyph glyph-name="uni04C7" unicode="&#x4c7;" d="M77 1329 l0 127 l360 0 l163 0 l0 -127 l-163 -28 l0 -503 l706 0 l0 503 l-163 28 l0 127 l523 0 l0 -127 l-163 -28 l0 -1390 q0 -167 -86 -257.5 q-86 -90.5 -240 -90.5 q-31 0 -57.5 4.5 q-26.5 4.5 -54.5 13.5 l14 150 q13 -5 47 -9 q34 -4 51 -4 q60 0 94.5 51.5 q34.5 51.5 34.5 141.5 l0 732 l-706 0 l0 -489 l163 -28 l0 -126 l-523 0 l0 126 l163 28 l0 1147 l-163 28 Z" /><glyph glyph-name="uni04C8" unicode="&#x4c8;" d="M90 955 l0 127 l360 0 l163 0 l0 -127 l-163 -28 l0 -313 l481 0 l0 313 l-163 28 l0 127 l163 0 l361 0 l0 -127 l-163 -28 l0 -1016 q0 -167 -86.5 -257.5 q-86.5 -90.5 -240.5 -90.5 q-31 0 -57.5 4.5 q-26.5 4.5 -54.5 13.5 l15 150 q13 -5 46.5 -9 q33.5 -4 50.5 -4 q61 0 95 51.5 q34 51.5 34 141.5 l0 549 l-481 0 l0 -306 l163 -28 l0 -126 l-523 0 l0 126 l163 28 l0 773 l-163 28 Z" /><glyph glyph-name="uni04D8" unicode="&#x4d8;" d="M622 1477 q310 0 484.5 -184.5 q174.5 -184.5 174.5 -484.5 l0 -163 q0 -290 -169 -478 q-169 -188 -413 -188 q-304 0 -462.5 176.5 q-158.5 176.5 -158.5 488.5 l0 110 l1006 0 l0 54 q0 227 -115 370.5 q-115 143.5 -347 143.5 q-114 0 -195 -23.5 q-81 -23.5 -160 -60.5 l-49 139 q52 35 153 67.5 q101 32.5 251 32.5 ZM699 133 q172 0 274.5 137.5 q102.5 137.5 109.5 348.5 l-808 0 l0 -33 q0 -208 99 -330.5 q99 -122.5 325 -122.5 Z" /><glyph glyph-name="uni04E0" unicode="&#x4e0;" d="M754 1296 l-2 5 l-448 0 l-14 -167 l-169 0 l0 322 l869 0 l1 -120 l-410 -491 q220 -13 340.5 -126.5 q120.5 -113.5 120.5 -312.5 q0 -200 -137.5 -313.5 q-137.5 -113.5 -357.5 -113.5 q-192 0 -330.5 107 q-138.5 107 -133.5 312 l2 6 l189 0 q0 -114 76 -192.5 q76 -78.5 197 -78.5 q138 0 218 74.5 q80 74.5 80 194.5 q0 153 -81 224.5 q-81 71.5 -240 71.5 l-147 0 l0 154 l377 444 Z" /><glyph glyph-name="uni04E1" unicode="&#x4e1;" d="M988 1082 l1 -120 l-396 -493 q213 -16 330 -129 q117 -113 117 -309 q0 -198 -137.5 -312 q-137.5 -114 -357.5 -114 q-192 0 -330.5 107.5 q-138.5 107.5 -133.5 310.5 l2 6 l189 0 q0 -112 76 -190.5 q76 -78.5 197 -78.5 q138 0 218 74.5 q80 74.5 80 192.5 q0 154 -81 225 q-81 71 -241 71 l-148 0 l0 154 l358 444 l-3 5 l-426 0 l-14 -166 l-169 0 l0 322 l869 0 Z" /><glyph glyph-name="uni04FB" unicode="&#x4fb;" d="M321 927 l-163 29 l0 126 l851 0 l0 -2 l33 0 l0 -276 l-129 0 l-13 122 l-382 0 l0 -771 l163 -29 l0 -126 l-523 0 l0 126 l163 29 l0 772 ZM705 534 l-641 0 l0 155 l641 0 l0 -155 ZM721 129 l0 -181 q0 -156 -80.5 -241 q-80.5 -85 -223.5 -85 q-29 0 -54 4.5 q-25 4.5 -57 13.5 l14 160 q14 -5 46 -8.5 q32 -3.5 51 -3.5 q50 0 78.5 41 q28.5 41 28.5 119 l0 181 l197 0 Z" /><glyph glyph-name="uni0500" unicode="&#x500;" d="M569 0 q-233 0 -361.5 123 q-128.5 123 -128.5 321 q0 197 128 316.5 q128 119.5 362 119.5 l359 0 l0 421 l-163 28 l0 127 l523 0 l0 -127 l-163 -28 l0 -1147 l163 -28 l0 -126 l-719 0 ZM928 154 l0 571 l-359 0 q-148 0 -220.5 -79.5 q-72.5 -79.5 -72.5 -199.5 q0 -123 72.5 -207.5 q72.5 -84.5 220.5 -84.5 l359 0 Z" /><glyph glyph-name="uni0502" unicode="&#x502;" d="M569 0 q-233 0 -361.5 123 q-128.5 123 -128.5 321 q0 197 128 316.5 q128 119.5 362 119.5 l359 0 l0 421 l-163 28 l0 127 l163 0 l197 0 l163 0 l0 -127 l-163 -28 l0 -1148 l84 1 q106 1 163.5 71.5 q57.5 70.5 61.5 196.5 q1 77 -14.5 160.5 q-15.5 83.5 -45.5 162.5 l190 0 q33 -100 51 -175.5 q18 -75.5 16 -147.5 q-4 -204 -125 -313 q-121 -109 -297 -109 l-640 0 ZM928 154 l0 571 l-359 0 q-148 0 -220.5 -79.5 q-72.5 -79.5 -72.5 -199.5 q0 -123 72.5 -207.5 q72.5 -84.5 220.5 -84.5 l359 0 Z" /><glyph glyph-name="uni0503" unicode="&#x503;" d="M986 1560 l0 -1215 q-2 -95 43.5 -153.5 q45.5 -58.5 122.5 -58.5 q135 1 208.5 106 q73.5 105 77.5 290 q1 97 -14.5 198.5 q-15.5 101.5 -45.5 203.5 l191 1 q33 -122 51 -216.5 q18 -94.5 16 -186.5 q-4 -266 -142 -408 q-138 -142 -342 -142 q-120 -2 -201 40.5 q-81 42.5 -122 135.5 q-53 -87 -134 -131.5 q-81 -44.5 -190 -44.5 q-198 0 -309.5 143.5 q-111.5 143.5 -111.5 377.5 l0 21 q0 261 111.5 421 q111.5 160 311.5 160 q90 0 160 -31 q70 -31 122 -90 l0 424 l-163 28 l0 127 l163 0 l197 0 ZM789 816 q-39 59 -96.5 92.5 q-57.5 33.5 -135.5 33.5 q-142 0 -209 -117 q-67 -117 -67 -304 l0 -21 q0 -164 66.5 -262.5 q66.5 -98.5 207.5 -98.5 q84 0 142.5 36.5 q58.5 36.5 97.5 103.5 q-3 15 -4.5 31.5 q-1.5 16.5 -1.5 34.5 l0 471 Z" /><glyph glyph-name="uni0504" unicode="&#x504;" d="M725 370 q0 118 -68.5 190.5 q-68.5 72.5 -183.5 72.5 l-191 0 l0 155 l135 0 q167 0 240.5 62.5 q73.5 62.5 73.5 193.5 q0 122 -62.5 189.5 q-62.5 67.5 -194.5 67.5 q-83 0 -148 -21 q-65 -21 -106 -55 l-14 -170 l-158 0 l1 240 q70 75 178.5 118 q108.5 43 246.5 43 q219 0 336.5 -106.5 q117.5 -106.5 117.5 -307.5 q0 -112 -58.5 -194.5 q-58.5 -82.5 -169.5 -131.5 q118 -40 170 -128 q52 -88 52 -216 l0 -68 q-1 -76 39 -123.5 q40 -47.5 107 -47.5 q106 1 165 107 q59 106 63 289 q0 63 -6.5 129 q-6.5 66 -18.5 134 l-90 13 l0 127 l245 0 q34 -134 51 -223.5 q17 -89.5 16 -179.5 q-4 -265 -125.5 -407.5 q-121.5 -142.5 -299.5 -142.5 q-160 -3 -247.5 75.5 q-87.5 78.5 -95.5 249.5 l0 66 Z" /><glyph glyph-name="uni0505" unicode="&#x505;" d="M1254 738 q34 -102 52 -175 q18 -73 16 -144 q-5 -215 -120 -330 q-115 -115 -283 -115 q-139 -3 -208 54 q-69 57 -75 186 l0 75 q0 71 -52.5 110.5 q-52.5 39.5 -150.5 39.5 l-211 0 l-2 154 l184 0 q117 0 174.5 50 q57.5 50 57.5 129 q0 81 -47.5 128 q-47.5 47 -146.5 46 q-97 0 -155.5 -50.5 q-58.5 -50.5 -58.5 -134.5 l-188 0 l-2 6 q-6 138 107.5 235.5 q113.5 97.5 296.5 97.5 q187 0 289.5 -84.5 q102.5 -84.5 102.5 -236.5 q0 -83 -49 -146.5 q-49 -63.5 -142 -102.5 q101 -28 146 -89.5 q45 -61.5 45 -150.5 l0 -76 q-1 -42 18 -64.5 q19 -22.5 67 -22.5 q97 2 149.5 78.5 q52.5 76.5 56.5 213.5 q0 42 -5 87 q-5 45 -14 91 l-96 14 l0 127 l244 0 l0 0 Z" /><glyph glyph-name="uni0506" unicode="&#x506;" d="M261 632 l0 154 l136 0 q166 0 239.5 63.5 q73.5 63.5 73.5 194.5 q0 121 -62.5 188.5 q-62.5 67.5 -194.5 67.5 q-83 0 -147.5 -21 q-64.5 -21 -106.5 -55 l-14 -171 l-158 0 l1 241 q70 75 178.5 117.5 q108.5 42.5 246.5 42.5 q220 0 337 -105.5 q117 -105.5 117 -306.5 q0 -113 -58.5 -195.5 q-58.5 -82.5 -169.5 -131.5 q118 -40 170.5 -128 q52.5 -88 52.5 -216 l0 -136 q0 -68 15.5 -122 q15.5 -54 52.5 -88 l0 -25 l-203 0 q-41 35 -51.5 100.5 q-10.5 65.5 -10.5 136.5 l0 132 q0 118 -68.5 190.5 q-68.5 72.5 -184.5 72.5 l-191 0 ZM1042 64 q0 -98 -49 -205 q-49 -107 -132 -178 l-111 74 q47 72 71 147 q24 75 24 159 l0 152 l197 0 l0 -149 Z" /><glyph glyph-name="uni0507" unicode="&#x507;" d="M211 439 l-2 153 l184 0 q117 0 174.5 50 q57.5 50 57.5 130 q0 81 -47.5 128 q-47.5 47 -146.5 45 q-97 0 -155 -50.5 q-58 -50.5 -58 -134.5 l-189 0 l-2 6 q-6 138 107.5 236 q113.5 98 296.5 98 q186 0 289 -85 q103 -85 103 -237 q0 -83 -50 -147.5 q-50 -64.5 -144 -102.5 q103 -29 148 -95 q45 -66 45 -164 l0 -97 q0 -45 14.5 -88 q14.5 -43 48.5 -65 l0 -19 l-203 0 q-37 23 -47 72.5 q-10 49.5 -10 100.5 l0 95 q0 80 -53 125.5 q-53 45.5 -151 45.5 l-210 0 ZM924 49 q0 -98 -49 -205 q-49 -107 -132 -178 l-111 74 q47 72 71 147 q24 75 24 159 l0 152 l197 0 l0 -149 Z" /><glyph glyph-name="uni0508" unicode="&#x508;" d="M1045 1301 l-472 0 l0 -533 q0 -398 -107.5 -583 q-107.5 -185 -357.5 -185 l-53 0 l0 154 l41 0 q148 0 214.5 144 q66.5 144 66.5 470 l0 533 l-163 28 l0 127 l1029 0 l163 0 l0 -127 l-163 -28 l0 -956 q-1 -95 44 -153.5 q45 -58.5 122 -58.5 q135 1 208.5 106 q73.5 105 77.5 290 q0 64 -6.5 130 q-6.5 66 -19.5 133 l-90 13 l0 126 l56 0 l190 1 q33 -122 51 -216.5 q18 -94.5 16 -186.5 q-4 -266 -142 -408 q-138 -142 -341 -142 q-170 -3 -263 85.5 q-93 88.5 -101 280.5 l0 956 Z" /><glyph glyph-name="uni0509" unicode="&#x509;" d="M812 926 l-307 0 l0 -304 q0 -317 -89 -469.5 q-89 -152.5 -294 -152.5 l-57 0 l3 168 l42 1 q107 0 152.5 106 q45.5 106 45.5 347 l0 305 l-163 28 l0 127 l1027 0 l0 -127 l-163 -28 l0 -582 q-1 -95 44.5 -153.5 q45.5 -58.5 121.5 -58.5 q106 1 164 94.5 q58 93.5 62 257.5 q0 60 -6 120.5 q-6 60.5 -18 121.5 l-90 13 l0 126 l244 0 q33 -120 51 -207.5 q18 -87.5 16 -173.5 q-4 -244 -125 -375 q-121 -131 -298 -131 q-169 -3 -262 85.5 q-93 88.5 -101 280.5 l0 581 Z" /><glyph glyph-name="uni050A" unicode="&#x50a;" d="M70 126 l163 28 l0 1147 l-163 28 l0 127 l360 0 l163 0 l0 -127 l-163 -28 l0 -503 l702 0 l0 503 l-163 28 l0 127 l163 0 l360 0 l0 -127 l-163 -28 l0 -956 q-1 -95 44 -153.5 q45 -58.5 122 -58.5 q135 1 209 106 q74 105 78 290 q0 64 -6.5 130 q-6.5 66 -19.5 133 l-89 13 l0 126 l54 0 l190 1 q34 -124 52 -217.5 q18 -93.5 16 -185.5 q-5 -266 -142.5 -408 q-137.5 -142 -341.5 -142 q-169 -3 -262 85.5 q-93 88.5 -101 280.5 l0 298 l-702 0 l0 -489 l163 -28 l0 -126 l-523 0 l0 126 Z" /><glyph glyph-name="uni050B" unicode="&#x50b;" d="M90 126 l163 28 l0 773 l-163 28 l0 127 l523 0 l0 -127 l-163 -28 l0 -314 l492 0 l0 314 l-163 28 l0 127 l163 0 l360 0 l0 -127 l-163 -28 l0 -582 q-1 -95 44 -153.5 q45 -58.5 122 -58.5 q106 1 164.5 94.5 q58.5 93.5 62.5 257.5 q1 91 -14.5 187.5 q-15.5 96.5 -45.5 193.5 l189 0 q34 -123 52 -209 q18 -86 16 -172 q-4 -244 -125 -375 q-121 -131 -299 -131 q-169 -3 -262 85.5 q-93 88.5 -101 280.5 l0 115 l-492 0 l0 -306 l163 -28 l0 -126 l-523 0 l0 126 Z" /><glyph glyph-name="uni050C" unicode="&#x50c;" d="M1120 786 q42 -197 50 -240 q8 -43 7 -121 q-4 -216 -142.5 -331 q-138.5 -115 -341.5 -115 q-257 0 -418 174.5 q-161 174.5 -161 443.5 l0 262 q0 268 161 443 q161 175 418 175 q112 0 201 -22.5 q89 -22.5 157 -65.5 l-62 -135 q-67 33 -139 50.5 q-72 17.5 -157 17.5 q-175 0 -278.5 -133 q-103.5 -133 -103.5 -328 l0 -264 q0 -198 103.5 -331 q103.5 -133 278.5 -133 q135 1 209 78 q74 77 78 214 q0 51 -5 106.5 q-5 55.5 -15 114.5 l-85 13 l0 127 l245 0 l0 0 Z" /><glyph glyph-name="uni050D" unicode="&#x50d;" d="M945 537 q13 -68 20 -125.5 q7 -57.5 7 -110.5 q-4 -158 -106 -240 q-102 -82 -267 -82 q-230 0 -362.5 156.5 q-132.5 156.5 -132.5 384.5 l0 42 q0 226 127 383 q127 157 347 157 q93 0 164 -17.5 q71 -17.5 118 -48.5 l-45 -147 q-47 27 -108 42.5 q-61 15.5 -129 15.5 q-138 0 -207.5 -115.5 q-69.5 -115.5 -69.5 -269.5 l0 -42 q0 -158 74.5 -272.5 q74.5 -114.5 223.5 -114.5 q95 1 134 42.5 q39 41.5 42 125.5 q0 23 -1 48 q-1 25 -2 50 l-72 11 l0 127 l245 0 l0 0 Z" /><glyph glyph-name="uni050E" unicode="&#x50e;" d="M1229 1456 l0 -322 l-169 0 l-15 167 l-300 0 l0 -956 q-1 -95 44.5 -153.5 q45.5 -58.5 121.5 -58.5 q135 1 209.5 106 q74.5 105 78.5 290 q0 64 -6.5 130 q-6.5 66 -19.5 133 l-90 13 l0 126 l55 0 l190 1 q34 -124 51.5 -217.5 q17.5 -93.5 15.5 -185.5 q-4 -266 -142 -408 q-138 -142 -342 -142 q-169 -3 -262 85.5 q-93 88.5 -101 280.5 l0 956 l-288 0 l-15 -167 l-168 0 l0 322 l1152 0 Z" /><glyph glyph-name="uni050F" unicode="&#x50f;" d="M997 760 l-169 0 l-15 169 l-173 0 l0 -584 q-1 -95 44 -153.5 q45 -58.5 122 -58.5 q88 1 136 61.5 q48 60.5 52 168.5 q0 28 -2.5 57.5 q-2.5 29.5 -5.5 61.5 l-116 15 l0 126 l273 0 q23 -78 36 -140 q13 -62 12 -120 q-4 -186 -114 -285 q-110 -99 -271 -99 q-169 -3 -262 85.5 q-93 88.5 -101 280.5 l0 584 l-170 0 l-15 -169 l-168 0 l0 322 l907 0 l0 -322 Z" /><glyph glyph-name="uni0510" unicode="&#x510;" d="M106 406 q0 126 71 212.5 q71 86.5 206 128.5 q-121 48 -188 131 q-67 83 -67 184 q0 199 148.5 307 q148.5 108 405.5 108 q224 0 377 -110 q153 -110 148 -286 l-1 -6 l-188 0 q0 105 -97.5 176 q-97.5 71 -238.5 71 q-178 0 -267.5 -72 q-89.5 -72 -89.5 -184 q0 -115 83 -180.5 q83 -65.5 259 -65.5 l183 0 l0 -156 l-183 0 q-181 0 -272.5 -64.5 q-91.5 -64.5 -91.5 -197.5 q0 -120 100.5 -194.5 q100.5 -74.5 278.5 -74.5 q157 0 256.5 78.5 q99.5 78.5 99.5 192.5 l188 0 l2 -6 q4 -205 -158 -312 q-162 -107 -388 -107 q-258 0 -417 113.5 q-159 113.5 -159 313.5 Z" /><glyph glyph-name="uni2000" unicode="&#x2000;" d="" /><glyph glyph-name="uni2001" unicode="&#x2001;" d="" /><glyph glyph-name="uni2002" unicode="&#x2002;" d="" /><glyph glyph-name="uni2003" unicode="&#x2003;" d="" /><glyph glyph-name="uni2004" unicode="&#x2004;" d="" /><glyph glyph-name="uni2005" unicode="&#x2005;" d="" /><glyph glyph-name="uni2006" unicode="&#x2006;" d="" /><glyph glyph-name="uni2007" unicode="&#x2007;" d="" /><glyph glyph-name="uni2008" unicode="&#x2008;" d="" /><glyph glyph-name="uni2009" unicode="&#x2009;" d="" /><glyph glyph-name="uni200A" unicode="&#x200a;" d="" /><glyph glyph-name="uni200B" unicode="&#x200b;" d="" /><glyph glyph-name="quoteleft" unicode="&#x2018;" d="M96 1196 q0 99 48 206 q48 107 132 177 l112 -73 q-48 -73 -71.5 -147.5 q-23.5 -74.5 -23.5 -159.5 l0 -179 l-197 0 l0 176 Z" /><glyph glyph-name="quoteright" unicode="&#x2019;" d="M337 1376 q0 -100 -48.5 -207 q-48.5 -107 -131.5 -176 l-112 74 q47 71 71 145.5 q24 74.5 24 160.5 l0 187 l197 0 l0 -184 Z" /><glyph glyph-name="quotesinglbase" unicode="&#x201a;" d="M327 78 q0 -98 -49 -205.5 q-49 -107.5 -132 -177.5 l-111 74 q47 72 71 146.5 q24 74.5 24 159.5 l0 174 l197 0 l0 -171 Z" /><glyph glyph-name="quotedblbase" unicode="&#x201e;" d="M327 78 q0 -98 -49 -205.5 q-49 -107.5 -132 -177.5 l-111 74 q47 72 71 146.5 q24 74.5 24 159.5 l0 174 l197 0 l0 -171 ZM634 78 q0 -98 -49 -205.5 q-49 -107.5 -132 -177.5 l-111 74 q47 72 71 146.5 q24 74.5 24 159.5 l0 174 l197 0 l0 -171 Z" /><glyph glyph-name="dagger" unicode="&#x2020;" d="M1053 926 l-400 0 l0 -926 l-197 0 l0 926 l-393 0 l0 156 l393 0 l0 374 l197 0 l0 -374 l400 0 l0 -156 Z" /><glyph glyph-name="daggerdbl" unicode="&#x2021;" d="M1060 0 l-400 0 l0 -416 l-197 0 l0 416 l-392 0 l0 154 l392 0 l0 772 l-392 0 l0 156 l392 0 l0 374 l197 0 l0 -374 l400 0 l0 -156 l-400 0 l0 -772 l400 0 l0 -154 Z" /><glyph glyph-name="bullet" unicode="&#x2022;" d="M135 793 q0 88 56 144 q56 56 150 56 q95 0 151.5 -56 q56.5 -56 56.5 -144 l0 -60 q0 -89 -56.5 -143.5 q-56.5 -54.5 -150.5 -54.5 q-95 0 -151 54.5 q-56 54.5 -56 143.5 l0 60 Z" /><glyph glyph-name="perthousand" unicode="&#x2030;" d="M831 357 q0 126 82 213 q82 87 218 87 q74 0 132.5 -31.5 q58.5 -31.5 95.5 -85.5 q37 54 95.5 85.5 q58.5 31.5 132.5 31.5 q137 0 219.5 -86.5 q82.5 -86.5 82.5 -213.5 l0 -78 q0 -128 -82 -214 q-82 -86 -218 -86 q-75 0 -134 30.5 q-59 30.5 -96 85.5 q-37 -55 -95 -85.5 q-58 -30.5 -131 -30.5 q-138 0 -220 86 q-82 86 -82 214 l0 78 ZM76 1176 q0 127 82 214 q82 87 218 87 q138 0 220 -86.5 q82 -86.5 82 -214.5 l0 -77 q0 -127 -82 -213 q-82 -86 -218 -86 q-137 0 -219.5 86 q-82.5 86 -82.5 213 l0 77 ZM977 279 q0 -75 40.5 -126.5 q40.5 -51.5 115.5 -51.5 q74 0 114 51.5 q40 51.5 40 126.5 l0 78 q0 74 -41 126 q-41 52 -115 52 q-74 0 -114 -52 q-40 -52 -40 -126 l0 -78 ZM1433 279 q0 -75 40.5 -126.5 q40.5 -51.5 115.5 -51.5 q73 0 113 51.5 q40 51.5 40 126.5 l0 78 q0 74 -40.5 126 q-40.5 52 -114.5 52 q-74 0 -114 -52 q-40 -52 -40 -126 l0 -78 ZM222 1099 q0 -74 40.5 -125.5 q40.5 -51.5 115.5 -51.5 q73 0 113.5 51 q40.5 51 40.5 126 l0 77 q0 74 -41 126.5 q-41 52.5 -115 52.5 q-74 0 -114 -52.5 q-40 -52.5 -40 -126.5 l0 -77 ZM442 110 l-109 67 l711 1138 l109 -67 l-711 -1138 Z" /><glyph glyph-name="guilsinglleft" unicode="&#x2039;" d="M256 550 l255 -398 l-148 0 l-295 389 l0 19 l295 389 l148 0 l-255 -399 Z" /><glyph glyph-name="guilsinglright" unicode="&#x203a;" d="M231 949 l295 -389 l0 -19 l-295 -389 l-148 0 l254 398 l-254 399 l148 0 Z" /><glyph glyph-name="fraction" unicode="&#x2044;" d="M151 110 l-109 67 l711 1138 l109 -67 l-711 -1138 Z" /><glyph glyph-name="uni2074" unicode="&#x2074;" d="M698 873 l149 0 l0 -129 l-149 0 l0 -184 l-172 0 l0 184 l-455 0 l-4 96 l453 637 l178 0 l0 -604 ZM257 873 l269 0 l0 377 l-6 1 l-13 -26 l-250 -352 Z" /><glyph glyph-name="nsuperior" unicode="&#x207f;" d="M286 1451 l31 -120 q36 64 91 99.5 q55 35.5 125 35.5 q122 0 189.5 -75.5 q67.5 -75.5 67.5 -231.5 l0 -508 l-180 0 l0 475 q0 102 -35.5 147.5 q-35.5 45.5 -100.5 45.5 q-53 0 -89 -27 q-36 -27 -55 -74 l0 -567 l-180 0 l0 800 l136 0 Z" /><glyph glyph-name="lira" unicode="&#x20a4;" d="M455 441 q-2 -83 -17 -158 q-15 -75 -42 -129 l551 0 l16 167 l167 0 l0 -167 l1 0 l-1 -154 l-975 0 l0 154 l10 0 q44 12 67.5 98.5 q23.5 86.5 27.5 188.5 l-169 0 l0 155 l164 0 l-6 143 l-158 0 l0 155 l152 0 l-5 146 q0 204 112 320.5 q112 116.5 300 116.5 q200 0 310 -104.5 q110 -104.5 106 -276.5 l-2 -6 l-189 0 q0 118 -63.5 175 q-63.5 57 -161.5 57 q-99 0 -157 -74.5 q-58 -74.5 -58 -207.5 l5 -146 l422 0 l0 -155 l-416 0 l5 -143 l411 0 l0 -155 l-407 0 Z" /><glyph glyph-name="peseta" unicode="&#x20a7;" d="M594 1456 q232 0 362 -124.5 q130 -124.5 130 -321.5 q0 -199 -130 -322.5 q-130 -123.5 -362 -123.5 l-157 0 l0 -409 l163 -29 l0 -126 l-523 0 l0 126 l163 29 l0 1146 l-163 29 l0 126 l163 0 l354 0 ZM437 719 l157 0 q147 0 221 83.5 q74 83.5 74 205.5 q0 123 -74 208 q-74 85 -221 85 l-157 0 l0 -582 ZM1362 1343 l0 -261 l205 0 l0 -146 l-205 0 l0 -657 q0 -76 31.5 -107 q31.5 -31 83.5 -31 q26 0 58.5 4.5 q32.5 4.5 54.5 9.5 l27 -135 q-28 -18 -82 -29.5 q-54 -11.5 -108 -11.5 q-120 0 -191 72.5 q-71 72.5 -71 227.5 l0 657 l-171 0 l0 146 l171 0 l0 261 l197 0 Z" /><glyph glyph-name="Euro" unicode="&#x20ac;" d="M905 512 l-484 0 l-2 -5 q-4 -169 81.5 -271.5 q85.5 -102.5 232.5 -102.5 q57 0 113 8.5 q56 8.5 107 25.5 l20 -157 q-56 -15 -117.5 -23 q-61.5 -8 -122.5 -8 q-231 0 -373.5 144.5 q-142.5 144.5 -142.5 388.5 l-146 0 l0 124 l146 0 l0 166 l-146 0 l0 125 l146 0 l0 15 q0 244 141.5 389.5 q141.5 145.5 372.5 145.5 q59 0 117.5 -8 q58.5 -8 124.5 -23 l-20 -159 q-53 16 -109.5 25.5 q-56.5 9.5 -112.5 9.5 q-146 0 -231.5 -103 q-85.5 -103 -85.5 -275 l0 -17 l491 0 l0 -125 l-491 0 l0 -166 l491 0 l0 -124 Z" /><glyph glyph-name="uni2105" unicode="&#x2105;" d="M632 1056 l2 -6 q4 -105 -71 -177.5 q-75 -72.5 -201 -72.5 q-129 0 -206 86 q-77 86 -77 213 l0 77 q0 127 76.5 214 q76.5 87 204.5 87 q126 0 202 -74 q76 -74 72 -177 l-2 -6 l-138 0 q0 57 -34.5 96 q-34.5 39 -99.5 39 q-65 0 -100 -52.5 q-35 -52.5 -35 -126.5 l0 -77 q0 -74 35.5 -125.5 q35.5 -51.5 101.5 -51.5 q63 0 97.5 40 q34.5 40 34.5 94 l138 0 ZM764 279 q0 -128 82.5 -214 q82.5 -86 220.5 -86 q135 0 217 86 q82 86 82 214 l0 78 q0 127 -82.5 213.5 q-82.5 86.5 -218.5 86.5 q-137 0 -219 -86.5 q-82 -86.5 -82 -213.5 l0 -78 ZM911 357 q0 74 40 126 q40 52 114 52 q74 0 114.5 -52 q40.5 -52 40.5 -126 l0 -78 q0 -76 -40 -127 q-40 -51 -113 -51 q-76 0 -116 51.5 q-40 51.5 -40 126.5 l0 78 ZM1142 1248 l-109 67 l-711 -1138 l109 -67 l711 1138 Z" /><glyph glyph-name="uni2113" unicode="&#x2113;" d="M677 -13 l-6 -2 q-199 -4 -302 115.5 q-103 119.5 -103 330.5 l0 12 q-49 -12 -99.5 -18 q-50.5 -6 -101.5 -6 l0 180 q55 0 105 6.5 q50 6.5 96 19.5 l0 473 q0 177 79.5 278 q79.5 101 218.5 101 q122 0 200 -86 q78 -86 78 -230 l0 -42 q0 -158 -102 -327 q-102 -169 -277 -270 l0 -91 q0 -145 48.5 -218 q48.5 -73 165.5 -73 l0 -153 ZM645 1117 l0 44 q0 76 -22.5 115 q-22.5 39 -58.5 39 q-51 0 -76 -54.5 q-25 -54.5 -25 -162.5 l0 -358 l6 -1 q85 64 130.5 166.5 q45.5 102.5 45.5 211.5 l0 0 Z" /><glyph glyph-name="uni2116" unicode="&#x2116;" d="M2161 361 l-559 0 l0 145 l559 0 l0 -145 ZM1536 1137 q0 148 93.5 241.5 q93.5 93.5 251.5 93.5 q158 0 252 -93.5 q94 -93.5 94 -241.5 l0 -117 q0 -149 -93.5 -241.5 q-93.5 -92.5 -250.5 -92.5 q-159 0 -253 92.5 q-94 92.5 -94 241.5 l0 117 ZM1708 1020 q0 -87 44.5 -140 q44.5 -53 130.5 -53 q83 0 127.5 53 q44.5 53 44.5 140 l0 117 q0 84 -45 138 q-45 54 -129 54 q-84 0 -128.5 -54 q-44.5 -54 -44.5 -138 l0 -117 ZM1464 1456 l0 -127 l-163 -28 l0 -1301 l-197 0 l-700 1124 l-6 -2 l0 -968 l163 -28 l0 -126 l-523 0 l0 126 l163 28 l0 1147 l-163 28 l0 127 l163 0 l197 0 l700 -1123 l6 2 l0 966 l-163 28 l0 127 l360 0 l163 0 Z" /><glyph glyph-name="trademark" unicode="&#x2122;" d="M1021 1260 l-6 2 l-150 -343 l-51 0 l-155 357 l-6 -1 l0 -356 l-93 0 l0 537 l116 0 l160 -390 l6 0 l163 390 l110 0 l0 -537 l-94 0 l0 341 ZM482 1374 l-146 0 l0 -455 l-94 0 l0 455 l-144 0 l0 82 l384 0 l0 -82 Z" /><glyph glyph-name="estimated" unicode="&#x212e;" d="M991 94 q-87 -55 -181 -84.5 q-94 -29.5 -189 -29.5 q-218 0 -371 164.5 q-153 164.5 -153 396.5 q0 226 161.5 393.5 q161.5 167.5 362.5 167.5 q207 0 351 -155 q144 -155 144 -386 l0 -47 l-768 0 l0 -328 q55 -53 125.5 -81.5 q70.5 -28.5 147.5 -28.5 q95 0 188 30 q93 30 180 92 l2 -104 ZM621 1008 q-74 0 -144.5 -32.5 q-70.5 -32.5 -128.5 -89.5 l0 -277 l540 0 l0 286 q-54 52 -123.5 82.5 q-69.5 30.5 -143.5 30.5 Z" /><glyph glyph-name="partialdiff" unicode="&#x2202;" d="M491 1519 q264 -64 425.5 -268 q161.5 -204 161.5 -503 l0 -213 q0 -245 -144 -400.5 q-144 -155.5 -359 -155.5 q-218 0 -357.5 140 q-139.5 140 -139.5 347 q0 233 125 372.5 q125 139.5 343 139.5 q95 0 178.5 -29 q83.5 -29 137.5 -81 l3 5 q-22 193 -140.5 311.5 q-118.5 118.5 -293.5 170.5 l60 164 ZM579 133 q133 0 217.5 114 q84.5 114 84.5 288 l0 129 q-36 67 -122 113 q-86 46 -213 46 q-136 0 -203.5 -100.5 q-67.5 -100.5 -67.5 -256.5 q0 -132 82 -232.5 q82 -100.5 222 -100.5 Z" /><glyph glyph-name="product" unicode="&#x220f;" d="M1486 1329 l-163 -28 l0 -1512 l-197 0 l0 1512 l-706 0 l0 -1512 l-197 0 l0 1512 l-163 28 l0 127 l1426 0 l0 -127 Z" /><glyph glyph-name="summation" unicode="&#x2211;" d="M887 577 l-579 -686 l2 -5 l703 0 l15 166 l168 0 l0 -321 l-1127 0 l0 146 l609 713 l-609 719 l0 147 l1049 0 l0 -322 l-169 0 l-15 167 l-625 0 l-2 -5 l580 -694 l0 -25 Z" /><glyph glyph-name="minus" unicode="&#x2212;" d="M989 648 l-835 0 l0 155 l835 0 l0 -155 Z" /><glyph glyph-name="radical" unicode="&#x221a;" d="M552 340 l18 -83 l6 0 l19 83 l399 1116 l201 0 l-549 -1456 l-149 0 l-248 628 l-188 0 l0 156 l328 0 l163 -444 Z" /><glyph glyph-name="infinity" unicode="&#x221e;" d="M1981 507 q0 -225 -125 -376.5 q-125 -151.5 -330 -151.5 q-166 0 -285 107.5 q-119 107.5 -198 263.5 q-81 -156 -200 -263.5 q-119 -107.5 -282 -107.5 q-206 0 -330.5 151.5 q-124.5 151.5 -124.5 376.5 l0 66 q0 224 124 376.5 q124 152.5 329 152.5 q164 0 283.5 -108 q119.5 -108 200.5 -263 q79 154 199 262.5 q120 108.5 286 108.5 q203 0 328 -153 q125 -153 125 -376 l0 -66 ZM303 507 q0 -170 65.5 -272 q65.5 -102 192.5 -102 q137 0 243 139.5 q106 139.5 133 247.5 l0 42 q-28 105 -134.5 245 q-106.5 140 -243.5 140 q-126 0 -191 -103.5 q-65 -103.5 -65 -270.5 l0 -66 ZM1783 573 q0 167 -66 270.5 q-66 103.5 -189 103.5 q-139 0 -245.5 -139 q-106.5 -139 -134.5 -246 l0 -42 q27 -109 133.5 -248 q106.5 -139 244.5 -139 q125 0 191 102.5 q66 102.5 66 271.5 l0 66 Z" /><glyph glyph-name="integral" unicode="&#x222b;" d="M347 -89 q0 -167 -86 -257.5 q-86 -90.5 -239 -90.5 q-30 0 -56 4.5 q-26 4.5 -56 13.5 l14 150 q14 -5 47 -9 q33 -4 51 -4 q59 0 93.5 51.5 q34.5 51.5 34.5 141.5 l0 1308 q0 173 90.5 267.5 q90.5 94.5 252.5 94.5 q34 0 68.5 -5.5 q34.5 -5.5 76.5 -15.5 l-25 -145 q-19 5 -41 8 q-22 3 -47 3 q-87 0 -132.5 -54.5 q-45.5 -54.5 -45.5 -152.5 l0 -1308 l0 0 Z" /><glyph glyph-name="approxequal" unicode="&#x2248;" d="M139 874 q47 68 109 107 q62 39 127 39 q69 1 101 -11 q32 -12 133 -62 q86 -44 119 -56.5 q33 -12.5 99 -12.5 q64 0 126 38.5 q62 38.5 110 107.5 l10 -174 q-48 -69 -110 -107.5 q-62 -38.5 -126 -38.5 q-66 0 -99 12.5 q-33 12.5 -119 56.5 q-101 50 -133 62 q-32 12 -101 11 q-65 0 -127 -39 q-62 -39 -109 -107 l-10 174 ZM129 447 q47 68 109 107 q62 39 127 39 q69 1 101 -11 q32 -12 133 -62 q89 -46 121 -58 q32 -12 97 -12 q64 0 126 38.5 q62 38.5 110 108.5 l10 -175 q-48 -69 -110 -107.5 q-62 -38.5 -126 -38.5 q-66 0 -99 12.5 q-33 12.5 -119 56.5 q-105 52 -135.5 63.5 q-30.5 11.5 -98.5 10.5 q-65 0 -127 -39 q-62 -39 -109 -108 l-10 175 Z" /><glyph glyph-name="notequal" unicode="&#x2260;" d="M781 987 l200 0 l0 -164 l-291 0 l-140 -252 l431 0 l0 -164 l-522 0 l-134 -242 l-87 60 l101 182 l-192 0 l0 164 l283 0 l140 252 l-423 0 l0 164 l514 0 l145 262 l88 -60 l-113 -202 Z" /><glyph glyph-name="lozenge" unicode="&#x25ca;" d="M453 1456 l149 0 l402 -729 l-398 -727 l-149 0 l-402 727 l398 729 ZM803 727 l-256 512 l-18 52 l-6 0 l-18 -52 l-249 -512 l256 -511 l17 -51 l6 0 l19 51 l249 511 Z" /><glyph glyph-name="commaaccent" unicode="&#xf6c3;" d="M348 127 q0 -102 -44.5 -207 q-44.5 -105 -126.5 -174 l-111 74 q47 71 70.5 144.5 q23.5 73.5 23.5 159.5 l0 119 l188 0 l0 -116 Z" /><glyph glyph-name="fi" unicode="&#xfb01;" d="M45 936 l0 146 l169 0 l0 117 q0 182 107 282 q107 100 296 100 q66 0 132 -16 q66 -16 152 -45 l-33 -160 q-53 21 -113 36 q-60 15 -123 15 q-118 0 -169.5 -52 q-51.5 -52 -51.5 -160 l0 -117 l617 0 l0 -928 l163 -28 l0 -126 l-523 0 l0 126 l163 28 l0 782 l-420 0 l0 -782 l163 -28 l0 -126 l-523 0 l0 126 l163 28 l0 782 l-169 0 Z" /><glyph glyph-name="fl" unicode="&#xfb02;" d="M751 126 l163 28 l0 1226 q-58 14 -119 22.5 q-61 8.5 -123 8.5 q-138 0 -199.5 -62 q-61.5 -62 -61.5 -189 l0 -78 l251 0 l0 -146 l-251 0 l0 -782 l163 -28 l0 -126 l-523 0 l0 126 l163 28 l0 782 l-144 0 l0 146 l144 0 l0 78 q0 201 117.5 311 q117.5 110 325.5 110 q86 0 170 -16 q84 -16 195 -46 l89 0 l0 -1365 l163 -28 l0 -126 l-523 0 l0 126 Z" /><glyph glyph-name="uniFEFF" unicode="&#xfeff;" d="" /><glyph glyph-name="uniFFFC" unicode="&#xfffc;" d="M877 580 q0 96 -64.5 157.5 q-64.5 61.5 -166.5 61.5 q-102 0 -166 -61.5 q-64 -61.5 -64 -157.5 l0 -112 q0 -98 64 -158.5 q64 -60.5 168 -60.5 q101 0 165 60.5 q64 60.5 64 158.5 l0 112 ZM1165 252 q92 0 144.5 39.5 q52.5 39.5 52.5 115.5 q0 45 -27 80 q-27 35 -75 48 q40 15 62 46 q22 31 22 70 q0 75 -55.5 112.5 q-55.5 37.5 -156.5 37.5 l-188 0 l0 -549 l221 0 ZM785 468 q0 -69 -37 -108 q-37 -39 -100 -39 q-66 0 -103 39 q-37 39 -37 108 l0 112 q0 68 37 107.5 q37 39.5 101 39.5 q64 0 101.5 -39.5 q37.5 -39.5 37.5 -107.5 l0 -112 ZM1739 425 q0 -44 -27.5 -71 q-27.5 -27 -67.5 -27 q-50 0 -77 22.5 q-27 22.5 -27 68.5 l-84 0 l-2 -6 q-6 -77 46.5 -117.5 q52.5 -40.5 143.5 -40.5 q81 0 134 46 q53 46 53 125 l0 378 l-92 0 l0 -378 ZM143 -398 l0 315 l113 0 l0 -202 l196 0 l0 -113 l-309 0 ZM1772 -398 l0 113 l199 0 l0 202 l111 0 l0 -315 l-310 0 ZM143 1169 l0 285 l309 0 l0 -116 l-196 0 l0 -169 l-113 0 ZM1772 1338 l0 116 l310 0 l0 -285 l-111 0 l0 169 l-199 0 ZM1165 496 l5 0 q47 -2 72.5 -25 q25.5 -23 25.5 -61 q0 -40 -26.5 -61.5 q-26.5 -21.5 -76.5 -21.5 l-126 0 l0 169 l126 0 ZM1373 1338 l0 116 l278 0 l0 -116 l-278 0 ZM974 1338 l0 116 l277 0 l0 -116 l-277 0 ZM575 1338 l0 116 l276 0 l0 -116 l-276 0 ZM1373 -398 l0 113 l278 0 l0 -113 l-278 0 ZM974 -398 l0 113 l277 0 l0 -113 l-277 0 ZM575 -398 l0 113 l276 0 l0 -113 l-276 0 ZM1039 717 l93 0 q61 0 89.5 -16 q28.5 -16 28.5 -55 q0 -40 -30 -60 q-30 -20 -88 -20 l-93 0 l0 151 ZM256 416 l-113 0 l0 252 l113 0 l0 -252 ZM256 794 l-113 0 l0 250 l113 0 l0 -250 ZM256 41 l-113 0 l0 249 l113 0 l0 -249 ZM2082 416 l-111 0 l0 252 l111 0 l0 -252 ZM2082 794 l-111 0 l0 250 l111 0 l0 -250 ZM2082 41 l-111 0 l0 249 l111 0 l0 -249 Z" /><glyph glyph-name="uniFFFD" unicode="&#xfffd;" d="M991 1618 l959 -975 l-959 -975 l-956 975 l956 975 ZM1074 402 q0 53 13 83.5 q13 30.5 53 56.5 q72 39 119 104.5 q47 65.5 47 143.5 q0 128 -84.5 203.5 q-84.5 75.5 -231.5 75.5 q-136 0 -219.5 -65 q-83.5 -65 -80.5 -195 l3 -6 l194 0 q1 51 30.5 77 q29.5 26 72.5 26 q54 0 83.5 -31.5 q29.5 -31.5 29.5 -84.5 q0 -50 -25.5 -88.5 q-25.5 -38.5 -67.5 -66.5 q-79 -55 -108.5 -100 q-29.5 -45 -29.5 -133 l202 0 ZM1074 311 l-202 0 l0 -170 l202 0 l0 170 ZM999 -551 l4 0 l0 -4 l-4 0 l0 4 ZM997 2146 l4 0 l0 -4 l-4 0 l0 4 Z" /><glyph glyph-name="Dcroat" unicode="&#x110;" d="M711 1456 q285 0 458.5 -175.5 q173.5 -175.5 173.5 -453.5 l0 -199 q0 -279 -173.5 -453.5 q-173.5 -174.5 -458.5 -174.5 l-610 0 l0 126 l163 28 l0 509 l-198 0 l0 155 l198 0 l0 483 l-163 28 l0 127 l610 0 ZM707 663 l-246 0 l0 -509 l250 0 q202 0 318.5 133 q116.5 133 116.5 341 l0 201 q0 206 -116.5 339 q-116.5 133 -318.5 133 l-250 0 l0 -483 l246 0 l0 -155 Z" /><glyph glyph-name="Eth" unicode="ð" d="M711 1456 q285 0 458.5 -175.5 q173.5 -175.5 173.5 -453.5 l0 -199 q0 -279 -173.5 -453.5 q-173.5 -174.5 -458.5 -174.5 l-610 0 l0 126 l163 28 l0 509 l-198 0 l0 155 l198 0 l0 483 l-163 28 l0 127 l610 0 ZM707 663 l-246 0 l0 -509 l250 0 q202 0 318.5 133 q116.5 133 116.5 341 l0 201 q0 206 -116.5 339 q-116.5 133 -318.5 133 l-250 0 l0 -483 l246 0 l0 -155 Z" /><glyph glyph-name="hbar" unicode="&#x127;" d="M92 126 l163 28 l0 1000 l-204 0 l0 155 l204 0 l0 96 l-163 28 l0 127 l360 0 l0 -251 l240 0 l0 -155 l-240 0 l0 -216 q56 78 137 121 q81 43 180 43 q174 0 270 -104 q96 -104 96 -320 l0 -524 l163 -28 l0 -126 l-523 0 l0 126 l163 28 l0 526 q0 134 -57.5 198 q-57.5 64 -171.5 64 q-81 0 -147.5 -38.5 q-66.5 -38.5 -109.5 -104.5 l0 -645 l163 -28 l0 -126 l-523 0 l0 126 Z" /><glyph glyph-name="Tbar" unicode="&#x166;" d="M1247 1456 l0 -322 l-168 0 l-15 167 l-323 0 l0 -402 l230 0 l0 -155 l-230 0 l0 -590 l163 -28 l0 -126 l-523 0 l0 126 l163 28 l0 590 l-214 0 l0 155 l214 0 l0 402 l-324 0 l-14 -167 l-169 0 l0 322 l1210 0 Z" /><glyph glyph-name="tbar" unicode="&#x167;" d="M433 1343 l0 -261 l205 0 l0 -146 l-205 0 l0 -181 l206 0 l0 -155 l-206 0 l0 -321 q0 -76 31.5 -107 q31.5 -31 83.5 -31 q26 0 58.5 4.5 q32.5 4.5 54.5 9.5 l27 -135 q-28 -18 -82 -29.5 q-54 -11.5 -108 -11.5 q-120 0 -191 72.5 q-71 72.5 -71 227.5 l0 321 l-238 0 l0 155 l238 0 l0 181 l-171 0 l0 146 l171 0 l0 261 l197 0 Z" /><glyph glyph-name="uni0405" unicode="&#x405;" d="M1125 1026 l-149 0 l-37 208 q-45 38 -120 63 q-75 25 -174 25 q-157 0 -241 -66.5 q-84 -66.5 -84 -173.5 q0 -95 85.5 -158.5 q85.5 -63.5 276.5 -111.5 q230 -57 349.5 -168 q119.5 -111 119.5 -275 q0 -176 -143.5 -283 q-143.5 -107 -375.5 -107 q-168 0 -298.5 55 q-130.5 55 -212.5 144 l0 271 l148 0 l38 -209 q57 -47 136 -77 q79 -30 189 -30 q149 0 235.5 63 q86.5 63 86.5 171 q0 100 -75 167.5 q-75 67.5 -265 113.5 q-231 55 -361 162 q-130 107 -130 269 q0 171 145 284.5 q145 113.5 377 113.5 q153 0 278.5 -52.5 q125.5 -52.5 201.5 -127.5 l0 -271 Z" /><glyph glyph-name="uni0441" unicode="&#x441;" d="M575 133 q98 0 172.5 60.5 q74.5 60.5 74.5 148.5 l177 0 l2 -6 q5 -140 -124.5 -248.5 q-129.5 -108.5 -301.5 -108.5 q-236 0 -360.5 154 q-124.5 154 -124.5 387 l0 42 q0 231 125 385.5 q125 154.5 360 154.5 q130 0 233.5 -43 q103.5 -43 171.5 -118 l9 -240 l-157 0 l-43 170 q-35 34 -90 55 q-55 21 -124 21 q-155 0 -221.5 -111.5 q-66.5 -111.5 -66.5 -273.5 l0 -42 q0 -166 66 -276.5 q66 -110.5 222 -110.5 Z" /><glyph glyph-name="dcroat" unicode="&#x111;" d="M818 129 q-53 -74 -129.5 -112 q-76.5 -38 -177.5 -38 q-198 0 -309.5 143.5 q-111.5 143.5 -111.5 377.5 l0 21 q0 261 111.5 421 q111.5 160 311.5 160 q96 0 169.5 -35.5 q73.5 -35.5 125.5 -102.5 l0 199 l-251 0 l0 155 l251 0 l0 87 l-163 28 l0 127 l360 0 l0 -242 l193 0 l0 -155 l-193 0 l0 -1009 l163 -28 l0 -126 l-334 0 l-16 129 ZM287 500 q0 -163 67 -262 q67 -99 207 -99 q88 0 148 40 q60 40 99 113 l0 502 q-38 68 -99 108 q-61 40 -146 40 q-141 0 -208.5 -117 q-67.5 -117 -67.5 -304 l0 -21 Z" /><glyph glyph-name="uni048C" unicode="&#x48c;" d="M430 1170 l231 0 l0 -155 l-231 0 l0 -155 l359 0 q234 0 362.5 -115 q128.5 -115 128.5 -311 q0 -197 -129 -315.5 q-129 -118.5 -362 -118.5 l-719 0 l0 126 l163 28 l0 861 l-213 0 l0 155 l213 0 l0 131 l-163 28 l0 127 l360 0 l0 -286 ZM430 705 l0 -551 l359 0 q148 0 221 80 q73 80 73 202 q0 118 -73 193.5 q-73 75.5 -221 75.5 l-359 0 ZM593 1456 l0 -127 l-163 -28 l0 155 l163 0 Z" /><glyph glyph-name="uni0462" unicode="&#x462;" d="M430 1170 l231 0 l0 -155 l-231 0 l0 -155 l359 0 q234 0 362.5 -115 q128.5 -115 128.5 -311 q0 -197 -129 -315.5 q-129 -118.5 -362 -118.5 l-719 0 l0 126 l163 28 l0 861 l-213 0 l0 155 l213 0 l0 131 l-163 28 l0 127 l360 0 l0 -286 ZM430 705 l0 -551 l359 0 q148 0 221 80 q73 80 73 202 q0 118 -73 193.5 q-73 75.5 -221 75.5 l-359 0 ZM593 1456 l0 -127 l-163 -28 l0 155 l163 0 Z" /><glyph glyph-name="uni0492" unicode="&#x492;" d="M77 126 l163 28 l0 520 l-193 0 l0 155 l193 0 l0 472 l-163 28 l0 127 l1056 0 l0 -322 l-169 0 l-15 167 l-512 0 l0 -472 l251 0 l0 -155 l-251 0 l0 -520 l163 -28 l0 -126 l-523 0 l0 126 Z" /><glyph glyph-name="uni049E" unicode="&#x49e;" d="M91 126 l163 28 l0 863 l-217 0 l0 155 l217 0 l0 129 l-163 28 l0 127 l523 0 l0 -127 l-163 -28 l0 -129 l227 0 l0 -155 l-227 0 l0 -205 l151 0 l407 503 l-109 14 l0 127 l462 0 l0 -127 l-137 -25 l-445 -552 l486 -601 l137 -25 l0 -126 l-478 0 l0 126 l111 14 l-415 517 l-170 0 l0 -503 l163 -28 l0 -126 l-523 0 l0 126 Z" /><glyph glyph-name="uni049F" unicode="&#x49f;" d="M39 1158 l0 155 l206 0 l0 92 l-163 28 l0 127 l360 0 l0 -247 l238 0 l0 -155 l-238 0 l0 -502 l126 0 l231 286 l-99 13 l0 127 l453 0 l0 -127 l-132 -26 l-285 -340 l347 -439 l123 -24 l0 -126 l-449 0 l0 126 l101 13 l-287 360 l-129 0 l0 -345 l163 -28 l0 -126 l-523 0 l0 126 l163 28 l0 1004 l-206 0 Z" /><glyph glyph-name="uni04B0" unicode="&#x4b0;" d="M555 1329 l-157 -19 l305 -594 l305 594 l-156 19 l0 127 l500 0 l0 -127 l-123 -19 l-341 -629 l138 0 l0 -155 l-222 0 l-7 -14 l0 -358 l163 -28 l0 -126 l-522 0 l0 126 l163 28 l0 372 l-216 0 l0 155 l132 0 l-340 629 l-122 19 l0 127 l500 0 l0 -127 Z" /><glyph glyph-name="uni04B1" unicode="&#x4b1;" d="M879 -13 l-226 0 l0 -403 l-197 0 l0 403 l-218 0 l0 155 l186 0 l-255 722 q-14 39 -30.5 50.5 q-16.5 11.5 -49.5 11.5 q-9 0 -15 -1 q-6 -1 -36 -6 l-18 149 q25 11 64.5 18.5 q39.5 7.5 70.5 7.5 q72 0 108 -28 q36 -28 64 -113 l208 -634 l17 -84 l6 0 l21 84 l201 615 l-135 21 l0 127 l418 0 l0 -127 l-86 -14 l-294 -799 l196 0 l0 -155 Z" /><glyph glyph-name="uni04FE" unicode="&#x4fe;" d="M1009 666 l-145 0 l365 -518 l132 -22 l0 -126 l-471 0 l0 126 l115 13 l-302 448 l-303 -448 l117 -13 l0 -126 l-474 0 l0 126 l131 22 l366 518 l-172 0 l0 155 l158 0 l-342 486 l-131 22 l0 127 l472 0 l0 -127 l-117 -13 l291 -437 l294 437 l-117 13 l0 127 l475 0 l0 -127 l-131 -22 l-343 -486 l132 0 l0 -155 Z" /><glyph glyph-name="uni04FF" unicode="&#x4ff;" d="M920 478 l-150 0 l-3 -5 l259 -324 l117 -23 l0 -126 l-424 0 l0 126 l96 11 l-212 272 l-212 -272 l97 -11 l0 -126 l-426 0 l0 126 l116 23 l259 324 l-3 5 l-155 0 l0 155 l142 0 l3 5 l-236 294 l-116 23 l0 127 l424 0 l0 -127 l-98 -12 l202 -260 l203 261 l-97 11 l0 127 l427 0 l0 -127 l-116 -23 l-236 -294 l3 -5 l136 0 l0 -155 Z" /><glyph glyph-name=".null" unicode="" d="" /><glyph glyph-name="exclam" unicode="!" d="M340 478 l-197 0 l0 978 l197 0 l0 -978 ZM340 0 l-197 0 l0 204 l197 0 l0 -204 Z" /></font>
</defs>
</svg>
